<svg xmlns="http://www.w3.org/2000/svg" width="1095.456" height="729.005" viewBox="0 0 1095.456 729.005">
  <g id="Group_2373" data-name="Group 2373" transform="translate(-19 -111.14)">
    <path id="Path_834" data-name="Path 834" d="M981.616,656.53H227.06a1.673,1.673,0,0,1-1.638-1.64,1.638,1.638,0,0,1,1.638-1.64H981.616a1.638,1.638,0,0,1,1.636,1.64,1.67,1.67,0,0,1-1.636,1.64Z" transform="translate(46.233 121.418)" fill="#d1d3d4"/>
    <path id="Path_835" data-name="Path 835" d="M969.114,200.884v455.5a31.887,31.887,0,0,1-31.858,31.885H267.042a31.885,31.885,0,0,1-31.856-31.885v-455.5A31.837,31.837,0,0,1,267.042,169H937.257a31.871,31.871,0,0,1,31.858,31.883Z" transform="translate(48.42 12.959)" fill="#fff"/>
    <path id="Path_836" data-name="Path 836" d="M937.56,690.049H267.28a33.394,33.394,0,0,1-33.3-33.394V201.16a33.36,33.36,0,0,1,33.3-33.392H937.56a33.36,33.36,0,0,1,33.3,33.392v455.5a33.394,33.394,0,0,1-33.3,33.394ZM267.28,170.753a30.412,30.412,0,0,0-30.319,30.407v455.5a30.379,30.379,0,0,0,30.319,30.375H937.56a30.379,30.379,0,0,0,30.318-30.375V201.16a30.412,30.412,0,0,0-30.318-30.407Z" transform="translate(48.15 12.683)" fill="#231f20"/>
    <path id="Path_837" data-name="Path 837" d="M969.114,200.884V605.339H235.186V200.884A31.837,31.837,0,0,1,267.042,169H937.257a31.871,31.871,0,0,1,31.858,31.883Z" transform="translate(48.42 12.959)" fill="#231f20"/>
    <path id="Path_838" data-name="Path 838" d="M924.732,199.9H259.822V568.339h664.91Z" transform="translate(53.938 19.88)" fill="#fff"/>
    <path id="Path_839" data-name="Path 839" d="M925.007,570.124H260.1a1.505,1.505,0,0,1-1.065-.442,1.5,1.5,0,0,1-.441-1.067V200.177a1.509,1.509,0,0,1,1.505-1.509h664.91a1.509,1.509,0,0,1,1.474,1.509V568.615a1.509,1.509,0,0,1-1.474,1.509Zm-663.436-3.018H923.5V201.522H261.571Z" transform="translate(53.662 19.604)" fill="#231f20"/>
    <path id="Path_840" data-name="Path 840" d="M538.092,579.367a16.91,16.91,0,1,1,11.935-4.946,16.875,16.875,0,0,1-11.935,4.946Zm0-30.539a13.665,13.665,0,1,0,9.622,4.006A13.605,13.605,0,0,0,538.092,548.827Z" transform="translate(112.478 97.288)" fill="#d1d3d4"/>
    <path id="Path_841" data-name="Path 841" d="M669.215,651.1c-8.677-10.366-10.15-57.8-10.15-57.8H465.695s-1.474,47.431-10.15,57.8-42.793,27.259-42.793,33.261,5.075,8.2,29.729,8.2h239.8c24.655,0,29.729-2.2,29.729-8.2S677.923,661.4,669.215,651.1Z" transform="translate(88.19 107.99)" fill="#fff"/>
    <path id="Path_842" data-name="Path 842" d="M682.554,694.256h-239.8c-24.523,0-31.236-2.066-31.236-9.677,0-3.8,7.433-8.824,20.595-17.417,9.136-5.937,18.6-12.1,22.559-16.8,8.251-9.841,9.822-56.42,9.822-56.879A1.509,1.509,0,0,1,466,592.012H659.373a1.509,1.509,0,0,1,1.507,1.476c0,.459,1.539,47.005,9.822,56.879,3.961,4.692,13.423,10.858,22.558,16.8,13.1,8.594,20.595,13.613,20.595,17.417C713.79,692.19,707.077,694.256,682.554,694.256ZM467.411,595.03c-.328,8.232-2.292,47.531-10.444,57.24-4.224,5.051-13.882,11.349-23.214,17.417-7.662,4.986-19.22,12.531-19.22,14.892,0,3.936,2,6.561,28.224,6.561h239.8c26.193,0,28.224-2.755,28.224-6.561,0-2.361-11.558-9.841-19.22-14.892-9.33-6.068-18.99-12.366-23.213-17.417-8.153-9.841-10.117-49.008-10.445-57.24Z" transform="translate(87.914 107.702)" fill="#231f20"/>
    <path id="Path_843" data-name="Path 843" d="M376.676,246.678c-.262,5.74,13.1,116.252-99.729,185.236,0,0,65.483,50.483,99.729,127.93H259.822V237.1Z" transform="translate(53.938 28.212)" fill="#fff"/>
    <path id="Path_844" data-name="Path 844" d="M376.951,561.793H260.1a1.51,1.51,0,0,1-.576-.115,1.528,1.528,0,0,1-.488-.327,1.518,1.518,0,0,1-.441-1.067V237.377a1.478,1.478,0,0,1,.491-1.116,1.543,1.543,0,0,1,1.114-.393l116.853,9.578a1.509,1.509,0,0,1,1.376,1.575v2.23c1.767,35.591-4.355,124.387-98.715,183.1,10.509,8.562,67.61,57.174,98.486,127.338a1.448,1.448,0,0,1,0,1.411,1.542,1.542,0,0,1-1.245.689Zm-115.38-3.018H374.627C340.772,483.624,276.96,433.9,276.4,433.4a1.508,1.508,0,0,1,0-2.492c94.721-57.831,100.843-146.2,99.074-181.53v-1.049l-113.907-9.218Z" transform="translate(53.662 27.935)" fill="#231f20"/>
    <path id="Path_845" data-name="Path 845" d="M315.509,505.592a1.637,1.637,0,0,1-1.636-1.574C312.4,472.1,288.007,424.439,273.6,398.853c-1.244-2.165-1.244-2.165-1.146-2.755a1.605,1.605,0,0,1,1.193-1.377,1.568,1.568,0,0,1,.64-.033,1.64,1.64,0,0,1,1.277,1.016l.884,1.542c14.537,25.848,39.29,74.036,40.7,106.641a1.636,1.636,0,0,1-.433,1.179,1.635,1.635,0,0,1-.516.377,1.616,1.616,0,0,1-.622.149Z" transform="translate(56.758 63.503)" fill="#d1d3d4"/>
    <path id="Path_846" data-name="Path 846" d="M270.209,405.606a1.671,1.671,0,0,1-1.015-.361,1.64,1.64,0,0,1-.3-2.3c.229-.262,20.987-27,33.167-85.286a1.673,1.673,0,1,1,3.274.689c-12.377,59.044-32.938,85.517-33.789,86.6a1.7,1.7,0,0,1-1.343.656Z" transform="translate(55.894 45.957)" fill="#d1d3d4"/>
    <path id="Path_847" data-name="Path 847" d="M259.822,387.93h24.459a9.831,9.831,0,0,1,9.821,9.841h0a9.831,9.831,0,0,1-9.821,9.841H259.822Z" transform="translate(53.938 61.993)" fill="#fff"/>
    <path id="Path_848" data-name="Path 848" d="M284.556,409.471H260.1a1.475,1.475,0,0,1-1.505-1.476V388.313a1.533,1.533,0,0,1,.114-.578,1.515,1.515,0,0,1,.327-.488,1.5,1.5,0,0,1,1.065-.443h24.459a11.481,11.481,0,0,1,0,22.962Zm-22.919-2.985h22.919a8.4,8.4,0,0,0,0-16.794H261.637Z" transform="translate(53.662 61.741)" fill="#231f20"/>
    <path id="Path_849" data-name="Path 849" d="M305.243,363a1.674,1.674,0,0,1-1.375-2.526c13.1-20.861,24.031-57.436,24.162-57.8a1.639,1.639,0,0,1,2.031-1.083,1.673,1.673,0,0,1,1.113,2.034c0,.361-11.328,37.329-24.522,58.585a1.639,1.639,0,0,1-1.409.787Z" transform="translate(63.75 42.641)" fill="#d1d3d4"/>
    <path id="Path_850" data-name="Path 850" d="M707.661,246.678c.229,5.74-13.1,116.252,99.7,185.236,0,0-65.482,50.483-99.7,127.93H824.481V237.1Z" transform="translate(154.156 28.212)" fill="#fff"/>
    <path id="Path_851" data-name="Path 851" d="M824.78,561.8H707.926a1.476,1.476,0,0,1-1.375-2.1c30.875-70.166,87.976-118.778,98.486-127.34-94.361-58.716-100.483-147.611-98.715-183.1v-2.23a1.507,1.507,0,0,1,1.375-1.574l116.952-9.612a1.524,1.524,0,0,1,.6.083,1.506,1.506,0,0,1,.517.311,1.473,1.473,0,0,1,.491,1.115V560.257a1.514,1.514,0,0,1-.1.58,1.534,1.534,0,0,1-.316.5,1.507,1.507,0,0,1-1.056.465Zm-114.594-3.018H823.241V239.121L709.5,248.339v1.05c-1.767,35.328,4.355,123.7,99.076,181.529a1.51,1.51,0,0,1,0,2.493c-.688.492-64.5,50.22-98.355,125.37Z" transform="translate(153.89 27.929)" fill="#231f20"/>
    <path id="Path_852" data-name="Path 852" d="M755.44,505.59a1.641,1.641,0,0,1-1.472-1.072,1.667,1.667,0,0,1-.1-.633c1.507-32.638,26.193-80.826,40.73-106.674l.852-1.509a1.7,1.7,0,0,1,.523-.678,1.68,1.68,0,0,1,.787-.338,1.67,1.67,0,0,1,1.833,1.41c0,.59,0,.59-1.147,2.755-14.438,25.553-38.831,73.249-40.3,105.165a1.639,1.639,0,0,1-.149.623,1.636,1.636,0,0,1-1.553.951Z" transform="translate(164.59 63.504)" fill="#d1d3d4"/>
    <path id="Path_853" data-name="Path 853" d="M799.373,405.592a1.7,1.7,0,0,1-1.278-.623c-.851-1.082-21.412-27.488-33.788-86.6a1.609,1.609,0,0,1,0-.64,1.629,1.629,0,0,1,.241-.592,1.629,1.629,0,0,1,1.039-.7,1.588,1.588,0,0,1,.635-.017,1.606,1.606,0,0,1,1.3,1.263c12.18,58.257,32.937,84.991,33.167,85.286a1.645,1.645,0,0,1-.262,2.3A1.835,1.835,0,0,1,799.373,405.592Z" transform="translate(166.921 45.971)" fill="#d1d3d4"/>
    <path id="Path_854" data-name="Path 854" d="M809.308,407.693H784.85a9.841,9.841,0,0,1,0-19.681h24.457Z" transform="translate(169.33 62.012)" fill="#fff"/>
    <path id="Path_855" data-name="Path 855" d="M809.641,409.525H785.15a11.481,11.481,0,0,1,0-22.962h24.49a1.509,1.509,0,0,1,1.474,1.509v19.682a1.473,1.473,0,0,1-1.474,1.771Zm-24.49-19.681a8.4,8.4,0,0,0,0,16.8h22.919v-16.8Z" transform="translate(169.03 61.687)" fill="#231f20"/>
    <path id="Path_856" data-name="Path 856" d="M762.651,362.968a1.541,1.541,0,0,1-1.375-.787c-13.1-21.257-24.426-58.224-24.523-58.585a1.637,1.637,0,0,1,3.11-.951c0,.361,11.2,36.936,24.164,57.8a1.675,1.675,0,0,1,.029,1.656,1.667,1.667,0,0,1-1.405.87Z" transform="translate(160.751 42.672)" fill="#d1d3d4"/>
    <path id="Path_857" data-name="Path 857" d="M285.436,112.373H909.877a30.182,30.182,0,0,1,30.155,30.21v12.662H255.249V142.583a30.167,30.167,0,0,1,30.187-30.21Z" transform="translate(52.913 0.276)" fill="#30c684"/>
    <path id="Path_858" data-name="Path 858" d="M940.316,156.9H255.5a1.508,1.508,0,0,1-1.375-1.378V142.859a31.722,31.722,0,0,1,31.661-31.719H910.129a31.723,31.723,0,0,1,31.563,31.719v12.662a1.508,1.508,0,0,1-1.376,1.378Zm-683.31-3.018h681.8V142.859a28.74,28.74,0,0,0-28.681-28.735H285.688a28.74,28.74,0,0,0-28.681,28.735Z" transform="translate(52.662 0)" fill="#231f20"/>
    <path id="Path_859" data-name="Path 859" d="M267.927,147.293l-85.225,95h61.587l73.045-95Z" transform="translate(36.665 8.097)" fill="#fff"/>
    <path id="Path_860" data-name="Path 860" d="M244.562,244.041H182.976a1.506,1.506,0,0,1-1.376-.886,1.545,1.545,0,0,1,.262-1.607l85.258-94.963a1.438,1.438,0,0,1,1.114-.525H317.64a1.474,1.474,0,0,1,1.343.853,1.442,1.442,0,0,1,0,1.574l-73.012,95.127a1.539,1.539,0,0,1-1.409.427Zm-58.246-2.985h57.527l70.721-91.847H268.725Z" transform="translate(36.392 7.821)" fill="#231f20"/>
    <path id="Path_861" data-name="Path 861" d="M306.064,147.293l-73.045,95h61.62l60.866-95Z" transform="translate(47.934 8.097)" fill="#30c684"/>
    <path id="Path_862" data-name="Path 862" d="M294.922,244.065H233.3a1.54,1.54,0,0,1-1.343-.82,1.611,1.611,0,0,1,0-1.575l73.047-95.127a1.513,1.513,0,0,1,.523-.427,1.528,1.528,0,0,1,.656-.163h49.439a1.511,1.511,0,0,1,1.245,2.329l-60.7,95.094a1.476,1.476,0,0,1-1.244.689Zm-58.705-2.985h57.756l58.934-91.847H307.069Z" transform="translate(47.651 7.797)" fill="#231f20"/>
    <path id="Path_863" data-name="Path 863" d="M344.229,147.293l-60.867,95h61.587l48.719-95Z" transform="translate(59.21 8.097)" fill="#fff"/>
    <path id="Path_864" data-name="Path 864" d="M345.227,244.065H283.64a1.523,1.523,0,0,1-1.31-2.3L343.2,146.642a1.532,1.532,0,0,1,1.277-.689h49.439a1.493,1.493,0,0,1,.714.2,1.508,1.508,0,0,1,.531.519,1.481,1.481,0,0,1,0,1.476l-48.686,95.127a1.515,1.515,0,0,1-.52.557,1.5,1.5,0,0,1-.725.231Zm-58.934-2.985h57.953l47.179-91.847H345.26Z" transform="translate(58.932 7.797)" fill="#231f20"/>
    <path id="Path_865" data-name="Path 865" d="M382.4,147.293l-48.719,95H395.3l36.506-95Z" transform="translate(70.479 8.097)" fill="#30c684"/>
    <path id="Path_866" data-name="Path 866" d="M395.568,244.065h-61.62a1.54,1.54,0,0,1-1.277-.689,1.481,1.481,0,0,1,0-1.476l48.686-95.127a1.5,1.5,0,0,1,1.343-.82h49.407a1.5,1.5,0,0,1,.7.173,1.51,1.51,0,0,1,.712,1.86l-36.506,95.127a1.409,1.409,0,0,1-1.441.952ZM336.4,241.08h58.117l35.361-91.847h-46.33Z" transform="translate(70.21 7.797)" fill="#231f20"/>
    <path id="Path_867" data-name="Path 867" d="M420.529,147.293l-36.506,95H445.61l24.359-95Z" transform="translate(81.755 8.097)" fill="#fff"/>
    <path id="Path_868" data-name="Path 868" d="M445.886,244.041H384.3a1.477,1.477,0,0,1-1.408-2.034L419.4,147.044a1.509,1.509,0,0,1,1.409-.984h49.439a1.532,1.532,0,0,1,.656.163,1.549,1.549,0,0,1,.523.427,1.511,1.511,0,0,1,.262,1.28l-24.36,95.127a1.474,1.474,0,0,1-1.441.984Zm-59.425-2.985h58.213l23.574-91.847H421.756Z" transform="translate(81.477 7.821)" fill="#231f20"/>
    <path id="Path_869" data-name="Path 869" d="M458.7,147.293l-24.359,95h61.62l12.147-95Z" transform="translate(93.025 8.097)" fill="#30c684"/>
    <path id="Path_870" data-name="Path 870" d="M496.232,244.041h-61.62a1.5,1.5,0,0,1-1.179-.558,1.48,1.48,0,0,1-.262-1.312l24.359-94.963a1.508,1.508,0,0,1,1.441-1.148h49.407a1.564,1.564,0,0,1,1.146.525,1.711,1.711,0,0,1,.361,1.181l-12.18,95.127a1.476,1.476,0,0,1-1.474,1.148Zm-59.556-2.985h58.344l11.787-91.847H460.119Z" transform="translate(92.751 7.821)" fill="#231f20"/>
    <path id="Path_871" data-name="Path 871" d="M496.83,147.293l-12.147,95H546.27v-95Z" transform="translate(104.3 8.097)" fill="#fff"/>
    <path id="Path_872" data-name="Path 872" d="M546.546,244.065H484.959a1.47,1.47,0,0,1-1.146-.492,1.707,1.707,0,0,1-.36-1.181l12.18-95.127a1.474,1.474,0,0,1,1.472-1.312h49.44a1.541,1.541,0,0,1,1.505,1.509v95.127a1.507,1.507,0,0,1-1.505,1.476Zm-59.884-2.985h58.377V149.233H498.449Z" transform="translate(104.024 7.797)" fill="#231f20"/>
    <path id="Path_873" data-name="Path 873" d="M535,147.293v95h61.587l-12.148-95Z" transform="translate(115.57 8.097)" fill="#30c684"/>
    <path id="Path_874" data-name="Path 874" d="M596.862,244.018H535.276a1.507,1.507,0,0,1-1.505-1.476V147.676a1.539,1.539,0,0,1,1.505-1.509h49.44a1.474,1.474,0,0,1,1.472,1.312l12.18,95.127a1.7,1.7,0,0,1-.36,1.181,1.461,1.461,0,0,1-.55.234,1.481,1.481,0,0,1-.6,0Zm-60.08-2.985H595.16l-11.787-91.847H536.782Z" transform="translate(115.294 7.845)" fill="#231f20"/>
    <path id="Path_875" data-name="Path 875" d="M575.392,147.293l12.147,95h61.619l-24.359-95Z" transform="translate(124.617 8.097)" fill="#fff"/>
    <path id="Path_876" data-name="Path 876" d="M649.435,244.065H587.816a1.476,1.476,0,0,1-1.474-1.28l-12.18-95.127a1.7,1.7,0,0,1,.36-1.18,1.569,1.569,0,0,1,1.147-.525h49.406a1.5,1.5,0,0,1,1.441,1.148l24.359,94.963a1.469,1.469,0,0,1-.262,1.312,1.5,1.5,0,0,1-1.179.689Zm-60.276-2.985h58.213L623.8,149.233H577.371Z" transform="translate(124.34 7.797)" fill="#231f20"/>
    <path id="Path_877" data-name="Path 877" d="M615.758,147.293l24.359,95H701.7l-36.507-95Z" transform="translate(133.658 8.097)" fill="#30c684"/>
    <path id="Path_878" data-name="Path 878" d="M701.976,244.065H640.389a1.474,1.474,0,0,1-1.441-1.116l-24.359-95.127a1.489,1.489,0,0,1-.013-.669,1.517,1.517,0,0,1,1.454-1.2h49.44a1.509,1.509,0,0,1,1.408.984l36.506,95.127a1.473,1.473,0,0,1-1.408,2.033ZM641.6,241.08h58.279L664.52,149.233H618.027Z" transform="translate(133.386 7.797)" fill="#231f20"/>
    <path id="Path_879" data-name="Path 879" d="M656.151,147.293l36.506,95h61.62l-48.719-95Z" transform="translate(142.704 8.097)" fill="#fff"/>
    <path id="Path_880" data-name="Path 880" d="M754.551,244.065H692.932a1.408,1.408,0,0,1-1.376-.952l-36.539-95.127a1.507,1.507,0,0,1,1.408-2.033h49.407a1.5,1.5,0,0,1,1.343.82L755.86,241.9a1.481,1.481,0,0,1,0,1.476,1.536,1.536,0,0,1-1.31.689ZM693.98,241.08H752.1l-47.147-91.847h-46.2Z" transform="translate(142.429 7.797)" fill="#231f20"/>
    <path id="Path_881" data-name="Path 881" d="M696.517,147.293l48.719,95h61.585l-60.866-95Z" transform="translate(151.745 8.097)" fill="#30c684"/>
    <path id="Path_882" data-name="Path 882" d="M807.084,244.041H745.5a1.5,1.5,0,0,1-1.343-.788l-48.621-94.995a1.443,1.443,0,0,1,.531-2,1.508,1.508,0,0,1,.714-.2h49.439a1.54,1.54,0,0,1,1.277.689l60.867,95.127a1.417,1.417,0,0,1-1.278,2.165Zm-60.669-2.985h57.951l-58.934-91.847H699.268Z" transform="translate(151.481 7.821)" fill="#231f20"/>
    <path id="Path_883" data-name="Path 883" d="M736.909,147.293l60.866,95h61.62l-73.046-95Z" transform="translate(160.792 8.097)" fill="#fff"/>
    <path id="Path_884" data-name="Path 884" d="M859.665,244.041H798.047a1.476,1.476,0,0,1-1.245-.689l-60.866-94.963a1.508,1.508,0,0,1,1.244-2.329h49.44a1.532,1.532,0,0,1,.656.163,1.549,1.549,0,0,1,.523.427l73.046,95.127a1.612,1.612,0,0,1,.164,1.575,1.541,1.541,0,0,1-1.343.689Zm-60.8-2.985h57.888L786,149.209H740.16Z" transform="translate(160.52 7.821)" fill="#231f20"/>
    <path id="Path_885" data-name="Path 885" d="M777.3,147.293l73.046,95h61.587l-85.225-95Z" transform="translate(169.839 8.097)" fill="#30c684"/>
    <path id="Path_886" data-name="Path 886" d="M912.2,244.065H850.61a1.537,1.537,0,0,1-1.212-.558L776.353,148.38a1.508,1.508,0,0,1,0-1.574,1.437,1.437,0,0,1,1.341-.853H827.1a1.438,1.438,0,0,1,1.114.525l85.126,95.127a1.542,1.542,0,0,1,.263,1.607,1.505,1.505,0,0,1-1.409.853Zm-60.866-2.985h57.527l-82.541-91.847H780.477Z" transform="translate(169.577 7.797)" fill="#231f20"/>
    <path id="Path_887" data-name="Path 887" d="M182.7,224.906h61.587v52.123A30.117,30.117,0,0,1,214.2,307.174h-1.409A30.117,30.117,0,0,1,182.7,277.029Z" transform="translate(36.665 25.48)" fill="#fff"/>
    <path id="Path_888" data-name="Path 888" d="M214.475,308.959h-1.409a31.657,31.657,0,0,1-31.594-31.654V225.182a1.541,1.541,0,0,1,1.505-1.509h61.587a1.506,1.506,0,0,1,1.505,1.509v52.123a31.657,31.657,0,0,1-31.594,31.654Zm-29.991-82.3v50.647a28.64,28.64,0,0,0,28.582,28.636h1.409a28.676,28.676,0,0,0,28.615-28.636V226.658Z" transform="translate(36.389 25.204)" fill="#231f20"/>
    <path id="Path_889" data-name="Path 889" d="M233.019,224.906h61.587v52.123a30.117,30.117,0,0,1-30.089,30.145h-1.409a30.117,30.117,0,0,1-30.089-30.145Z" transform="translate(47.934 25.48)" fill="#30c684"/>
    <path id="Path_890" data-name="Path 890" d="M264.785,308.959h-1.375a31.657,31.657,0,0,1-31.6-31.654V225.182a1.507,1.507,0,0,1,1.474-1.509h61.618a1.507,1.507,0,0,1,1.474,1.509v52.123a31.659,31.659,0,0,1-31.6,31.654Zm-29.991-82.3v50.647a28.676,28.676,0,0,0,28.617,28.636h1.375A28.676,28.676,0,0,0,293.4,277.305V226.658Z" transform="translate(47.665 25.204)" fill="#231f20"/>
    <path id="Path_891" data-name="Path 891" d="M283.362,224.906h61.587v52.123a30.117,30.117,0,0,1-30.089,30.145h-1.408a30.119,30.119,0,0,1-30.09-30.145Z" transform="translate(59.21 25.48)" fill="#fff"/>
    <path id="Path_892" data-name="Path 892" d="M315.135,308.959h-1.408a31.657,31.657,0,0,1-31.6-31.654V225.182a1.541,1.541,0,0,1,1.505-1.509h61.587a1.541,1.541,0,0,1,1.507,1.509v52.123a31.66,31.66,0,0,1-31.6,31.654Zm-30.024-82.3v50.647a28.676,28.676,0,0,0,28.617,28.636h1.408a28.676,28.676,0,0,0,28.615-28.636V226.658Z" transform="translate(58.934 25.204)" fill="#231f20"/>
    <path id="Path_893" data-name="Path 893" d="M333.679,224.906h61.587v52.123a30.117,30.117,0,0,1-30.089,30.145h-1.409a30.117,30.117,0,0,1-30.089-30.145V224.906Z" transform="translate(70.479 25.48)" fill="#30c684"/>
    <path id="Path_894" data-name="Path 894" d="M365.446,308.959H364.07a31.657,31.657,0,0,1-31.594-31.654V225.182a1.5,1.5,0,0,1,1.472-1.509h61.62a1.507,1.507,0,0,1,1.474,1.509v52.123a31.66,31.66,0,0,1-31.6,31.654Zm-29.991-82.3v50.647a28.676,28.676,0,0,0,28.615,28.636h1.376a28.676,28.676,0,0,0,28.615-28.636V226.658Z" transform="translate(70.21 25.204)" fill="#231f20"/>
    <path id="Path_895" data-name="Path 895" d="M384.023,224.906H445.61v52.123a30.12,30.12,0,0,1-30.09,30.145h-1.408a30.117,30.117,0,0,1-30.089-30.145Z" transform="translate(81.755 25.48)" fill="#fff"/>
    <path id="Path_896" data-name="Path 896" d="M415.8,308.959h-1.408a31.657,31.657,0,0,1-31.6-31.654V225.182a1.507,1.507,0,0,1,1.505-1.509h61.587a1.541,1.541,0,0,1,1.507,1.509v52.123a31.66,31.66,0,0,1-31.6,31.654Zm-30.057-82.3v50.647a28.676,28.676,0,0,0,28.616,28.636h1.408a28.642,28.642,0,0,0,28.583-28.636V226.658Z" transform="translate(81.479 25.204)" fill="#231f20"/>
    <path id="Path_897" data-name="Path 897" d="M434.339,224.906h61.587v52.123a30.117,30.117,0,0,1-30.056,30.145h-1.409a30.117,30.117,0,0,1-30.089-30.145V224.906Z" transform="translate(93.025 25.48)" fill="#30c684"/>
    <path id="Path_898" data-name="Path 898" d="M466.139,308.959h-1.376a31.657,31.657,0,0,1-31.627-31.654V225.182a1.541,1.541,0,0,1,1.505-1.509h61.62a1.5,1.5,0,0,1,1.472,1.509v52.123a31.657,31.657,0,0,1-31.594,31.654Zm-29.991-82.3v50.647a28.676,28.676,0,0,0,28.615,28.636h1.376a28.676,28.676,0,0,0,28.615-28.636V226.658Z" transform="translate(92.755 25.204)" fill="#231f20"/>
    <path id="Path_899" data-name="Path 899" d="M484.683,224.906H546.27v52.123a30.117,30.117,0,0,1-30.089,30.145h-1.409a30.117,30.117,0,0,1-30.089-30.145Z" transform="translate(104.3 25.48)" fill="#fff"/>
    <path id="Path_900" data-name="Path 900" d="M516.456,308.959h-1.409a31.657,31.657,0,0,1-31.594-31.654V225.182a1.507,1.507,0,0,1,1.506-1.509h61.587a1.541,1.541,0,0,1,1.505,1.509v52.123a31.657,31.657,0,0,1-31.594,31.654Zm-30.024-82.3v50.647a28.676,28.676,0,0,0,28.615,28.636h1.409a28.64,28.64,0,0,0,28.582-28.636V226.658Z" transform="translate(104.025 25.204)" fill="#231f20"/>
    <path id="Path_901" data-name="Path 901" d="M535,224.906h61.587v52.123a30.12,30.12,0,0,1-30.09,30.145h-1.408A30.117,30.117,0,0,1,535,277.029Z" transform="translate(115.57 25.48)" fill="#30c684"/>
    <path id="Path_902" data-name="Path 902" d="M566.773,308.959h-1.409a31.657,31.657,0,0,1-31.594-31.654V225.182a1.539,1.539,0,0,1,1.505-1.509h61.587a1.506,1.506,0,0,1,1.505,1.509v52.123a31.657,31.657,0,0,1-31.594,31.654Zm-29.991-82.3v50.647a28.64,28.64,0,0,0,28.582,28.636h1.409a28.676,28.676,0,0,0,28.615-28.636V226.658Z" transform="translate(115.294 25.204)" fill="#231f20"/>
    <path id="Path_903" data-name="Path 903" d="M585.317,224.906H646.9v52.123a30.12,30.12,0,0,1-30.09,30.145h-1.407a30.117,30.117,0,0,1-30.089-30.145Z" transform="translate(126.84 25.48)" fill="#fff"/>
    <path id="Path_904" data-name="Path 904" d="M617.088,308.959h-1.408a31.659,31.659,0,0,1-31.6-31.654V225.182a1.507,1.507,0,0,1,1.474-1.509h61.62a1.541,1.541,0,0,1,1.505,1.509v52.123a31.657,31.657,0,0,1-31.6,31.654Zm-29.991-82.3v50.647a28.676,28.676,0,0,0,28.617,28.636h1.375A28.676,28.676,0,0,0,645.7,277.305V226.658Z" transform="translate(126.564 25.204)" fill="#231f20"/>
    <path id="Path_905" data-name="Path 905" d="M635.66,224.906h61.587v52.123a30.118,30.118,0,0,1-30.089,30.145h-1.409a30.118,30.118,0,0,1-30.089-30.145Z" transform="translate(138.115 25.48)" fill="#30c684"/>
    <path id="Path_906" data-name="Path 906" d="M667.433,308.959h-1.409a31.657,31.657,0,0,1-31.594-31.654V225.182a1.541,1.541,0,0,1,1.505-1.509h61.587a1.506,1.506,0,0,1,1.505,1.509v52.123a31.657,31.657,0,0,1-31.594,31.654Zm-29.991-82.3v50.647a28.64,28.64,0,0,0,28.582,28.636h1.409a28.673,28.673,0,0,0,28.648-28.636V226.658Z" transform="translate(137.839 25.204)" fill="#231f20"/>
    <path id="Path_907" data-name="Path 907" d="M685.977,224.906h61.587v52.123a30.119,30.119,0,0,1-30.09,30.145h-1.408a30.117,30.117,0,0,1-30.089-30.145Z" transform="translate(149.385 25.48)" fill="#fff"/>
    <path id="Path_908" data-name="Path 908" d="M717.737,308.959h-1.375A31.658,31.658,0,0,1,684.8,277.305V225.182a1.507,1.507,0,0,1,1.474-1.509h61.618a1.507,1.507,0,0,1,1.474,1.509v52.123a31.657,31.657,0,0,1-31.629,31.654Zm-29.991-82.3v50.647a28.676,28.676,0,0,0,28.616,28.636h1.375a28.676,28.676,0,0,0,28.617-28.636V226.658Z" transform="translate(149.121 25.204)" fill="#231f20"/>
    <path id="Path_909" data-name="Path 909" d="M736.32,224.906h61.587v52.123a30.117,30.117,0,0,1-30.089,30.145H766.41a30.119,30.119,0,0,1-30.09-30.145Z" transform="translate(160.66 25.48)" fill="#30c684"/>
    <path id="Path_910" data-name="Path 910" d="M768.093,308.959h-1.408a31.657,31.657,0,0,1-31.6-31.654V225.182a1.541,1.541,0,0,1,1.505-1.509h61.587a1.541,1.541,0,0,1,1.507,1.509v52.123a31.659,31.659,0,0,1-31.6,31.654Zm-30.024-82.3v50.647a28.676,28.676,0,0,0,28.616,28.636h1.408a28.642,28.642,0,0,0,28.583-28.636V226.658Z" transform="translate(160.385 25.204)" fill="#231f20"/>
    <path id="Path_911" data-name="Path 911" d="M786.637,224.906h61.585v52.123a30.117,30.117,0,0,1-30.089,30.145h-1.408a30.117,30.117,0,0,1-30.089-30.145Z" transform="translate(171.93 25.48)" fill="#fff"/>
    <path id="Path_912" data-name="Path 912" d="M818.409,308.959h-1.375a31.658,31.658,0,0,1-31.629-31.654V225.182a1.541,1.541,0,0,1,1.507-1.509h61.618A1.507,1.507,0,0,1,850,225.182v52.123a31.66,31.66,0,0,1-31.6,31.654Zm-29.991-82.3v50.647a28.676,28.676,0,0,0,28.616,28.636h1.375a28.676,28.676,0,0,0,28.616-28.636V226.658Z" transform="translate(171.654 25.204)" fill="#231f20"/>
    <path id="Path_913" data-name="Path 913" d="M836.98,224.906h61.587v52.123a30.117,30.117,0,0,1-30.089,30.145H867.07a30.12,30.12,0,0,1-30.09-30.145Z" transform="translate(183.205 25.48)" fill="#30c684"/>
    <path id="Path_914" data-name="Path 914" d="M868.753,308.959h-1.407a31.657,31.657,0,0,1-31.6-31.654V225.182a1.506,1.506,0,0,1,1.507-1.509h61.585a1.541,1.541,0,0,1,1.507,1.509v52.123a31.66,31.66,0,0,1-31.6,31.654Zm-30.024-82.3v50.647a28.676,28.676,0,0,0,28.617,28.636h1.407a28.642,28.642,0,0,0,28.583-28.636V226.658Z" transform="translate(182.93 25.204)" fill="#231f20"/>
    <path id="Path_915" data-name="Path 915" d="M769.166,444.134H373.782a1.636,1.636,0,0,1-1.636-1.64V318.041a1.636,1.636,0,0,1,1.636-1.64H769.166a1.638,1.638,0,0,1,1.638,1.64V442.493a1.638,1.638,0,0,1-1.638,1.64Zm-393.746-3.28H767.53V319.681H375.42Z" transform="translate(79.095 45.973)" fill="#d1d3d4"/>
    <path id="Path_916" data-name="Path 916" d="M769.166,514.035a1.636,1.636,0,0,1-1.636-1.64V434.358H375.42V512.4a1.637,1.637,0,1,1-3.274,0V432.718a1.638,1.638,0,0,1,1.636-1.64H769.166a1.64,1.64,0,0,1,1.638,1.64V512.4a1.638,1.638,0,0,1-1.638,1.64Z" transform="translate(79.095 71.657)" fill="#d1d3d4"/>
    <path id="Path_917" data-name="Path 917" d="M892.618,690.323H741.189l19.58-120.582h112.27Z" transform="translate(161.751 102.714)" fill="#fff"/>
    <path id="Path_918" data-name="Path 918" d="M892.921,692.263H741.492a1.7,1.7,0,0,1-1.277-.557,1.774,1.774,0,0,1-.361-1.345L759.5,569.779a1.675,1.675,0,0,1,1.638-1.378h112.27a1.672,1.672,0,0,1,1.636,1.378l19.645,120.582a1.639,1.639,0,0,1-.393,1.345,1.6,1.6,0,0,1-.619.447,1.577,1.577,0,0,1-.755.11Zm-149.53-3.28H891.021l-19.055-117.3H762.446Z" transform="translate(161.448 102.414)" fill="#231f20"/>
    <path id="Path_919" data-name="Path 919" d="M775.566,593.49H775.3a1.672,1.672,0,0,1-1.343-1.9c.327-1.968,8.284-48.647,35.622-48.647s35.261,46.679,35.589,48.647a1.644,1.644,0,0,1-3.241.557c0-.459-7.826-45.923-32.348-45.923s-32.315,45.464-32.381,45.923a1.672,1.672,0,0,1-1.636,1.345Z" transform="translate(169.086 96.712)" fill="#231f20"/>
    <path id="Path_920" data-name="Path 920" d="M797.982,691.624H693.734L707.19,608.6h77.3Z" transform="translate(151.122 111.418)" fill="#fff"/>
    <path id="Path_921" data-name="Path 921" d="M798.285,693.571H694.037a1.706,1.706,0,0,1-1.638-1.9l13.62-83.056a1.607,1.607,0,0,1,1.6-1.378h77.3a1.607,1.607,0,0,1,1.6,1.378l13.489,82.99a1.638,1.638,0,0,1-1.6,1.9Zm-102.317-3.28H796.352L783.42,610.58H708.9Z" transform="translate(150.82 111.112)" fill="#231f20"/>
    <path id="Path_922" data-name="Path 922" d="M764.291,625.635a1.639,1.639,0,0,1-1.6-1.378c0-.328-5.3-31.162-21.773-31.162s-21.739,30.834-21.805,31.162a1.658,1.658,0,1,1-3.274-.524c.229-1.378,5.762-33.919,25.014-33.919s24.786,32.541,25.014,33.919a1.61,1.61,0,0,1-.029.64,1.632,1.632,0,0,1-.744,1.012,1.627,1.627,0,0,1-.6.217Z" transform="translate(156.067 107.21)" fill="#231f20"/>
    <path id="Path_923" data-name="Path 923" d="M719.146,345.784H513.5a1.64,1.64,0,0,1-1.638-1.64,1.673,1.673,0,0,1,1.638-1.64H719.146a1.671,1.671,0,0,1,1.636,1.64,1.64,1.64,0,0,1-1.636,1.64Z" transform="translate(110.387 51.819)" fill="#d1d3d4"/>
    <path id="Path_924" data-name="Path 924" d="M719.146,364.383H513.5a1.638,1.638,0,0,1-1.638-1.64,1.673,1.673,0,0,1,1.638-1.64H719.146a1.671,1.671,0,0,1,1.636,1.64,1.638,1.638,0,0,1-1.636,1.64Z" transform="translate(110.387 55.985)" fill="#d1d3d4"/>
    <path id="Path_925" data-name="Path 925" d="M492.5,510.782h-.327a1.627,1.627,0,0,1-.588-.236,1.615,1.615,0,0,1-.69-1.666l4.028-20.3a1.6,1.6,0,0,1,1.015-1.214,1.7,1.7,0,0,1,1.572.23l9.822,7.348,12.932-14.466a143.713,143.713,0,0,0-18.3-19.451,65.649,65.649,0,0,0-19.416-11.678,56.877,56.877,0,0,1-48.85,0,126.589,126.589,0,0,0-16.666,8.168,68,68,0,0,0-19.841,19.845l10.575,14.236,11.853-5.609a1.61,1.61,0,0,1,1.441,0,1.64,1.64,0,0,1,.851,1.214l3.274,21.716a1.64,1.64,0,0,1-1.343,1.869,1.7,1.7,0,0,1-1.9-1.377l-3.012-19.682-11.067,5.248a1.671,1.671,0,0,1-2.029-.492l-12.049-16.4a1.578,1.578,0,0,1,0-1.837c.393-.623,9.463-15.056,21.642-21.88a109.293,109.293,0,0,1,17.942-8.66,1.6,1.6,0,0,1,1.441.2s8.087,5.379,23.279,5.379,23.246-5.314,23.312-5.379a1.669,1.669,0,0,1,1.408-.23A66.155,66.155,0,0,1,504.093,458.2a146.942,146.942,0,0,1,19.645,21.058,1.677,1.677,0,0,1,0,2.1l-14.832,16.6a1.7,1.7,0,0,1-2.226.23l-8.873-6.56-3.536,17.713a1.6,1.6,0,0,1-1.141,1.386,1.579,1.579,0,0,1-.628.058Z" transform="translate(83.876 74.911)" fill="#d1d3d4"/>
    <path id="Path_926" data-name="Path 926" d="M448.254,470.191c-16.371,0-22.69-21.353-22.919-22.273A1.653,1.653,0,0,1,428.51,447c0,.2,5.862,19.681,19.645,19.91,15.389,0,25.538-19.976,25.637-20.173a1.634,1.634,0,0,1,2.193-.754,1.673,1.673,0,0,1,.72,2.2C476.215,449.1,465.508,470.191,448.254,470.191Z" transform="translate(90.996 74.958)" fill="#d1d3d4"/>
    <path id="Path_927" data-name="Path 927" d="M685.241,376.942H626.83a10.52,10.52,0,0,0-10.51,10.53v.032a10.519,10.519,0,0,0,10.51,10.53h58.411A10.519,10.519,0,0,0,695.75,387.5v-.032A10.52,10.52,0,0,0,685.241,376.942Z" transform="translate(133.783 59.532)" fill="#30c684"/>
    <path id="Path_928" data-name="Path 928" d="M719.146,463.517H513.5a1.64,1.64,0,0,1-1.638-1.64,1.673,1.673,0,0,1,1.638-1.64H719.146a1.671,1.671,0,0,1,1.636,1.64,1.64,1.64,0,0,1-1.636,1.64Z" transform="translate(110.387 78.188)" fill="#d1d3d4"/>
    <path id="Path_929" data-name="Path 929" d="M679.43,482.115H513.5a1.638,1.638,0,0,1-1.638-1.64,1.675,1.675,0,0,1,1.638-1.64H679.43a1.673,1.673,0,0,1,1.636,1.64,1.638,1.638,0,0,1-1.636,1.64Z" transform="translate(110.387 82.354)" fill="#d1d3d4"/>
    <path id="Path_930" data-name="Path 930" d="M497.395,415.148H456.8a1.606,1.606,0,0,1-1.6-1.476L453.03,393.4l-3.536,20.4a1.6,1.6,0,0,1-1.6,1.344H409.844a1.695,1.695,0,0,1-1.244-.557,1.6,1.6,0,0,1-.393-1.279l8.937-74.725a1.64,1.64,0,0,1,1.638-1.443h69.8a1.672,1.672,0,0,1,1.636,1.443l8.808,74.659a1.611,1.611,0,0,1-.393,1.279,1.693,1.693,0,0,1-1.244.623Zm-39.29-3.28H495.4l-8.415-71.443H420.223l-8.546,71.443h34.8l5.3-30.571a1.672,1.672,0,0,1,1.636-1.378,1.639,1.639,0,0,1,1.572,1.476Z" transform="translate(87.169 50.619)" fill="#d1d3d4"/>
    <path id="Path_931" data-name="Path 931" d="M487.892,350.206H415.861a1.64,1.64,0,0,1,0-3.28h72.031a1.64,1.64,0,0,1,1.636,1.64,1.67,1.67,0,0,1-1.636,1.64Z" transform="translate(88.519 52.81)" fill="#d1d3d4"/>
    <path id="Path_932" data-name="Path 932" d="M455.163,360.761a1.67,1.67,0,0,1-1.507-1.017l-5.042-13.055-7.269,12.17a1.7,1.7,0,0,1-2.259.557,1.656,1.656,0,0,1-.476-.432,1.632,1.632,0,0,1-.273-.583,1.648,1.648,0,0,1,.192-1.248l8.939-14.958a1.507,1.507,0,0,1,1.539-.787,1.635,1.635,0,0,1,1.409,1.017l6.548,16.139a1.65,1.65,0,0,1,.116.629,1.673,1.673,0,0,1-.133.627,1.65,1.65,0,0,1-.9.876A1.339,1.339,0,0,1,455.163,360.761Z" transform="translate(93.909 51.57)" fill="#d1d3d4"/>
    <path id="Path_933" data-name="Path 933" d="M463.267,493.273a8.955,8.955,0,1,1,3.433-.683A8.955,8.955,0,0,1,463.267,493.273Zm0-14.7a5.691,5.691,0,1,0,2.18.435,5.691,5.691,0,0,0-2.18-.435Z" transform="translate(97.494 81.561)" fill="#d1d3d4"/>
    <path id="Path_934" data-name="Path 934" d="M236.523,721.417H348.531l-12.278-162.8H224.245Z" transform="translate(45.969 100.223)" fill="#231f20"/>
    <path id="Path_935" data-name="Path 935" d="M204.717,721.417H316.725l23.9-162.8H228.619Z" transform="translate(41.596 100.223)" fill="#fff"/>
    <path id="Path_936" data-name="Path 936" d="M317,723.2H204.989a1.55,1.55,0,0,1-1.426-1.075,1.447,1.447,0,0,1-.048-.63l23.9-162.832a1.441,1.441,0,0,1,1.474-1.279H340.767a1.516,1.516,0,0,1,.613.143,1.5,1.5,0,0,1,.5.382,1.446,1.446,0,0,1,.36,1.181l-23.9,162.831A1.474,1.474,0,0,1,317,723.2Zm-110.273-2.984H315.688l23.476-159.847H230.2Z" transform="translate(41.323 99.947)" fill="#231f20"/>
    <path id="Path_937" data-name="Path 937" d="M297.216,699.3H219.652a1.672,1.672,0,0,1-.679-.166,1.7,1.7,0,0,1-.557-.425,1.711,1.711,0,0,1-.4-1.312l19.645-125.8a1.607,1.607,0,0,1,1.6-1.377h78.579a1.694,1.694,0,0,1,.681.148,1.712,1.712,0,0,1,.564.409,1.8,1.8,0,0,1,.317.636,1.775,1.775,0,0,1,.043.709l-20.89,125.8a1.64,1.64,0,0,1-1.341,1.378Zm-75.535-3.28h74.126L316.173,573.5h-75.3Z" transform="translate(44.571 102.822)" fill="#d1d3d4"/>
    <path id="Path_938" data-name="Path 938" d="M292.915,597.651H244.982a1.64,1.64,0,0,1,0-3.28h47.933a1.636,1.636,0,0,1,1.636,1.64,1.671,1.671,0,0,1-1.636,1.64Z" transform="translate(50.247 108.231)" fill="#d1d3d4"/>
    <path id="Path_939" data-name="Path 939" d="M284.093,613.114H242.708a1.673,1.673,0,0,1-1.638-1.64,1.638,1.638,0,0,1,1.638-1.64h41.385a1.64,1.64,0,0,1,0,3.28Z" transform="translate(49.738 111.694)" fill="#d1d3d4"/>
    <path id="Path_940" data-name="Path 940" d="M288.368,629.7H240.435a1.64,1.64,0,0,1,0-3.28h47.933a1.64,1.64,0,0,1,0,3.28Z" transform="translate(49.229 115.409)" fill="#d1d3d4"/>
    <path id="Path_941" data-name="Path 941" d="M279.579,645.167H238.161a1.638,1.638,0,0,1-1.638-1.64,1.673,1.673,0,0,1,1.638-1.64h41.418a1.67,1.67,0,0,1,1.636,1.64,1.638,1.638,0,0,1-1.636,1.64Z" transform="translate(48.719 118.873)" fill="#d1d3d4"/>
    <path id="Path_942" data-name="Path 942" d="M132.807,370.371a11.459,11.459,0,0,0,3.148,9.445,9.213,9.213,0,0,1,2.977-7.84,13.5,13.5,0,0,1,7.368-3.105,14.847,14.847,0,0,0-.707,4.926,4.846,4.846,0,0,0,2.248,4.048,5.439,5.439,0,0,0,3.405.128c4.841-.964,9.617-2.72,14.542-2.527a12.36,12.36,0,0,1,11.694,8.224,9.064,9.064,0,0,1,4.841,5.355,21.865,21.865,0,0,1,1.155,13.235,31.615,31.615,0,0,1-4.026,9.317,34.148,34.148,0,0,1-11.115,12.186,11.953,11.953,0,0,1-6.554,1.949c-8.267-.406-16.64-10.537-22.658-16.256a38.156,38.156,0,0,1-11.243-22.83C127.346,380.8,128.652,374.291,132.807,370.371Z" transform="translate(24.361 57.725)" fill="#fff"/>
    <path id="Path_943" data-name="Path 943" d="M162.494,427h-.449c-7.218-.343-14.307-7.474-19.983-13.214-1.177-1.2-2.312-2.334-3.362-3.319a39.381,39.381,0,0,1-11.586-23.558c-.663-7,1.306-13.428,5.247-17.133a1.11,1.11,0,0,1,1.22-.171,1.132,1.132,0,0,1,.579,1.092,10.7,10.7,0,0,0,1.135,6.275,10.534,10.534,0,0,1,3.213-5.568,14.258,14.258,0,0,1,7.924-3.384,1.088,1.088,0,0,1,.942.343,1.111,1.111,0,0,1,.235.985,14.51,14.51,0,0,0-.663,4.562,3.767,3.767,0,0,0,1.649,3.169,4.556,4.556,0,0,0,2.742,0c1.392-.278,2.783-.621,4.176-.963a37.518,37.518,0,0,1,10.6-1.585,13.513,13.513,0,0,1,12.529,8.567,10.539,10.539,0,0,1,4.926,5.761,22.8,22.8,0,0,1,1.242,13.879,31.942,31.942,0,0,1-4.133,9.616A34.943,34.943,0,0,1,169.2,424.92a13.352,13.352,0,0,1-6.7,2.077Zm-30.476-53.541a20.627,20.627,0,0,0-2.763,13.236,37,37,0,0,0,10.923,22.144c1.049,1.007,2.141,2.142,3.405,3.384,5.419,5.461,12.164,12.272,18.568,12.571a11,11,0,0,0,5.953-1.8,32.907,32.907,0,0,0,10.709-11.821,30.5,30.5,0,0,0,3.876-8.995,21.194,21.194,0,0,0-1.114-12.571,8.431,8.431,0,0,0-4.176-4.755,1.088,1.088,0,0,1-.706-.728c-1.392-4.925-6.425-7.281-10.709-7.453a35.019,35.019,0,0,0-10,1.52c-1.414.343-2.848.707-4.284.985a6.426,6.426,0,0,1-4.111-.235,5.913,5.913,0,0,1-2.827-4.926,12.827,12.827,0,0,1,.343-3.64,11.436,11.436,0,0,0-5.268,2.526,8.037,8.037,0,0,0-2.635,6.9,1.089,1.089,0,0,1-.578,1.113,1.116,1.116,0,0,1-.651.1,1.128,1.128,0,0,1-.591-.289,12.208,12.208,0,0,1-3.47-7.218Z" transform="translate(24.186 57.531)" fill="#231f20"/>
    <path id="Path_944" data-name="Path 944" d="M193.034,517.9s0,29.041.942,51.85-6.1,146.233-6.1,146.233l-22.144.535-16.535-147.09-28.783,148.8-28.228-2.248S107,530.9,107.6,511.11Z" transform="translate(16.391 89.582)" fill="#231f20"/>
    <path id="Path_945" data-name="Path 945" d="M120.583,719.346,92.292,717.1a1.012,1.012,0,0,1-.664-.343.985.985,0,0,1-.214-.685c.15-1.842,14.82-185.275,15.419-204.807a.944.944,0,0,1,.646-.878.963.963,0,0,1,.382-.044l85.41,6.789a.965.965,0,0,1,.878.943c0,.3,0,29.3.942,51.807s-6.039,145.1-6.1,146.319a.957.957,0,0,1-.288.625.968.968,0,0,1-.633.274l-22.145.535a1.026,1.026,0,0,1-.941-.835L149.045,575.855l-27.628,142.72a.933.933,0,0,1-.288.525.944.944,0,0,1-.547.246Zm-27.221-4.07,26.45,2.142,28.634-147.967a.963.963,0,0,1,.964-.771.913.913,0,0,1,.608.246.924.924,0,0,1,.291.589l16.448,146.3,20.389-.493c.641-11.093,7.024-123.788,6.06-145.268-.9-20.367-.942-46-.963-51.015L108.718,512.4C107.733,535.463,94.5,701.185,93.362,715.277Z" transform="translate(16.218 89.409)" fill="#231f20"/>
    <path id="Path_946" data-name="Path 946" d="M174.662,678.493s21.417,14.521,17.819,16.019-41.313,0-41.313,0l1.349-15.483" transform="translate(29.602 127.072)" fill="#fff"/>
    <path id="Path_947" data-name="Path 947" d="M179.909,696.445c-11.351,0-26.107-.557-28.591-.665a1.136,1.136,0,0,1-.75-.363.986.986,0,0,1-.257-.793l1.35-15.484a1.091,1.091,0,0,1,1.155-.984,1.043,1.043,0,0,1,.4.113,1.058,1.058,0,0,1,.524.628,1.058,1.058,0,0,1,.039.415l-1.242,14.371c14.006.536,35.531,1.007,39.321.171-1.157-2.141-9.766-8.93-17.6-14.285a1.07,1.07,0,0,1-.3-1.477,1.085,1.085,0,0,1,.688-.455,1.1,1.1,0,0,1,.811.155c7.11,4.841,18.974,13.428,18.674,16.533a1.623,1.623,0,0,1-1.027,1.371,62.816,62.816,0,0,1-13.193.75Z" transform="translate(29.409 126.875)" fill="#231f20"/>
    <path id="Path_948" data-name="Path 948" d="M123.979,680.742s-.879,12.85-2.7,13.065-46.881,2.313-44.975-.471,19.468-14.842,19.468-14.842" transform="translate(12.822 127.072)" fill="#fff"/>
    <path id="Path_949" data-name="Path 949" d="M91.867,696.059c-8.417,0-15.548-.386-16.319-1.693a1.305,1.305,0,0,1,0-1.434c1.949-2.87,17.947-13.879,19.768-15.12a1.049,1.049,0,0,1,1.478.257,1.069,1.069,0,0,1-.278,1.5,221.409,221.409,0,0,0-18.483,13.771c6.189,1.242,38.764,0,43.068-.386.771-1.135,1.628-7.045,1.971-12.1a1.074,1.074,0,1,1,2.142.151c-.942,13.749-2.913,13.985-3.641,14.071C121.357,695.095,105.038,696.059,91.867,696.059Z" transform="translate(12.617 126.875)" fill="#231f20"/>
    <path id="Path_950" data-name="Path 950" d="M119.288,428.87s14.285-12.273,40.221-8.568c13.385,1.95,20.945,1.328,33.5,11.459l-2.142,106.526s-61.98,8.995-88.986-4.476Z" transform="translate(18.562 69.088)" fill="#30c684"/>
    <path id="Path_951" data-name="Path 951" d="M141.27,427.215l-2.612,14.564s.685,6.982,10.836,6.425,12.85-6.939,12.85-6.939l3.9-27.328s-4-8.052,1.049-23.28c0,0-17.133,4.562-31.269,0a231.045,231.045,0,0,0-3.769,25.379C132,423.832,141.27,427.215,141.27,427.215Z" transform="translate(25.365 62.604)" fill="#fff"/>
    <path id="Path_952" data-name="Path 952" d="M148.666,449.515c-10.023,0-10.88-7.388-10.88-7.453a1.364,1.364,0,0,1,0-.3l2.463-13.706c-2.42-1.093-9.123-4.776-8.887-11.822a231.3,231.3,0,0,1,3.791-25.571,1.078,1.078,0,0,1,.184-.408,1.108,1.108,0,0,1,.33-.3,1.137,1.137,0,0,1,.878,0c13.622,4.412,30.5,0,30.669,0a1.031,1.031,0,0,1,1.049.3,1.071,1.071,0,0,1,.236,1.071c-4.841,14.542-1.157,22.38-1.114,22.466a1.248,1.248,0,0,1,.107.622l-3.833,27.22a1.065,1.065,0,0,1,0,.279c-.106.278-3.062,7.024-13.771,7.581Zm-8.717-7.538c.151.879,1.35,5.783,9.7,5.376s11.437-5.333,11.865-6.168l3.833-26.878c-.685-1.606-3.277-9.081.557-21.952-4.712,1.006-17.476,3.148-28.849-.106a208.841,208.841,0,0,0-3.534,24.05c-.235,6.875,8.224,10.045,8.31,10.088a1.07,1.07,0,0,1,.685,1.2Z" transform="translate(25.164 62.427)" fill="#231f20"/>
    <path id="Path_953" data-name="Path 953" d="M156.531,409.149a6.553,6.553,0,0,1,2.805-3,11.651,11.651,0,0,1,3.727-1.07,4.684,4.684,0,0,1,2.141,0,3.974,3.974,0,0,1,1.285.77,4.994,4.994,0,0,1,1.863,2.892,5.981,5.981,0,0,1-.386,2.805,11.946,11.946,0,0,1-1.306,2.805,7.819,7.819,0,0,1-10.944,2.142" transform="translate(30.621 65.807)" fill="#fff"/>
    <path id="Path_954" data-name="Path 954" d="M160.351,419.093a8.873,8.873,0,0,1-5.055-1.563,1.073,1.073,0,0,1-.289-1.488,1.07,1.07,0,0,1,.684-.453,1.069,1.069,0,0,1,.8.163,6.961,6.961,0,0,0,5.1,1.093,6.88,6.88,0,0,0,4.283-2.891,10.526,10.526,0,0,0,1.177-2.549,5.127,5.127,0,0,0,.365-2.291,4.1,4.1,0,0,0-1.5-2.142,2.988,2.988,0,0,0-.92-.557,3.578,3.578,0,0,0-1.65,0,10.722,10.722,0,0,0-3.383.942,5.417,5.417,0,0,0-2.25,2.421,1.069,1.069,0,0,1-2.048-.471,1.04,1.04,0,0,1,.1-.408,7.458,7.458,0,0,1,3.256-3.405,12.813,12.813,0,0,1,4.068-1.177,5.678,5.678,0,0,1,2.613,0,5.113,5.113,0,0,1,1.649.985,5.946,5.946,0,0,1,2.142,3.534,7.1,7.1,0,0,1-.449,3.319,12.833,12.833,0,0,1-1.436,3.062,8.894,8.894,0,0,1-5.717,3.791,8.442,8.442,0,0,1-1.542.086Z" transform="translate(30.421 65.629)" fill="#231f20"/>
    <path id="Path_955" data-name="Path 955" d="M140.651,401.243s-6.745,6.425-5.846,7.967,4.454,1.477,4.454,1.477" transform="translate(25.919 64.975)" fill="#fff"/>
    <path id="Path_956" data-name="Path 956" d="M139.224,411.957c-1.071,0-4.091-.171-5.139-2.012s1.157-4.647,6.039-9.295a1.076,1.076,0,0,1,1.479,1.563c-2.978,2.805-5.59,6.018-5.612,6.853.322.493,2.142.793,3.448.75a1.07,1.07,0,1,1,0,2.141Z" transform="translate(25.719 64.776)" fill="#231f20"/>
    <path id="Path_957" data-name="Path 957" d="M149.819,399.319a3.384,3.384,0,0,0-5.633-1.006" transform="translate(28.038 64.072)" fill="#fff"/>
    <path id="Path_958" data-name="Path 958" d="M150.029,400.58a1.095,1.095,0,0,1-.964-.578h0a3.162,3.162,0,0,0-1.841-1.585,2.5,2.5,0,0,0-2.142.878,1.072,1.072,0,0,1-1.173.235,1.1,1.1,0,0,1-.349-.235,1.052,1.052,0,0,1,0-1.5A4.561,4.561,0,0,1,147.5,396.4a5.225,5.225,0,0,1,3.341,2.7,1.074,1.074,0,0,1-.034,1.045,1.073,1.073,0,0,1-.908.518Z" transform="translate(27.828 63.882)" fill="#231f20"/>
    <path id="Path_959" data-name="Path 959" d="M141.127,397.743s-.857-2.656-4.8-.193Z" transform="translate(26.278 63.914)" fill="#fff"/>
    <path id="Path_960" data-name="Path 960" d="M141.323,399a1.049,1.049,0,0,1-1.006-.728.8.8,0,0,0-.208-.282.835.835,0,0,0-.306-.169c-.343-.129-1.136-.171-2.7.814a1.069,1.069,0,0,1-1.477-.321,1.036,1.036,0,0,1-.155-.392,1.049,1.049,0,0,1,.186-.8,1.029,1.029,0,0,1,.312-.283,5.373,5.373,0,0,1,4.6-1.028,2.994,2.994,0,0,1,1.756,1.777,1.046,1.046,0,0,1,.055.416,1.017,1.017,0,0,1-.111.4,1.049,1.049,0,0,1-.261.329,1.038,1.038,0,0,1-.368.2.86.86,0,0,1-.322.065Z" transform="translate(26.083 63.725)" fill="#231f20"/>
    <path id="Path_961" data-name="Path 961" d="M139.878,420.584s7.581,1.179,11.437-.321c0,0-4.284,8.2-12.85,9.1Z" transform="translate(26.757 69.235)" fill="#231f20"/>
    <path id="Path_962" data-name="Path 962" d="M138.694,430.632a1.075,1.075,0,0,1-.81-.379,1.079,1.079,0,0,1-.214-.405,1.052,1.052,0,0,1-.024-.458l1.434-8.781a1.048,1.048,0,0,1,.142-.392,1.065,1.065,0,0,1,.283-.3,1.043,1.043,0,0,1,.379-.171,1.059,1.059,0,0,1,.416-.01s7.346,1.114,10.88-.279a1.091,1.091,0,0,1,1.179.279,1.072,1.072,0,0,1,.149,1.22c-.171.343-4.647,8.717-13.706,9.658Zm2.313-8.567-1.028,6.3a16.511,16.511,0,0,0,9.209-6.168,36.87,36.87,0,0,1-8.246-.214Z" transform="translate(26.57 69.038)" fill="#231f20"/>
    <path id="Path_963" data-name="Path 963" d="M100.206,428.458l-1.092,17.327-14.349,1.22,1.992-28.077s15.142-5.29,16.877-4.712S100.206,428.458,100.206,428.458Z" transform="translate(14.729 67.871)" fill="#fff"/>
    <path id="Path_964" data-name="Path 964" d="M84.96,448.265a1.093,1.093,0,0,1-.427-.094,1.094,1.094,0,0,1-.644-1.061L85.9,419.032a1.005,1.005,0,0,1,.707-.92c5.782-2.013,15.741-5.312,17.54-4.712a1.412,1.412,0,0,1,.523.291,1.386,1.386,0,0,1,.355.48c.942,1.991-1.8,10-3.576,14.693L100.381,446A1.071,1.071,0,0,1,99.4,447l-14.349,1.2Zm3.02-28.377-1.863,26.128L98.3,444.989l1.028-16.4a.852.852,0,0,1,0-.321,60.279,60.279,0,0,0,3.727-12.85,114.841,114.841,0,0,0-15.077,4.476Z" transform="translate(14.533 67.682)" fill="#231f20"/>
    <path id="Path_965" data-name="Path 965" d="M117.839,415.988s-1.906,4.284-4.647,4.927-8.673-2.142-9.359-1.864-16.405,12.143-17.861,12.486-4.283-3.362-5.547-7.753c0,0,15.27-10.409,16.255-11.522s2.142-7.71,3.684-10.108Z" transform="translate(13.757 65.179)" fill="#fff"/>
    <path id="Path_966" data-name="Path 966" d="M85.983,432.824c-2.356,0-5.247-4.284-6.425-8.567a1.028,1.028,0,0,1,.428-1.157c5.8-3.962,15.291-10.558,16.063-11.372a21.421,21.421,0,0,0,1.349-3.9,28.274,28.274,0,0,1,2.142-6.039,1.057,1.057,0,0,1,.311-.324,1.076,1.076,0,0,1,.417-.169,1.058,1.058,0,0,1,.857.214L118.6,415.348a1.028,1.028,0,0,1,.3,1.263c-.214.493-2.142,4.712-5.333,5.547a15.486,15.486,0,0,1-7.389-1.263c-.706-.236-1.52-.514-1.927-.6L100.8,422.8c-10.023,7.324-13.557,9.744-14.5,9.98Zm-4.112-8.4c1.2,3.748,3.405,6.21,4.091,6.253,1.071-.406,9.595-6.618,13.685-9.595,2.87-2.142,3.619-2.656,3.876-2.785.664-.364,1.478-.106,3.426.557a15.362,15.362,0,0,0,6.19,1.222c1.479-.386,2.848-2.334,3.556-3.6L100.931,404c-.493,1.22-.985,2.891-1.435,4.284a14.822,14.822,0,0,1-1.8,4.754c-.964,1.2-12.229,8.931-15.827,11.394Z" transform="translate(13.554 64.983)" fill="#231f20"/>
    <path id="Path_967" data-name="Path 967" d="M98.8,405.813a5.61,5.61,0,0,1-.6,3.234,16,16,0,0,1-4.712,3.6l-2.634-5.332,5.226-3.813Z" transform="translate(16.093 65.481)" fill="#231f20"/>
    <path id="Path_968" data-name="Path 968" d="M93.677,413.9h-.321a1.089,1.089,0,0,1-.643-.557l-2.591-5.374a1.072,1.072,0,0,1,.321-1.35l5.2-3.748a1.093,1.093,0,0,1,1.306,0l2.72,2.142a1.072,1.072,0,0,1,.428.814,7.129,7.129,0,0,1-.728,3.94,15.688,15.688,0,0,1-5.1,4,1.066,1.066,0,0,1-.6.129Zm-1.285-6.06,1.735,3.491a11.56,11.56,0,0,0,3.277-2.613,4.54,4.54,0,0,0,.514-2.142l-1.735-1.435Z" transform="translate(15.903 65.292)" fill="#231f20"/>
    <path id="Path_969" data-name="Path 969" d="M83.838,419.18s-1.392-4.283,1.092-4.69a2.14,2.14,0,0,1,3.384-1.8s.793-3.278,3.363-2.613,4.6,6.81,4.283,8.352-2.356.6-3.362-.857c0,0,1.306,2.42.428,3.062-1.264.943-2.591-.728-3.684-1.928,0,0,1.606,2.827-.75,3.084-1.82.214-3.512-3.47-3.512-3.47Z" transform="translate(14.435 66.934)" fill="#fff"/>
    <path id="Path_970" data-name="Path 970" d="M88.621,423.114c-1.671,0-3-1.734-3.748-2.977l-.236.151a1.058,1.058,0,0,1-.456.176,1.043,1.043,0,0,1-.487-.048,1.1,1.1,0,0,1-.685-.685,6.919,6.919,0,0,1,0-4.927,2.611,2.611,0,0,1,1.135-.963,3.446,3.446,0,0,1,1.542-1.971,2.886,2.886,0,0,1,2.142-.278,4.491,4.491,0,0,1,1.67-1.971,3.295,3.295,0,0,1,2.591-.343c3.255.835,5.483,7.645,5.054,9.616A1.928,1.928,0,0,1,95.6,420.48a2.588,2.588,0,0,1-1.071,0,1.821,1.821,0,0,1-.728,1.285,2.4,2.4,0,0,1-2.934,0,.3.3,0,0,1,0,.129,2.36,2.36,0,0,1-1.992,1.242Zm-3.363-5.633h.278a1.095,1.095,0,0,1,.707.6c.621,1.35,1.82,2.934,2.4,2.827h.321a2.481,2.481,0,0,0-.385-1.392,1.073,1.073,0,1,1,1.735-1.264l.235.257c.578.665,1.478,1.542,1.885,1.585a5.394,5.394,0,0,0-.6-1.734,1.071,1.071,0,0,1,1.82-1.114c.578.814,1.392,1.285,1.585,1.177,0-1.028-1.735-6.532-3.641-7.024a1.224,1.224,0,0,0-.942,0,3.085,3.085,0,0,0-1.092,1.734,1.094,1.094,0,0,1-.216.406,1.077,1.077,0,0,1-.364.28,1.089,1.089,0,0,1-.447.108,1.119,1.119,0,0,1-.451-.087,1.564,1.564,0,0,0-1.264-.128,1.775,1.775,0,0,0-.643,1.114,1.051,1.051,0,0,1-.921.9.551.551,0,0,0-.343.192,2.8,2.8,0,0,0-.15,1.649,1.3,1.3,0,0,1,.493-.086Z" transform="translate(14.235 66.747)" fill="#231f20"/>
    <path id="Path_971" data-name="Path 971" d="M93.028,407.011s1.456-2.507,2.977-.3,3.362,6.425.835,6.81S92.386,409.217,93.028,407.011Z" transform="translate(16.552 65.996)" fill="#fff"/>
    <path id="Path_972" data-name="Path 972" d="M96.7,414.8a3.7,3.7,0,0,1-2.741-1.392,7.859,7.859,0,0,1-1.735-6.425,1.059,1.059,0,0,1,0-.236,3.472,3.472,0,0,1,2.484-1.755A2.739,2.739,0,0,1,97,406.358c.321.471,3.084,4.562,2.142,7.026a2.44,2.44,0,0,1-1.928,1.455Zm-2.463-7.174a6.017,6.017,0,0,0,1.328,4.283c.321.343.771.75,1.285.643s.278,0,.321-.171a8.031,8.031,0,0,0-1.82-4.925c-.257-.365-.428-.45-.45-.45a1.544,1.544,0,0,0-.664.622Z" transform="translate(16.373 65.814)" fill="#231f20"/>
    <path id="Path_973" data-name="Path 973" d="M98.25,428.919a86.865,86.865,0,0,0,3.984-9.445c.257-2.442-.3-6.232-2.442-6.81s-7-1.179-6.211.963,5.012,2.334,5.012,2.334a8.334,8.334,0,0,0-2.506,5.912" transform="translate(16.685 67.411)" fill="#fff"/>
    <path id="Path_974" data-name="Path 974" d="M98.439,430.181a1.272,1.272,0,0,1-.471,0,1.051,1.051,0,0,1-.333-.253,1.07,1.07,0,0,1-.159-1.181,75.772,75.772,0,0,0,3.876-9.1c.257-2.377-.386-5.311-1.649-5.654a11.08,11.08,0,0,0-4.883-.363,6.425,6.425,0,0,0,4.048,1.563,1.073,1.073,0,0,1,.921.685,1.092,1.092,0,0,1-.236,1.135,7.134,7.134,0,0,0-2.142,5.012,1.072,1.072,0,0,1-1.978.715,1.075,1.075,0,0,1-.142-.394,7.69,7.69,0,0,1,1.585-5.333,5.465,5.465,0,0,1-4.048-2.7,1.949,1.949,0,0,1,.343-2.142c1.67-1.821,7.11-.343,7.153-.343,2.892.814,3.512,5.311,3.212,7.967A67.319,67.319,0,0,1,99.51,429.6a1.072,1.072,0,0,1-1.071.578Z" transform="translate(16.495 67.219)" fill="#231f20"/>
    <path id="Path_975" data-name="Path 975" d="M73.548,407.386s17.669-1.756,24.886,2.442a43.6,43.6,0,0,1,5.183,3.619c3.92,3.062,7.6,6.425,10.473,8.438,5.676,3.791,11.18,4.6,14.991-1.457,3.213-5.182,1.328-7.645-2.977-12.25-2.142-2.292-6.618-6.04-10.494-10.216a33.117,33.117,0,0,1-5.718-7.859c-3.255-6.875-2.334-17.434-2.334-17.434Z" transform="translate(12.217 58.575)" fill="#fff"/>
    <path id="Path_976" data-name="Path 976" d="M122.234,426.143a15.8,15.8,0,0,1-8.567-3.148,74.85,74.85,0,0,1-5.89-4.669c-1.477-1.263-3.041-2.591-4.626-3.833a45.759,45.759,0,0,0-5.076-3.534C91.244,407,74,408.645,73.832,408.667a1.113,1.113,0,0,1-1.071-.622,1.093,1.093,0,0,1,.193-1.2l33.946-34.78a1.025,1.025,0,0,1,1.2-.235,1.048,1.048,0,0,1,.621,1.071s-.835,10.365,2.142,16.9a31.655,31.655,0,0,0,5.547,7.581c2.312,2.528,4.711,4.669,6.853,6.618,1.542,1.435,2.87,2.656,3.791,3.641,4.411,4.733,6.725,7.688,3.105,13.557a9.577,9.577,0,0,1-6.082,4.754A8.254,8.254,0,0,1,122.234,426.143ZM82.056,406.16c5.718,0,12.957.536,17.133,2.956a45.689,45.689,0,0,1,5.29,3.641c1.628,1.285,3.212,2.612,4.712,3.876a68.877,68.877,0,0,0,5.676,4.69c3.405,2.269,6.425,3.148,8.716,2.634a7.433,7.433,0,0,0,4.712-3.77c2.7-4.283,1.52-6.274-2.848-10.964-.879-.943-2.142-2.142-3.684-3.556-2.142-1.971-4.54-4.284-6.81-6.661a33.23,33.23,0,0,1-5.912-8.116,36.971,36.971,0,0,1-2.569-15.164l-29.984,30.6c1.478,0,3.405-.171,5.568-.171Z" transform="translate(12.019 58.365)" fill="#231f20"/>
    <path id="Path_977" data-name="Path 977" d="M97.345,408.09c3.92,3.062,8.567,7.11,11.415,9.166,6.3,4.711,10.28,5.2,14.391-.6s1.842-8.567-2.463-13.108c-2.142-2.291-6.618-6.039-10.494-10.215a18.454,18.454,0,0,1-4.562,9.616,14.987,14.987,0,0,1-8.288,5.141Z" transform="translate(17.547 63.204)" fill="#231f20"/>
    <path id="Path_978" data-name="Path 978" d="M116.9,422.163c-2.4,0-5.033-1.2-8.567-3.854-1.521-1.114-3.6-2.827-5.783-4.627s-3.855-3.148-5.654-4.562a1.047,1.047,0,0,1-.385-1.006,1.07,1.07,0,0,1,.857-.814,14.031,14.031,0,0,0,7.71-4.84,17.7,17.7,0,0,0,4.284-8.995,1.111,1.111,0,0,1,.728-.942,1.046,1.046,0,0,1,.61-.034,1.062,1.062,0,0,1,.525.312,82.952,82.952,0,0,0,6.7,6.553c1.542,1.436,2.869,2.656,3.791,3.641,4.39,4.712,7.261,7.8,2.548,14.456a9.636,9.636,0,0,1-6.339,4.625,6.167,6.167,0,0,1-1.028.086ZM99.763,408.714c1.328,1.071,2.72,2.142,4.048,3.319,2.142,1.777,4.283,3.47,5.718,4.562,3.534,2.656,6.017,3.7,8.073,3.384a7.864,7.864,0,0,0,4.8-3.748c3.7-5.247,1.949-7.154-2.313-11.716-.92-.985-2.142-2.141-3.727-3.6s-3.554-3.3-5.376-5.162a22.769,22.769,0,0,1-4.283,8.073,16.266,16.266,0,0,1-6.875,4.884Z" transform="translate(17.356 63.008)" fill="#231f20"/>
    <path id="Path_979" data-name="Path 979" d="M69.92,407.629c3.962,3.556,12.679.6,21.267-6.618a64.522,64.522,0,0,0,6.168-6,62.066,62.066,0,0,0,5.183-6.639c6.425-9.36,8.352-18.4,4.283-21.974-4.926-4.433-17.133,1.22-27.413,12.593S64.994,403.2,69.92,407.629Z" transform="translate(10.941 56.833)" fill="#fff"/>
    <path id="Path_980" data-name="Path 980" d="M74.629,410.419a7.537,7.537,0,0,1-5.226-1.8c-2.72-2.442-3.148-7-1.2-12.85a51.39,51.39,0,0,1,10.708-17.3c10.708-12.015,23.558-17.584,28.934-12.7,4.284,3.876,2.634,13.278-4.283,23.386A63.043,63.043,0,0,1,92,402C85.573,407.485,79.32,410.419,74.629,410.419ZM102.6,366.13c-5.633,0-14.563,5.355-22.123,13.793a49.583,49.583,0,0,0-10.237,16.533c-1.649,4.9-1.435,8.759.6,10.58,3.405,3.04,11.565.321,19.853-6.64a62.407,62.407,0,0,0,6-5.889,57.559,57.559,0,0,0,5.119-6.426c6.1-9.038,7.967-17.5,4.54-20.581A5.485,5.485,0,0,0,102.6,366.13Z" transform="translate(10.751 56.634)" fill="#231f20"/>
    <path id="Path_981" data-name="Path 981" d="M81.16,389.026l7.046,8.824a64.552,64.552,0,0,0,6.168-6,62.082,62.082,0,0,0,5.183-6.64L89.362,379Z" transform="translate(13.922 59.994)" fill="#231f20"/>
    <path id="Path_982" data-name="Path 982" d="M88.4,399.124H88.3a1.178,1.178,0,0,1-.728-.406l-7.046-8.8a1.07,1.07,0,0,1,0-1.349l8.2-10.066a1.049,1.049,0,0,1,1.392-.235l10.216,6.253a1.112,1.112,0,0,1,.471.685,1.027,1.027,0,0,1-.15.835,63.043,63.043,0,0,1-11.565,12.851,1.006,1.006,0,0,1-.685.235Zm-5.675-9.895,5.825,7.283a64.607,64.607,0,0,0,9.637-10.773l-8.438-5.182Z" transform="translate(13.726 59.791)" fill="#231f20"/>
    <path id="Path_983" data-name="Path 983" d="M87.708,385.963c2.275-2.77,3.074-5.873,1.785-6.931s-4.178.328-6.452,3.1-3.074,5.873-1.785,6.931S85.433,388.732,87.708,385.963Z" transform="translate(13.806 59.921)" fill="#231f20"/>
    <path id="Path_984" data-name="Path 984" d="M82.558,390.729a2.694,2.694,0,0,1-1.778-.6c-1.8-1.477-1.092-5.119,1.649-8.438a12.332,12.332,0,0,1,3.962-3.277,3.17,3.17,0,0,1,4.8,3.941,13.282,13.282,0,0,1-6.425,7.8,5.138,5.138,0,0,1-2.206.578ZM88.6,380.021a3.193,3.193,0,0,0-1.285.365,10.227,10.227,0,0,0-3.234,2.7c-2.142,2.612-2.463,4.99-1.928,5.439.214.171.835.171,1.713-.257a11.276,11.276,0,0,0,5.247-6.382,2.391,2.391,0,0,0,0-1.736.619.619,0,0,0-.237-.147.609.609,0,0,0-.277-.025Z" transform="translate(13.615 59.705)" fill="#231f20"/>
    <path id="Path_985" data-name="Path 985" d="M88.857,418.919a1.068,1.068,0,0,1-.921-.535A12.6,12.6,0,0,0,85.9,415.9a1.049,1.049,0,0,1-.129-1.5,1.094,1.094,0,0,1,1.521-.128,13.842,13.842,0,0,1,2.484,3.02,1.093,1.093,0,0,1-.386,1.479,1.007,1.007,0,0,1-.535.149Z" transform="translate(14.898 67.837)" fill="#231f20"/>
    <path id="Path_986" data-name="Path 986" d="M91.529,418.119a1.07,1.07,0,0,1-1.049-.857,5.329,5.329,0,0,0-1.928-2.805,1.071,1.071,0,0,1,1.285-1.714,7.54,7.54,0,0,1,2.741,4.091,1.049,1.049,0,0,1-.835,1.263Z" transform="translate(15.482 67.503)" fill="#231f20"/>
    <path id="Path_987" data-name="Path 987" d="M85.093,418.285a1.093,1.093,0,0,1-.878-.449l-.728-1.007a1.092,1.092,0,0,1,.257-1.5,1.055,1.055,0,0,1,.383-.171,1.078,1.078,0,0,1,.42-.012,1.1,1.1,0,0,1,.392.151,1.085,1.085,0,0,1,.3.29l.728,1.028a1.05,1.05,0,0,1,.182.793,1.046,1.046,0,0,1-.151.387,1.057,1.057,0,0,1-.289.3,1.123,1.123,0,0,1-.621.192Z" transform="translate(14.4 68.086)" fill="#231f20"/>
    <path id="Path_988" data-name="Path 988" d="M139.54,418.982c.6,0,1.092-1.688,1.092-3.769s-.49-3.77-1.092-3.77-1.093,1.688-1.093,3.77S138.937,418.982,139.54,418.982Z" transform="translate(26.753 67.26)" fill="#231f20"/>
    <path id="Path_989" data-name="Path 989" d="M126.043,427.174,108.1,463.733v-33.86l-24.821,2.334S60.787,518.56,78.542,522.65c25.85,5.975,56.9-54.849,56.9-54.849Z" transform="translate(11.807 70.783)" fill="#30c684"/>
    <path id="Path_990" data-name="Path 990" d="M99.24,484.706a1.05,1.05,0,0,1-.985-1.136l2.913-54.076a1.049,1.049,0,0,1,.7-.95,1.023,1.023,0,0,1,.411-.056,1.071,1.071,0,0,1,1.028,1.135L100.4,483.7a1.069,1.069,0,0,1-.735.957A1.1,1.1,0,0,1,99.24,484.706Z" transform="translate(17.75 71.077)" fill="#231f20"/>
    <path id="Path_991" data-name="Path 991" d="M103.366,520.825H103.2a1.092,1.092,0,0,1-.879-1.242c.279-1.756,13.171-79.477,13.171-79.477l2.142.343s-12.849,77.743-13.149,79.5a1.074,1.074,0,0,1-1.114.879Z" transform="translate(18.658 73.679)" fill="#231f20"/>
    <path id="Path_992" data-name="Path 992" d="M219.271,521.759l-59.838-8.794-5.754,39.157,59.838,8.794Z" transform="translate(30.165 89.998)" fill="#fff"/>
    <path id="Path_993" data-name="Path 993" d="M213.741,562.161h-.151l-59.838-8.781a1.047,1.047,0,0,1-.4-.141,1,1,0,0,1-.308-.288,1.05,1.05,0,0,1-.186-.376,1.067,1.067,0,0,1-.028-.417l5.76-39.149a1.1,1.1,0,0,1,.142-.394,1.07,1.07,0,0,1,1.08-.505l59.838,8.781a1.066,1.066,0,0,1,.4.143,1.079,1.079,0,0,1,.311.285,1.021,1.021,0,0,1,.177.376,1.036,1.036,0,0,1,.015.416l-5.761,39.107a1.071,1.071,0,0,1-1.049.943Zm-58.617-10.709,57.824,8.567,5.441-37.03-57.718-8.567Z" transform="translate(29.973 89.804)" fill="#231f20"/>
    <path id="Path_994" data-name="Path 994" d="M182.52,521.5a105.653,105.653,0,0,1-2.956,11.308c-1.092,2.42-8.567,11.864-8.1,14.306s4.284,2.956,4.284,2.956-4.284,7.024-.964,8.373,11.608,3.791,13.771,0,8.352-32.124,8.352-32.124Z" transform="translate(34.144 91.91)" fill="#fff"/>
    <path id="Path_995" data-name="Path 995" d="M183.9,561.727a28.521,28.521,0,0,1-9.4-2.142,2.847,2.847,0,0,1-1.692-1.82c-.685-2.142.6-5.119,1.457-6.832a5.189,5.189,0,0,1-3.641-3.427c-.428-1.928,1.906-5.525,5.5-10.709a41.626,41.626,0,0,0,2.656-4.154,104.912,104.912,0,0,0,2.912-11.115,1.033,1.033,0,0,1,.514-.707,1.139,1.139,0,0,1,.879,0l14.285,4.841a1.049,1.049,0,0,1,.706,1.241c-.257,1.157-6.253,28.549-8.567,32.426a6.087,6.087,0,0,1-5.611,2.4Zm-.386-38.55a84.306,84.306,0,0,1-2.763,10.344,38.6,38.6,0,0,1-2.87,4.5c-1.734,2.569-5.376,7.924-5.161,9.144.364,1.65,3.277,2.142,3.3,2.142a1.035,1.035,0,0,1,.814.6,1.115,1.115,0,0,1,0,1.006c-1.007,1.671-2.421,4.884-1.95,6.426a.814.814,0,0,0,.471.514c3.341,1.392,10.709,3.34,12.422.449s6.147-22.574,8.01-31.14Z" transform="translate(33.947 91.737)" fill="#231f20"/>
    <path id="Path_996" data-name="Path 996" d="M178.626,429.624s26.706,32.661,33.175,52.75-12.422,69.669-12.422,69.669l-20.752-2.7,5.247-54.4c-4.284-11.437-17.8-31.761-17.8-31.761Z" transform="translate(32.941 71.332)" fill="#30c684"/>
    <path id="Path_997" data-name="Path 997" d="M148.913,437.726l-6.1,3.083,3.148,4.862-14.842,56.518,8.974,10.965,8.652-11.329.814-55.255,2.783-3.148Z" transform="translate(25.111 73.146)" fill="#231f20"/>
    <path id="Path_998" data-name="Path 998" d="M140.34,514.42a1.04,1.04,0,0,1-.45-.1,1.029,1.029,0,0,1-.364-.284l-8.995-10.986a1.064,1.064,0,0,1-.214-.943l14.734-56.048-2.891-4.476a1.03,1.03,0,0,1-.159-.414,1.018,1.018,0,0,1,.031-.442,1.089,1.089,0,0,1,.195-.4,1.076,1.076,0,0,1,.34-.285l6.126-3.064a1.051,1.051,0,0,1,1.392.408l3.427,5.7a1.03,1.03,0,0,1-.129,1.242l-2.527,2.87-.792,54.827a1.178,1.178,0,0,1-.236.643l-8.567,11.329a1.069,1.069,0,0,1-.835.428Zm-7.818-12.294,7.818,9.552,7.6-9.98.814-54.89a1.184,1.184,0,0,1,.257-.708l2.27-2.548-2.505-4.283-4.155,2.141,2.485,3.878a1.114,1.114,0,0,1,.162.412,1.1,1.1,0,0,1-.012.443Z" transform="translate(24.925 72.952)" fill="#231f20"/>
    <path id="Path_999" data-name="Path 999" d="M184.405,490.811a1.073,1.073,0,0,1-.964-.622c-2.526-5.354-19.4-35.38-19.575-35.68a1.071,1.071,0,0,1,.051-1.225,1.1,1.1,0,0,1,.327-.284,1.059,1.059,0,0,1,.411-.131,1.07,1.07,0,0,1,.431.042,1.07,1.07,0,0,1,.644.55c.706,1.242,17.133,30.39,19.661,35.829a1.07,1.07,0,0,1-.514,1.414.9.9,0,0,1-.471.108Z" transform="translate(32.408 76.537)" fill="#231f20"/>
    <path id="Path_1000" data-name="Path 1000" d="M626.267,719.862c.031.117.061.236.093.354l1.953-.588c-.023-.086-.045-.171-.069-.256l-1.978.49m73.462-74.733c0-.094.01-.188.015-.282l-10.553-.528c-.006.113-.011.225-.017.338l10.555.471m-57.51,58.5c15.114-2.417,29.98-5.783,44.2-11.622a313.613,313.613,0,0,1-44.2,11.622m-4.912-5.079.07.3c3.464-.644,6.935-1.247,10.389-1.94,9.121-1.827,18.216-3.771,27.151-6.385,3.617-1.057,7.2-2.233,10.782-3.4,1.819-.594,3.6-1.292,5.4-1.941.693-.25,1.387-.492,2.081-.737l-.125-.368a348.973,348.973,0,0,1-55.751,14.476m48.658-.236-.2-.318c-1.384.747-2.738,1.557-4.158,2.226-3.283,1.55-6.567,3.1-9.907,4.519-3.969,1.683-7.989,3.248-12.015,4.794-.624.24-1.341.951-2.109.167a2.669,2.669,0,0,0-.4.285,5.491,5.491,0,0,1-1.335.935Q644.491,714.5,633.12,718c-1.105.343-2.224.649-3.335.971a4.2,4.2,0,0,0,1.824-.185q12.092-3.655,24.176-7.343c.8-.244,1.153-.186,1.038.765a2.753,2.753,0,0,0,.278.988,9.335,9.335,0,0,0,.52-.895c.321-.71.168-1.57,1.245-1.962q6.123-2.227,12.154-4.7c2.657-1.091,5.24-2.368,7.849-3.578,1.7-.787,3.4-1.572,5.067-2.417a21.078,21.078,0,0,0,2.029-1.327m-106.509-7.186c.046.083.094.165.141.249,1.539-.99,3.054-2.021,4.62-2.964a106.476,106.476,0,0,1,17.345-8.581c5.324-2.011,10.661-4.066,16.134-5.587,6.875-1.911,13.876-3.384,20.86-4.869,2.933-.623,5.959-.8,8.945-1.163,1.745-.212,3.5-.392,5.243-.577s3.525-.359,5.288-.537a17.747,17.747,0,0,0-4.051-.13c-4.047.477-8.086,1.026-12.117,1.619a162.941,162.941,0,0,0-31.015,7.335c-5.96,2.119-11.821,4.535-17.644,7.012a57.433,57.433,0,0,0-13.749,8.193m89.037-47.079c-15.941-.23-41.189,3.432-70.184,18.2a115.052,115.052,0,0,0-20.762,13.417c27.406-19.464,57.758-30.345,90.946-31.613m42.255,5.7c-.184.179-.389.53-.547.51-1.551-.2-3.092-.466-4.639-.7a6.185,6.185,0,0,0-.891-.01,3.5,3.5,0,0,0,.595.646c1.367.9,2.792,1.719,4.126,2.666a18.664,18.664,0,0,1,8.051,13.01,36.468,36.468,0,0,1,.032,4.855c3.269-2.427,5.933-4.95,7.465-8.4a4.932,4.932,0,0,0-.337-5.179c-2.465-3.253-6.192-4.42-9.79-5.781-1.379-.521-3.07-.279-4.065-1.625M645.955,671.5l.673-.816a2.24,2.24,0,0,0-.734-.083,13.379,13.379,0,0,0-1.286.485l1.39.378c-.289.215-.561.579-.87.616-.59.07-1.229-.175-1.8-.055-.821.173-1.576.66-2.4.831-6.327,1.318-12.682,2.51-18.987,3.924a55.561,55.561,0,0,0-7.289,2.406c-4.071,1.53-8.38,2.378-12.295,4.349-.329.165-.759.122-1.1.275-1.276.572-2.549,1.154-3.8,1.79-1.149.586-2.235,1.3-3.4,1.854-1.125.532-2.33.89-3.475,1.384-3.073,1.329-5.559,3.553-8.155,5.576a31.07,31.07,0,0,0-3.868,3.912,14.683,14.683,0,0,0-1.619,2.425c-.531.907-.076,1.384.831,1.488a71.622,71.622,0,0,0,8.015.816c12.544,0,24.936-1.77,37.3-3.628,6.917-1.039,13.8-2.318,20.677-3.612,11.376-2.142,22.663-4.68,33.782-7.928a227.4,227.4,0,0,0,23.107-7.935c.958-.4.859-.756.294-1.382a16.531,16.531,0,0,0-6.862-4.3c-3.234-1.153-6.689-1.676-10.041-2.5-.24-.059-.4-.411-.621-.586-.269-.209-.573-.375-.86-.559-.115.138-.229.278-.343.416l.929.171-.22.29a6.137,6.137,0,0,0-1.786-.285c-1.792.253-3.509-.322-5.284-.327-3.02-.006-6.038-.273-9.056-.439-.792-.044-1.583-.164-2.375-.169-.71,0-1.42.1-2.13.157-.528.045-1.056.088-1.584.143-.492.051-1.12.341-1.45.138-.975-.6-1.867-.226-2.765.017-.779.21-1.5.55-1.971-.483-.076-.167-.431-.215-.667-.285-.029-.01-.2.226-.17.279.476.917-.331.5-.607.57a10.064,10.064,0,0,1-1.148.2c-.659.1-1.317.195-1.976.28a6.8,6.8,0,0,0-2.367.349c-.72.41-1.125.137-1.651-.147m-50.669.466c-1.343.6-2.736,1.12-4.023,1.827a72.817,72.817,0,0,0-16.074,11.893,61.791,61.791,0,0,0-4.4,5.5,12.882,12.882,0,0,0-2.929,7.6,3.782,3.782,0,0,0,.657,2.469,8.729,8.729,0,0,0,4.636,2.573c-1.279-2.339-1.819-4.667-.481-6.93a20.935,20.935,0,0,1,3.4-4.34c3.994-3.865,8.793-6.581,13.678-9.128a146.856,146.856,0,0,1,23.936-9.66,167.692,167.692,0,0,1,32.668-6.939c3.852-.41,7.717-.723,11.582-.982a108.453,108.453,0,0,1,23.49,1,56.148,56.148,0,0,1,12.433,3.111c4.1,1.625,7.818,3.562,9.821,7.762.244.51.525.684,1.082.394,1.329-.7,2.707-1.3,4.021-2.022a10.733,10.733,0,0,0,3.068-1.984,11.685,11.685,0,0,0,2.935-7.018,8.859,8.859,0,0,0-1.428-5.841c-1.45-1.975-2.96-4.083-5.271-5.139-1.116-.51-1.556-2.029-3.043-1.883-.12.012-.272-.377-.424-.568-.471-.591-1.477-.373-1.8-1.191a.839.839,0,0,1-.206.094c-.315.049-.673.206-.942.113a75.976,75.976,0,0,0-9.809-3.016,35.487,35.487,0,0,0-9.351-.787c-1.978.126-3.986.788-6.018.054-.391-.142-.994.452-1.521.518-3.476.431-6.952.9-10.442,1.182-3.4.28-6.666,1.577-10.168,1.17a2.735,2.735,0,0,0-2.645.853c-.343.425-1.315-.138-2.116.273a8.955,8.955,0,0,1-3.04.388c-.034,0-.065.045-.1.054-2.257.536-4.436,1.367-6.645,2-8.368,2.389-16.7,4.849-24.828,7.977-1.831.705-3.623,1.534-5.494,2.1-2.5.76-5.066,1.253-7.264,2.841a15.64,15.64,0,0,1-2.875,1.214,7.226,7.226,0,0,0-1.029.671l-3.039,1.8m74.727,30.161a3.647,3.647,0,0,1-.929.564c-5.755,1.387-11.478,2.943-17.286,4.065-7.4,1.428-14.859,2.526-22.3,3.7-1.887.3-3.815.322-5.716.541-1.2.14-2.377.481-3.578.606-3.131.324-6.267.6-9.4.845-.546.044-1.111-.208-1.666-.192-.338.01-.667.386-1.006.4-2.944.091-5.891.208-8.836.176-4-.044-8.023-.017-12-.37-6.073-.539-12.1-1.5-17.278-5.108-3.392-2.364-6.336-5.072-6.906-9.558a12.827,12.827,0,0,1,2.149-8.787c1.288-2,2.857-3.813,4.255-5.744.387-.535.553-1.224.915-1.782A13.637,13.637,0,0,1,572.245,679a83.993,83.993,0,0,1,13.54-10.384c3.573-2.251,7.2-4.444,10.929-6.411a165.323,165.323,0,0,1,37.462-14.673,148.881,148.881,0,0,1,26.672-4.357c5.444-.329,10.925-.091,16.39-.066,4.425.02,8.849.105,13.274.155A84.455,84.455,0,0,1,714.42,646.6a23.628,23.628,0,0,1,10.444,5.9,12.914,12.914,0,0,1,2.251,13.9,22.82,22.82,0,0,1-7.507,8.627c-1.694,1.176-3.452,2.28-5.026,3.6-1.344,1.126-2.382,2.611-3.706,3.763-2.071,1.8-4.3,3.415-6.393,5.193a20.954,20.954,0,0,0-1.667,2.114,46.264,46.264,0,0,1-4.991,5.328c-2.876,2.322-6,4.344-9.076,6.4-1.645,1.1-3.414,2.011-5.127,3.007a3.727,3.727,0,0,0-3.04,1.564c-2,.9-3.99,1.814-5.991,2.71-.43.192-.885.33-1.323.49q-2.409.96-4.827,1.927a8.7,8.7,0,0,1-1.6,1.055,286.676,286.676,0,0,1-35.92,11.115c-7.7,1.832-15.366,3.815-23.121,5.354-6.8,1.349-13.71,2.19-20.575,3.214-1.1.164-2.229.088-3.341.163a4.263,4.263,0,0,1-3.322-1.164,1.7,1.7,0,0,0-.376-.248c-.351-.182-.709-.352-1.064-.526l.969-.711a1.442,1.442,0,0,0-.241-.2c-.343-.174-.692-.337-1.038-.5.4-.237.776-.66,1.184-.688,13.751-.939,26.985-4.543,40.26-7.882a382.659,382.659,0,0,0,45.779-14.335c3.438-1.34,6.838-2.792,10.2-4.311a58.749,58.749,0,0,0,7.138-3.865c-1.208.409-2.411.837-3.628,1.223-2.563.811-5.137,1.588-7.7,2.41a4.241,4.241,0,0,0-.941.612l-1.1.292" transform="translate(386.219 108.106)" fill="#30c684" fill-rule="evenodd"/>
    <path id="Path_1001" data-name="Path 1001" d="M356.7,591.666c.016.061.031.124.048.185h9.529c0-.061-.009-.124-.013-.185ZM263.77,665.9c3.2-3.149,6.7-6.061,8.394-10.394q-4.2,5.2-8.394,10.394Zm16.4-35.888c0-.617.05-1.24-.007-1.853-.928-9.869-9.011-12.418-16.23-10.407a19.319,19.319,0,0,0-6.232,3.327,24.76,24.76,0,0,0-4.677,4.237,31.416,31.416,0,0,0-6.115,13.87c-1.387,7.032-1.668,14.062.994,20.914a18.868,18.868,0,0,0,7.636,9.771,1.846,1.846,0,0,0,2.628-.333c6.166-5.934,11.838-12.268,16.033-19.792,3.423-6.142,5.909-12.576,5.971-19.734Zm56.437-34.281,15.16-3.5c-3.961.586-7.9,1.34-11.813,2.219a22.153,22.153,0,0,0-3.319,1.319c-2.352-.047-4.136,1.322-5.978,2.535l5.95-2.569Zm-82.55,77.425a26.457,26.457,0,0,1-11.882-16.117c-3.416-12.864-1.442-24.912,6.771-35.548a23.45,23.45,0,0,1,15.481-9.051c5.335-.786,10,.993,13.945,4.595a20.026,20.026,0,0,1,6.88,13.328,29.321,29.321,0,0,1-1.77,13.407c-1.388,3.438-2.813,6.875-4.51,10.165a35.752,35.752,0,0,1-3.934,5.5c-3.28,4.16-6.62,8.272-9.886,12.76a30.876,30.876,0,0,0,3.658-1.073,27.163,27.163,0,0,0,9.423-7.227c6.454-7.2,10.762-15.715,14.833-24.375,3.54-7.534,7.142-15.036,11.991-21.855a61.958,61.958,0,0,1,38.222-25.445c9.819-2.191,19.757-1.818,29.7-1.777,3.74.015,7.485-.289,11.226-.439a6.235,6.235,0,0,1,.848.113c-.453.425-.756.71-.818.766l1.614,1.315c-.464.552-.825,1.31-1.417,1.607a8.21,8.21,0,0,1-2.895.785c-2.711.245-5.434.335-8.15.536-3.1.229-6.2.528-9.3.754-.753.055-1.527-.146-2.277-.073-3.585.35-7.192.594-10.739,1.184-3.185.531-6.278,1.611-9.46,2.169a30.235,30.235,0,0,0-6.868,2.246c-5.332,2.326-10.414,4.953-14.812,8.947a85.605,85.605,0,0,0-15.361,19.183c-2.548,4.182-4.188,8.911-6.39,13.317-2.275,4.55-4.7,9.026-7.13,13.5a48.4,48.4,0,0,1-3.967,6.586,83.242,83.242,0,0,1-6.546,7.259,28.159,28.159,0,0,1-4.816,4.138,16.043,16.043,0,0,1-13.372,2.094,3.457,3.457,0,0,0-3.652.76,113.483,113.483,0,0,1-28.885,18.378c-6.281,2.8-12.582,5.623-19.081,7.828a71.382,71.382,0,0,1-26,4.059,17.612,17.612,0,0,1-4.294-.756c-.575-.174-.964-.971-1.438-1.484.519-.348,1.01-.919,1.565-.991a14.346,14.346,0,0,1,2.906.133,12.638,12.638,0,0,0,1.957.2,87.21,87.21,0,0,0,20.263-4.207,139.575,139.575,0,0,0,46.686-25.681c.51-.43,1-.887,1.682-1.5Z" transform="translate(35.836 107.252)" fill="#30c684" fill-rule="evenodd"/>
    <path id="Path_1002" data-name="Path 1002" d="M230.767,196.411c-1.6.039-3.176-.368-4.783-.224-.253.022-.706-.062-.754-.2-.479-1.408-2.076-1.24-2.971-2.151a1.755,1.755,0,0,1-.482-2.259c1.477-3.153,2.776-6.377,3.982-9.641.318-.858.629-1.725.863-2.609.223-.847.95-1.119,1.585-1.353.69-.255.771.58,1.138.938,1.718,1.674,1.77,3.941,2.272,6.053.648,2.721,1.231,5.46,1.967,8.159.612,2.246-.108,3.652-2.816,3.292" transform="translate(45.366 14.957)" fill="#30c684" fill-rule="evenodd"/>
    <path id="Path_1003" data-name="Path 1003" d="M216.8,159.3a2,2,0,0,1-1.99,2.116c-1.807.211-3.612.457-5.425.58-1.656.113-2.525-1.239-3.351-2.3-.568-.728-.18-1.772.405-2.641a51.808,51.808,0,0,0,4.745-9.321c.233-.564.476-1.083,1.2-1.177.789-.1.947.494,1.312.966,1.091,1.406,1.326,3.1,1.745,4.74A42.934,42.934,0,0,1,216.8,159.3" transform="translate(41.829 7.931)" fill="#30c684" fill-rule="evenodd"/>
    <path id="Path_1004" data-name="Path 1004" d="M213.546,180.343c0,1.463.4,2.609-.978,3.27a1.644,1.644,0,0,1-.956.31,7.013,7.013,0,0,0-4.437.514c-1.1.543-1.714.119-2.528-.683-1.563-1.539-1.6-2.157-.617-4.062,1.574-3.043,3.357-6,4.335-9.332a7.4,7.4,0,0,1,.535-1.415,1.155,1.155,0,0,1,2.056-.157c1.428,1.627,1.591,3.673,1.895,5.654.319,2.089.5,4.2.694,5.9" transform="translate(41.294 12.788)" fill="#30c684" fill-rule="evenodd"/>
    <path id="Path_1005" data-name="Path 1005" d="M213.311,224.934a6.847,6.847,0,0,1-3.886-2.044,1.528,1.528,0,0,1-.064-1.7c.963-1.947,1.34-4.11,2.345-6.077a23.26,23.26,0,0,0,1.022-3.34c.245-.786.639-1.655,1.584-1.727s1.438.791,1.837,1.463a17.947,17.947,0,0,1,1.758,5.612c.441,2.1.722,4.233,1.032,6.357.122.849-.447,1.387-.363,2.157.044.41-.476.469-.969.331-1.416-.4-2.862-.693-4.295-1.028" transform="translate(42.586 22.151)" fill="#30c684" fill-rule="evenodd"/>
    <path id="Path_1006" data-name="Path 1006" d="M196.887,168.94c0,1.371-.711,2.011-2.213,1.739a19.326,19.326,0,0,0-3.651-.089,4.923,4.923,0,0,1-3.461-1.519,1.991,1.991,0,0,1-.442-2.71,55.237,55.237,0,0,0,4.169-9.578c.424-1.295,1.3-1.375,2.215-.349a6.559,6.559,0,0,1,1.368,2.365,48.6,48.6,0,0,1,2.015,10.141" transform="translate(37.578 9.987)" fill="#30c684" fill-rule="evenodd"/>
    <path id="Path_1007" data-name="Path 1007" d="M176.052,179.128a24.841,24.841,0,0,1-2.886-.173c-2.189-.371-2.882-1.021-2.525-3.177a55.243,55.243,0,0,1,1.65-8.224,6.126,6.126,0,0,1,.716-1.63c.589-.838,1.329-1.089,2.181-.256a8.6,8.6,0,0,1,1.826,2.4,62.035,62.035,0,0,1,3.1,8.086,2.167,2.167,0,0,1-2,2.869c-.734.026-1.468.077-2.059.109" transform="translate(33.944 12.098)" fill="#30c684" fill-rule="evenodd"/>
    <path id="Path_1008" data-name="Path 1008" d="M194.614,215.034a6.9,6.9,0,0,1-2.851.288c-1.475-.29-3.132-2.5-2.665-3.87,1.038-3.05,1.663-6.209,2.606-9.281.214-.7.365-1.485,1.293-1.6s1.308.612,1.628,1.255a65.748,65.748,0,0,1,3.717,10.073,1.9,1.9,0,0,1-1.076,2.394c-.864.487-1.878.147-2.652.741" transform="translate(38.079 20.028)" fill="#30c684" fill-rule="evenodd"/>
    <path id="Path_1009" data-name="Path 1009" d="M179.2,155.484c.151,2.667-1.039,3.874-3.717,4.393a5.57,5.57,0,0,1-3.485-.792,2.267,2.267,0,0,1-1.365-3,47.129,47.129,0,0,1,2.017-5.558c.573-1.5,1.129-3.007,1.624-4.538.394-1.217.891-1.174,1.9-.616,1.74.963,2.091,2.572,2.351,4.235.3,1.945.458,3.915.677,5.874" transform="translate(33.935 7.584)" fill="#30c684" fill-rule="evenodd"/>
    <path id="Path_1010" data-name="Path 1010" d="M167.025,204.078a5.39,5.39,0,0,1,.8-2.753,52.577,52.577,0,0,0,3.011-6.649c.741-1.831.9-1.688,2.439-.709,1.6,1.021,2,2.535,2.526,4.055.57,1.651,1.058,3.335,1.464,5.033.371,1.547.058,1.865-1.425,2.375a15.884,15.884,0,0,1-4.132,1.316,1.045,1.045,0,0,1-1.259-.8c-.195-.562-.621-.523-1.076-.333a1.6,1.6,0,0,1-2.349-1.535" transform="translate(33.154 18.392)" fill="#30c684" fill-rule="evenodd"/>
    <path id="Path_1011" data-name="Path 1011" d="M176.484,228.674c-1.7-.185-3.166-.266-4.608-.518-2.371-.414-3.378-2.169-2.87-4.557a39.293,39.293,0,0,1,1.923-7.016c.765-1.835,1.661-2.073,2.989-.654a7.418,7.418,0,0,1,1.4,2.184,44.754,44.754,0,0,1,2.876,8.3c.312,1.572-.307,2.3-1.714,2.258" transform="translate(33.568 23.265)" fill="#30c684" fill-rule="evenodd"/>
    <path id="Path_1012" data-name="Path 1012" d="M158.176,172.387c-.4-.368.184-1.337-.707-1.583-.312-.086-.508.432-.393.733.213.558.017,1.382.785,1.6.375.108.316-.328.316-.751m3.477,2.453c.045,2.07-.448,2.431-2.218,2.4a16.53,16.53,0,0,0-3.031.487c-1.577.274-3.966-1.108-4.385-2.448a1.516,1.516,0,0,1,.051-1.173c1.223-2.78,2.416-5.573,3.65-8.348.539-1.212,1.162-1.308,2.168-.4,2.264,2.039,2.734,4.912,3.505,7.634a11.221,11.221,0,0,1,.259,1.853" transform="translate(29.772 12.007)" fill="#30c684" fill-rule="evenodd"/>
    <path id="Path_1013" data-name="Path 1013" d="M147,195.471a37.335,37.335,0,0,1,2.433-9.139c.466-1.266,1.086-1.289,2.168-.444a4.465,4.465,0,0,1,1.678,2.917c.425,2.72.772,5.453,1.1,8.186.137,1.154-.589,1.744-1.748,1.983a6.107,6.107,0,0,1-4.758-1.295c-.789-.519-.776-1.392-.871-2.207" transform="translate(28.668 16.612)" fill="#30c684" fill-rule="evenodd"/>
    <path id="Path_1014" data-name="Path 1014" d="M191.686,194.859c-.5-.042-1.075-.263-1.291-.075-.761.666-1.689.209-2.526.514-.893.326-2.256-1.875-2.148-2.974.16-1.628,1.568-2.658,1.8-4.294a30.815,30.815,0,0,1,1.357-4.744,1.048,1.048,0,0,1,.99-.821,1.116,1.116,0,0,1,1.155.758c1.469,2.915,2.251,6.082,3.372,9.123.619,1.679-.923,2.272-2.7,2.513" transform="translate(37.339 15.974)" fill="#30c684" fill-rule="evenodd"/>
    <path id="Path_1015" data-name="Path 1015" d="M213.427,200.219c.384,1.709-1.5,2.638-2.743,2.323a2.216,2.216,0,0,0-1.75-.007c-.863.408-2.168.9-2.39-.913-.017-.144-.392-.218-.551-.375a2.468,2.468,0,0,1-.114-3.464,2.744,2.744,0,0,0,.508-.816c.683-2.021,2.184-3.718,2.333-5.951.039-.579.253-1.117.914-1.223s.983.37,1.252.882a4.192,4.192,0,0,1,.417.712,82.251,82.251,0,0,1,2.124,8.831" transform="translate(41.709 17.613)" fill="#30c684" fill-rule="evenodd"/>
    <path id="Path_1016" data-name="Path 1016" d="M715.32,420.792l-.792-.786v-.4c-.476-.52-.941-1.017-1.393-1.526-.382-.428-.724-.895-1.126-1.3-.449-.453-.841-.955-1.317-1.392-.429-.394-1-.693-1.269-1.229-.31-.623-.988-.813-1.377-1.337a17.564,17.564,0,0,0-1.219-1.346c-.009.01-.073.075-.154.155a18.658,18.658,0,0,0-4.552-3.144l-.153-.4-.288.23c-.929-.49-1.906-.93-2.815-1.445a25.4,25.4,0,0,1-3.412-1.814,4.743,4.743,0,0,0-1.858-.819c-.4-.088-.321-.348-.469-.556l-.443.272-2.274-1.2.376-.412c-.239-.339-.226-.885-1.081-1.026l1-.349-.745-.692c-.157.094-.3.184-.461.282l-.7-.4c.018-.113,0-.253.05-.278.34-.175.693-.328,1.039-.488.121-.654-.52-.595-.8-.871.065-.065.131-.13.222-.222l-.262-.518c.334-.233.649-.453,1.1-.764a31.369,31.369,0,0,0,3.749-.328,8.671,8.671,0,0,0,1.944-.285c.687-.324,1.373-.013,1.973-.252.661-.262,1.351-.089,1.958-.285.665-.215,1.355-.076,1.962-.269,1.443-.461,3.009-.4,4.39-1.077.614.168,1.229-.368,1.844,0a5.959,5.959,0,0,1,2.082-.649,16.059,16.059,0,0,1,3.014-.753,3.774,3.774,0,0,0,1.094-.454l-3.77-1.091-.59-.737-.989.285c-1.245-.48-2.754-.521-3.847-1.557-.421.517-1.022.122-1.471.266a21.474,21.474,0,0,0-4.729-1.253l-.32-.35c-.6-.228-1.228.08-1.836-.307a2.75,2.75,0,0,0-1.656-.283,3.24,3.24,0,0,1-1.8-.36c-.6-.313-1.154-.1-1.771-.266-.105-.116-.261-.285-.476-.52a25.409,25.409,0,0,1-4.193-.25l-.443-.583h-1.417c.176-.206.258-.3.427-.5a1.557,1.557,0,0,1-1.492-.837l.23-.4-2.062-2.117.288-1,.475-.229v-.323l-.546-.185a2.255,2.255,0,0,1,.972-1.854c.643-.109.643-.109,1.08-.909l-.586.329c-.032-.125-.07-.267-.12-.463l.88-.132c-.109-.137-.18-.229-.234-.3l1.579-2.18h.616c-.138-.162-.218-.257-.327-.384l.514-.174v-.586l.441-.439c.3.25.788.3.862.8.442-.616-.127-.883-.488-1.327l.711-.061a3.622,3.622,0,0,0,.824-1.838c.02-.652.666-.974,1.314-1.239-.105-.143-.169-.229-.3-.4l.747-.146c-.008-.065-.022-.162-.062-.45a6.388,6.388,0,0,0,.947-1.379c.306-.794,1.175-1.06,1.476-1.88a6.176,6.176,0,0,1,1.3-1.96,26.173,26.173,0,0,0,1.979-2.811h-.758l-.273.58-.6-.377a9.594,9.594,0,0,0-1.083.649c-.28.218-.775.242-.772.754-.524-.138-.807.251-1.114.551l-.207-.208a12.5,12.5,0,0,1-3.926,2.416l-1.043,1.093h-.459l-1.745,1.248-.42-.737-1.113.635c.088.359.164.67.24.977l-2.547,1.7a1.809,1.809,0,0,1,.6-.919c-.546-.335-.668.256-.967.42l-.557-.406c-.066.259-.13.5-.192.743l-.212-.206c.1.177.208.354.322.55l-.969.481-.341-.3c-.091.084-.188.173-.312.286.07.377.144.776.212,1.141l-3.228,1.9-.113-.114c.077-.106.154-.213.344-.479l-1.942.357c-.157-.53-.3-1.02-.512-1.732l-.508-.4a29.513,29.513,0,0,0,3.635-3.065c1.595-1.43,3.414-2.523,5.081-3.837,1.734-1.368,3.652-2.507,5.486-3.751,1.044-.707,2.067-1.449,3.126-2.137,1.485-.966,2.96-1.956,4.507-2.81a12.05,12.05,0,0,1,1.973-1.244,7.968,7.968,0,0,0,1.837-1.231,50.266,50.266,0,0,0,4.54-3.409c.924-.825,1.958-1.53,3.087-2.4h1.651c.012.4.168.832-.272,1.27l1.023.114a5.731,5.731,0,0,1,.6,3.773l-.865.619-.846.339.383,1.066c-.367.5-.7,1.02-1.108,1.477-.346.389-.323,1.121-1.188,1.026l.389.39c-.64.247-.48,1.257-1.356,1.269-.029.242-.055.46-.086.717l-.378.087a17.128,17.128,0,0,1-2.9,4.333c0,.1.051.272-.01.373-.246.409-.446,1-.814,1.147-.6.242-.567,1.137-1.357,1.077-.02.334-.037.644-.056.977l-.508.186c-.009.162-.017.339-.033.613l-1.16,1.1c-.147-.31-.233-.493-.351-.747-.233.346-.442.66-.651.974l.308.493a2.607,2.607,0,0,0-.608.381,1.843,1.843,0,0,0-.239.569c.081.118.179.258.344.5-.229.135-.426.25-.756.445l-.688-.2v.561c-.471.252-.8.424-.931,1.032a12,12,0,0,1-1.356,2.884c-.075.144-.345.188-.524.277.093.114.171.207.164.2a9.424,9.424,0,0,1-1.105,1.259,10.469,10.469,0,0,1-1.565.86c-.124.3.168.382.917.229l-.843.676-.692-.345c.149.382.25.639.362.929-.069.091-.146.2-.273.366.13.12.293.388.422.373a2.547,2.547,0,0,1,1.567.473c1.011-.266,1.9.292,2.838.4a16.036,16.036,0,0,1,3.067.6,13.936,13.936,0,0,0,2.865.72c1.019.093,1.951.46,2.942.623a17.554,17.554,0,0,1,2.973.82c.934.331,1.918.427,2.857.775a18.209,18.209,0,0,0,2.967.831c.991.185,1.868.64,2.826.878s1.9.518,2.837.827c.971.321,1.919.706,2.882,1.049.927.329,1.86.639,2.869.984.244.244.567.565.884.884-.078.088-.166.19-.247.279-.043.592.465.586.742.742.109.594.212,1.151.323,1.752l-.225.242c.646.723.154,1.34-.255,1.881a15.786,15.786,0,0,1-1.485,1.513c-1.332.186-2.487,1.266-4.006.857-.043.2-.068.33-.111.542l-2.66.436c-.01.032-.057.19-.092.306-.767.213-1.509.438-2.261.617a1.418,1.418,0,0,1-.912.023,1.435,1.435,0,0,0-1.619,0c-.263.153-.649.089-.968.313h1.084c-.078.166-.114.288-.138.285a5.024,5.024,0,0,0-2.042.426,2.092,2.092,0,0,1-1.561.056c-.516-.29-.961-.071-1.641-.3l.324.45c-.82.526-1.162.673-1.805.355a1.892,1.892,0,0,0-1.425.06l1.365.155-2.409.51a37.753,37.753,0,0,1,5.592,3.541,13.772,13.772,0,0,1,3.748,3.376c.2.256.564.381.788.625.387.423.69.928,1.093,1.334.371.373.887.608,1.233,1,.914,1.033,1.652,2.214,2.64,3.193.1.1.04.348.056.547.2.121.479.2.611.394a28.523,28.523,0,0,1,1.845,2.83c.42.787.9,1.539,1.268,2.373a18.273,18.273,0,0,1,.65,2.493,3.851,3.851,0,0,1-.4,2.641c-.976-.841-1.895.224-2.879.165l1.392.108c-.005.073-.01.148-.015.222h-.916c-.277,0-.553,0-.83,0-.31.007-.651-.086-.859.261-.171-.408-.5.071-.677-.109-.311-.324-.459.361-.785.084a1.423,1.423,0,0,0-.726-.229,7.624,7.624,0,0,0-.913-.009l-.226-.644c-.084.244-.137.4-.211.613l-.6.051-.864-.862-.583.032c-.072.2-.13.355-.211.575-.111-.234-.2-.412-.284-.591h-.3c-.084.177-.174.366-.272.577a7.141,7.141,0,0,0-2.406-.608,3.828,3.828,0,0,1-1.234-.448l-.158.121-2.306-.617.685-.558a2.1,2.1,0,0,0-1.186.147,1.11,1.11,0,0,1-.105-.08c-.067-.064-.131-.13-.207-.206-.062.067-.122.136-.186.2a1.092,1.092,0,0,1-.105.086l-1.212-.4v-1.215l-.188-.091-.388.6.337.612-1.67-.412c-.037-.166-.064-.293-.093-.423-.7.472-1.209.091-1.731-.313a1.864,1.864,0,0,0-.569-.289c-.45-.142-.909-.252-1.459-.4,0-.016-.042-.138-.116-.392l-1.054.071c.08.066,0-.045-.1-.081-.846-.3-1.726-.493-2.548-.859-.077-.036-.18-.007-.266-.028-.557-.141-.808-.858-1.463-.8-.578.05-.939-.408-1.428-.564-.526-.168-1.038-.386-1.552-.59a3.224,3.224,0,0,0-.459-.223,3.19,3.19,0,0,0-.635-.01l-.416-.55h-.937a2.537,2.537,0,0,0-2.023-1.114.34.34,0,0,1-.246-.061c-.788-.894-2.031-.894-2.972-1.53-.907-.612-2.015-.922-2.98-1.46-1.28-.712-2.508-1.516-3.754-2.289a.845.845,0,0,1-.291-.292c-.589-1.089-1.166-2.185-1.693-3.176.132-.679.24-1.239.38-1.957l.941-.577c.74.285,1.471.526,2.165.849a15.061,15.061,0,0,1,2.029,1.105c1.4.93,2.971,1.524,4.423,2.343a9.92,9.92,0,0,1,2.576,1.458,30.753,30.753,0,0,1,4.581,1.962,13.482,13.482,0,0,0,1.988.876c.657.174,1.286.452,1.929.681,2.007.718,4.011,1.444,6.023,2.147q1.573.549,3.17,1.027c1.072.318,2.2.53,3.23.89,1.814.629,3.721.736,5.541,1.291a12.438,12.438,0,0,0,3.055.3c1,.047,2,.01,3.288.01" transform="translate(145.806 52.826)" fill="#30c684" fill-rule="evenodd"/>
    <path id="Path_1017" data-name="Path 1017" d="M70.481,311.871l-.451.452c-.849-.1-1.726-.231-2.608-.28s-1.751-.011-2.626-.011a6.283,6.283,0,0,0-2.056.048c-.677.248-1.417-.01-1.95.278-.62.333-1.366-.047-1.871.5-1.047-.1-1.916.543-2.883.7a15.31,15.31,0,0,0-3.061.974,30.874,30.874,0,0,0-3.45,1.355c-.788.414-1.638.728-2.455,1.078a22.709,22.709,0,0,0-3.976,2.406c-.7.482-1.3,1.1-1.948,1.649a18.154,18.154,0,0,0-1.828,1.575c-1.88,2.1-3.876,4.126-5.1,6.731a7.482,7.482,0,0,0-1.6,2.8,10.126,10.126,0,0,0-1.157,2.975,20.77,20.77,0,0,0-1.793,4.92,13.43,13.43,0,0,0-.972,4.027c-.5.414-.215,1.066-.488,1.6a3.313,3.313,0,0,0-.355,1.929c.092.662-.383,1.256-.283,1.961a4,4,0,0,1-.216,1.831c-.2.6.024,1.316-.292,1.958-.076.155.206.459.235.705.02.17-.22.438-.157.526.374.51.058,1.07.174,1.494l-.532,1,.6.321c0,1.824,0,3.515.008,5.207,0,.065.122.13.189.2l-.268.294a10.488,10.488,0,0,1,.57,2.674,6.1,6.1,0,0,0,.267,1.542c.275,1.044.5,2.106.692,3.159a12.951,12.951,0,0,0,1.337,3.187,5.634,5.634,0,0,0,2.193,2.542,48.143,48.143,0,0,0,4.366,2.488c.726.337,1.523.588,2.248.907a18.519,18.519,0,0,0,2.328.705,11.966,11.966,0,0,0,2.216.338,6.236,6.236,0,0,1,1.833.252c.552.215,1.258-.158,1.811.306.027.022.09,0,.136,0,2.27-.016,4.538.594,6.791.235a13.989,13.989,0,0,0,4.547-1.011c2.2-.277,4.1-1.482,6.227-1.989.582-.552,1.405-.613,2.067-1.025s1.4-.634,2.07-1c2.376-1.295,4.764-2.57,7.033-4.053a13.112,13.112,0,0,1,1.256-.961,7.12,7.12,0,0,0,1.653-1.343,6.274,6.274,0,0,0,1.307-1.525,14.3,14.3,0,0,1,1.379-1.63,22.061,22.061,0,0,0,2.761-4.262c.418-.967.818-1.967,1.174-2.973.343-.969.462-1.994.87-2.953a8.659,8.659,0,0,0,.321-2.492c.1-1.021.224-2.042.269-3.065a26.607,26.607,0,0,0-.008-3.179,20.884,20.884,0,0,0-.467-3.111,10.919,10.919,0,0,1-.324-1.8,7.761,7.761,0,0,0-.79-2.584,21.817,21.817,0,0,0-2.781-4.531c-1.188-1.591-2.894-2.564-4.161-4.033a7.487,7.487,0,0,0-2.007-1.466c-.547-.311-1.209-.375-1.8-.657a16.691,16.691,0,0,0-2.322-.733c-.08-.025-.147-.11-.226-.119-.975-.1-1.95-.2-2.927-.275a4.818,4.818,0,0,0-1.1.007c-.3.046-.569-.45-.869-.034-.486-.373-.932.181-1.446.049a2.5,2.5,0,0,0-1.415.207c-.555.195-1.226-.021-1.811.31a9.842,9.842,0,0,1-1.186.49l-.446-.445c-.057.042-.167.089-.164.127a.885.885,0,0,1-.545.958c-.764.4-1.482.884-2.264,1.36l-.654-.375-.161.639.331.159c-.671.658-1.335,1.291-1.976,1.946a23.107,23.107,0,0,0-3.813,5.193c-.529.978-1.1,1.94-1.551,2.952a40.336,40.336,0,0,0-1.565,3.776c-.311.933-.651,1.852-.943,2.793a11.37,11.37,0,0,1-.359,1.785c-.339.721-.137,1.677-.362,2.476a12.03,12.03,0,0,0-.262,2.8,3.575,3.575,0,0,1-.268.865l.266.3-.158.179a7.42,7.42,0,0,1,.163,1.1,11.587,11.587,0,0,0,.558,3.089,4.736,4.736,0,0,0,2.991,3.209,21.675,21.675,0,0,0,5.328,1.206c1.5.184,2.975.089,4.44.225.687-.487,1.5-.662,2.207-1.087a5.128,5.128,0,0,0,.786-.427c1.02-.86,2.136-1.595,3.126-2.509.443-.408.96-.787,1.411-1.214a11.8,11.8,0,0,0,2.94-4.838,8.507,8.507,0,0,1,.589-1.823c.388-.6-.015-1.356.522-1.865a27.1,27.1,0,0,0,.241-3.34,18.1,18.1,0,0,1-.246-2.376,12.994,12.994,0,0,0-1.15-2.557c-.46-.417-.96-.789-1.442-1.181-.479.259-.861-.387-1.441-.072a2.537,2.537,0,0,1-1.737.159c-.6-.169-.192.315-.395.41-1.639.778-2.684,2.315-4.16,3.31-.072.048-.12.132-.046.048a4.358,4.358,0,0,1-.43,1.4c-.739.89-.9,2.037-1.47,3a2.07,2.07,0,0,0-.165.758c-.075.564.176,1.171-.266,1.694-.091.108-.049.366-.007.54.12.492.271.975.435,1.551,1.8-1.226,2.466-3.266,3.77-4.78h1.008l-.675,1.486a3.779,3.779,0,0,0,.764-.335c.313-.271.593-.58.9-.889.41.274.63.734,1.013,1.055.358.3.474.887.81,1.583.013,1.032-.856,2.06-1.121,3.275-.5.329-1.062.524-1.148,1.311-.051.466-.516.887-.726,1.219-.592.263-1.071.027-1.567.323-.695.416-1.437-.326-2.2-.2-1.075-.712-2.355-.986-3.453-1.7A7.82,7.82,0,0,1,54.77,355.9c-.384-.5-.567-1.149-.907-1.689a5.806,5.806,0,0,1-.488-1.727,6.131,6.131,0,0,1-.025-2.742,15.456,15.456,0,0,1,1.06-3.7,15.259,15.259,0,0,1,2.75-3.972,16.454,16.454,0,0,1,3.467-2.961,28.686,28.686,0,0,1,2.736-1.081c.417-.193.8.293,1.308.031a2.681,2.681,0,0,1,1.363-.027c.473.049,1.108.016,1.372.3.59.632,1.619.272,2.071,1.057.881,0,1.424.654,2.01,1.138,1.5,1.237,3.06,2.442,3.77,4.367.1.28.2.563.293.842l.366.082c.2.766.4,1.513.608,2.277-.034.045-.089.114-.189.242l.592.94-.9.142c-.009.14-.016.263-.027.442h.617c.09.082.123.114.157.143-.383.351.237.671.042.993-.457.756-.176,1.588-.282,2.376a9.381,9.381,0,0,1-.4,1.767,4.978,4.978,0,0,1-.615,1c.569.841-.5,1.666-.135,2.572l-.369.077c-.274.6-.559,1.218-.963,2.1v.925a2.19,2.19,0,0,1-1.367,1.493v.61a26.3,26.3,0,0,1-2.362,2.255c-.345.263-.683.551-1.033.816a8.242,8.242,0,0,0-.952.694,11.217,11.217,0,0,1-3.176,2.026,10.95,10.95,0,0,1-5.547.936,13.612,13.612,0,0,1-1.934-.5c-.151.059-.422.278-.622.224a44.928,44.928,0,0,1-6.588-1.778,23.523,23.523,0,0,1-4.5-2.443,10.169,10.169,0,0,1-2.588-2.765,15.2,15.2,0,0,1-2.041-4c-.034-.12-.165-.218-.184-.337a14.189,14.189,0,0,1-.27-1.958c-.037-1.8-.095-3.6.019-5.389a30.55,30.55,0,0,1,.465-3.1c.168-.991.4-1.961.589-2.945a22.808,22.808,0,0,1,1-3.185,14.342,14.342,0,0,1,.99-2.486c.753-1.3,1.25-2.717,2.064-4,.78-1.233,1.508-2.509,2.331-3.722a12.376,12.376,0,0,1,1.353-1.785,27.218,27.218,0,0,1,3.983-3.72,19,19,0,0,1,4.152-2.328,16.72,16.72,0,0,1,4.676-1.061,3.851,3.851,0,0,0,.868-.272l.3.262.195-.162a3.42,3.42,0,0,1,.8.193c.334.168.51-.389.927-.094.28.2.792.055,1.2.086.346.026.746-.149,1,.242.4-.586.757.111,1.14.032a2.817,2.817,0,0,1,1.408.269c.413.122.843.19,1.265.283a4.906,4.906,0,0,1,1.26.291c1.547.827,3.4,1.084,4.634,2.461.936-.027,1.517.656,2.181,1.108A38.338,38.338,0,0,1,86,333.829a21.353,21.353,0,0,1,4.481,6.982,19.155,19.155,0,0,1,1.313,4.308c.125.98.411,1.963.493,2.957s.018,2.026.018,3.039c0,.738.007,1.475,0,2.213a3.648,3.648,0,0,1-.421,2.184,4.172,4.172,0,0,0-.291,1.572c.53.291-.47.81.132,1.073-.392.764-.784,1.524-1.179,2.291a2.1,2.1,0,0,0-.336-.293c-.067-.038-.176,0-.315.006-.094.34.3.373.431.7v1.125l-.483.485.213.277c-.584.586-.657,1.442-1.065,2.135a8.5,8.5,0,0,1-1.519,2.169l-1.163-.308-.067.2.6.261-.686.47.1.186.737-.165c.021.166.05.4.081.645l-.592.217c.058.272.117.554.205.973-.319.182-.75.43-1.244.711l-.687,1.549.124.073c-1.006,1.006-1.942,2.1-3.035,3a44.43,44.43,0,0,1-4.154,2.973c-2.027,1.31-4.1,2.543-6.176,3.778a2.876,2.876,0,0,1-.977.152c-.46.836-1.469.95-2.249,1.408a21.356,21.356,0,0,1-2.368,1.049l-.273-.55c-.455,1.11-1.615,1.126-2.529,1.574l-.543-.3c-.072.235-.12.392-.168.548-.032.033-.077.1-.1.093-.568-.187-1.048.175-1.538.31-2.341.652-4.729.442-7.1.55-1.825.083-3.61-.246-5.414-.34a9.691,9.691,0,0,1-2.085-.286c-.672-.191-1.34-.086-1.967-.252-.793-.211-1.587-.4-2.386-.58a21.71,21.71,0,0,1-2.58-.769c-.843-.306-1.713-.536-2.555-.843s-1.647-.7-2.489-1c-2.458-.87-4.525-2.439-6.754-3.721-1.015-1.165-2.229-2.127-3.194-3.363a32.883,32.883,0,0,1-2.051-3.042,14.677,14.677,0,0,1-1.5-3.655,19.713,19.713,0,0,1-.841-4.08,9.263,9.263,0,0,0-.263-1.131c-.078-.382.168-.831-.253-1.144-.048-.035-.021-.171-.027-.261-.092-1.574-.222-3.148-.267-4.725-.046-1.612-.017-3.225,0-4.838,0-.148.156-.295.24-.442L19,351.663c.1-.234.31-.482.283-.7-.167-1.37.351-2.681.3-4.035-.012-.343-.151-.747.248-1-.43-.3.066-.569.039-.87a1.488,1.488,0,0,1,.163-1.034c.294-.468-.09-1.158.371-1.638.006-1.463.689-2.76,1-4.146a16.853,16.853,0,0,1,1.068-3.018c.354-.813.55-1.7.867-2.541a62.262,62.262,0,0,1,2.622-5.826c.63-1.266,1.575-2.37,2.21-3.649.834-.4,1-1.345,1.6-1.963s1.171-1.355,1.8-1.994c.648-.655,1.279-1.329,1.959-1.95,1.111-1.013,2.379-1.845,3.516-2.814a30.271,30.271,0,0,1,3.724-2.412,16.5,16.5,0,0,1,3.861-1.665c.939-.292,1.816-.745,2.792-.955,1.212-.259,2.387-.685,3.586-1.009.5-.136,1.155-.033,1.512-.321.535-.431,1.166.009,1.648-.4.421-.357,1.105.176,1.5-.387.015-.022.089-.01.134,0,1.139.2,2.21-.339,3.342-.288a23.625,23.625,0,0,1,3.31.048c1.723.329,3.517.348,5.122,1.313a6.062,6.062,0,0,1,2.772,2.844,3.058,3.058,0,0,1,.122.622" transform="translate(0 43.867)" fill="#30c684" fill-rule="evenodd"/>
  </g>
</svg>
