<svg xmlns="http://www.w3.org/2000/svg" width="226.4" height="200.447" viewBox="0 0 226.4 200.447">
  <g id="Group_17" data-name="Group 17" transform="translate(-5672.1 -2648.213)">
    <path id="Path_282" data-name="Path 282" d="M1197.78,1464.26s8.95,13.43,10.44,12.68,20.21-13.34,17.48-14.59-12.6,1.33-12.6,1.33l-7.37-8.83Z" transform="translate(4639 1368)" fill="#fff"/>
    <path id="Path_283" data-name="Path 283" d="M1208.17,1477.39c-1.77,0-6.78-6.91-10.76-12.88a.438.438,0,0,1-.09-.27.392.392,0,0,1,.09-.26l7.94-9.46a.388.388,0,0,1,.15-.11.448.448,0,0,1,.19-.05.374.374,0,0,1,.18.05.327.327,0,0,1,.15.11l7.2,8.66c1.66-.42,10-2.42,12.62-1.23a.976.976,0,0,1,.38.32.966.966,0,0,1,.15.47c.05,2.93-17.19,14.2-18,14.6A.455.455,0,0,1,1208.17,1477.39Zm-9.84-13.1c3.94,5.89,8.74,12.18,9.71,12.25.57-.31,5.05-3.25,9.43-6.5,8.01-5.92,8.03-7.17,8.01-7.29-2.14-.97-9.61.65-12.31,1.36a.394.394,0,0,1-.24-.01.6.6,0,0,1-.21-.14l-7.06-8.46Z" transform="translate(4639 1368)" fill="#231f20"/>
    <path id="Path_284" data-name="Path 284" d="M1166.97,1461.27s-4.22,15.84-3.07,17.17,28.5,2.65,27.5,1.16-13.85-9.79-13.85-9.79l1.22-7.42Z" transform="translate(4639 1368)" fill="#fff"/>
    <path id="Path_285" data-name="Path 285" d="M1185.45,1480.66c-8.02,0-21-.93-21.87-1.93-1.22-1.4,1.96-13.8,2.96-17.57a.4.4,0,0,1,.18-.24.428.428,0,0,1,.29-.08l11.81,1.11a.5.5,0,0,1,.31.18.459.459,0,0,1,.07.16.5.5,0,0,1,.01.17l-1.18,7.14c2.12,1.37,12.77,8.3,13.74,9.72a.721.721,0,0,1,.09.2.809.809,0,0,1,0,.22.486.486,0,0,1-.08.21.57.57,0,0,1-.16.15C1191.15,1480.51,1188.71,1480.66,1185.45,1480.66Zm-18.15-18.89c-1.97,7.45-3.64,15.53-3.06,16.4,1.4,1.09,23.35,2.2,26.54,1.4-1.55-1.5-8.7-6.29-13.47-9.37a.394.394,0,0,1-.17-.19.524.524,0,0,1-.03-.25l1.15-6.95Z" transform="translate(4639 1368)" fill="#231f20"/>
    <path id="Path_286" data-name="Path 286" d="M1150.97,1406.84h-33.61v70.11h33.61Z" transform="translate(4639 1368)" fill="#fff"/>
    <path id="Path_287" data-name="Path 287" d="M1150.97,1477.38h-33.59a.444.444,0,0,1-.44-.44v-70.1a.4.4,0,0,1,.13-.31.439.439,0,0,1,.31-.13h33.61a.439.439,0,0,1,.31.13.4.4,0,0,1,.13.31v70.1a.566.566,0,0,1-.03.18.714.714,0,0,1-.1.14,1.312,1.312,0,0,1-.15.1A.372.372,0,0,1,1150.97,1477.38Zm-33.17-.88h32.73v-69.22H1117.8Z" transform="translate(4639 1368)" fill="#231f20"/>
    <path id="Path_288" data-name="Path 288" d="M1108,1389.05h-33.61v87.89H1108Z" transform="translate(4639 1368)" fill="#fff"/>
    <path id="Path_289" data-name="Path 289" d="M1108,1477.38h-33.61a.4.4,0,0,1-.31-.13.439.439,0,0,1-.13-.31v-87.89a.444.444,0,0,1,.44-.44H1108a.458.458,0,0,1,.31.13.439.439,0,0,1,.13.31v87.89a.439.439,0,0,1-.13.31A.416.416,0,0,1,1108,1477.38Zm-33.17-.88h32.73v-87.01h-32.73Z" transform="translate(4639 1368)" fill="#231f20"/>
    <path id="Path_290" data-name="Path 290" d="M1067.1,1354.87h-33.6v122.07h33.6Z" transform="translate(4639 1368)" fill="#fff"/>
    <path id="Path_291" data-name="Path 291" d="M1067.07,1477.38h-33.53a.4.4,0,0,1-.31-.13.439.439,0,0,1-.13-.31V1354.88a.458.458,0,0,1,.13-.31.439.439,0,0,1,.31-.13h33.53a.482.482,0,0,1,.32.13.458.458,0,0,1,.13.31v122.06a.444.444,0,0,1-.45.44Zm-33.16-.88h32.72V1355.32h-32.69Z" transform="translate(4639 1368)" fill="#231f20"/>
    <path id="Path_292" data-name="Path 292" d="M1160.66,1390.71l51.78,67.43-15.24,10.35-69.85-77.78Z" transform="translate(4639 1368)" fill="#231f20"/>
    <path id="Path_293" data-name="Path 293" d="M1197.2,1468.93a.392.392,0,0,1-.18-.04.419.419,0,0,1-.15-.11L1127.01,1391a.444.444,0,0,1-.1-.22.54.54,0,0,1,.03-.25.615.615,0,0,1,.17-.19.483.483,0,0,1,.24-.07h33.31a.447.447,0,0,1,.2.04.373.373,0,0,1,.15.13l51.78,67.43a.437.437,0,0,1,.09.35.442.442,0,0,1-.06.16.532.532,0,0,1-.13.13l-15.24,10.32a.394.394,0,0,1-.25.1Zm-68.84-77.78,68.91,76.8,14.53-9.91-51.36-66.89Z" transform="translate(4639 1368)" fill="#231f20"/>
    <path id="Path_294" data-name="Path 294" d="M1111.9,1391.91s4.58,13.4,9.57,18.88,46.5,20.89,46.5,20.89l-3.78,33.28,19.19,2.04s13.11-36.32,8.67-42.29-52.95-37.98-52.95-37.98Z" transform="translate(4639 1368)" fill="#231f20"/>
    <path id="Path_295" data-name="Path 295" d="M1183.38,1467.44l-19.23-2.04a.494.494,0,0,1-.3-.16.483.483,0,0,1-.08-.16.473.473,0,0,1-.01-.17l3.73-32.94c-4.17-1.56-41.47-15.59-46.34-20.89-5-5.48-9.48-18.48-9.71-19.03a.344.344,0,0,1-.04-.18.394.394,0,0,1,.04-.18.428.428,0,0,1,.13-.14.532.532,0,0,1,.17-.08l27.21-5.18a.506.506,0,0,1,.32.07c2.07,1.31,48.71,32.12,53.12,38.09,1.93,2.59,1.06,10.6-2.59,23.76-2.65,9.71-5.98,18.85-6.01,18.94a.537.537,0,0,1-.16.21.437.437,0,0,1-.25.08Zm-18.69-2.87,18.39,1.95c.61-1.71,3.48-9.89,5.88-18.55,4.41-16.06,3.94-21.37,2.73-22.97-4.23-5.67-49.69-35.81-52.67-37.78l-26.53,5.05c.88,2.44,4.97,13.48,9.31,18.25,4.87,5.3,45.89,20.62,46.33,20.77a.452.452,0,0,1,.22.19.446.446,0,0,1,.06.28Z" transform="translate(4639 1368)" fill="#231f20"/>
    <path id="Path_296" data-name="Path 296" d="M1163,1342.99s8.72,19.44,10.05,19.57l5.38-8.37s.49-5.72,1.98-8.04,3.16-1.66,3.16-1.66,1.47-2.79,3.29-3.12,7.49,3.19,4.16,5.36-14.06,33.25-18.04,33.64c-12.65,1.22-21.63-33.79-21.55-33.9Z" transform="translate(4639 1368)" fill="#fff"/>
    <path id="Path_297" data-name="Path 297" d="M1172.3,1380.84c-4.86,0-9.7-4.9-14.29-14.58-3.53-7.45-7.44-19.54-6.89-20.1a.4.4,0,0,1,.18-.1l11.58-3.53a.473.473,0,0,1,.31.02.5.5,0,0,1,.22.21c3.75,8.36,8.18,17.48,9.53,19.11l5.06-7.88c.08-.83.61-5.89,2.04-8.13,1.25-1.94,2.65-2.02,3.3-1.92.46-.77,1.77-2.75,3.44-3.05,1.5-.27,4.8,1.53,5.54,3.39a2.157,2.157,0,0,1,.02,1.6,2.133,2.133,0,0,1-1.08,1.17c-1.35.88-4.41,7.75-7.32,14.39-5.11,11.53-8.62,19.1-10.94,19.32-.23.04-.46.06-.7.08Zm-20.35-34.06a113.808,113.808,0,0,0,6.03,17.32c3.39,7.55,8.72,16.44,14.94,15.83,1.98-.2,6.74-10.95,10.21-18.81,3.26-7.38,6.08-13.74,7.65-14.76.99-.65.88-1.28.72-1.71-.61-1.54-3.53-3.04-4.56-2.85-1.33.24-2.61,2.17-2.99,2.89a.429.429,0,0,1-.23.21.442.442,0,0,1-.32,0c-.05,0-1.35-.48-2.65,1.49-1.41,2.2-1.92,7.78-1.92,7.83a.306.306,0,0,1-.07.2l-5.34,8.41a.421.421,0,0,1-.19.16.47.47,0,0,1-.24.05c-1.35-.17-6.92-12.11-10.23-19.44Z" transform="translate(4639 1368)" fill="#231f20"/>
    <path id="Path_298" data-name="Path 298" d="M1123.6,1291.76a20.966,20.966,0,0,0-1.69,1.71c-1.94,2.19-3.02,4.99-4.06,7.72-1.58,4.15-2.54,12.22-5.12,15.53-2.85,3.63-9.23,2.06-11.73,6.35-1.6,2.73-.29,6.29-1.16,9.33-1.58,5.51-9.03,6.77-12.46,11.37-2.73,3.67-2.38,8.83-1.12,13.2a18.337,18.337,0,0,0,4.41,8.21c7.35,7.02,21.45,1.22,26.48-5.93,2.51-3.62,3.93-8.39,7.86-10.37,2.85-1.43,6.23-.95,9.42-1.06a23.8,23.8,0,0,0,10.08-2.65c3.27-1.71,6.43-5.23,5.15-8.69-.8-2.14-3.14-3.53-3.53-5.8-.6-3.11,2.59-5.41,4.83-7.66,5.83-5.89,5.77-16.58-.14-22.4a9.71,9.71,0,0,0-.66-12.3,5.184,5.184,0,0,0-2.55-1.59,8.53,8.53,0,0,0-2.98.1C1136.44,1287.91,1129.94,1286.04,1123.6,1291.76Z" transform="translate(4639 1368)" fill="#fff"/>
    <path id="Path_299" data-name="Path 299" d="M1099.29,1368.8a12.512,12.512,0,0,1-8.88-3.32c-2.02-1.92-3.48-4.6-4.57-8.41s-1.85-9.51,1.19-13.58a20.353,20.353,0,0,1,5.91-4.75c2.89-1.77,5.61-3.48,6.48-6.48a13.89,13.89,0,0,0,.3-3.96c0-1.87-.08-3.8.88-5.47,1.41-2.42,3.95-3.09,6.4-3.73,2.12-.56,4.12-1.08,5.36-2.65,1.6-2.04,2.6-6.12,3.47-9.72a56.514,56.514,0,0,1,1.59-5.69c1.01-2.65,2.14-5.57,4.15-7.85a22.6,22.6,0,0,1,1.76-1.77h0c4.71-4.24,9.4-4.41,14.83-4.61,2.05-.08,4.16-.16,6.41-.46l.33-.05a7.748,7.748,0,0,1,2.8,0,5.532,5.532,0,0,1,2.77,1.72,10.161,10.161,0,0,1,.88,12.56,16.89,16.89,0,0,1-.13,22.75c-.36.37-.75.74-1.15,1.11-1.97,1.87-4,3.79-3.53,6.19a7.01,7.01,0,0,0,1.77,2.99,10.021,10.021,0,0,1,1.76,2.74c1.31,3.53-1.7,7.31-5.34,9.23a24.329,24.329,0,0,1-10.29,2.73h-2.33c-2.38,0-4.83,0-6.9,1-2.65,1.31-4.07,3.94-5.6,6.7-.65,1.19-1.33,2.41-2.1,3.54-3.29,4.7-10.2,8.57-16.42,9.2C1100.47,1368.77,1099.87,1368.8,1099.29,1368.8Zm24.61-76.71a17.569,17.569,0,0,0-1.66,1.68c-1.91,2.15-2.97,4.92-3.98,7.58a49.126,49.126,0,0,0-1.56,5.58c-.95,3.88-1.92,7.88-3.63,10.06-1.43,1.83-3.67,2.42-5.84,2.98-2.38.62-4.63,1.21-5.85,3.33-.88,1.44-.81,3.17-.78,5a14.636,14.636,0,0,1-.33,4.22c-.96,3.34-3.97,5.19-6.87,6.98a20.166,20.166,0,0,0-5.67,4.53c-2.81,3.79-2.12,9.09-1.05,12.81s2.43,6.19,4.34,8.03c3.09,2.95,7.14,3.25,9.98,2.95,5.99-.59,12.63-4.31,15.79-8.83a39.022,39.022,0,0,0,2.05-3.44c1.53-2.76,3.11-5.63,5.97-7.06,2.27-1.13,4.83-1.11,7.3-1.09h2.3a23.452,23.452,0,0,0,9.9-2.65c3.31-1.77,6.07-5.09,4.93-8.13a9.078,9.078,0,0,0-1.63-2.49,7.671,7.671,0,0,1-1.99-3.4c-.54-2.84,1.76-5.03,3.82-6.97.39-.36.78-.72,1.13-1.08a16.008,16.008,0,0,0-.13-21.78.437.437,0,0,1,0-.58,9.248,9.248,0,0,0-.63-11.69,4.855,4.855,0,0,0-2.33-1.46,6.9,6.9,0,0,0-2.48.06l-.34.05c-2.29.31-4.42.39-6.49.47-5.3.19-9.81.35-14.27,4.42Z" transform="translate(4639 1368)" fill="#231f20"/>
    <path id="Path_300" data-name="Path 300" d="M1152.16,1328.6s10.83,11.27,13.85,18.26a67.821,67.821,0,0,0-15.23,3.33Z" transform="translate(4639 1368)" fill="#30c684"/>
    <path id="Path_301" data-name="Path 301" d="M1135.5,1321.9s-10.06-4.12-22.54,6.36c-5.56,4.73-6.72,9.84-9.08,15.14,1.77,17.76,8.02,48.5,8.02,48.5l48.76-1.2s-3.36-53.84-7.26-60.48S1135.5,1321.9,1135.5,1321.9Z" transform="translate(4639 1368)" fill="#30c684"/>
    <path id="Path_302" data-name="Path 302" d="M1128.89,1324.15c.76,1.49,9.13,33.48,9.13,33.48l4.51-29.71Z" transform="translate(4639 1368)" fill="#231f20"/>
    <path id="Path_303" data-name="Path 303" d="M1138.02,1358.07a.438.438,0,0,1-.27-.09.412.412,0,0,1-.15-.24c-2.33-8.89-8.49-32.21-9.09-33.39a.45.45,0,0,1-.05-.25.373.373,0,0,1,.1-.23.345.345,0,0,1,.21-.14.423.423,0,0,1,.25-.01l13.63,3.78a.393.393,0,0,1,.25.18.424.424,0,0,1,.07.31l-4.52,29.71a.432.432,0,0,1-.13.26.4.4,0,0,1-.27.11Zm-8.43-33.27c1.42,4.47,6.6,24.12,8.31,30.65l4.13-27.22Z" transform="translate(4639 1368)" fill="#231f20"/>
    <path id="Path_304" data-name="Path 304" d="M1148.75,1298.35s2.28,7.23.83,12.61a7.966,7.966,0,0,1-6.35,5.94l-.37,9.59s-.15,4.91-6.12,3.92a10.347,10.347,0,0,1-7.85-6.26v-17.66s6.97-3.66,6.62-10.02C1135.52,1296.46,1143.46,1300.7,1148.75,1298.35Z" transform="translate(4639 1368)" fill="#fff"/>
    <path id="Path_305" data-name="Path 305" d="M1138.25,1330.98a10.4,10.4,0,0,1-1.58-.13,10.639,10.639,0,0,1-8.19-6.56.329.329,0,0,1,0-.14v-17.66a.438.438,0,0,1,.06-.23.4.4,0,0,1,.18-.16c.06,0,6.7-3.61,6.38-9.6a.371.371,0,0,1,.05-.23.412.412,0,0,1,.15-.17.429.429,0,0,1,.22-.06.4.4,0,0,1,.22.06c.08,0,7.82,4.11,12.85,1.86a.584.584,0,0,1,.18-.04.525.525,0,0,1,.18.04.583.583,0,0,1,.15.11.554.554,0,0,1,.09.17c.1.3,2.31,7.42.83,12.85a8.583,8.583,0,0,1-2.29,3.99,8.427,8.427,0,0,1-4.05,2.19l-.36,9.25a4.962,4.962,0,0,1-1.67,3.4,5.146,5.146,0,0,1-3.4,1.06Zm-8.91-6.92a9.894,9.894,0,0,0,7.45,5.91,5.15,5.15,0,0,0,4.26-.74,4.156,4.156,0,0,0,1.36-2.75l.38-9.58a.449.449,0,0,1,.12-.28.42.42,0,0,1,.27-.14,7.47,7.47,0,0,0,5.97-5.66c1.19-4.41-.23-10.23-.69-11.89-4.55,1.68-10.52-.81-12.5-1.76-.16,5.53-5.42,8.83-6.62,9.55Z" transform="translate(4639 1368)" fill="#231f20"/>
    <path id="Path_306" data-name="Path 306" d="M1132.27,1305.36s-2.71-6.77-6.17-2.7,1.19,8.83,4.15,8.58" transform="translate(4639 1368)" fill="#fff"/>
    <path id="Path_307" data-name="Path 307" d="M1129.97,1311.7a6.284,6.284,0,0,1-4.96-3.47,5.025,5.025,0,0,1-.58-3.04,5.112,5.112,0,0,1,1.3-2.82,3.257,3.257,0,0,1,1.32-1.12,3.223,3.223,0,0,1,1.7-.3c2.37.39,3.87,4.1,3.93,4.25a.338.338,0,0,1,.05.17.4.4,0,0,1-.02.19.438.438,0,0,1-.25.26.288.288,0,0,1-.18.03.48.48,0,0,1-.18-.04.444.444,0,0,1-.15-.12.381.381,0,0,1-.08-.17c-.38-.93-1.71-3.44-3.26-3.7a2.561,2.561,0,0,0-1.25.26,2.465,2.465,0,0,0-.95.86,4.173,4.173,0,0,0-.62,4.89c.92,1.76,2.9,3.12,4.41,2.97a.322.322,0,0,1,.17.02.275.275,0,0,1,.15.08.381.381,0,0,1,.11.14.428.428,0,0,1,.05.16.468.468,0,0,1-.02.17.481.481,0,0,1-.08.16.359.359,0,0,1-.14.1.3.3,0,0,1-.16.05Z" transform="translate(4639 1368)" fill="#231f20"/>
    <path id="Path_308" data-name="Path 308" d="M1144.8,1311.11a7.713,7.713,0,0,1-2.08-.32.51.51,0,0,1-.26-.22.5.5,0,0,1-.03-.34.51.51,0,0,1,.22-.26.5.5,0,0,1,.34-.03,4.737,4.737,0,0,0,2.74.12c.12-.39-1.07-2.69-2.57-4.88a.38.38,0,0,1-.08-.33.442.442,0,0,1,.06-.16.345.345,0,0,1,.12-.12.4.4,0,0,1,.49-.01.471.471,0,0,1,.13.11c.71,1.02,2.98,4.42,2.65,5.68a.837.837,0,0,1-.16.31.706.706,0,0,1-.27.21A3.036,3.036,0,0,1,1144.8,1311.11Z" transform="translate(4639 1368)" fill="#231f20"/>
    <path id="Path_309" data-name="Path 309" d="M1142.41,1314a6.585,6.585,0,0,1-1.71-.23,7.054,7.054,0,0,1-4.01-2.97.4.4,0,0,1,.02-.32.448.448,0,0,1,.23-.22.442.442,0,0,1,.32-.01.449.449,0,0,1,.24.21,6.36,6.36,0,0,0,3.59,2.5,6.7,6.7,0,0,0,5.75-1.55.361.361,0,0,1,.15-.08.5.5,0,0,1,.17-.01.381.381,0,0,1,.16.06.471.471,0,0,1,.13.11.481.481,0,0,1,.08.16.487.487,0,0,1,.01.17.441.441,0,0,1-.06.16.374.374,0,0,1-.12.13,8.169,8.169,0,0,1-4.95,1.89Z" transform="translate(4639 1368)" fill="#231f20"/>
    <path id="Path_310" data-name="Path 310" d="M1143.23,1316.9s-5.14.44-8.05-.42c0,0,2.92,7.68,7.79,7.83Z" transform="translate(4639 1368)" fill="#231f20"/>
    <path id="Path_311" data-name="Path 311" d="M1142.97,1324.75c-5.11-.16-8.07-7.79-8.19-8.12a.482.482,0,0,1-.02-.24.528.528,0,0,1,.11-.21.464.464,0,0,1,.21-.13.487.487,0,0,1,.24,0c2.8.84,7.84.41,7.9.41a.372.372,0,0,1,.18.02.629.629,0,0,1,.16.1.531.531,0,0,1,.11.15.415.415,0,0,1,.02.19l-.26,7.41a.525.525,0,0,1-.04.17.714.714,0,0,1-.1.14.6.6,0,0,1-.15.09A.321.321,0,0,1,1142.97,1324.75Zm-7.06-7.64c.88,1.85,3.22,6.26,6.61,6.72l.23-6.45a30.111,30.111,0,0,1-6.84-.27Z" transform="translate(4639 1368)" fill="#231f20"/>
    <path id="Path_312" data-name="Path 312" d="M1140.23,1305.1c.41,0,.74-.6.73-1.33s-.36-1.32-.77-1.32-.75.61-.73,1.34S1139.81,1305.11,1140.23,1305.1Z" transform="translate(4639 1368)" fill="#231f20"/>
    <path id="Path_313" data-name="Path 313" d="M1147.17,1305c.41-.01.74-.61.73-1.34s-.36-1.32-.77-1.31-.74.6-.73,1.33S1146.75,1305,1147.17,1305Z" transform="translate(4639 1368)" fill="#231f20"/>
    <path id="Path_314" data-name="Path 314" d="M1103.88,1343.4s-10.14,33.27-3.01,41.01c4.96,5.38,17.65-.45,23.18-2.58,27.3-10.48,36.97-19.06,34.79-18.65.67-2.25-6.18.88-7.33,1.31-.46-1.83,2.9-5.07,4.79-5.17s4.06.66,4.35-1.21c.16-1.07-.89-2.16-1.81-2.65s-8.92-.97-10.59.55c-1.1.98-1.65,2.44-2.65,3.48a9.918,9.918,0,0,1-3.84,2.08q-8.115,2.91-16.43,5.25c-2.65.76-9.02,2.22-9.02,2.22l3.19-19.64" transform="translate(4639 1368)" fill="#fff"/>
    <path id="Path_315" data-name="Path 315" d="M1107.02,1387.1c-2.59,0-4.88-.65-6.47-2.38-7.22-7.84,2.5-40.07,2.91-41.43a.456.456,0,0,1,.22-.27.442.442,0,0,1,.34-.04.472.472,0,0,1,.29.56c-.1.33-9.99,33.11-3.11,40.58,4.27,4.65,15.1.33,20.92-1.99l1.76-.7c22.86-8.77,33.21-16.19,34.65-17.95a.561.561,0,0,1-.11-.2.586.586,0,0,1-.01-.23.484.484,0,0,0,0-.17c-.1-.09-.88-.47-6.41,1.89l-.35.14a.367.367,0,0,1-.18.04.407.407,0,0,1-.19-.04.528.528,0,0,1-.14-.12.553.553,0,0,1-.09-.17,3.758,3.758,0,0,1,.15-1.49,3.821,3.821,0,0,1,.74-1.3c1-1.36,2.85-2.86,4.29-2.94q.75-.03,1.5,0c1.62.1,2.3.05,2.44-.88s-.7-1.77-1.57-2.18-8.58-.88-10.14.5a8.734,8.734,0,0,0-1.37,1.77,7.807,7.807,0,0,1-2.23,2.52,8.058,8.058,0,0,1-3.06,1.37c-5.4,1.93-10.94,3.7-16.47,5.3-2.65.74-8.98,2.2-9.04,2.22a.375.375,0,0,1-.21,0,.694.694,0,0,1-.19-.1.453.453,0,0,1-.11-.19.5.5,0,0,1-.02-.21l3.19-19.65a.524.524,0,0,1,.06-.16.427.427,0,0,1,.11-.12.38.38,0,0,1,.33-.08.429.429,0,0,1,.29.18.41.41,0,0,1,.08.32l-3.09,19c1.69-.39,6.22-1.47,8.36-2.07,5.52-1.55,11.03-3.31,16.41-5.24a7.027,7.027,0,0,0,2.81-1.23,7.135,7.135,0,0,0,2.04-2.3,9.227,9.227,0,0,1,1.53-1.93c1.89-1.69,10-1.19,11.12-.63s2.24,1.85,2.04,3.11c-.28,1.77-1.91,1.7-3.36,1.62a10.934,10.934,0,0,0-1.4,0c-.99.05-2.65,1.21-3.64,2.58a4.01,4.01,0,0,0-.74,1.49c4.29-1.76,6.35-2.28,7.06-1.61a.861.861,0,0,1,.29.6.557.557,0,0,1,.23.31c.43,1.49-11.09,9.8-35.3,19.12l-1.76.69C1118.19,1384.64,1112.08,1387.1,1107.02,1387.1Z" transform="translate(4639 1368)" fill="#231f20"/>
    <path id="Path_316" data-name="Path 316" d="M1119.42,1349.86h-.08a.383.383,0,0,1-.16-.06.768.768,0,0,1-.13-.12,1.117,1.117,0,0,1-.07-.16.544.544,0,0,1,0-.18l2.06-11.48a.452.452,0,0,1,.51-.36.421.421,0,0,1,.28.18.4.4,0,0,1,.07.33l-2.05,11.49a.461.461,0,0,1-.15.26A.478.478,0,0,1,1119.42,1349.86Z" transform="translate(4639 1368)" fill="#231f20"/>
    <path id="Path_317" data-name="Path 317" d="M1181.66,1352.64a.427.427,0,0,1-.27-.1.439.439,0,0,1-.17-.29.488.488,0,0,1,.09-.33c1.26-1.54.35-5,.34-5.04a.411.411,0,0,1,.03-.31.487.487,0,0,1,.24-.21.441.441,0,0,1,.32,0,.491.491,0,0,1,.23.22s.88,1.89,2.3,2.03c.2-.33-.55-2.16-1.58-3.89a.452.452,0,0,1-.05-.34.418.418,0,0,1,.2-.27.428.428,0,0,1,.33-.05.408.408,0,0,1,.27.21c.68,1.14,2.2,3.89,1.59,4.85a.822.822,0,0,1-.38.31.86.86,0,0,1-.5.06,3.184,3.184,0,0,1-1.86-.95,5.657,5.657,0,0,1-.81,3.93.524.524,0,0,1-.14.12A.407.407,0,0,1,1181.66,1352.64Z" transform="translate(4639 1368)" fill="#231f20"/>
    <path id="Path_318" data-name="Path 318" d="M1186.31,1364.89a10.7,10.7,0,0,1-4.66-.92,10.822,10.822,0,0,1-3.8-2.83,11.177,11.177,0,0,1-2.23-9.3c1.29-7.06,8.12-12.89,15.23-12.89a10.749,10.749,0,0,1,8.46,3.76,11.172,11.172,0,0,1,2.15,4.4,10.911,10.911,0,0,1,.06,4.89C1200.24,1359.11,1193.41,1364.89,1186.31,1364.89Zm4.54-25.02c-6.69,0-13.14,5.46-14.35,12.17a10.23,10.23,0,0,0,2.02,8.57,10.027,10.027,0,0,0,3.51,2.6,9.824,9.824,0,0,0,4.28.83c6.7,0,13.13-5.46,14.35-12.16a10.23,10.23,0,0,0-2.02-8.57,9.907,9.907,0,0,0-3.51-2.6,9.8,9.8,0,0,0-4.28-.84Z" transform="translate(4639 1368)" fill="#d1d3d4"/>
    <path id="Path_319" data-name="Path 319" d="M1198.78,1370.09h-54.24a4.186,4.186,0,0,1-1.96-.49,4.163,4.163,0,0,1-1.88-5.27l11.47-27.47a4.214,4.214,0,0,1,1.53-1.86,4.153,4.153,0,0,1,2.31-.7h54.21a4.186,4.186,0,0,1,1.96.49,4.112,4.112,0,0,1,1.5,1.37,4.185,4.185,0,0,1,.68,1.91,4.271,4.271,0,0,1-.3,2l-11.48,27.46a4.1,4.1,0,0,1-3.8,2.56Zm-42.8-34.9a3.2,3.2,0,0,0-1.82.55,3.28,3.28,0,0,0-1.21,1.47l-11.47,27.45a3.272,3.272,0,0,0,.3,3.09,3.289,3.289,0,0,0,2.73,1.46h54.23a3.248,3.248,0,0,0,1.82-.55,3.281,3.281,0,0,0,1.21-1.47l11.47-27.46a3.249,3.249,0,0,0-.3-3.08,3.117,3.117,0,0,0-1.18-1.07,3.175,3.175,0,0,0-1.54-.39Z" transform="translate(4639 1368)" fill="#231f20"/>
    <path id="Path_320" data-name="Path 320" d="M1171.74,1340.59h-14.9a.457.457,0,0,1-.31-.13.435.435,0,0,1,0-.62.477.477,0,0,1,.31-.13h14.9a.44.44,0,0,1,0,.88Z" transform="translate(4639 1368)" fill="#231f20"/>
    <path id="Path_321" data-name="Path 321" d="M1169.75,1343.85h-14.89a.438.438,0,0,1-.31-.13.44.44,0,0,1,.31-.75h14.89a.432.432,0,0,1,.31.13.435.435,0,0,1,0,.62A.477.477,0,0,1,1169.75,1343.85Z" transform="translate(4639 1368)" fill="#231f20"/>
    <path id="Path_322" data-name="Path 322" d="M1186.26,1458.59a.481.481,0,0,1-.24-.07.464.464,0,0,1-.16-.18c-.07-.14-.07-.14,6.59-26.15a.491.491,0,0,1,.21-.28.451.451,0,0,1,.34-.05.461.461,0,0,1,.28.21.452.452,0,0,1,.05.34s-6.58,25.67-6.61,25.84a.435.435,0,0,1-.15.22.509.509,0,0,1-.23.12Z" transform="translate(4639 1368)" fill="#fff"/>
    <path id="Path_323" data-name="Path 323" d="M1177.39,1412.48a.482.482,0,0,1-.24-.07l-25-16.43a.688.688,0,0,1-.13-.11.523.523,0,0,1-.06-.16.543.543,0,0,1,0-.18.394.394,0,0,1,.06-.15.447.447,0,0,1,.28-.19.417.417,0,0,1,.33.06l25,16.41a.468.468,0,0,1,.18.29.417.417,0,0,1-.22.47.467.467,0,0,1-.2.06Z" transform="translate(4639 1368)" fill="#fff"/>
    <path id="Path_324" data-name="Path 324" d="M1197.39,1397.74a28.735,28.735,0,1,0,57.47,0h-28.73v-28.72a28.748,28.748,0,0,0-28.74,28.72Z" transform="translate(4639 1368)" fill="#30c684"/>
    <path id="Path_325" data-name="Path 325" d="M1230.77,1364.73v28.76h28.73a28.748,28.748,0,0,0-28.73-28.76Z" transform="translate(4639 1368)" fill="#e6e7e8"/>
    <path id="Path_326" data-name="Path 326" d="M1243.69,1352.73h-17.16a.473.473,0,0,1-.17-.01.508.508,0,0,1-.16-.09.452.452,0,0,1-.1-.14.328.328,0,0,1-.04-.17.391.391,0,0,1,.04-.18.452.452,0,0,1,.1-.14.48.48,0,0,1,.16-.08.322.322,0,0,1,.17-.01h17.16a.354.354,0,0,1,.25.14.377.377,0,0,1,.1.27.394.394,0,0,1-.1.27.444.444,0,0,1-.25.14Z" transform="translate(4639 1368)" fill="#d1d3d4"/>
    <path id="Path_327" data-name="Path 327" d="M1250.15,1352.73h-3.26a.444.444,0,0,1-.25-.14.394.394,0,0,1-.1-.27.377.377,0,0,1,.1-.27.354.354,0,0,1,.25-.14h3.26a.367.367,0,0,1,.18.01.433.433,0,0,1,.15.08.484.484,0,0,1,.11.14.565.565,0,0,1,.03.18.467.467,0,0,1-.03.17.484.484,0,0,1-.11.14.461.461,0,0,1-.15.09.545.545,0,0,1-.18.01Z" transform="translate(4639 1368)" fill="#d1d3d4"/>
    <path id="Path_328" data-name="Path 328" d="M1251.68,1345.45h-25.3a.415.415,0,0,1-.35-.41.426.426,0,0,1,.1-.27.4.4,0,0,1,.25-.14h25.3a.4.4,0,0,1,.26.14.426.426,0,0,1,.1.27.413.413,0,0,1-.36.41Z" transform="translate(4639 1368)" fill="#d1d3d4"/>
    <path id="Path_329" data-name="Path 329" d="M1234.69,1338.17h-8.22a.4.4,0,0,1-.29-.12.417.417,0,0,1-.11-.29.263.263,0,0,1,.02-.15.421.421,0,0,1,.09-.14.636.636,0,0,1,.14-.08.366.366,0,0,1,.15-.03h8.22a.4.4,0,0,1,.29.12.41.41,0,0,1,.11.28.4.4,0,0,1-.12.29.42.42,0,0,1-.28.12Z" transform="translate(4639 1368)" fill="#d1d3d4"/>
    <path id="Path_330" data-name="Path 330" d="M1254.39,1338.43h-14.63a.4.4,0,0,1-.15-.03.422.422,0,0,1-.14-.09.383.383,0,0,1-.09-.13.876.876,0,0,1-.02-.16.41.41,0,0,1,.4-.41h14.63a.456.456,0,0,1,.28.13.363.363,0,0,1,.12.28.4.4,0,0,1-.12.29.421.421,0,0,1-.28.12Z" transform="translate(4639 1368)" fill="#d1d3d4"/>
    <path id="Path_331" data-name="Path 331" d="M1243.69,1352.73h-17.16a.473.473,0,0,1-.17-.01.508.508,0,0,1-.16-.09.452.452,0,0,1-.1-.14.328.328,0,0,1-.04-.17.391.391,0,0,1,.04-.18.452.452,0,0,1,.1-.14.48.48,0,0,1,.16-.08.322.322,0,0,1,.17-.01h17.16a.354.354,0,0,1,.25.14.377.377,0,0,1,.1.27.394.394,0,0,1-.1.27.444.444,0,0,1-.25.14Z" transform="translate(4639 1368)" fill="none" stroke="#e6e7e8" stroke-linecap="round" stroke-linejoin="round" stroke-width="1"/>
    <path id="Path_332" data-name="Path 332" d="M1250.15,1352.73h-3.26a.444.444,0,0,1-.25-.14.394.394,0,0,1-.1-.27.377.377,0,0,1,.1-.27.354.354,0,0,1,.25-.14h3.26a.367.367,0,0,1,.18.01.433.433,0,0,1,.15.08.484.484,0,0,1,.11.14.565.565,0,0,1,.03.18.467.467,0,0,1-.03.17.484.484,0,0,1-.11.14.461.461,0,0,1-.15.09.545.545,0,0,1-.18.01Z" transform="translate(4639 1368)" fill="none" stroke="#e6e7e8" stroke-linecap="round" stroke-linejoin="round" stroke-width="1"/>
    <path id="Path_333" data-name="Path 333" d="M1251.68,1345.45h-25.3a.415.415,0,0,1-.35-.41.426.426,0,0,1,.1-.27.4.4,0,0,1,.25-.14h25.3a.4.4,0,0,1,.26.14.426.426,0,0,1,.1.27.413.413,0,0,1-.36.41Z" transform="translate(4639 1368)" fill="none" stroke="#e6e7e8" stroke-linecap="round" stroke-linejoin="round" stroke-width="1"/>
    <path id="Path_334" data-name="Path 334" d="M1234.69,1338.17h-8.22a.4.4,0,0,1-.29-.12.417.417,0,0,1-.11-.29.263.263,0,0,1,.02-.15.421.421,0,0,1,.09-.14.636.636,0,0,1,.14-.08.366.366,0,0,1,.15-.03h8.22a.4.4,0,0,1,.29.12.41.41,0,0,1,.11.28.4.4,0,0,1-.12.29.42.42,0,0,1-.28.12Z" transform="translate(4639 1368)" fill="none" stroke="#e6e7e8" stroke-linecap="round" stroke-linejoin="round" stroke-width="1"/>
    <path id="Path_335" data-name="Path 335" d="M1254.39,1338.43h-14.63a.4.4,0,0,1-.15-.03.422.422,0,0,1-.14-.09.383.383,0,0,1-.09-.13.876.876,0,0,1-.02-.16.41.41,0,0,1,.4-.41h14.63a.456.456,0,0,1,.28.13.363.363,0,0,1,.12.28.4.4,0,0,1-.12.29.421.421,0,0,1-.28.12Z" transform="translate(4639 1368)" fill="none" stroke="#e6e7e8" stroke-linecap="round" stroke-linejoin="round" stroke-width="1"/>
    <path id="Path_336" data-name="Path 336" d="M1254.58,1436.86h-28.3a.439.439,0,0,1-.31-.13.432.432,0,0,1-.13-.31.444.444,0,0,1,.44-.45h28.3a.439.439,0,0,1,.31.13.482.482,0,0,1,.13.32.477.477,0,0,1-.13.31A.438.438,0,0,1,1254.58,1436.86Z" transform="translate(4639 1368)" fill="#d1d3d4"/>
    <path id="Path_337" data-name="Path 337" d="M1248.48,1444.9h-21.79a.416.416,0,0,1-.31-.13.439.439,0,0,1-.13-.31.444.444,0,0,1,.44-.44h21.79a.439.439,0,0,1,.31.13.457.457,0,0,1,.13.31.444.444,0,0,1-.44.44Z" transform="translate(4639 1368)" fill="#d1d3d4"/>
    <path id="Path_338" data-name="Path 338" d="M1251.52,1452.67h-25.24a.439.439,0,0,1-.31-.13.416.416,0,0,1-.13-.31.438.438,0,0,1,.13-.32.43.43,0,0,1,.31-.12h25.24a.431.431,0,0,1,.31.13.438.438,0,0,1,.13.31.444.444,0,0,1-.44.44Z" transform="translate(4639 1368)" fill="#d1d3d4"/>
    <path id="Path_339" data-name="Path 339" d="M1255.55,1444.52h-4.03a.444.444,0,0,1-.44-.44.416.416,0,0,1,.13-.31.439.439,0,0,1,.31-.13h4.01a.438.438,0,0,1,.31.13.415.415,0,0,1,.13.31.444.444,0,0,1-.44.44Z" transform="translate(4639 1368)" fill="#d1d3d4"/>
    <path id="Path_340" data-name="Path 340" d="M1086.22,1326.55h-47.55a.43.43,0,0,1-.31-.12.438.438,0,0,1-.13-.32v-39.02a.444.444,0,0,1,.44-.44.415.415,0,0,1,.31.13.438.438,0,0,1,.13.31v38.58h47.11a.444.444,0,0,1,.44.44.482.482,0,0,1-.13.32A.448.448,0,0,1,1086.22,1326.55Z" transform="translate(4639 1368)" fill="#e6e7e8"/>
    <path id="Path_341" data-name="Path 341" d="M1038.67,1326.55a.407.407,0,0,1-.3-.12.332.332,0,0,1-.1-.14.471.471,0,0,1-.04-.17.526.526,0,0,1,.04-.17.331.331,0,0,1,.1-.14l19.97-21.42a.5.5,0,0,1,.17-.11.644.644,0,0,1,.2-.03.44.44,0,0,1,.19.07.937.937,0,0,1,.14.14l4.41,7.12,13.87-15.27a.361.361,0,0,1,.14-.11.338.338,0,0,1,.17-.05.372.372,0,0,1,.18.02.459.459,0,0,1,.15.09.484.484,0,0,1,.11.14,1.161,1.161,0,0,1,.04.18.329.329,0,0,1-.04.17.306.306,0,0,1-.1.15l-14.25,15.71a.385.385,0,0,1-.17.11.443.443,0,0,1-.2.03.6.6,0,0,1-.19-.06.465.465,0,0,1-.14-.14l-4.42-7.13-19.62,20.99a.382.382,0,0,1-.14.11.323.323,0,0,1-.17.03Z" transform="translate(4639 1368)" fill="#e6e7e8"/>
    <path id="Path_342" data-name="Path 342" d="M1240.93,1328.38a.408.408,0,0,1-.24-.08.453.453,0,0,1-.15-.21l-15.84-44.08L1207.25,1318a.381.381,0,0,1-.15.16.373.373,0,0,1-.2.07.336.336,0,0,1-.22-.04.37.37,0,0,1-.17-.13l-17.22-22.54-10.86,17.43a.447.447,0,0,1-.28.2.481.481,0,0,1-.33-.06l-9.13-5.5a.579.579,0,0,1-.15-.11.48.48,0,0,1-.08-.16.367.367,0,0,1-.01-.18.385.385,0,0,1,.06-.18.491.491,0,0,1,.12-.13.512.512,0,0,1,.17-.07.543.543,0,0,1,.18,0,.4.4,0,0,1,.16.08l8.77,5.3,10.95-17.62a.535.535,0,0,1,.15-.15.479.479,0,0,1,.2-.07.494.494,0,0,1,.21.04.364.364,0,0,1,.16.14l17.19,22.49,17.59-34.26a.445.445,0,0,1,.18-.18.374.374,0,0,1,.25-.06.5.5,0,0,1,.23.09.426.426,0,0,1,.15.2l15.78,44,7.77-16.44a.506.506,0,0,1,.09-.16.711.711,0,0,1,.15-.11.582.582,0,0,1,.19-.03.392.392,0,0,1,.18.04.358.358,0,0,1,.14.11.506.506,0,0,1,.09.16.588.588,0,0,1,.02.19.362.362,0,0,1-.07.17l-8.21,17.41a.427.427,0,0,1-.15.2.35.35,0,0,1-.22.08Z" transform="translate(4639 1368)" fill="#d1d3d4"/>
    <path id="Path_343" data-name="Path 343" d="M1178.05,1314.83a2.165,2.165,0,1,0-2.16-2.16A2.164,2.164,0,0,0,1178.05,1314.83Z" transform="translate(4639 1368)" fill="#fff"/>
    <path id="Path_344" data-name="Path 344" d="M1178.05,1315.28a2.641,2.641,0,0,1-2.45-1.63,2.678,2.678,0,0,1-.15-1.53,2.63,2.63,0,0,1,.73-1.36,2.714,2.714,0,0,1,1.35-.73,2.584,2.584,0,0,1,1.53.16,2.636,2.636,0,0,1,1.19.97,2.675,2.675,0,0,1,.45,1.47,2.648,2.648,0,0,1-.78,1.88A2.675,2.675,0,0,1,1178.05,1315.28Zm0-4.33a1.765,1.765,0,0,0-.32,3.5,1.821,1.821,0,0,0,1.03-.12,1.75,1.75,0,0,0,.78-.67,1.722,1.722,0,0,0,.27-.99,1.759,1.759,0,0,0-1.76-1.72Z" transform="translate(4639 1368)" fill="#d1d3d4"/>
    <path id="Path_345" data-name="Path 345" d="M1189.25,1296.91a2.165,2.165,0,1,0-2.16-2.16A2.164,2.164,0,0,0,1189.25,1296.91Z" transform="translate(4639 1368)" fill="#fff"/>
    <path id="Path_346" data-name="Path 346" d="M1189.25,1297.35a2.606,2.606,0,0,1-1.48-.45,2.689,2.689,0,0,1-.97-1.19,2.686,2.686,0,0,1,.59-2.9,2.656,2.656,0,0,1,2.9-.54,2.539,2.539,0,0,1,1.18.99,2.628,2.628,0,0,1-.37,3.33,2.619,2.619,0,0,1-1.85.76Zm0-4.33a1.775,1.775,0,0,0-1.63,1.09,1.706,1.706,0,0,0-.1,1.02,1.746,1.746,0,0,0,1.38,1.39,1.692,1.692,0,0,0,1.02-.1,1.756,1.756,0,0,0,.8-.65,1.785,1.785,0,0,0,.29-.98,1.725,1.725,0,0,0-.52-1.23,1.756,1.756,0,0,0-1.24-.51Z" transform="translate(4639 1368)" fill="#d1d3d4"/>
    <path id="Path_347" data-name="Path 347" d="M1224.78,1285.07a2.16,2.16,0,1,0-2.16-2.16A2.164,2.164,0,0,0,1224.78,1285.07Z" transform="translate(4639 1368)" fill="#fff"/>
    <path id="Path_348" data-name="Path 348" d="M1224.77,1285.52a2.683,2.683,0,0,1-1.48-.45,2.716,2.716,0,0,1-.97-1.2,2.666,2.666,0,0,1,.59-2.89,2.682,2.682,0,0,1,1.37-.72,2.586,2.586,0,0,1,1.53.17,2.56,2.56,0,0,1,1.18,1,2.664,2.664,0,0,1,.43,1.48,2.664,2.664,0,0,1-2.65,2.61Zm0-4.33a1.785,1.785,0,0,0-.98.29,1.757,1.757,0,0,0-.65.8,1.7,1.7,0,0,0-.1,1.02,1.722,1.722,0,0,0,.48.9,1.777,1.777,0,0,0,.9.49,1.858,1.858,0,0,0,1.02-.1,1.822,1.822,0,0,0,.8-.65,1.842,1.842,0,0,0,.29-.99,1.742,1.742,0,0,0-1.76-1.76Z" transform="translate(4639 1368)" fill="#d1d3d4"/>
    <path id="Path_349" data-name="Path 349" d="M1240.92,1330.08a2.165,2.165,0,1,0-2.16-2.16A2.164,2.164,0,0,0,1240.92,1330.08Z" transform="translate(4639 1368)" fill="#fff"/>
    <path id="Path_350" data-name="Path 350" d="M1240.93,1330.52a2.621,2.621,0,0,1-2.48-1.6,2.628,2.628,0,0,1-.17-1.54,2.682,2.682,0,0,1,.72-1.37,2.665,2.665,0,0,1,2.89-.59,2.643,2.643,0,0,1,1.64,2.45,2.647,2.647,0,0,1-2.6,2.65Zm0-4.34a1.81,1.81,0,0,0-.99.28,1.765,1.765,0,0,0-.79,1.81,1.7,1.7,0,0,0,.47.91,1.755,1.755,0,0,0,.9.5,1.811,1.811,0,0,0,1.03-.09,1.879,1.879,0,0,0,.8-.65,1.827,1.827,0,0,0,.3-.99,1.766,1.766,0,0,0-.5-1.23A1.808,1.808,0,0,0,1240.93,1326.18Z" transform="translate(4639 1368)" fill="#d1d3d4"/>
    <path id="Path_351" data-name="Path 351" d="M1206.86,1319.96a2.165,2.165,0,1,0-2.16-2.17A2.159,2.159,0,0,0,1206.86,1319.96Z" transform="translate(4639 1368)" fill="#fff"/>
    <path id="Path_352" data-name="Path 352" d="M1206.86,1320.43a2.573,2.573,0,0,1-1.47-.45,2.645,2.645,0,0,1-.98-1.19,2.617,2.617,0,0,1-.14-1.54,2.645,2.645,0,0,1,.74-1.36,2.712,2.712,0,0,1,1.36-.71,2.627,2.627,0,0,1,1.54.17,2.621,2.621,0,0,1,1.6,2.48,2.647,2.647,0,0,1-2.65,2.6Zm0-4.32a1.69,1.69,0,0,0-.94.3,1.792,1.792,0,0,0-.61.78,1.645,1.645,0,0,0-.09.98,1.762,1.762,0,0,0,.47.88,1.715,1.715,0,0,0,.87.46,1.765,1.765,0,0,0,.99-.08,1.746,1.746,0,0,0,1.08-1.56,1.837,1.837,0,0,0-.13-.69,1.665,1.665,0,0,0-.38-.58,1.707,1.707,0,0,0-.57-.39,1.811,1.811,0,0,0-.69-.14Z" transform="translate(4639 1368)" fill="#d1d3d4"/>
    <path id="Path_353" data-name="Path 353" d="M1098.39,1292.35h-12.17a.437.437,0,0,1-.32-.13.46.46,0,0,1,0-.62.482.482,0,0,1,.32-.13h12.17a.457.457,0,0,1,.31.13.435.435,0,0,1,0,.62A.415.415,0,0,1,1098.39,1292.35Z" transform="translate(4639 1368)" fill="#d1d3d4"/>
    <path id="Path_354" data-name="Path 354" d="M1098.39,1295.5h-12.17a.482.482,0,0,1-.32-.13.465.465,0,0,1-.12-.31.471.471,0,0,1,.12-.32.482.482,0,0,1,.32-.13h12.17a.457.457,0,0,1,.31.13.447.447,0,0,1,0,.63A.457.457,0,0,1,1098.39,1295.5Z" transform="translate(4639 1368)" fill="#d1d3d4"/>
    <path id="Path_355" data-name="Path 355" d="M1094.29,1298.65h-8.07a.482.482,0,0,1-.32-.13.46.46,0,0,1,0-.62.438.438,0,0,1,.32-.13h8.07a.444.444,0,0,1,.44.44.4.4,0,0,1-.13.31A.439.439,0,0,1,1094.29,1298.65Z" transform="translate(4639 1368)" fill="#d1d3d4"/>
  </g>
</svg>
