<svg xmlns="http://www.w3.org/2000/svg" width="246.304" height="221.87" viewBox="0 0 246.304 221.87">
  <g id="Group_22" data-name="Group 22" transform="translate(-4446.349 -316.55)">
    <path id="Path_218" data-name="Path 218" d="M842.212,1473.37H598.845a.413.413,0,0,1-.312-.13.435.435,0,0,1,0-.62.453.453,0,0,1,.312-.13H842.212a.455.455,0,0,1,.312.13.437.437,0,0,1,0,.62A.414.414,0,0,1,842.212,1473.37Z" transform="translate(3850 -955)" fill="#d1d3d4"/>
    <path id="Path_219" data-name="Path 219" d="M791.944,1486.37H687.236a6.67,6.67,0,0,1-4.882-2.07,6.625,6.625,0,0,1-1.79-5l10.519-199.92a7.494,7.494,0,0,1,7.4-7.06H803.2a6.564,6.564,0,0,1,4.879,2.07,6.605,6.605,0,0,1,1.784,4.99l-10.511,199.94a7.5,7.5,0,0,1-7.4,7.05Z" transform="translate(3850 -955)" fill="#231f20"/>
    <path id="Path_220" data-name="Path 220" d="M791.944,1486.76H687.236a6.93,6.93,0,0,1-2.8-.56,7.019,7.019,0,0,1-4.256-6.9l10.51-199.94a7.941,7.941,0,0,1,7.8-7.41H803.2a6.976,6.976,0,0,1,5.156,2.18,7.027,7.027,0,0,1,1.9,5.27l-10.519,199.95a7.956,7.956,0,0,1-7.793,7.41Zm-93.456-214.03a7.118,7.118,0,0,0-7.016,6.67l-10.511,199.95a6.214,6.214,0,0,0,6.275,6.63H791.944a7.124,7.124,0,0,0,7.06-6.68l10.511-199.94a6.214,6.214,0,0,0-.345-2.53,6.2,6.2,0,0,0-3.429-3.62,6.3,6.3,0,0,0-2.5-.48Z" transform="translate(3850 -955)" fill="#231f20"/>
    <path id="Path_221" data-name="Path 221" d="M784.205,1486.01H679.5a6.613,6.613,0,0,1-6.671-7.06l10.493-199.92a7.526,7.526,0,0,1,7.413-7.07H795.457a6.616,6.616,0,0,1,6.663,7.07l-10.511,199.94a7.49,7.49,0,0,1-7.4,7.04Z" transform="translate(3850 -955)" fill="#fff"/>
    <path id="Path_222" data-name="Path 222" d="M784.205,1486.5H679.5a7.024,7.024,0,0,1-2.824-.56,7.079,7.079,0,0,1-4.289-6.95l10.52-199.98a7.936,7.936,0,0,1,7.845-7.46H795.457a7,7,0,0,1,2.819.56,7.072,7.072,0,0,1,4.285,6.94L792.05,1478.99a7.938,7.938,0,0,1-7.845,7.51Zm-93.457-214.07a7.066,7.066,0,0,0-6.971,6.62l-10.511,199.94a6.179,6.179,0,0,0,6.23,6.58H784.205a7.055,7.055,0,0,0,6.963-6.62l10.511-199.94a6.207,6.207,0,0,0-1.682-4.65,6.156,6.156,0,0,0-4.54-1.93Z" transform="translate(3850 -955)" fill="#231f20"/>
    <path id="Path_223" data-name="Path 223" d="M777.472,1473.37H687.457a5.7,5.7,0,0,1-4.188-1.77,5.708,5.708,0,0,1-1.549-4.28l9.231-175.98a6.4,6.4,0,0,1,6.319-6.01h90.015a5.645,5.645,0,0,1,4.181,1.78,5.638,5.638,0,0,1,1.219,1.97,5.709,5.709,0,0,1,.327,2.3l-9.222,175.99a6.405,6.405,0,0,1-6.318,6Zm-80.2-187.16a5.519,5.519,0,0,0-5.436,5.17l-9.258,175.99a4.835,4.835,0,0,0,1.31,3.62,4.856,4.856,0,0,0,1.615,1.12,4.738,4.738,0,0,0,1.929.38h90.015a5.523,5.523,0,0,0,5.436-5.17l9.275-175.98a4.82,4.82,0,0,0-1.3-3.63,4.85,4.85,0,0,0-1.616-1.12,4.734,4.734,0,0,0-1.929-.38Z" transform="translate(3850 -955)" fill="#d1d3d4"/>
    <path id="Path_224" data-name="Path 224" d="M745.039,1279.94H725.36a.447.447,0,0,1-.442-.44.427.427,0,0,1,.13-.31.413.413,0,0,1,.312-.13h19.679a.413.413,0,0,1,.312.13.427.427,0,0,1,.13.31.447.447,0,0,1-.442.44Z" transform="translate(3850 -955)" fill="#d1d3d4"/>
    <path id="Path_225" data-name="Path 225" d="M751.394,1279.94h-3.442a.451.451,0,0,1-.31-.13.44.44,0,0,1-.131-.31.426.426,0,0,1,.129-.31.414.414,0,0,1,.312-.13h3.442a.414.414,0,0,1,.312.13.437.437,0,0,1,0,.62A.455.455,0,0,1,751.394,1279.94Z" transform="translate(3850 -955)" fill="#d1d3d4"/>
    <path id="Path_226" data-name="Path 226" d="M804.22,1320.04a.327.327,0,0,1-.167-.04.4.4,0,0,1-.137-.1.554.554,0,0,1-.087-.15.485.485,0,0,1-.024-.17l1.086-20.67a.416.416,0,0,1,.038-.17.47.47,0,0,1,.1-.14.439.439,0,0,1,.149-.09.492.492,0,0,1,.171-.02.475.475,0,0,1,.167.04.426.426,0,0,1,.23.25.41.41,0,0,1,.026.17l-1.094,20.67a.433.433,0,0,1-.04.17.493.493,0,0,1-.1.14.421.421,0,0,1-.147.09A.328.328,0,0,1,804.22,1320.04Z" transform="translate(3850 -955)" fill="#d1d3d4"/>
    <path id="Path_227" data-name="Path 227" d="M773.588,1397.62H698.02a5.261,5.261,0,0,1-2.109-.41,5.271,5.271,0,0,1-2.892-3.06,5.251,5.251,0,0,1-.294-2.13l.882-16.12a6,6,0,0,1,5.913-5.6H775.1a5.242,5.242,0,0,1,3.875,1.63,5.326,5.326,0,0,1,1.125,1.84,5.227,5.227,0,0,1,.295,2.13l-.883,16.08a6,6,0,0,1-5.922,5.64Z" transform="translate(3850 -955)" fill="#fff"/>
    <path id="Path_228" data-name="Path 228" d="M773.588,1398.06H698.02a5.686,5.686,0,0,1-5.728-6.07l.883-16.11a6.448,6.448,0,0,1,6.363-6.02h75.568a5.58,5.58,0,0,1,2.28.45,5.719,5.719,0,0,1,1.908,1.33,5.685,5.685,0,0,1,1.54,4.28l-.883,16.13a6.449,6.449,0,0,1-6.363,6.01Zm-74.015-27.28a5.559,5.559,0,0,0-5.48,5.19l-.883,16.12a4.8,4.8,0,0,0,.268,1.95,4.75,4.75,0,0,0,1.029,1.68,4.843,4.843,0,0,0,1.617,1.12,4.747,4.747,0,0,0,1.931.38h75.569a5.559,5.559,0,0,0,5.445-5.24l.882-16.11a4.817,4.817,0,0,0-2.914-4.76,4.7,4.7,0,0,0-1.922-.38Z" transform="translate(3850 -955)" fill="#231f20"/>
    <path id="Path_229" data-name="Path 229" d="M723.727,1383.74a3.247,3.247,0,0,1,1.6.96,2.51,2.51,0,0,1,.486.89,2.633,2.633,0,0,1,.132,1.08,3.421,3.421,0,0,1-.52,1.76,3.488,3.488,0,0,1-1.174,1.15,5.152,5.152,0,0,1-1.606.63,9.339,9.339,0,0,1-1.827.18h-5.728l.724-12.67h5.207a12.608,12.608,0,0,1,1.624.11,5.133,5.133,0,0,1,1.579.47,2.7,2.7,0,0,1,1.545,2.78,2.846,2.846,0,0,1-.609,1.68,3.26,3.26,0,0,1-1.4.99Zm-4.156-2.77-.089,1.55h1.148a1.245,1.245,0,0,0,.75-.2.774.774,0,0,0,.233-.28.794.794,0,0,0,.084-.36.561.561,0,0,0-.055-.31.646.646,0,0,0-.218-.23,1.672,1.672,0,0,0-.794-.17Zm-.239,4.29-.1,1.77h1.271a1.479,1.479,0,0,0,.821-.22.831.831,0,0,0,.256-.29.784.784,0,0,0,.1-.37.623.623,0,0,0-.106-.41.926.926,0,0,0-.318-.26,1.2,1.2,0,0,0-.415-.13,2,2,0,0,0-.423-.04Z" transform="translate(3850 -955)"/>
    <path id="Path_230" data-name="Path 230" d="M734.926,1390.69a7.19,7.19,0,0,1-2.559-.41,4.962,4.962,0,0,1-1.765-1.13,4.2,4.2,0,0,1-.989-1.69,5.847,5.847,0,0,1-.238-2.1l.433-7.7h4.262l-.45,7.26a2.018,2.018,0,0,0,.362,1.42,1.5,1.5,0,0,0,.542.4,1.39,1.39,0,0,0,.667.11,1.829,1.829,0,0,0,.7-.11,1.714,1.714,0,0,0,.583-.4,2.234,2.234,0,0,0,.512-1.42l.415-7.24h4.236l-.432,7.7a6.036,6.036,0,0,1-.5,2.11,5.138,5.138,0,0,1-1.236,1.68,5.641,5.641,0,0,1-1.933,1.13A7.671,7.671,0,0,1,734.926,1390.69Z" transform="translate(3850 -955)"/>
    <path id="Path_231" data-name="Path 231" d="M752.338,1390.33h-4.254l.291-5.19-4.35-7.48h5.136l1.765,3.71,2.127-3.71h5l-5.445,7.48Z" transform="translate(3850 -955)"/>
    <path id="Path_232" data-name="Path 232" d="M758.78,1349.57h-40.5l6.866-34.15h30.64Z" transform="translate(3850 -955)" fill="#fff"/>
    <path id="Path_233" data-name="Path 233" d="M758.78,1350.01h-40.5a.426.426,0,0,1-.189-.05.363.363,0,0,1-.155-.11.427.427,0,0,1-.083-.18.436.436,0,0,1-.005-.19l6.866-34.14a.487.487,0,0,1,.155-.26.463.463,0,0,1,.277-.1h30.641a.442.442,0,0,1,.432.41l3,34.14a.412.412,0,0,1-.02.18.482.482,0,0,1-.094.16.444.444,0,0,1-.149.1A.542.542,0,0,1,758.78,1350.01Zm-39.959-.89H758.33l-2.921-33.25h-29.9Z" transform="translate(3850 -955)" fill="#231f20"/>
    <path id="Path_234" data-name="Path 234" d="M750.273,1315.87H730.664a.519.519,0,0,1-.174-.04.653.653,0,0,1-.144-.1.5.5,0,0,1-.124-.33l.371-6.43a10.958,10.958,0,0,1,10.793-10.23,9.611,9.611,0,0,1,9.17,6.37,9.633,9.633,0,0,1,.538,3.91l-.362,6.43a.457.457,0,0,1-.459.42Zm-19.142-.89h18.718l.344-6.01a8.732,8.732,0,0,0-8.825-9.35,10.067,10.067,0,0,0-9.91,9.4Z" transform="translate(3850 -955)" fill="#231f20"/>
    <path id="Path_235" data-name="Path 235" d="M752.982,1323H727.151a.455.455,0,0,1-.312-.13.466.466,0,0,1-.129-.32.443.443,0,0,1,.129-.31.455.455,0,0,1,.312-.13h25.831a.448.448,0,0,1,.309.13.474.474,0,0,1,.132.31.466.466,0,0,1-.129.32A.455.455,0,0,1,752.982,1323Z" transform="translate(3850 -955)" fill="#d1d3d4"/>
    <path id="Path_236" data-name="Path 236" d="M770.05,1410.41H700.164a.455.455,0,0,1-.312-.13.437.437,0,0,1,0-.62.414.414,0,0,1,.312-.13H770.05a.414.414,0,0,1,.312.13.437.437,0,0,1,0,.62A.455.455,0,0,1,770.05,1410.41Z" transform="translate(3850 -955)" fill="#d1d3d4"/>
    <path id="Path_237" data-name="Path 237" d="M769.194,1425.5H699.308a.455.455,0,0,1-.312-.13.466.466,0,0,1-.129-.31.471.471,0,0,1,.129-.32.455.455,0,0,1,.312-.13h69.886a.455.455,0,0,1,.312.13.471.471,0,0,1,.129.32.466.466,0,0,1-.129.31A.455.455,0,0,1,769.194,1425.5Z" transform="translate(3850 -955)" fill="#d1d3d4"/>
    <path id="Path_238" data-name="Path 238" d="M768.338,1440.57H698.452a.454.454,0,0,1-.312-.13.466.466,0,0,1-.129-.31.471.471,0,0,1,.129-.32.454.454,0,0,1,.312-.13h69.886a.454.454,0,0,1,.312.13.471.471,0,0,1,.129.32.466.466,0,0,1-.129.31A.454.454,0,0,1,768.338,1440.57Z" transform="translate(3850 -955)" fill="#d1d3d4"/>
    <path id="Path_239" data-name="Path 239" d="M757.121,1455.67H707.948a.414.414,0,0,1-.312-.13.426.426,0,0,1-.129-.31.436.436,0,0,1,.132-.31.447.447,0,0,1,.309-.13h49.173a.414.414,0,0,1,.312.13.437.437,0,0,1,0,.62A.414.414,0,0,1,757.121,1455.67Z" transform="translate(3850 -955)" fill="#d1d3d4"/>
    <path id="Path_240" data-name="Path 240" d="M822.8,1445.47a6.84,6.84,0,0,0-.785-3.7,27.363,27.363,0,0,1-1.65-2.34c-.706-1.5-.212-3.27-.38-4.92a6.194,6.194,0,0,0-1.765-3.68c-.882-.88-1.968-1.46-2.8-2.37-1.35-1.5-1.765-3.6-2.507-5.46a13.593,13.593,0,0,0-5.392-6.35c1.474,2.96-1.888,6.73-.361,9.71.476.94,1.4,1.61,1.765,2.6.882,2.39-1.995,4.97-1.086,7.34.459,1.17,1.721,1.86,2.312,2.99.786,1.51.168,3.33.23,5.04.088,2.36,1.518,4.42,3.221,6.09,1.059,1.01,2.233,1.89,3.38,2.8,1.368,1.1,1.941,2.26,3.15.5a15.142,15.142,0,0,0,2.665-8.25Z" transform="translate(3850 -955)" fill="#231f20"/>
    <path id="Path_241" data-name="Path 241" d="M824.332,1446.82c-.432-1.82-.75-3.8,0-5.51.883-1.94,2.93-3.32,3.177-5.42.159-1.38-.538-2.77-.264-4.13s1.385-2.29,2.294-3.29a13.75,13.75,0,0,0,3.53-8.41,20.583,20.583,0,0,1,3.38,5.6,7.149,7.149,0,0,1-.485,6.3,5.818,5.818,0,0,0-.883,1.41c-.415,1.34.733,2.59,1.324,3.86a4.413,4.413,0,0,1,.427,2.34,4.356,4.356,0,0,1-.851,2.22c-1.2,1.5-3.53,2.09-4.1,3.91a9.572,9.572,0,0,0-.212,2.07A6.068,6.068,0,0,1,827.3,1453c-1.42.35-1.394-.22-1.65-1.42C825.338,1449.97,824.721,1448.42,824.332,1446.82Z" transform="translate(3850 -955)" fill="#231f20"/>
    <path id="Path_242" data-name="Path 242" d="M819.814,1433.73c-1.015-3.53-1.421-7.16-2.48-10.6a57.683,57.683,0,0,0-3.31-7.95l4.334,1.83c1.394.58,2.894,1.27,3.53,2.65,1.147,2.37-.883,5.4.291,7.74a19.172,19.172,0,0,0,1.721,2.16c1.27,1.77,1.076,4.26.379,6.34-.3.89-1.615,5.54-2.789,4.25-.467-.52-.511-2.44-.706-3.14C820.493,1435.89,820.1,1434.82,819.814,1433.73Z" transform="translate(3850 -955)" fill="#231f20"/>
    <path id="Path_243" data-name="Path 243" d="M822.117,1480.19c-.883-5.71-3.53-25.86-3.6-26.06l.883-.12c0,.2,2.736,20.32,3.592,26.05Z" transform="translate(3850 -955)" fill="#231f20"/>
    <path id="Path_244" data-name="Path 244" d="M823.264,1485.62h-.882c.044-6.79,2.886-32.76,4.527-34.55l.644.6C826.283,1452.98,823.317,1478.05,823.264,1485.62Z" transform="translate(3850 -955)" fill="#231f20"/>
    <path id="Path_245" data-name="Path 245" d="M824.729,1484.29l-.882-.04c.644-14.62-2.454-45.35-2.48-45.66l.882-.09C822.276,1438.8,825.4,1469.6,824.729,1484.29Z" transform="translate(3850 -955)" fill="#231f20"/>
    <path id="Path_246" data-name="Path 246" d="M814.757,1463.81h16.132l-1.129,18.34a5.7,5.7,0,0,1-5.375,5.63h-3.124a5.689,5.689,0,0,1-5.374-5.63Z" transform="translate(3850 -955)" fill="#fff"/>
    <path id="Path_247" data-name="Path 247" d="M824.385,1488.27h-3.124a6.158,6.158,0,0,1-5.833-6.06l-1.13-18.34a.522.522,0,0,1,.124-.35.515.515,0,0,1,.335-.14h16.132a.542.542,0,0,1,.178.04.442.442,0,0,1,.149.1.49.49,0,0,1,.1.16.5.5,0,0,1,.026.19l-1.129,18.34A6.152,6.152,0,0,1,824.385,1488.27Zm-9.143-23.98,1.095,17.79c.185,2.92,2.347,5.21,4.924,5.21h3.124c2.577,0,4.739-2.29,4.916-5.22l1.1-17.85Z" transform="translate(3850 -955)" fill="#231f20"/>
    <path id="Path_248" data-name="Path 248" d="M614.333,1413.23l-4.951,7.24s-.318,3.86-1.342,3.94-.626-3.23-.626-3.23-10.387,5.3-10.59,2.75,7.06-6.68,7.157-6.92,4.245-6.19,4.245-6.19Z" transform="translate(3850 -955)" fill="#fff"/>
    <path id="Path_249" data-name="Path 249" d="M597.9,1425.05a2.2,2.2,0,0,1-.979-.2.988.988,0,0,1-.4-.37,1.04,1.04,0,0,1-.167-.51c-.185-2,3.177-4.52,6.495-6.73l.75-.51c.194-.33.962-1.51,4.236-6.19a.466.466,0,0,1,.238-.17.485.485,0,0,1,.292.01l6.177,2.44a.729.729,0,0,1,.16.11.48.48,0,0,1,.1.17.471.471,0,0,1,.017.2.379.379,0,0,1-.07.18l-4.889,7.15c-.123,1.33-.512,4.13-1.765,4.23a.8.8,0,0,1-.374-.06.95.95,0,0,1-.314-.21,4.107,4.107,0,0,1-.477-2.65C604.907,1422.9,600.265,1425.05,597.9,1425.05Zm10.458-13.72c-1.544,2.22-3.848,5.55-4.007,5.85,0,.16-.114.21-1.006.8-1.553,1.03-6.274,4.18-6.115,5.91a.2.2,0,0,0,.031.11.17.17,0,0,0,.083.07c1.121.62,6.451-1.55,9.867-3.28a.455.455,0,0,1,.229-.06.461.461,0,0,1,.23.06.488.488,0,0,1,.147.18.439.439,0,0,1,.038.23,5.224,5.224,0,0,0,.176,2.75c.318-.11.768-1.84.883-3.53a.42.42,0,0,1,.079-.21l4.642-6.8Z" transform="translate(3850 -955)" fill="#231f20"/>
    <path id="Path_250" data-name="Path 250" d="M629.67,1369.79c-1.42.46-23.748,42.02-23.748,42.02l7.678,3.78s24.189-23.04,25.134-30.36S629.67,1369.79,629.67,1369.79Z" transform="translate(3850 -955)" fill="#30c684"/>
    <path id="Path_251" data-name="Path 251" d="M642.158,1436.78c.22.66,3.53,5.09,3.088,7.06s-1.526,42.32-1.526,42.32l6.389,2.2s7.943-40.09,8.825-45.84a39.4,39.4,0,0,0,0-11.06Z" transform="translate(3850 -955)" fill="#fff"/>
    <path id="Path_252" data-name="Path 252" d="M650.109,1488.81a.339.339,0,0,1-.141,0l-6.389-2.2a.5.5,0,0,1-.22-.17.456.456,0,0,1-.08-.27c.044-1.64,1.094-40.37,1.535-42.4.291-1.3-1.518-4.22-2.383-5.62a8.8,8.8,0,0,1-.7-1.21.48.48,0,0,1,0-.35.525.525,0,0,1,.11-.14.736.736,0,0,1,.155-.08l16.767-5.3a.462.462,0,0,1,.362.05.345.345,0,0,1,.136.13.4.4,0,0,1,.067.17,40.244,40.244,0,0,1,0,11.2c-.882,5.69-8.763,45.46-8.825,45.87a.429.429,0,0,1-.073.17.424.424,0,0,1-.139.12.3.3,0,0,1-.185.03Zm-5.939-2.96,5.6,1.94c.882-4.64,7.942-40.01,8.737-45.33a38.843,38.843,0,0,0,.07-10.42l-15.788,4.99c.115.2.256.42.389.63,1.067,1.77,2.868,4.63,2.5,6.29C645.37,1445.48,644.549,1471.84,644.17,1485.85Z" transform="translate(3850 -955)" fill="#231f20"/>
    <path id="Path_253" data-name="Path 253" d="M627.041,1435.12s.088,4.53-.353,5.86-14.3,39.58-14.3,39.58l5.013,2.5s23.412-36.72,24.013-39.75a28.7,28.7,0,0,0,0-7.51Z" transform="translate(3850 -955)" fill="#fff"/>
    <path id="Path_254" data-name="Path 254" d="M617.4,1483.51a.644.644,0,0,1-.2-.05l-5.012-2.51a.45.45,0,0,1-.213-.23.467.467,0,0,1-.008-.32c.141-.37,13.855-38.25,14.288-39.56a29.283,29.283,0,0,0,.335-5.71.4.4,0,0,1,.031-.18.378.378,0,0,1,.1-.15.49.49,0,0,1,.326-.13l14.376.71a.489.489,0,0,1,.282.12.463.463,0,0,1,.142.27,29.059,29.059,0,0,1,0,7.66c-.609,3.05-23.113,38.37-24.075,39.87a.429.429,0,0,1-.162.16A.538.538,0,0,1,617.4,1483.51Zm-4.413-3.17,4.3,2.15c6.61-10.43,23.227-36.86,23.668-39.27a27.14,27.14,0,0,0,0-7.01l-13.537-.67a26.2,26.2,0,0,1-.38,5.54c-.361,1.3-12.558,35.08-14.093,39.24Z" transform="translate(3850 -955)" fill="#231f20"/>
    <path id="Path_255" data-name="Path 255" d="M643.72,1486.16l-.389,6.12h2.507l.291-1.48s2.241,2,4.615,1.92,7.175.6,7.325,0-7.942-4.36-7.942-4.36Z" transform="translate(3850 -955)" fill="#231f20"/>
    <path id="Path_256" data-name="Path 256" d="M656.781,1493.42c-.653,0-1.536-.06-2.7-.13s-2.436-.16-3.318-.13a7.68,7.68,0,0,1-4.342-1.56l-.15.77a.405.405,0,0,1-.152.25.414.414,0,0,1-.28.1h-2.507a.507.507,0,0,1-.173-.03.632.632,0,0,1-.144-.1.476.476,0,0,1-.1-.16.432.432,0,0,1-.026-.18l.388-6.12a.437.437,0,0,1,.059-.19.454.454,0,0,1,.136-.15.592.592,0,0,1,.187-.07.456.456,0,0,1,.2.02l6.389,2.22c8.481,3.93,8.34,4.49,8.243,4.87S657.91,1493.42,656.781,1493.42Zm-5.631-1.14c.883,0,1.942.06,2.983.13s2.348.15,3.1.11a77.045,77.045,0,0,0-7.307-3.75l-5.8-2-.327,5.07h1.677l.22-1.12a.43.43,0,0,1,.1-.21.478.478,0,0,1,.193-.13.455.455,0,0,1,.232-.01.355.355,0,0,1,.207.11s2.109,1.89,4.306,1.76Z" transform="translate(3850 -955)" fill="#231f20"/>
    <path id="Path_257" data-name="Path 257" d="M612.391,1480.56l-2.136,6.34,2.136.74,1.553-1.92s2.948,2.8,3.68,3.39,6.848,2.31,7,1.2-6.627-4.81-7.218-7.25Z" transform="translate(3850 -955)" fill="#231f20"/>
    <path id="Path_258" data-name="Path 258" d="M623.66,1491.11a17.086,17.086,0,0,1-6.309-1.65c-.6-.49-2.56-2.33-3.363-3.09l-1.271,1.54a.413.413,0,0,1-.22.15.4.4,0,0,1-.265-.01l-2.136-.74a.459.459,0,0,1-.25-.22.424.424,0,0,1-.023-.33l2.135-6.35a.492.492,0,0,1,.248-.26.447.447,0,0,1,.37,0l5,2.5a.462.462,0,0,1,.238.29c.292,1.21,2.533,2.95,4.333,4.35,2.021,1.56,2.983,2.34,2.9,3.05a.77.77,0,0,1-.178.39.827.827,0,0,1-.352.24,2.271,2.271,0,0,1-.856.14Zm-9.707-5.83a.428.428,0,0,1,.3.12s2.939,2.8,3.654,3.37,5.374,1.77,6.265,1.42a16.386,16.386,0,0,0-2.532-2.19c-1.924-1.49-4.086-3.16-4.6-4.63l-4.413-2.19-1.827,5.44,1.421.5,1.377-1.68a.315.315,0,0,1,.137-.11.354.354,0,0,1,.172-.05Z" transform="translate(3850 -955)" fill="#231f20"/>
    <path id="Path_259" data-name="Path 259" d="M656.119,1401.94s4.192,28.75,3.751,35.83c0,0-20.836,6.53-34.541.12,0,0,1.173-9.43-1.033-16.61s-3.1-14.7,0-19.34C624.3,1401.94,645.732,1410.12,656.119,1401.94Z" transform="translate(3850 -955)" fill="#231f20"/>
    <path id="Path_260" data-name="Path 260" d="M640.145,1441.13c-5.118,0-10.457-.71-15-2.84a.434.434,0,0,1-.247-.45c0-.1,1.129-9.43-1.024-16.43-1.888-6.12-3.406-14.52.053-19.72a.464.464,0,0,1,.237-.17.488.488,0,0,1,.293,0c.211.08,21.321,8.01,31.39.07a.515.515,0,0,1,.207-.09.574.574,0,0,1,.226.02.467.467,0,0,1,.185.14.428.428,0,0,1,.088.22c.177,1.17,4.2,28.87,3.76,35.92a.4.4,0,0,1-.094.24.4.4,0,0,1-.215.15,75.4,75.4,0,0,1-19.857,2.94Zm-14.34-3.53c12.514,5.64,31.09.56,33.641-.19.273-6.76-3.027-30.24-3.663-34.7-5.489,3.86-13.6,3.62-19.538,2.71a68.189,68.189,0,0,1-11.773-2.97c-3.018,4.93-1.553,12.84.247,18.67,2,6.55,1.236,14.76,1.086,16.51Z" transform="translate(3850 -955)" fill="#231f20"/>
    <path id="Path_261" data-name="Path 261" d="M688.515,1380.5l7.449-.99s4.58-3.18,5.824-3.53,8.128.55,7.8,1.15-2.065.55-2.648.61c-.8.07-1.615.11-2.418.16a7.021,7.021,0,0,1,.83,4.53,3.535,3.535,0,0,1-2.163,2.8,1.535,1.535,0,0,1-1.014.05.821.821,0,0,1-.565-.78l-.133.05a11.735,11.735,0,0,1-3.265.66c-.882,0-1.668-.46-2.5-.28a28.957,28.957,0,0,0-3.619,1.26l-6.477,2.26Z" transform="translate(3850 -955)" fill="#fff"/>
    <path id="Path_262" data-name="Path 262" d="M685.621,1388.87a.434.434,0,0,1-.432-.34.449.449,0,0,1,.017-.25l2.9-7.95a.457.457,0,0,1,.353-.29l7.351-.97c.759-.53,4.642-3.18,5.86-3.53s7.58.35,8.251,1.19a.515.515,0,0,1,.062.59c-.344.64-1.421.76-2.6.82h-.353c-.565.05-1.138.09-1.7.13a7.816,7.816,0,0,1,.538,4.19,3.95,3.95,0,0,1-2.453,3.15,1.893,1.893,0,0,1-1.306.05,1.31,1.31,0,0,1-.733-.63,10.722,10.722,0,0,1-3.071.58,6.062,6.062,0,0,1-1.2-.17,2.8,2.8,0,0,0-1.218-.12,15.145,15.145,0,0,0-2.365.8c-.406.16-.8.32-1.191.45l-6.531,2.29a.349.349,0,0,1-.176.01Zm3.221-8.01-2.489,6.85,5.648-1.98c.38-.13.768-.29,1.156-.44a14.8,14.8,0,0,1,2.507-.84,3.748,3.748,0,0,1,1.6.11,3.75,3.75,0,0,0,1,.16,11.237,11.237,0,0,0,3.142-.64h.115a.526.526,0,0,1,.216-.02.38.38,0,0,1,.2.09.393.393,0,0,1,.131.17.437.437,0,0,1,.037.21.379.379,0,0,0,.274.32,1.164,1.164,0,0,0,.714-.05,3.015,3.015,0,0,0,1.271-.97,3.048,3.048,0,0,0,.609-1.48,6.63,6.63,0,0,0-.759-4.21.468.468,0,0,1,.154-.61.552.552,0,0,1,.217-.08h.732c.556,0,1.112-.06,1.668-.11h.4a9.544,9.544,0,0,0,1.412-.16c-1.535-.43-5.859-.99-6.839-.72a42.51,42.51,0,0,0-5.692,3.47.359.359,0,0,1-.194.08Z" transform="translate(3850 -955)" fill="#231f20"/>
    <path id="Path_263" data-name="Path 263" d="M623.59,1402.58s4.068-32.72,8.745-39.33,16.185-7.67,21.507-3.41,2.524,43.28,2.524,43.28S639.457,1407.93,623.59,1402.58Z" transform="translate(3850 -955)" fill="#30c684"/>
    <path id="Path_264" data-name="Path 264" d="M653.842,1359.87a13.061,13.061,0,0,1,7.775,5.95c2.55,4.72,5.295,11.18,5.295,11.18l25.416,2.12,1.173,8.1s-16.4,5.03-24.524,6.46c-6.734,1.19-10.3-2.18-13.238-5.58a36.394,36.394,0,0,1-3.062-4.89Z" transform="translate(3850 -955)" fill="#30c684"/>
    <path id="Path_265" data-name="Path 265" d="M655.016,1345.41s2.365,3.92,1.818,4.69-2.268.18-2.268.18" transform="translate(3850 -955)" fill="#fff"/>
    <path id="Path_266" data-name="Path 266" d="M655.8,1350.93a4.294,4.294,0,0,1-1.376-.23.439.439,0,0,1-.251-.23.429.429,0,0,1-.023-.33.379.379,0,0,1,.084-.15.394.394,0,0,1,.136-.1.484.484,0,0,1,.166-.05.49.49,0,0,1,.17.03c.574.18,1.527.31,1.765,0s-.715-2.34-1.836-4.2a.526.526,0,0,1-.075-.16.486.486,0,0,1,0-.19.41.41,0,0,1,.071-.16.441.441,0,0,1,.132-.13.5.5,0,0,1,.171-.06.543.543,0,0,1,.18.01.473.473,0,0,1,.273.23c.945,1.56,2.436,4.29,1.81,5.18a1.775,1.775,0,0,1-.632.44,1.653,1.653,0,0,1-.763.1Z" transform="translate(3850 -955)" fill="#231f20"/>
    <path id="Path_267" data-name="Path 267" d="M654.672,1340.35c1.553,1.37.979,4.13.882,5.93q-.168,3.8-.521,7.59c-.15,1.6-4.306,1.47-5.021.97l.883,4.01-9.055-1.32.565-5.23s-.583-7.28,1.165-10.5a5.677,5.677,0,0,1,5.2-2.91S653.154,1338.98,654.672,1340.35Z" transform="translate(3850 -955)" fill="#fff"/>
    <path id="Path_268" data-name="Path 268" d="M650.9,1359.3h-.07l-9.072-1.32a.445.445,0,0,1-.371-.49l.556-5.23c0-.22-.574-7.38,1.218-10.67a6.064,6.064,0,0,1,5.63-3.14c.159,0,4.545.16,6.178,1.58,1.456,1.29,1.262,3.54,1.112,5.3,0,.34-.053.67-.071.97-.115,2.51-.291,5.08-.521,7.61a1.546,1.546,0,0,1-.346.79,1.52,1.52,0,0,1-.713.49,7.344,7.344,0,0,1-3.8.31l.706,3.25a.436.436,0,0,1,0,.21.43.43,0,0,1-.1.19.455.455,0,0,1-.147.11A.379.379,0,0,1,650.9,1359.3Zm-8.6-2.15,8.022,1.18-.742-3.39a.442.442,0,0,1,.186-.46.436.436,0,0,1,.5,0,6.2,6.2,0,0,0,3.786-.09c.335-.16.52-.35.538-.57.229-2.51.406-5.06.521-7.57a4.36,4.36,0,0,1,.079-.99c.132-1.59.3-3.54-.829-4.58-1.139-1.01-4.413-1.33-5.631-1.36a5.1,5.1,0,0,0-2.782.63,5.161,5.161,0,0,0-2.019,2.02c-1.668,3.06-1.12,10.18-1.12,10.25Z" transform="translate(3850 -955)" fill="#231f20"/>
    <path id="Path_269" data-name="Path 269" d="M640.075,1358.75l.882-2.77,11.138,1.08.644,2.54a14.814,14.814,0,0,1-12.664-.85Z" transform="translate(3850 -955)" fill="#fff"/>
    <path id="Path_270" data-name="Path 270" d="M647.373,1361.07a16,16,0,0,1-7.536-1.93.463.463,0,0,1-.2-.22.449.449,0,0,1-.012-.3l.882-2.77a.445.445,0,0,1,.468-.31l11.1,1.11a.45.45,0,0,1,.244.11.471.471,0,0,1,.144.23l.636,2.54a.414.414,0,0,1-.028.29.394.394,0,0,1-.211.21,13.594,13.594,0,0,1-5.489,1.04Zm-6.795-2.55a14.6,14.6,0,0,0,11.578.82l-.476-1.87-10.467-1.01Z" transform="translate(3850 -955)" fill="#231f20"/>
    <path id="Path_271" data-name="Path 271" d="M623.369,1399.05a.455.455,0,0,1-.312-.13.426.426,0,0,1-.129-.31c0-8.53,4.492-25.18,4.871-26.32a.444.444,0,0,1,.226-.25.5.5,0,0,1,.339-.03.473.473,0,0,1,.222.23.424.424,0,0,1,.016.31c-.37,1.12-4.836,17.6-4.827,26.03a.426.426,0,0,1-.129.31.414.414,0,0,1-.312.13Z" transform="translate(3850 -955)" fill="#231f20"/>
    <path id="Path_272" data-name="Path 272" d="M647.135,1352.85v.19a24.913,24.913,0,0,1-2.277,10.68,13.8,13.8,0,0,1-3.856,5.3,12.88,12.88,0,0,1-6.037,2.37,10.861,10.861,0,0,1-5.568-.39,8.99,8.99,0,0,1-5.295-7.26,14.356,14.356,0,0,1,2.162-8.96c1.686-2.86,4.218-5.03,5.93-7.84,1.854-3.04,2.939-6.61,5.013-9.49a12.671,12.671,0,0,1,15.4-3.67c1.129-1.1,3.274-.2,3.865,1.25a5.182,5.182,0,0,1-.282,4.07c-.1.16-1.677,1.84-1.6,1.31-.2,1.43-1.138,2.11-2.268,3.01a41.166,41.166,0,0,1-3.68,2.33C645.582,1347.66,646.994,1349.84,647.135,1352.85Z" transform="translate(3850 -955)" fill="#fff"/>
    <path id="Path_273" data-name="Path 273" d="M632.724,1371.95a9.655,9.655,0,0,1-3.53-.61,9.388,9.388,0,0,1-5.5-7.62,14.871,14.871,0,0,1,2.259-9.24,29.823,29.823,0,0,1,3.071-4.08,30.283,30.283,0,0,0,2.859-3.76,41.5,41.5,0,0,0,2.11-4.14,33.286,33.286,0,0,1,2.929-5.39,13.113,13.113,0,0,1,15.691-3.92,2.378,2.378,0,0,1,1.915-.35,3.43,3.43,0,0,1,2.427,1.97,5.566,5.566,0,0,1-.317,4.41,6.6,6.6,0,0,1-1.651,1.53,5.1,5.1,0,0,1-2.206,2.78l-.15.13a20.361,20.361,0,0,1-2.471,1.6c-.415.25-.883.5-1.244.75-2.11,1.35-1.907,2.65-1.607,4.68a18.42,18.42,0,0,1,.23,2.11v.13a25.441,25.441,0,0,1-2.277,10.9,14.172,14.172,0,0,1-3.989,5.43,13.374,13.374,0,0,1-6.239,2.47,16.269,16.269,0,0,1-2.312.22Zm14.561-39.02a12.012,12.012,0,0,0-9.707,4.7,31.76,31.76,0,0,0-2.8,5.24,38.792,38.792,0,0,1-2.162,4.23,30.866,30.866,0,0,1-2.93,3.86,29.432,29.432,0,0,0-2.992,3.97,14.021,14.021,0,0,0-2.1,8.69,8.446,8.446,0,0,0,4.977,6.89,10.24,10.24,0,0,0,5.348.38,12.266,12.266,0,0,0,5.825-2.3,13.251,13.251,0,0,0,3.733-5.09,24.416,24.416,0,0,0,2.2-10.45v-.18a17.607,17.607,0,0,0-.221-2.01c-.3-2-.582-3.89,2-5.54.415-.27.882-.52,1.271-.77A20.41,20.41,0,0,0,652.1,1343l.15-.11c1.033-.82,1.765-1.42,1.96-2.6a.461.461,0,0,1,.171-.29.415.415,0,0,1,.323-.08h0a11.516,11.516,0,0,0,1.121-1.13,4.735,4.735,0,0,0,.247-3.66,2.574,2.574,0,0,0-1.765-1.43,1.464,1.464,0,0,0-.72,0,1.431,1.431,0,0,0-.639.33.446.446,0,0,1-.243.12.494.494,0,0,1-.269-.04,11.653,11.653,0,0,0-5.154-1.18Z" transform="translate(3850 -955)" fill="#231f20"/>
    <path id="Path_274" data-name="Path 274" d="M655.078,1351.98a2.2,2.2,0,0,1-.828.29,2.146,2.146,0,0,1-.873-.08,2.1,2.1,0,0,1-1.273-1.15" transform="translate(3850 -955)" fill="#fff"/>
    <path id="Path_275" data-name="Path 275" d="M653.842,1352.73a2.422,2.422,0,0,1-.706-.11,2.376,2.376,0,0,1-.879-.54,2.438,2.438,0,0,1-.577-.85.463.463,0,0,1-.043-.17.41.41,0,0,1,.025-.17.376.376,0,0,1,.09-.15.437.437,0,0,1,.14-.11.479.479,0,0,1,.334-.01.434.434,0,0,1,.248.23,1.553,1.553,0,0,0,.351.53,1.607,1.607,0,0,0,.532.35,2.054,2.054,0,0,0,1.438-.19.486.486,0,0,1,.336-.03.446.446,0,0,1,.264.21.48.48,0,0,1,.053.16.43.43,0,0,1-.013.17.357.357,0,0,1-.078.15.3.3,0,0,1-.13.11,3.083,3.083,0,0,1-1.385.42Z" transform="translate(3850 -955)" fill="#231f20"/>
    <path id="Path_276" data-name="Path 276" d="M650.091,1346.85a3.466,3.466,0,0,0-.635-1.76,5.013,5.013,0,0,0-.883-1.19,1.677,1.677,0,0,0-.621-.39,1.639,1.639,0,0,0-.729-.07,1.573,1.573,0,0,0-.592.25,1.557,1.557,0,0,0-.431.49,2.936,2.936,0,0,0-.371,1.24,5.448,5.448,0,0,0,.5,2.77,5.368,5.368,0,0,0,1.818,2.15l-.133-.16" transform="translate(3850 -955)" fill="#fff"/>
    <path id="Path_277" data-name="Path 277" d="M648.168,1350.78a.432.432,0,0,1-.247-.07,5.832,5.832,0,0,1-1.96-2.31,5.943,5.943,0,0,1-.556-2.99,3.393,3.393,0,0,1,.424-1.43,2.091,2.091,0,0,1,.563-.62,1.97,1.97,0,0,1,.77-.33,1.932,1.932,0,0,1,.922.1,2.062,2.062,0,0,1,.79.48,5.5,5.5,0,0,1,.962,1.28,3.921,3.921,0,0,1,.7,2.01.463.463,0,0,1-.14.3.455.455,0,0,1-.31.13.408.408,0,0,1-.307-.14.431.431,0,0,1-.126-.31,2.954,2.954,0,0,0-.582-1.54,4.712,4.712,0,0,0-.786-1.07,1.073,1.073,0,0,0-.447-.3,1.206,1.206,0,0,0-.532-.07,1.147,1.147,0,0,0-.715.54,2.428,2.428,0,0,0-.309,1.06,5.057,5.057,0,0,0,.389,2.37,5.129,5.129,0,0,0,1.438,1.92.439.439,0,0,1,.256.15l.141.16a.436.436,0,0,1,.106.28.443.443,0,0,1-.106.29.459.459,0,0,1-.156.09A.365.365,0,0,1,648.168,1350.78Z" transform="translate(3850 -955)" fill="#231f20"/>
    <path id="Path_278" data-name="Path 278" d="M654.36,1344.33c.2,0,.347-.41.339-.91s-.172-.91-.367-.91-.347.42-.339.92S654.165,1344.33,654.36,1344.33Z" transform="translate(3850 -955)" fill="#231f20"/>
    <path id="Path_279" data-name="Path 279" d="M660.893,1393.22a.551.551,0,0,1-.22-.05c-9.558-5.47-13.009-22.57-13.15-23.31a.448.448,0,0,1,.694-.45.452.452,0,0,1,.189.29c0,.17,3.53,17.43,12.717,22.7a.4.4,0,0,1,.132.11.417.417,0,0,1,.079.15.457.457,0,0,1,.012.18.445.445,0,0,1-.056.16.371.371,0,0,1-.168.16A.462.462,0,0,1,660.893,1393.22Z" transform="translate(3850 -955)" fill="#231f20"/>
  </g>
</svg>
