<svg xmlns="http://www.w3.org/2000/svg" width="283.686" height="206.344" viewBox="0 0 283.686 206.344">
  <g id="Group_30" data-name="Group 30" transform="translate(-4254.096 -1805.06)">
    <path id="Path_420" data-name="Path 420" d="M669.092,1971.08l6.365,29.266,23.926-27.212,9.746,8.614s-33.9,50.459-47.424,47.157-9.844-22.441-12.719-43.015S669.092,1971.08,669.092,1971.08Z" transform="translate(3666.808 -63.368)" fill="#fff"/>
    <path id="Path_421" data-name="Path 421" d="M663.051,2029.594a6.188,6.188,0,0,1-1.424-.166c-10.3-2.518-10.934-13.65-11.7-27.764-.282-5.036-.584-10.249-1.335-15.66-.808-5.776.313-10.094,3.343-12.811,5.936-5.334,16.9-2.65,17.359-2.54a.5.5,0,0,1,.23.144.464.464,0,0,1,.13.232l6.16,28.283,23.284-26.494a.5.5,0,0,1,.34-.166.511.511,0,0,1,.351.121l9.746,8.625a.455.455,0,0,1,.16.3.474.474,0,0,1-.082.331C708.195,1984.071,677.446,2029.583,663.051,2029.594Zm-.565-58.72c-3.343,0-7.261.629-9.94,3.048s-3.791,6.516-3.031,11.949,1.052,10.668,1.345,15.738c.78,13.705,1.4,24.528,10.993,26.88,5.332,1.281,15.107-6.372,28.264-22.187,9.083-10.922,16.919-22.3,18.371-24.4l-9.035-8.018-23.6,26.858a.573.573,0,0,1-.222.155.536.536,0,0,1-.265,0,.485.485,0,0,1-.233-.132.5.5,0,0,1-.128-.232l-6.3-28.957a30.278,30.278,0,0,0-6.228-.707Z" transform="translate(3666.767 -63.416)" fill="#231f20"/>
    <path id="Path_422" data-name="Path 422" d="M596.645,2052.163c-1.949,13.2-1.647,16.82-1.647,16.82l80.815-1.612-10.633-46.24-61.967,6.648a118.232,118.232,0,0,0-6.569,24.385Z" transform="translate(3661.197 -58.067)" fill="#231f20"/>
    <path id="Path_423" data-name="Path 423" d="M595.045,2069.515a.418.418,0,0,1-.331-.121.451.451,0,0,1-.156-.309c0-.166-.313-3.843,1.647-16.941a119.373,119.373,0,0,1,6.609-24.506.447.447,0,0,1,.158-.2.488.488,0,0,1,.241-.1l61.957-6.648a.514.514,0,0,1,.335.088.456.456,0,0,1,.191.287l10.643,46.24a.438.438,0,0,1,0,.21.453.453,0,0,1-.1.2.477.477,0,0,1-.163.133.453.453,0,0,1-.207.055l-80.815,1.612Zm2.125-17.228c-1.569,10.48-1.676,14.931-1.657,16.245l79.733-1.59-10.4-45.235-61.236,6.571a119.376,119.376,0,0,0-6.442,24.009Z" transform="translate(3661.151 -58.113)" fill="#231f20"/>
    <path id="Path_424" data-name="Path 424" d="M595.995,2055.74l75.776-8.526c-7.056-45.081-10.653-21.248-2.125-63.414l8.986-2.44c-4.171-21.778-14.424-31.342-14.424-31.342-10.009-18.035-34.414-7.488-34.414-7.488s-27.992,2.253-35.213,26.461c-4.785,16.013,3.43,38.355,4.454,57.858C599.318,2032.3,597.437,2032.084,595.995,2055.74Z" transform="translate(3661 -66.591)" fill="#30c684"/>
    <path id="Path_425" data-name="Path 425" d="M649.257,1958.541c-2.817-.431-5.526-.906-8.441-.121-4.327,1.182-8.137,3.688-12.591,4.727-4.757,1.1-9.942,1.137-14.805,1.369-1.422.066.117,1.866-1.111,1.137-4.317-2.573-4.658-8.437-5.058-12.833a112.675,112.675,0,0,1,.975-30.514c1.637-8.78,3.333-17.1,11.841-21.58,6.2-3.269,14.911-5.224,21.7-2.805s12.465,8.636,14.834,15.517c2.622,7.609,3.479,15.318,7.884,22.286,1.949,3.07,4.357,6.063,4.874,9.663.565,4.351-2.008,8.714-5.7,11.055a19.005,19.005,0,0,1-12.669,2.341C650.388,1958.718,649.822,1958.63,649.257,1958.541Z" transform="translate(3662.414 -71.04)" fill="#fff"/>
    <path id="Path_426" data-name="Path 426" d="M612.758,1966.362a1.435,1.435,0,0,1-.663-.243c-4.357-2.6-4.874-8.183-5.244-12.678v-.541c-1.033-11.541-.711-21.557.975-30.635,1.578-8.481,3.216-17.25,12.094-21.933,5.585-2.927,14.727-5.456,22.1-2.827a25.787,25.787,0,0,1,15.126,15.815c.858,2.474,1.531,4.992,2.183,7.432,1.4,5.2,2.719,10.1,5.652,14.744.351.574.721,1.126,1.092,1.678,1.676,2.529,3.41,5.146,3.8,8.195.565,4.3-1.812,8.923-5.915,11.519-4.387,2.783-9.473,2.849-12.963,2.43l-1.744-.254-.42-.066c-2.641-.409-5.145-.784-7.8-.066a42.451,42.451,0,0,0-5.848,2.231,38.526,38.526,0,0,1-6.822,2.5,67.813,67.813,0,0,1-12.582,1.281l-2.32.1a.52.52,0,0,0-.184,0,1.114,1.114,0,0,0,0,.342.781.781,0,0,1,.011.453.761.761,0,0,1-.245.386A.559.559,0,0,1,612.758,1966.362Zm22.348-68.968a33.432,33.432,0,0,0-14.766,3.821c-8.46,4.462-10.049,12.988-11.588,21.237-1.676,9-1.949,18.929-.975,30.382l.05.541c.37,4.164.818,9.321,4.493,11.707a1.045,1.045,0,0,1,.224-.652,1.186,1.186,0,0,1,.405-.287,1.25,1.25,0,0,1,.491-.1l2.319-.1a66.706,66.706,0,0,0,12.4-1.193,37.144,37.144,0,0,0,6.609-2.429,41.413,41.413,0,0,1,5.965-2.286c2.865-.773,5.468-.375,8.216,0l.42.066c.565.077,1.13.166,1.705.232,3.343.42,8.187.365,12.329-2.275,3.781-2.385,5.984-6.637,5.467-10.558-.37-2.827-2.036-5.345-3.644-7.808-.37-.563-.751-1.126-1.111-1.7-3.012-4.771-4.405-9.984-5.76-15.02-.653-2.419-1.325-4.881-2.164-7.377a24.865,24.865,0,0,0-14.541-15.208,19.632,19.632,0,0,0-6.539-.994Z" transform="translate(3662.374 -71.085)" fill="#231f20"/>
    <path id="Path_427" data-name="Path 427" d="M651.207,1916.093s5.029,11.706,3.529,20.873a13.36,13.36,0,0,1-9.581,11.021l.974,16.058s.594,8.217-9.551,7.587a17.313,17.313,0,0,1-14.143-9.1l-3.011-29.476s10.983-7.289,9.327-17.836C628.82,1915.22,642.786,1920.93,651.207,1916.093Z" transform="translate(3663.748 -69.121)" fill="#fff"/>
    <path id="Path_428" data-name="Path 428" d="M637.773,1972.2h-1.121a17.993,17.993,0,0,1-14.551-9.409.524.524,0,0,1,0-.166l-3.012-29.476a.515.515,0,0,1,.224-.453c.1-.066,10.721-7.245,9.1-17.35a.467.467,0,0,1,.033-.243.479.479,0,0,1,.154-.21.459.459,0,0,1,.233-.1.5.5,0,0,1,.253.033c.136,0,13.839,5.544,21.957.884a.622.622,0,0,1,.2-.044.615.615,0,0,1,.2.044.535.535,0,0,1,.293.276c.2.475,5.068,11.905,3.557,21.149a13.939,13.939,0,0,1-9.522,11.3l.975,15.671a7.982,7.982,0,0,1-.495,3.092,7.844,7.844,0,0,1-1.64,2.662A9.436,9.436,0,0,1,637.773,1972.2Zm-14.756-9.762a16.963,16.963,0,0,0,13.7,8.78c3.206.21,5.614-.486,7.163-2.032a7.21,7.21,0,0,0,1.862-5.025l-.975-16.069a.475.475,0,0,1,.1-.32.447.447,0,0,1,.281-.188,12.689,12.689,0,0,0,9.191-10.613c1.287-7.907-2.378-17.8-3.294-20.122-7.494,3.909-18.517.309-21.557-.8.974,9.4-7.8,16.168-9.4,17.317Z" transform="translate(3663.713 -69.167)" fill="#231f20"/>
    <path id="Path_429" data-name="Path 429" d="M643.555,1936.7a15.154,15.154,0,0,1-2.446-.232.5.5,0,0,1-.174-.066.638.638,0,0,1-.135-.144.411.411,0,0,1-.072-.177.489.489,0,0,1,0-.188.478.478,0,0,1,.072-.177.418.418,0,0,1,.135-.132.525.525,0,0,1,.178-.077.375.375,0,0,1,.191.011s3.246.618,4.775-.3c.234-1.27-2.836-5.478-5.078-8.084a.5.5,0,0,1-.118-.354.5.5,0,0,1,.167-.342.582.582,0,0,1,.357-.122.5.5,0,0,1,.336.177c.974,1.1,5.672,6.737,5.341,8.78a1.048,1.048,0,0,1-.159.442.985.985,0,0,1-.338.32,6.017,6.017,0,0,1-3.031.663Z" transform="translate(3665.971 -67.963)" fill="#231f20"/>
    <path id="Path_430" data-name="Path 430" d="M640.911,1940.943a10.492,10.492,0,0,1-1.764-.155,11.74,11.74,0,0,1-7.027-4.141.484.484,0,0,1,.575-.685.49.49,0,0,1,.292.232,10.888,10.888,0,0,0,6.384,3.645c3.294.541,6.569-.674,9.746-3.6a.469.469,0,0,1,.162-.11.447.447,0,0,1,.388,0,.469.469,0,0,1,.162.11.55.55,0,0,1,.1.177.437.437,0,0,1,.026.188.558.558,0,0,1-.054.2.571.571,0,0,1-.125.155C646.9,1939.607,643.932,1940.943,640.911,1940.943Z" transform="translate(3665.068 -66.959)" fill="#231f20"/>
    <path id="Path_431" data-name="Path 431" d="M644,1944.89s-8.5,1.624-13.509.674c0,0,6.179,12.314,14.327,11.706Z" transform="translate(3664.903 -66.024)" fill="#231f20"/>
    <path id="Path_432" data-name="Path 432" d="M644.307,1957.847c-8.06,0-13.937-11.508-14.19-12.016a.535.535,0,0,1-.046-.265.47.47,0,0,1,.095-.243.45.45,0,0,1,.211-.166.443.443,0,0,1,.266-.022c4.874.917,13.245-.663,13.333-.685a.435.435,0,0,1,.205.011.4.4,0,0,1,.184.088.585.585,0,0,1,.129.155.537.537,0,0,1,.055.2l.819,12.4a.5.5,0,0,1-.022.188.63.63,0,0,1-.093.166.688.688,0,0,1-.15.121.516.516,0,0,1-.183.044Zm-12.846-11.607c1.521,2.662,6.6,10.635,12.856,10.635l-.751-11.364c-1.784.32-7.767,1.259-12.105.729Z" transform="translate(3664.859 -66.071)" fill="#231f20"/>
    <path id="Path_433" data-name="Path 433" d="M688.412,1945.5l21.12-1.038-10.584,44.816-22.708,2.231Z" transform="translate(3669.678 -66.069)" fill="#231f20"/>
    <path id="Path_434" data-name="Path 434" d="M676.3,1992.05a.634.634,0,0,1-.2-.044.732.732,0,0,1-.167-.121.585.585,0,0,1-.107-.221.484.484,0,0,1,0-.232L688,1945.423a.483.483,0,0,1,.163-.254.53.53,0,0,1,.285-.111l21.109-1.038a.51.51,0,0,1,.223.033.546.546,0,0,1,.278.342.514.514,0,0,1,0,.232l-10.576,44.816a.476.476,0,0,1-.155.254.5.5,0,0,1-.274.111Zm12.552-46.031L676.947,1991l21.676-2.12,10.35-43.855Z" transform="translate(3669.634 -66.115)" fill="#231f20"/>
    <path id="Path_435" data-name="Path 435" d="M662.861,1981.948a.475.475,0,0,1-.335-.133.491.491,0,0,1-.152-.331,62.223,62.223,0,0,0-4.23-18.819.5.5,0,0,1,.244-.652.528.528,0,0,1,.184-.044.556.556,0,0,1,.189.033.47.47,0,0,1,.161.1.512.512,0,0,1,.108.155,63.268,63.268,0,0,1,4.317,19.161.513.513,0,0,1-.12.365.494.494,0,0,1-.337.166Z" transform="translate(3667.785 -64.242)" fill="#231f20"/>
    <path id="Path_436" data-name="Path 436" d="M632.452,1926.721a.32.32,0,0,1-.146,0,.47.47,0,0,1-.285-.232.5.5,0,0,1-.038-.375,5.057,5.057,0,0,1,2.437-2.927,4.359,4.359,0,0,1,1.842-.276,4.23,4.23,0,0,1,1.784.541.522.522,0,0,1,.223.276.5.5,0,0,1-.024.364.489.489,0,0,1-.262.243.5.5,0,0,1-.357,0,3.4,3.4,0,0,0-1.382-.442,3.182,3.182,0,0,0-1.435.2,3.989,3.989,0,0,0-1.891,2.264.506.506,0,0,1-.171.265.477.477,0,0,1-.3.1Z" transform="translate(3665.057 -68.319)" fill="#231f20"/>
    <path id="Path_437" data-name="Path 437" d="M644.675,1924h-.088a.516.516,0,0,1-.311-.21.5.5,0,0,1-.078-.365,2.584,2.584,0,0,1,.493-1.1,2.535,2.535,0,0,1,.931-.773,3.3,3.3,0,0,1,3.109.8.527.527,0,0,1,.167.32.49.49,0,0,1-.087.342.469.469,0,0,1-.3.188.482.482,0,0,1-.349-.055c-.907-.651-1.657-.883-2.173-.7a1.617,1.617,0,0,0-.542.5,1.647,1.647,0,0,0-.286.663.5.5,0,0,1-.487.4Z" transform="translate(3666.333 -68.476)" fill="#231f20"/>
    <path id="Path_438" data-name="Path 438" d="M607.152,1933.86s1.189,3.567-2.582,13.915-3.617,18.255,5.848,19.68,15,.287,16.246-7.8-6.033-16.963-6.033-16.963" transform="translate(3661.957 -67.176)" fill="#fff"/>
    <path id="Path_439" data-name="Path 439" d="M616.368,1968.509a40.067,40.067,0,0,1-5.974-.519c-3.47-.519-5.926-1.955-7.281-4.241-2.008-3.39-1.667-8.658,1.044-16.1,3.635-9.962,2.592-13.551,2.582-13.584a.532.532,0,0,1-.022-.2.47.47,0,0,1,.055-.188.449.449,0,0,1,.124-.155.531.531,0,0,1,.174-.1.406.406,0,0,1,.2-.022.4.4,0,0,1,.192.055.7.7,0,0,1,.156.122.534.534,0,0,1,.1.177c0,.155,1.2,3.9-2.593,14.236-2.6,7.145-2.923,12.148-1.12,15.262,1.218,2.065,3.372,3.291,6.588,3.766,9,1.358,14.454.585,15.691-7.366,1.2-7.731-5.848-16.522-5.925-16.577a.54.54,0,0,1-.092-.177.454.454,0,0,1-.019-.188.5.5,0,0,1,.056-.177.406.406,0,0,1,.123-.144.464.464,0,0,1,.354-.111.48.48,0,0,1,.327.177c.3.365,7.407,9.21,6.13,17.383C626.164,1966.432,622.226,1968.509,616.368,1968.509Z" transform="translate(3661.911 -67.224)" fill="#231f20"/>
    <path id="Path_440" data-name="Path 440" d="M859,1878.54H721.747a6.125,6.125,0,0,0-6.13,6.085v41.845l-15.594,19.117,15.594-5.544V2057.67a6.138,6.138,0,0,0,6.13,6.129H859a6.138,6.138,0,0,0,6.13-6.129V1884.625a6.131,6.131,0,0,0-6.13-6.085Z" transform="translate(3672.161 -72.95)" fill="#fff"/>
    <path id="Path_441" data-name="Path 441" d="M859.05,2064.335H721.794a6.632,6.632,0,0,1-6.617-6.615V1940.778l-14.941,5.356a.5.5,0,0,1-.565-.762l15.487-19v-41.7a6.615,6.615,0,0,1,6.619-6.615H859.05a6.613,6.613,0,0,1,6.617,6.615V2057.72a6.632,6.632,0,0,1-6.617,6.615ZM715.664,1939.607a.513.513,0,0,1,.283.088.426.426,0,0,1,.152.177.459.459,0,0,1,.053.221V2057.72a5.654,5.654,0,0,0,5.642,5.643H859.05a5.654,5.654,0,0,0,5.642-5.643V1884.675a5.654,5.654,0,0,0-5.642-5.644H721.794a5.654,5.654,0,0,0-5.642,5.644v41.845a.5.5,0,0,1-.107.3l-14.493,17.77,13.946-4.948A.433.433,0,0,1,715.664,1939.607Z" transform="translate(3672.114 -73)" fill="#231f20"/>
    <path id="Path_442" data-name="Path 442" d="M699.4,1989.651c7.8-11.066,7.8-11.066,7.359-14.887-.341-2.927-1.8-5.489-3.333-7.907-1.949-3.081-6.208-7.808-7.8-1.513-.79,3.026-2.008,6.748-1.17,9.84.78,2.872,2.924,5.224,4.1,7.918" transform="translate(3671.55 -64.214)" fill="#fff"/>
    <path id="Path_443" data-name="Path 443" d="M699.445,1990.193a.512.512,0,0,1-.282-.088.522.522,0,0,1-.2-.32.488.488,0,0,1,.081-.365c7.7-10.922,7.7-10.922,7.27-14.545-.331-2.927-1.861-5.5-3.265-7.708s-3.626-4.572-5.068-4.362c-.975.155-1.579,1.557-1.882,2.717l-.282,1.049c-.741,2.772-1.6,5.908-.878,8.537a18.194,18.194,0,0,0,2.281,4.616,26.67,26.67,0,0,1,1.793,3.225.492.492,0,0,1,.007.375.458.458,0,0,1-.26.265.489.489,0,0,1-.374.011.5.5,0,0,1-.269-.254,25.607,25.607,0,0,0-1.735-3.115A18.866,18.866,0,0,1,694,1975.35c-.78-2.882.107-6.151.887-9.045l.283-1.038c.537-2.087,1.433-3.247,2.661-3.435,2.543-.4,5.272,3.567,6.052,4.793a19.9,19.9,0,0,1,3.411,8.117c.467,4,.467,4-7.447,15.229a.43.43,0,0,1-.172.155A.422.422,0,0,1,699.445,1990.193Z" transform="translate(3671.5 -64.259)" fill="#231f20"/>
    <path id="Path_444" data-name="Path 444" d="M612.223,2004.808s34.989,32.369,44.989,28.67,21.646-19.128,28.507-29.885,15.75-25.633,17.055-32.259-.74-11.563-3.216-10.326-11.744,10.315-11.744,10.315,3.129-8.868,1.667-8.912-5.769,3.9-7.2,16.588l-29.727,30.238-24.365-23.788" transform="translate(3662.997 -64.362)" fill="#fff"/>
    <path id="Path_445" data-name="Path 445" d="M655.482,2034.288c-11.958,0-42.191-27.83-43.546-29.078a.44.44,0,0,1-.106-.166.455.455,0,0,1-.038-.187.538.538,0,0,1,.038-.188.5.5,0,0,1,.106-.155.489.489,0,0,1,.692,0c.087.088,8.849,8.172,18.713,15.693,12.942,9.873,21.85,14.335,25.778,12.877,11.334-4.186,24.5-23.777,28.263-29.7,7.047-11.044,15.711-25.588,16.988-32.071.975-4.727.078-8.647-1.3-9.685a1.061,1.061,0,0,0-.59-.254,1.123,1.123,0,0,0-.628.122c-2.389,1.193-11.54,10.171-11.637,10.26a.47.47,0,0,1-.287.132.437.437,0,0,1-.308-.077.472.472,0,0,1-.2-.563c1.2-3.4,2.251-7.421,2.008-8.261-.975.2-5.156,3.357-6.6,16.08a.612.612,0,0,1-.136.3l-29.727,30.238a.465.465,0,0,1-.156.11.532.532,0,0,1-.37,0,.464.464,0,0,1-.156-.11l-24.366-23.777a.526.526,0,0,1-.148-.353.479.479,0,0,1,.138-.342.476.476,0,0,1,.692-.011l24.063,23.413,29.238-29.785c1.471-12.612,5.848-16.8,7.651-16.8a.706.706,0,0,1,.362.1.663.663,0,0,1,.271.254c.653.972-.341,4.627-1.208,7.311,2.729-2.628,8.5-8.062,10.437-9.034a2.088,2.088,0,0,1,2.252.221c1.891,1.447,2.592,5.93,1.657,10.646-1.305,6.637-10.029,21.292-17.123,32.425-4.874,7.653-17.446,25.909-28.751,30.083a5.442,5.442,0,0,1-1.969.331Z" transform="translate(3662.952 -64.411)" fill="#231f20"/>
    <path id="Path_446" data-name="Path 446" d="M819.143,2004.62H754.73a8.608,8.608,0,0,0-8.605,8.614v4.075a8.608,8.608,0,0,0,8.605,8.614h64.413a8.608,8.608,0,0,0,8.605-8.614v-4.075A8.608,8.608,0,0,0,819.143,2004.62Z" transform="translate(3676.973 -59.79)" fill="#30c684"/>
    <path id="Path_447" data-name="Path 447" d="M751.4,1974.322l-3.382-5.1h1.949l2.261,3.8,2.281-3.8h1.862l-3.383,5.1v3.9h-1.6Z" transform="translate(3677.17 -63.485)"/>
    <path id="Path_448" data-name="Path 448" d="M754.8,1974.893a3.2,3.2,0,0,1,.263-1.314,2.99,2.99,0,0,1,.7-1.016,2.864,2.864,0,0,1,1.052-.641,3.736,3.736,0,0,1,2.592,0,2.878,2.878,0,0,1,1.054.641,3.171,3.171,0,0,1,.711.972,3.57,3.57,0,0,1,0,2.64,3.176,3.176,0,0,1-.711,1.027,3.319,3.319,0,0,1-1.054.674,3.738,3.738,0,0,1-2.592,0,3.591,3.591,0,0,1-1.052-.674,3.232,3.232,0,0,1-.965-2.308Zm1.549,0a2.716,2.716,0,0,0,.107.718,2.269,2.269,0,0,0,.323.629,1.907,1.907,0,0,0,.546.464,1.715,1.715,0,0,0,1.146.155,1.684,1.684,0,0,0,.978-.618,1.914,1.914,0,0,0,.321-.629,2.328,2.328,0,0,0,.107-.718,2.2,2.2,0,0,0-.107-.707,1.931,1.931,0,0,0-.321-.629,1.491,1.491,0,0,0-.546-.442,1.852,1.852,0,0,0-1.579,0,1.509,1.509,0,0,0-.546.442,2.231,2.231,0,0,0-.323.629,2.51,2.51,0,0,0-.107.707Z" transform="translate(3677.878 -63.227)"/>
    <path id="Path_449" data-name="Path 449" d="M767.678,1977.946h-1.442v-.972a1.969,1.969,0,0,1-.7.806,2.071,2.071,0,0,1-1.189.343,2.275,2.275,0,0,1-.974-.2,1.953,1.953,0,0,1-.7-.563,2.272,2.272,0,0,1-.4-.784,3.552,3.552,0,0,1-.126-.906v-3.821h1.53v3.379a4,4,0,0,0,0,.563,1.345,1.345,0,0,0,.166.53.926.926,0,0,0,.341.375.881.881,0,0,0,.594.155,1.229,1.229,0,0,0,.624-.144,1.336,1.336,0,0,0,.448-.364,1.776,1.776,0,0,0,.263-.53,2.2,2.2,0,0,0,.088-.607v-3.357h1.481Z" transform="translate(3678.645 -63.21)"/>
    <path id="Path_450" data-name="Path 450" d="M768.832,1971.871h1.462v.983a2.368,2.368,0,0,1,.711-.873,1.858,1.858,0,0,1,1.072-.331h.37v1.4l-.263-.055h-.215a1.593,1.593,0,0,0-.838.2,1.448,1.448,0,0,0-.487.453,1.475,1.475,0,0,0-.243.552,1.773,1.773,0,0,0-.068.431v3.269h-1.5Z" transform="translate(3679.343 -63.231)"/>
    <path id="Path_451" data-name="Path 451" d="M775.574,1973.719a5,5,0,0,1,.361-1.955,4.278,4.278,0,0,1,.974-1.48,4.865,4.865,0,0,1,1.521-.983,5.332,5.332,0,0,1,1.949-.331,5.842,5.842,0,0,1,1.949.331,4.51,4.51,0,0,1,1.53.983,4.3,4.3,0,0,1,.975,1.48,5.394,5.394,0,0,1,0,3.9,4.286,4.286,0,0,1-.975,1.491,4.5,4.5,0,0,1-1.53.983,5.344,5.344,0,0,1-1.949.353,5.12,5.12,0,0,1-1.949-.353,4.488,4.488,0,0,1-1.521-.983,4.283,4.283,0,0,1-.974-1.491,4.941,4.941,0,0,1-.361-1.944Zm1.735,0a3.832,3.832,0,0,0,.224,1.325,2.963,2.963,0,0,0,1.608,1.745,3.413,3.413,0,0,0,2.515,0,2.988,2.988,0,0,0,1.608-1.745,3.832,3.832,0,0,0,.224-1.325,3.787,3.787,0,0,0-.224-1.3,3.088,3.088,0,0,0-.633-1.038,2.769,2.769,0,0,0-.975-.7,3.077,3.077,0,0,0-3.509.7,3.157,3.157,0,0,0-.624,1.038,3.807,3.807,0,0,0-.214,1.3Z" transform="translate(3680.047 -63.511)"/>
    <path id="Path_452" data-name="Path 452" d="M785.688,1971.872h1.461v.983a2.166,2.166,0,0,1,.711-.873,1.83,1.83,0,0,1,1.062-.331h.2a.472.472,0,0,1,.176,0v1.4l-.264-.055h-.2a1.593,1.593,0,0,0-.838.2,1.43,1.43,0,0,0-.5.453,1.771,1.771,0,0,0-.243.552,2.141,2.141,0,0,0-.059.431v3.269h-1.5Z" transform="translate(3681.103 -63.232)"/>
    <path id="Path_453" data-name="Path 453" d="M795.863,1978.278h-1.442v-.917a2.084,2.084,0,0,1-.887.828,3,3,0,0,1-2.414.022,2.836,2.836,0,0,1-.987-.729,3.012,3.012,0,0,1-.594-1.038,3.723,3.723,0,0,1-.214-1.259,3.642,3.642,0,0,1,.223-1.259,3.025,3.025,0,0,1,.605-.972,2.746,2.746,0,0,1,.974-.685,2.937,2.937,0,0,1,1.189-.254,2.859,2.859,0,0,1,.75.1,4.983,4.983,0,0,1,.575.232,2.261,2.261,0,0,1,.428.32,2.217,2.217,0,0,1,.293.309v-4.307h1.521Zm-5.019-3.07a2.669,2.669,0,0,0,.107.718,2.127,2.127,0,0,0,.331.629,1.852,1.852,0,0,0,.547.464,1.549,1.549,0,0,0,.77.166,1.475,1.475,0,0,0,.75-.166,1.748,1.748,0,0,0,.565-.453,2.1,2.1,0,0,0,.361-.629,2.158,2.158,0,0,0,.117-.707,2.411,2.411,0,0,0-.117-.718,2.246,2.246,0,0,0-.361-.629,1.812,1.812,0,0,0-.565-.453,1.487,1.487,0,0,0-.75-.177,1.45,1.45,0,0,0-.77.177,1.486,1.486,0,0,0-.547.442,2.092,2.092,0,0,0-.331.629,2.51,2.51,0,0,0-.107.707Z" transform="translate(3681.482 -63.542)"/>
    <path id="Path_454" data-name="Path 454" d="M802.771,1974.989v.21a1.2,1.2,0,0,1,0,.2h-4.638a1.571,1.571,0,0,0,.176.607,1.392,1.392,0,0,0,.39.464,2.068,2.068,0,0,0,.545.32,1.763,1.763,0,0,0,.633.11,1.983,1.983,0,0,0,.975-.21,1.808,1.808,0,0,0,.643-.574l1.024.806a2.988,2.988,0,0,1-1.157.939,3.04,3.04,0,0,1-1.464.276,3.76,3.76,0,0,1-1.306-.21,3.2,3.2,0,0,1-1.033-.641,2.775,2.775,0,0,1-.692-.972,3.832,3.832,0,0,1,0-2.684,3.061,3.061,0,0,1,.683-1.027,3.164,3.164,0,0,1,1.024-.663,3.455,3.455,0,0,1,2.446,0,2.62,2.62,0,0,1,.974.629,2.814,2.814,0,0,1,.614,1.027,4.026,4.026,0,0,1,.166,1.392Zm-1.52-.685a1.7,1.7,0,0,0-.088-.552,1.137,1.137,0,0,0-.253-.475,1.3,1.3,0,0,0-.458-.331,1.552,1.552,0,0,0-.634-.111,1.741,1.741,0,0,0-1.17.409,1.536,1.536,0,0,0-.526,1.06Z" transform="translate(3682.244 -63.224)"/>
    <path id="Path_455" data-name="Path 455" d="M803.526,1971.872h1.462v.983a2.157,2.157,0,0,1,.711-.873,1.827,1.827,0,0,1,1.062-.331h.194a.472.472,0,0,1,.176,0v1.4l-.263-.055h-.205a1.586,1.586,0,0,0-.837.2,1.434,1.434,0,0,0-.5.453,1.77,1.77,0,0,0-.243.552,2.137,2.137,0,0,0-.059.431v3.269H803.5Z" transform="translate(3682.961 -63.232)"/>
    <path id="Path_456" data-name="Path 456" d="M810.4,1970.057a.9.9,0,0,1,.071-.353.8.8,0,0,1,.2-.287,1,1,0,0,1,.691-.276,1.1,1.1,0,0,1,.378.066.946.946,0,0,1,.325.2.76.76,0,0,1,.219.3.8.8,0,0,1,.073.353.845.845,0,0,1-.072.365.814.814,0,0,1-.22.287.978.978,0,0,1-.325.21.876.876,0,0,1-.378.055.913.913,0,0,1-.691-.276.792.792,0,0,1-.2-.287A.9.9,0,0,1,810.4,1970.057Zm.215,2.076h1.53v6.1h-1.53Z" transform="translate(3683.682 -63.493)"/>
    <path id="Path_457" data-name="Path 457" d="M817.075,1973.488a1.723,1.723,0,0,0-.556-.464,1.446,1.446,0,0,0-.77-.188,1.417,1.417,0,0,0-.673.144.556.556,0,0,0-.233.21.521.521,0,0,0-.079.3.522.522,0,0,0,.341.508,7.423,7.423,0,0,0,.975.3c.233.055.465.121.691.2a2.725,2.725,0,0,1,.634.342,1.568,1.568,0,0,1,.467.519,1.53,1.53,0,0,1,.176.762,1.881,1.881,0,0,1-.214.972,1.629,1.629,0,0,1-.555.618,2.027,2.027,0,0,1-.808.354,4.059,4.059,0,0,1-2.349-.144,3.065,3.065,0,0,1-1.121-.751l.974-.972a2.105,2.105,0,0,0,.664.541,1.987,1.987,0,0,0,.906.221,1.669,1.669,0,0,0,.331,0,1.1,1.1,0,0,0,.323-.121.7.7,0,0,0,.233-.221.635.635,0,0,0,.088-.342.574.574,0,0,0-.351-.552,5.76,5.76,0,0,0-1.043-.331,4.771,4.771,0,0,1-.673-.188,1.954,1.954,0,0,1-.575-.331,1.545,1.545,0,0,1-.409-.486,1.6,1.6,0,0,1-.147-.718,1.787,1.787,0,0,1,.206-.883,1.707,1.707,0,0,1,.555-.6,2.248,2.248,0,0,1,.77-.354,3.511,3.511,0,0,1,.9-.122,3.658,3.658,0,0,1,1.287.232,2.116,2.116,0,0,1,.974.707Z" transform="translate(3683.953 -63.225)"/>
    <path id="Path_458" data-name="Path 458" d="M762.154,1985.177a2.11,2.11,0,0,0-.974-.707,3,3,0,0,0-1.121-.221,2.974,2.974,0,0,0-2.242.95,3.231,3.231,0,0,0-.633,1.049,3.659,3.659,0,0,0-.224,1.292,4.19,4.19,0,0,0,.214,1.348,2.947,2.947,0,0,0,.624,1.049,2.563,2.563,0,0,0,.974.674,3.248,3.248,0,0,0,2.543-.033,2.623,2.623,0,0,0,.9-.762l1.287.906a4.025,4.025,0,0,1-1.462,1.16,4.536,4.536,0,0,1-2.017.409,5.333,5.333,0,0,1-1.949-.343,4.625,4.625,0,0,1-1.521-.972,4.435,4.435,0,0,1-.975-1.5,5.32,5.32,0,0,1,.02-3.9,4.276,4.276,0,0,1,1.024-1.491,4.671,4.671,0,0,1,1.539-.972,5.337,5.337,0,0,1,1.949-.331,6.238,6.238,0,0,1,.907.077,5.09,5.09,0,0,1,.9.254,5.5,5.5,0,0,1,.818.431,2.451,2.451,0,0,1,.643.619Z" transform="translate(3677.922 -62.07)"/>
    <path id="Path_459" data-name="Path 459" d="M763.1,1988.714a3.163,3.163,0,0,1,.975-2.33,3.093,3.093,0,0,1,1.062-.652,3.711,3.711,0,0,1,2.582,0,3.083,3.083,0,0,1,1.062.652,3.163,3.163,0,0,1,.975,2.33,3.247,3.247,0,0,1-.263,1.314,3.032,3.032,0,0,1-.707,1.027,3.093,3.093,0,0,1-1.058.663,3.589,3.589,0,0,1-2.582,0,3.157,3.157,0,0,1-2.028-3Zm1.551,0a2.546,2.546,0,0,0,.107.707,2.154,2.154,0,0,0,.331.64,1.675,1.675,0,0,0,.546.453,1.83,1.83,0,0,0,1.569,0,1.675,1.675,0,0,0,.546-.453,1.86,1.86,0,0,0,.321-.64,2.226,2.226,0,0,0,0-1.425,1.762,1.762,0,0,0-.321-.618,1.544,1.544,0,0,0-.546-.464,1.942,1.942,0,0,0-1.569,0,1.544,1.544,0,0,0-.546.464,2.045,2.045,0,0,0-.331.618,2.574,2.574,0,0,0-.1.718Z" transform="translate(3678.744 -61.786)"/>
    <path id="Path_460" data-name="Path 460" d="M770.438,1985.647h1.442v.983a1.959,1.959,0,0,1,.7-.817,2.388,2.388,0,0,1,2.213-.133,2.226,2.226,0,0,1,.7.541,2.565,2.565,0,0,1,.4.795,3.67,3.67,0,0,1,.127.917v3.81h-1.531v-3.932a1.715,1.715,0,0,0-.166-.53,1.157,1.157,0,0,0-.351-.386,1.131,1.131,0,0,0-.594-.166,1.405,1.405,0,0,0-.633.155,1.316,1.316,0,0,0-.44.375,1.682,1.682,0,0,0-.263.53,2.087,2.087,0,0,0-.087.607v3.346h-1.521Z" transform="translate(3679.511 -61.789)"/>
    <path id="Path_461" data-name="Path 461" d="M777.458,1987.235H776.3v-1.259h1.16v-.895a4.643,4.643,0,0,1,.117-1.049,2.449,2.449,0,0,1,.41-.884,2.013,2.013,0,0,1,.76-.607,2.875,2.875,0,0,1,1.179-.221h.419a1.885,1.885,0,0,1,.351.066l-.1,1.3a2.409,2.409,0,0,0-.273-.066h-.313a1.125,1.125,0,0,0-.536.133,1.027,1.027,0,0,0-.312.331,1.585,1.585,0,0,0-.146.453,3.608,3.608,0,0,0,0,.464v.972h1.414v1.237h-1.414v4.87H777.5Zm3.83-3.291a.92.92,0,0,1,.965-.917.9.9,0,0,1,.382.055.839.839,0,0,1,.329.21.81.81,0,0,1,.209.287.976.976,0,0,1,.074.365.879.879,0,0,1-.074.353.9.9,0,0,1-.538.5,1.121,1.121,0,0,1-.382.066,1.007,1.007,0,0,1-.693-.276.9.9,0,0,1-.273-.64Zm.224,2.065h1.521v6.107h-1.521Z" transform="translate(3680.122 -62.118)"/>
    <path id="Path_462" data-name="Path 462" d="M783.923,1985.647h1.461v1.027a2.379,2.379,0,0,1,.712-.872,1.848,1.848,0,0,1,1.071-.332h.371v1.4h-.478a1.588,1.588,0,0,0-.838.188,1.48,1.48,0,0,0-.487.453,1.532,1.532,0,0,0-.244.552,1.776,1.776,0,0,0-.067.442v3.269h-1.5Z" transform="translate(3680.918 -61.789)"/>
    <path id="Path_463" data-name="Path 463" d="M795.41,1985.5a2.195,2.195,0,0,1,1.024.221,1.878,1.878,0,0,1,.691.541,2.348,2.348,0,0,1,.41.8,3.67,3.67,0,0,1,.127.917v3.81h-1.511v-3.39a3.842,3.842,0,0,0,0-.552,1.344,1.344,0,0,0-.166-.53.992.992,0,0,0-.4-.42.952.952,0,0,0-.574-.122,1.319,1.319,0,0,0-.614.155,1.511,1.511,0,0,0-.419.386,1.811,1.811,0,0,0-.234.552,2,2,0,0,0-.077.6v3.324h-1.531V1988.1a1.548,1.548,0,0,0-.273-.972.948.948,0,0,0-.38-.3,1.022,1.022,0,0,0-.478-.088,1.251,1.251,0,0,0-.594.155,1.207,1.207,0,0,0-.41.375,1.918,1.918,0,0,0-.243.53,2.041,2.041,0,0,0-.078.6v3.357h-1.53v-6.107H789.6v.983a1.828,1.828,0,0,1,.273-.442,2.931,2.931,0,0,1,.409-.365,1.682,1.682,0,0,1,.547-.265,2.491,2.491,0,0,1,.949-.077,2.386,2.386,0,0,1,.9.309,1.961,1.961,0,0,1,.721.839,2.043,2.043,0,0,1,2.008-1.126Z" transform="translate(3681.359 -61.789)"/>
    <path id="Path_464" data-name="Path 464" d="M804.224,1988.811v.408h-4.639a1.37,1.37,0,0,0,.176.6,1.522,1.522,0,0,0,.38.475,2.084,2.084,0,0,0,.546.309,1.777,1.777,0,0,0,.634.11,1.99,1.99,0,0,0,.974-.21,1.788,1.788,0,0,0,.654-.574l.974.806a2.98,2.98,0,0,1-1.154.939,3.022,3.022,0,0,1-1.458.287,3.556,3.556,0,0,1-1.315-.221,3.164,3.164,0,0,1-1.034-.63,2.978,2.978,0,0,1-.682-.972,3.689,3.689,0,0,1,0-2.684,3.1,3.1,0,0,1,1.658-1.7,3.645,3.645,0,0,1,1.287-.232,3.017,3.017,0,0,1,1.168.21,2.468,2.468,0,0,1,.975.63,2.778,2.778,0,0,1,.614.972A4.31,4.31,0,0,1,804.224,1988.811Zm-1.531-.685a1.893,1.893,0,0,0-.078-.574,1.475,1.475,0,0,0-.263-.464,1.1,1.1,0,0,0-.448-.32,1.61,1.61,0,0,0-.643-.133,1.775,1.775,0,0,0-1.16.42,1.478,1.478,0,0,0-.377.486,1.407,1.407,0,0,0-.15.585Z" transform="translate(3682.39 -61.784)"/>
    <path id="Path_465" data-name="Path 465" d="M811.206,1992.094h-1.452v-.917a2.041,2.041,0,0,1-.887.806,2.557,2.557,0,0,1-1.208.287,3.075,3.075,0,0,1-1.258-.265,2.746,2.746,0,0,1-.974-.7,3.054,3.054,0,0,1-.6-1.027,3.584,3.584,0,0,1-.214-1.259,3.724,3.724,0,0,1,.214-1.259,3.218,3.218,0,0,1,.614-.983,3.105,3.105,0,0,1,.975-.674,2.979,2.979,0,0,1,1.2-.254,2.872,2.872,0,0,1,.751.1,2.215,2.215,0,0,1,.574.243,1.9,1.9,0,0,1,.43.3,3.17,3.17,0,0,1,.292.32h0v-4.285h1.521Zm-5.019-3.07a2.59,2.59,0,0,0,.107.707,2.353,2.353,0,0,0,.321.64,1.771,1.771,0,0,0,.555.453,1.558,1.558,0,0,0,.77.177,1.609,1.609,0,0,0,.751-.177,1.625,1.625,0,0,0,.565-.453,2.2,2.2,0,0,0,.477-1.336,2.021,2.021,0,0,0-.126-.707,1.943,1.943,0,0,0-.351-.63,1.7,1.7,0,0,0-.565-.464,1.609,1.609,0,0,0-.751-.177,1.609,1.609,0,0,0-1.325.629,2.23,2.23,0,0,0-.321.618A2.545,2.545,0,0,0,806.186,1989.024Z" transform="translate(3683.078 -62.095)"/>
    <path id="Path_466" data-name="Path 466" d="M784.218,1957.648a25.291,25.291,0,1,1,17.848-7.41,25.2,25.2,0,0,1-17.848,7.41Zm0-49.564a24.321,24.321,0,1,0,17.154,7.123,24.246,24.246,0,0,0-17.154-7.123Z" transform="translate(3678.313 -69.969)" fill="#d1d3d4"/>
    <path id="Path_467" data-name="Path 467" d="M834.333,1892.879a.277.277,0,0,1-.185-.033.439.439,0,0,1-.156-.1.524.524,0,0,1-.107-.155.568.568,0,0,1-.038-.188.477.477,0,0,1,.038-.188.458.458,0,0,1,.107-.166l6.257-6.218a.476.476,0,0,1,.681,0,.5.5,0,0,1,.107.155.488.488,0,0,1,0,.376.5.5,0,0,1-.107.155l-6.256,6.262a.417.417,0,0,1-.341.1Z" transform="translate(3686.129 -72.204)" fill="#d1d3d4"/>
    <path id="Path_468" data-name="Path 468" d="M840.589,1892.883a.274.274,0,0,1-.185-.033.43.43,0,0,1-.156-.1l-6.257-6.262a.458.458,0,0,1-.107-.166.477.477,0,0,1-.038-.188.463.463,0,0,1,.038-.177.457.457,0,0,1,.107-.166.506.506,0,0,1,.682,0l6.256,6.262a.443.443,0,0,1,.107.166.475.475,0,0,1,.038.188.565.565,0,0,1-.038.188.5.5,0,0,1-.107.155.438.438,0,0,1-.156.1.276.276,0,0,1-.185.033Z" transform="translate(3686.129 -72.207)" fill="#d1d3d4"/>
    <path id="Path_469" data-name="Path 469" d="M801.245,1924.656a5.889,5.889,0,0,1-.585.784l-20.779,20.773a1.17,1.17,0,0,1-.422.375,1.136,1.136,0,0,1-1.106,0,1.18,1.18,0,0,1-.422-.375q-5.848-6.03-11.7-12.082a1.136,1.136,0,0,1-.455-.95,1.181,1.181,0,0,1,.149-.53,1.158,1.158,0,0,1,.374-.386l2.923-2.651a1.155,1.155,0,0,1,.391-.309,1.128,1.128,0,0,1,.974,0,1.162,1.162,0,0,1,.39.309l6.91,7.046c.721.729,1.257.74,1.949,0l16.139-16.091a1.186,1.186,0,0,1,.42-.386,1.144,1.144,0,0,1,1.11,0,1.186,1.186,0,0,1,.42.386c.917.917,1.832,1.833,2.729,2.761a7.042,7.042,0,0,1,.565.773Z" transform="translate(3679.025 -68.618)" fill="#30c684"/>
    <path id="Path_470" data-name="Path 470" d="M634.89,1933.611a6.916,6.916,0,0,1-3.661-1.049,6.828,6.828,0,1,1,10.317-7.1h0a6.822,6.822,0,0,1-5.282,8.007,8.157,8.157,0,0,1-1.374.144Zm0-12.6a5.1,5.1,0,0,0-1.16.122,5.85,5.85,0,0,0,1.14,11.6,5.724,5.724,0,0,0,3.255-1.016,5.856,5.856,0,0,0,2.427-6.052,5.837,5.837,0,0,0-5.652-4.649Z" transform="translate(3664.646 -68.628)" fill="#231f20"/>
    <path id="Path_471" data-name="Path 471" d="M647.9,1930.931a6.789,6.789,0,1,1,1.4-.144,6.661,6.661,0,0,1-1.4.144Zm0-12.6a5.931,5.931,0,0,0-1.169.122,5.85,5.85,0,0,0,1.14,11.6,5.8,5.8,0,0,0,3.255-1.005,5.94,5.94,0,0,0,2.136-2.661,5.856,5.856,0,0,0,.292-3.4h0a5.828,5.828,0,0,0-2.008-3.313,5.907,5.907,0,0,0-3.636-1.336Z" transform="translate(3666.017 -68.896)" fill="#231f20"/>
    <path id="Path_472" data-name="Path 472" d="M639.777,1925.106a.507.507,0,0,1-.254-.066.459.459,0,0,1-.14-.133.447.447,0,0,1-.082-.166.477.477,0,0,1-.009-.188.465.465,0,0,1,.065-.177,1.917,1.917,0,0,1,1.229-.873,1.991,1.991,0,0,1,.766-.022,1.893,1.893,0,0,1,.714.287.478.478,0,0,1,.2.287.485.485,0,0,1-.042.342.525.525,0,0,1-.258.232.612.612,0,0,1-.346,0c-.975-.5-1.384.166-1.424.243a.446.446,0,0,1-.179.166A.461.461,0,0,1,639.777,1925.106Z" transform="translate(3665.821 -68.262)" fill="#231f20"/>
    <path id="Path_473" data-name="Path 473" d="M617.894,1928.149a.574.574,0,0,1-.353-.121.5.5,0,0,1-.163-.343.486.486,0,0,1,.123-.353.493.493,0,0,1,.336-.166l11.7-1.436a.55.55,0,0,1,.19.022.352.352,0,0,1,.169.088.4.4,0,0,1,.122.144.476.476,0,0,1,.055.177.491.491,0,0,1-.1.364.521.521,0,0,1-.323.188l-11.7,1.425Z" transform="translate(3663.534 -68.024)" fill="#231f20"/>
    <path id="Path_474" data-name="Path 474" d="M619.1,1935.029s-4-13.518,1.355-22.717c4.434-7.631,16.1-12.9,24.687-13.186a14.085,14.085,0,0,0-15.03-1.866c-8.908,3.91-13.645,8.3-15.408,16.3C612.187,1925.134,619.1,1935.029,619.1,1935.029Z" transform="translate(3663.198 -71.139)" fill="#231f20"/>
    <path id="Path_475" data-name="Path 475" d="M619.143,1935.54a.519.519,0,0,1-.223-.055.466.466,0,0,1-.177-.155c-.067-.1-7.007-10.2-4.463-21.833,1.7-7.808,6.1-12.469,15.691-16.654a14.731,14.731,0,0,1,15.594,1.944.548.548,0,0,1,.136.254.483.483,0,0,1-.019.276.494.494,0,0,1-.17.232.46.46,0,0,1-.268.077c-8.265.309-19.873,5.334-24.327,12.988-5.185,8.912-1.344,22.187-1.305,22.319a.48.48,0,0,1-.022.331.446.446,0,0,1-.232.243.7.7,0,0,1-.214.033Zm17.222-39.117a14.815,14.815,0,0,0-6,1.314c-9.269,4.064-13.509,8.537-15.135,15.98s.867,14.49,2.7,18.2c-.858-4.627-1.676-13.219,2.154-19.8,4.387-7.543,15.438-12.623,23.8-13.352a13.321,13.321,0,0,0-7.514-2.319Z" transform="translate(3663.153 -71.185)" fill="#231f20"/>
    <path id="Path_476" data-name="Path 476" d="M625.573,1929.739s-5.672-10.812-10.809-3.457,3.5,14.578,8.411,13.606" transform="translate(3663.097 -68.234)" fill="#fff"/>
    <path id="Path_477" data-name="Path 477" d="M622.257,1940.524c-2.816,0-6.169-1.955-8.05-4.881a8.142,8.142,0,0,1,.2-9.608c1.355-1.955,2.924-2.927,4.571-2.783,3.9.243,6.939,6.03,7.076,6.273a.5.5,0,0,1,.029.375.494.494,0,0,1-.243.287.435.435,0,0,1-.369.033.472.472,0,0,1-.284-.232c0-.066-2.924-5.555-6.267-5.754-1.305-.088-2.563.707-3.713,2.352a7.253,7.253,0,0,0-.2,8.526c1.891,2.927,5.526,4.826,8.109,4.318a.481.481,0,0,1,.367.077.477.477,0,0,1,.129.674.458.458,0,0,1-.311.2,4.835,4.835,0,0,1-1.052.144Z" transform="translate(3663.05 -68.284)" fill="#231f20"/>
    <path id="Path_478" data-name="Path 478" d="M626.476,1983.212a.4.4,0,0,1-.2-.044.5.5,0,0,1-.165-.11c-.117-.133-12.076-13.109-20.282-16.257a.4.4,0,0,1-.183-.088.589.589,0,0,1-.129-.155.537.537,0,0,1-.055-.2.5.5,0,0,1,.031-.2.57.57,0,0,1,.109-.177.524.524,0,0,1,.171-.11.622.622,0,0,1,.2-.033.609.609,0,0,1,.2.055c8.43,3.269,20.165,15.947,20.662,16.5a.478.478,0,0,1,.14.343.523.523,0,0,1-.14.353.5.5,0,0,1-.168.1A.572.572,0,0,1,626.476,1983.212Z" transform="translate(3662.291 -63.838)" fill="#231f20"/>
    <path id="Path_479" data-name="Path 479" d="M756.874,1917.884a.516.516,0,0,1-.283-.088l-10.72-7.421a.5.5,0,0,1-.2-.309.488.488,0,0,1,.081-.365.419.419,0,0,1,.136-.133.513.513,0,0,1,.176-.077.54.54,0,0,1,.189.011.5.5,0,0,1,.172.077l10.72,7.41a.473.473,0,0,1,.205.309.522.522,0,0,1,0,.2.452.452,0,0,1-.076.166.44.44,0,0,1-.173.155.421.421,0,0,1-.226.066Z" transform="translate(3676.925 -69.72)" fill="#d1d3d4"/>
    <path id="Path_480" data-name="Path 480" d="M746.171,1951.283a.528.528,0,0,1-.225-.055.436.436,0,0,1-.174-.155.506.506,0,0,1-.08-.365.5.5,0,0,1,.2-.32l10.721-7.41a.365.365,0,0,1,.176-.077.552.552,0,0,1,.192,0,.511.511,0,0,1,.178.066.421.421,0,0,1,.136.133.466.466,0,0,1,.076.177.49.49,0,0,1,0,.188.477.477,0,0,1-.072.177.424.424,0,0,1-.134.133l-10.721,7.421a.481.481,0,0,1-.273.088Z" transform="translate(3676.927 -66.233)" fill="#d1d3d4"/>
    <path id="Path_481" data-name="Path 481" d="M755.75,1930.523h-9.561a.5.5,0,0,1-.345-.144.515.515,0,0,1-.142-.354.489.489,0,0,1,.142-.342.5.5,0,0,1,.345-.144h9.561a.5.5,0,0,1,.345.144.489.489,0,0,1,.142.342.515.515,0,0,1-.142.354A.5.5,0,0,1,755.75,1930.523Z" transform="translate(3676.929 -67.627)" fill="#d1d3d4"/>
    <path id="Path_482" data-name="Path 482" d="M808.785,1917.884a.421.421,0,0,1-.226-.066.44.44,0,0,1-.173-.155.421.421,0,0,1-.076-.166.523.523,0,0,1,0-.2.539.539,0,0,1,.071-.177.587.587,0,0,1,.134-.133l10.721-7.41a.5.5,0,0,1,.172-.077.541.541,0,0,1,.189-.011.523.523,0,0,1,.176.077.528.528,0,0,1,.214.3.548.548,0,0,1,.005.2.532.532,0,0,1-.07.177.409.409,0,0,1-.131.133l-10.721,7.421a.51.51,0,0,1-.282.088Z" transform="translate(3683.462 -69.72)" fill="#d1d3d4"/>
    <path id="Path_483" data-name="Path 483" d="M819.487,1951.283a.586.586,0,0,1-.273-.088l-10.72-7.421a.416.416,0,0,1-.135-.133.457.457,0,0,1-.071-.177.469.469,0,0,1,0-.188.486.486,0,0,1,.076-.177.438.438,0,0,1,.137-.133.5.5,0,0,1,.178-.066.546.546,0,0,1,.191,0,.364.364,0,0,1,.177.077l10.72,7.41a.628.628,0,0,1,.133.144.473.473,0,0,1,.068.177.462.462,0,0,1-.006.188.491.491,0,0,1-.078.177.441.441,0,0,1-.173.155.533.533,0,0,1-.226.055Z" transform="translate(3683.461 -66.233)" fill="#d1d3d4"/>
    <path id="Path_484" data-name="Path 484" d="M819.378,1930.523h-9.561a.5.5,0,0,1-.345-.144.515.515,0,0,1-.142-.354.489.489,0,0,1,.142-.342.5.5,0,0,1,.345-.144h9.561a.5.5,0,0,1,.345.144.49.49,0,0,1,.144.342.516.516,0,0,1-.144.354A.5.5,0,0,1,819.378,1930.523Z" transform="translate(3683.57 -67.627)" fill="#d1d3d4"/>
  </g>
</svg>
