<svg xmlns="http://www.w3.org/2000/svg" width="284.105" height="213.281" viewBox="0 0 284.105 213.281">
  <g id="Group_29" data-name="Group 29" transform="translate(-4674 -952.002)">
    <path id="Path_487" data-name="Path 487" d="M1253.639,2075.119H970.464a.456.456,0,0,1-.328-.137.443.443,0,0,1-.136-.322.457.457,0,0,1,.136-.322.484.484,0,0,1,.328-.129h283.175a.483.483,0,0,1,.33.129.451.451,0,0,1,.137.322.438.438,0,0,1-.137.322A.455.455,0,0,1,1253.639,2075.119Z" transform="translate(3704 -932.905)" fill="#d1d3d4"/>
    <path id="Path_488" data-name="Path 488" d="M1238.946,1992.85H1186.27v65.932h52.676Z" transform="translate(3661.791 -917.026)" fill="#fff"/>
    <path id="Path_489" data-name="Path 489" d="M1238.843,2059.131h-52.684a.451.451,0,0,1-.322-.137.437.437,0,0,1-.137-.322v-65.932a.45.45,0,0,1,.137-.322.478.478,0,0,1,.322-.129h52.684a.5.5,0,0,1,.33.129.487.487,0,0,1,.137.322V2058.7a.458.458,0,0,1-.145.306A.478.478,0,0,1,1238.843,2059.131Zm-52.218-.91h51.751V1993.2h-51.791Z" transform="translate(3661.902 -916.917)" fill="#d1d3d4"/>
    <path id="Path_490" data-name="Path 490" d="M1235.195,1998.45H1192.45v56.917h42.745Z" transform="translate(3660.585 -918.119)" fill="#fff"/>
    <path id="Path_491" data-name="Path 491" d="M1235.057,2055.707h-42.721a.454.454,0,0,1-.467-.451v-56.918a.438.438,0,0,1,.137-.322.455.455,0,0,1,.33-.137h42.721a.455.455,0,0,1,.33.137.438.438,0,0,1,.137.322v56.885a.682.682,0,0,1-.024.185.5.5,0,0,1-.1.161.515.515,0,0,1-.153.1A.366.366,0,0,1,1235.057,2055.707Zm-42.278-.909H1234.6v-56.009h-41.8Z" transform="translate(3660.698 -918.008)" fill="#d1d3d4"/>
    <path id="Path_492" data-name="Path 492" d="M1235.195,2049.911v5.457h-3.509l-18.72-24.241-3.831-4.934L1192.45,2004.6v-6.149h2.9l17.618,22.769,3.831,4.974Z" transform="translate(3660.585 -918.119)" fill="#fff"/>
    <path id="Path_493" data-name="Path 493" d="M1235.057,2055.715h-3.5a.436.436,0,0,1-.2-.048.447.447,0,0,1-.161-.136l-39.227-50.769a.438.438,0,0,1-.1-.274v-6.149a.438.438,0,0,1,.137-.322.455.455,0,0,1,.33-.137h2.873a.554.554,0,0,1,.2.041.667.667,0,0,1,.169.128l21.441,27.759,18.4,23.686a.436.436,0,0,1,.1.274v5.473a.463.463,0,0,1-.032.177.451.451,0,0,1-.1.153.477.477,0,0,1-.145.1A.688.688,0,0,1,1235.057,2055.715Zm-3.268-.917h2.777v-4.845l-22.133-28.572-17.473-22.592H1192.8v5.537Z" transform="translate(3660.698 -918.008)" fill="#d1d3d4"/>
    <path id="Path_494" data-name="Path 494" d="M1235.195,1998.45v3.984l-18.4,23.758-3.831,4.934-18.728,24.241h-1.787v-7.622l16.684-21.553,3.831-4.974,17.65-22.769Z" transform="translate(3660.585 -918.119)" fill="#fff"/>
    <path id="Path_495" data-name="Path 495" d="M1194.124,2055.707h-1.787a.454.454,0,0,1-.467-.451v-7.622a.438.438,0,0,1,.1-.274l38.165-49.312a.407.407,0,0,1,.161-.121.469.469,0,0,1,.209-.048h4.556a.455.455,0,0,1,.33.137.438.438,0,0,1,.137.322v3.984a.421.421,0,0,1-.1.273l-40.95,52.934a.422.422,0,0,1-.161.128A.4.4,0,0,1,1194.124,2055.707Zm-1.328-.909h1.095l40.725-52.628v-3.38h-3.879L1192.8,2047.8Z" transform="translate(3660.698 -918.008)" fill="#d1d3d4"/>
    <path id="Path_496" data-name="Path 496" d="M1104.4,2058.782h65.908V1992.85H1104.4Z" transform="translate(3677.77 -917.026)" fill="#fff"/>
    <path id="Path_497" data-name="Path 497" d="M1170.177,2059.131h-65.9a.455.455,0,0,1-.33-.137.438.438,0,0,1-.137-.322v-65.932a.451.451,0,0,1,.137-.322.483.483,0,0,1,.33-.129h65.9a.483.483,0,0,1,.33.129.451.451,0,0,1,.137.322V2058.7a.457.457,0,0,1-.145.306.463.463,0,0,1-.322.129Zm-65.441-.91h64.942V1993.2h-64.942Z" transform="translate(3677.885 -916.917)" fill="#d1d3d4"/>
    <path id="Path_498" data-name="Path 498" d="M1166.674,1998.45H1110.32v56.917h56.354Z" transform="translate(3676.614 -918.119)" fill="#fff"/>
    <path id="Path_499" data-name="Path 499" d="M1166.561,2055.707h-56.354a.454.454,0,0,1-.467-.451v-56.918a.438.438,0,0,1,.137-.322.455.455,0,0,1,.33-.137h56.354a.456.456,0,0,1,.33.137.438.438,0,0,1,.137.322v56.885a.687.687,0,0,1-.024.185.5.5,0,0,1-.1.161.515.515,0,0,1-.153.1A.367.367,0,0,1,1166.561,2055.707Zm-55.9-.909H1166.1v-56.009h-55.437Z" transform="translate(3676.727 -918.008)" fill="#d1d3d4"/>
    <path id="Path_500" data-name="Path 500" d="M1110.33,2049.911v5.457h4.6l24.7-24.241,5.055-4.934,22-21.594v-6.149h-3.831l-23.219,22.769-5.062,4.974Z" transform="translate(3676.612 -918.119)" fill="#fff"/>
    <path id="Path_501" data-name="Path 501" d="M1114.815,2055.711h-4.636a.467.467,0,0,1-.459-.459v-5.465a.452.452,0,0,1,.137-.322l29.3-28.7,23.227-22.777a.448.448,0,0,1,.33-.129h3.823a.5.5,0,0,1,.33.129.452.452,0,0,1,.137.322v6.157a.46.46,0,0,1-.129.314l-51.751,50.769a.369.369,0,0,1-.137.113A.624.624,0,0,1,1114.815,2055.711Zm-4.153-.917h3.968l51.469-50.5v-5.465h-3.171l-28.137,27.606-24.1,23.59Z" transform="translate(3676.731 -918.004)" fill="#d1d3d4"/>
    <path id="Path_502" data-name="Path 502" d="M1110.33,1998.45v3.984l24.242,23.758,5.062,4.934,24.692,24.241h2.358v-7.622l-22-21.553-5.055-4.974-23.268-22.769Z" transform="translate(3676.612 -918.119)" fill="#fff"/>
    <path id="Path_503" data-name="Path 503" d="M1166.561,2055.719h-2.35a.439.439,0,0,1-.177-.04.447.447,0,0,1-.145-.1l-29.755-29.159-24.258-23.759a.488.488,0,0,1-.137-.314v-3.992a.438.438,0,0,1,.137-.322.455.455,0,0,1,.33-.137h6.044a.478.478,0,0,1,.322.129l28.314,27.735,22,21.562a.458.458,0,0,1,.129.314v7.6a.676.676,0,0,1-.024.177.615.615,0,0,1-.1.153.444.444,0,0,1-.145.1A.7.7,0,0,1,1166.561,2055.719Zm-2.157-.917h1.7v-6.97l-26.881-26.423-23.171-22.632h-5.384v3.34l29.175,28.572Z" transform="translate(3676.727 -918.012)" fill="#d1d3d4"/>
    <path id="Path_504" data-name="Path 504" d="M1270.6,1910.92H1217.93v65.932H1270.6Z" transform="translate(3655.612 -901.036)" fill="#fff"/>
    <path id="Path_505" data-name="Path 505" d="M1270.5,1977.209h-52.708a.456.456,0,0,1-.33-.137.438.438,0,0,1-.137-.322v-65.94a.452.452,0,0,1,.137-.314.47.47,0,0,1,.33-.137h52.676a.47.47,0,0,1,.33.137.489.489,0,0,1,.137.314v65.94a.445.445,0,0,1-.129.314A.458.458,0,0,1,1270.5,1977.209Zm-52.217-.909h51.751v-65.031h-51.751Z" transform="translate(3655.731 -900.927)" fill="#d1d3d4"/>
    <path id="Path_506" data-name="Path 506" d="M1266.845,1916.52H1224.1v56.918h42.745Z" transform="translate(3654.408 -902.129)" fill="#fff"/>
    <path id="Path_507" data-name="Path 507" d="M1266.733,1973.793h-42.745a.467.467,0,0,1-.459-.459V1916.4a.451.451,0,0,1,.137-.322.479.479,0,0,1,.322-.129h42.745a.483.483,0,0,1,.33.129.452.452,0,0,1,.137.322v56.934a.452.452,0,0,1-.137.322A.457.457,0,0,1,1266.733,1973.793Zm-42.278-.917h41.811v-56.016h-41.811Z" transform="translate(3654.519 -902.018)" fill="#d1d3d4"/>
    <path id="Path_508" data-name="Path 508" d="M1266.845,1967.989v5.449h-3.5l-18.72-24.225-3.839-4.942-16.684-21.6v-6.149h2.905l17.618,22.769,3.831,4.982Z" transform="translate(3654.408 -902.129)" fill="#fff"/>
    <path id="Path_509" data-name="Path 509" d="M1266.735,1973.793h-3.5a.566.566,0,0,1-.2-.056.421.421,0,0,1-.161-.129l-39.244-50.777a.482.482,0,0,1-.089-.273V1916.4a.451.451,0,0,1,.137-.322.478.478,0,0,1,.322-.129h2.906a.471.471,0,0,1,.209.048.521.521,0,0,1,.161.129l21.449,27.751,18.4,23.686a.482.482,0,0,1,.089.274v5.473a.448.448,0,0,1-.024.177.374.374,0,0,1-.1.161.4.4,0,0,1-.153.1A.547.547,0,0,1,1266.735,1973.793Zm-3.268-.917h2.777v-4.845l-22.133-28.579-17.473-22.592h-2.213v5.537Z" transform="translate(3654.517 -902.018)" fill="#d1d3d4"/>
    <path id="Path_510" data-name="Path 510" d="M1266.845,1916.52v3.984l-18.391,23.767-3.831,4.942-18.728,24.225H1224.1v-7.606l16.684-21.561,3.839-4.982,17.642-22.769Z" transform="translate(3654.408 -902.129)" fill="#fff"/>
    <path id="Path_511" data-name="Path 511" d="M1225.783,1973.793h-1.795a.467.467,0,0,1-.459-.459v-7.622a.482.482,0,0,1,.089-.274l38.173-49.312a.518.518,0,0,1,.161-.129.47.47,0,0,1,.209-.048h4.571a.483.483,0,0,1,.33.129.452.452,0,0,1,.137.322v3.992a.464.464,0,0,1-.089.274l-40.958,52.966a.64.64,0,0,1-.169.121A.59.59,0,0,1,1225.783,1973.793Zm-1.328-.917h1.094l40.716-52.636v-3.38h-3.887l-37.932,49.014Z" transform="translate(3654.519 -902.018)" fill="#d1d3d4"/>
    <path id="Path_512" data-name="Path 512" d="M1136.06,1976.862h65.9V1910.93h-65.9Z" transform="translate(3671.59 -901.038)" fill="#fff"/>
    <path id="Path_513" data-name="Path 513" d="M1201.812,1977.209h-65.884a.467.467,0,0,1-.459-.459v-65.94a.42.42,0,0,1,.137-.314.452.452,0,0,1,.322-.137h65.884a.464.464,0,0,1,.322.129.451.451,0,0,1,.137.322v65.94a.467.467,0,0,1-.459.459Zm-65.449-.909h64.982v-65.031H1136.4Z" transform="translate(3671.706 -900.927)" fill="#d1d3d4"/>
    <path id="Path_514" data-name="Path 514" d="M1198.334,1916.52H1141.98v56.918h56.354Z" transform="translate(3670.435 -902.129)" fill="#fff"/>
    <path id="Path_515" data-name="Path 515" d="M1198.223,1973.793h-56.346a.456.456,0,0,1-.33-.137.451.451,0,0,1-.137-.322V1916.4a.451.451,0,0,1,.137-.322.483.483,0,0,1,.33-.129h56.346a.5.5,0,0,1,.33.129.452.452,0,0,1,.137.322v56.934a.452.452,0,0,1-.137.322A.471.471,0,0,1,1198.223,1973.793Zm-55.887-.917h55.429v-56.016h-55.429Z" transform="translate(3670.546 -902.018)" fill="#d1d3d4"/>
    <path id="Path_516" data-name="Path 516" d="M1141.98,1967.989v5.449h4.612l24.7-24.225,5.054-4.942,21.988-21.6v-6.149h-3.823l-23.219,22.769-5.062,4.982Z" transform="translate(3670.435 -902.129)" fill="#fff"/>
    <path id="Path_517" data-name="Path 517" d="M1146.475,1973.789h-4.636a.47.47,0,0,1-.33-.137.478.478,0,0,1-.129-.322v-5.465a.461.461,0,0,1,.129-.33l29.3-28.692,23.228-22.777a.437.437,0,0,1,.322-.137h3.831a.463.463,0,0,1,.322.128.452.452,0,0,1,.137.322v6.149a.5.5,0,0,1-.129.33l-51.718,50.769a.465.465,0,0,1-.33.161Zm-4.145-.917h3.96l51.469-50.511V1916.9h-3.139l-28.169,27.574-24.1,23.6Z" transform="translate(3670.552 -902.014)" fill="#d1d3d4"/>
    <path id="Path_518" data-name="Path 518" d="M1141.98,1916.52v3.984l24.25,23.767,5.063,4.942,24.692,24.225h2.35v-7.606l-21.988-21.561-5.054-4.982-23.276-22.769Z" transform="translate(3670.435 -902.129)" fill="#fff"/>
    <path id="Path_519" data-name="Path 519" d="M1198.225,1973.793h-2.35a.515.515,0,0,1-.322-.161l-29.747-29.159-24.258-23.75a.5.5,0,0,1-.129-.33V1916.4a.451.451,0,0,1,.137-.322.483.483,0,0,1,.33-.129h6.028a.432.432,0,0,1,.177.032.472.472,0,0,1,.153.1l28.33,27.743,21.98,21.6a.483.483,0,0,1,.137.33v7.622a.487.487,0,0,1-.153.29A.509.509,0,0,1,1198.225,1973.793Zm-2.157-.917h1.69v-6.97l-26.873-26.423-23.171-22.64h-5.376v3.34l29.167,28.563Z" transform="translate(3670.544 -902.018)" fill="#d1d3d4"/>
    <path id="Path_520" data-name="Path 520" d="M1304.4,1992.85H1251.73v65.932H1304.4Z" transform="translate(3649.015 -917.026)" fill="#fff"/>
    <path id="Path_521" data-name="Path 521" d="M1304.285,2059.131h-52.668a.469.469,0,0,1-.33-.137.438.438,0,0,1-.137-.322v-65.932a.451.451,0,0,1,.137-.322.5.5,0,0,1,.33-.129h52.668a.483.483,0,0,1,.33.129.451.451,0,0,1,.137.322V2058.7a.457.457,0,0,1-.145.306A.463.463,0,0,1,1304.285,2059.131Zm-52.2-.91h51.743V1993.2h-51.743Z" transform="translate(3649.129 -916.917)" fill="#d1d3d4"/>
    <path id="Path_522" data-name="Path 522" d="M1300.635,1998.45H1257.89v56.917h42.745Z" transform="translate(3647.813 -918.119)" fill="#fff"/>
    <path id="Path_523" data-name="Path 523" d="M1300.523,2055.707h-42.745a.463.463,0,0,1-.33-.129.48.48,0,0,1-.129-.322v-56.918a.464.464,0,0,1,.129-.322.469.469,0,0,1,.33-.137h42.745a.469.469,0,0,1,.33.137.437.437,0,0,1,.137.322v56.885a.475.475,0,0,1-.032.185.375.375,0,0,1-.1.161.514.514,0,0,1-.153.1A.366.366,0,0,1,1300.523,2055.707Zm-42.278-.909h41.819v-56.009h-41.819Z" transform="translate(3647.924 -918.008)" fill="#d1d3d4"/>
    <path id="Path_524" data-name="Path 524" d="M1300.635,2049.911v5.457h-3.493l-18.728-24.241-3.839-4.934L1257.89,2004.6v-6.149h2.913l17.61,22.769,3.831,4.974Z" transform="translate(3647.813 -918.119)" fill="#fff"/>
    <path id="Path_525" data-name="Path 525" d="M1300.523,2055.707h-3.493a.378.378,0,0,1-.209-.041.445.445,0,0,1-.161-.136l-39.252-50.769a.482.482,0,0,1-.089-.274v-6.149a.464.464,0,0,1,.129-.322.469.469,0,0,1,.33-.137h2.914a.462.462,0,0,1,.2.048.474.474,0,0,1,.161.121l21.457,27.759,18.382,23.686a.437.437,0,0,1,.1.274v5.473a.463.463,0,0,1-.032.177.5.5,0,0,1-.1.153.471.471,0,0,1-.153.1A.366.366,0,0,1,1300.523,2055.707Zm-3.26-.909h2.777v-4.845l-22.133-28.572-17.465-22.592h-2.221v5.537Z" transform="translate(3647.924 -918.008)" fill="#d1d3d4"/>
    <path id="Path_526" data-name="Path 526" d="M1300.635,1998.45v3.984l-18.391,23.758-3.831,4.934-18.736,24.241h-1.787v-7.622l16.684-21.553,3.839-4.974,17.642-22.769Z" transform="translate(3647.813 -918.119)" fill="#fff"/>
    <path id="Path_527" data-name="Path 527" d="M1259.566,2055.707h-1.787a.463.463,0,0,1-.33-.129.48.48,0,0,1-.129-.322v-7.622a.482.482,0,0,1,.089-.274l38.165-49.312a.5.5,0,0,1,.169-.121.46.46,0,0,1,.2-.048h4.58a.469.469,0,0,1,.33.137.437.437,0,0,1,.137.322v3.984a.405.405,0,0,1-.1.273l-40.958,52.934a.445.445,0,0,1-.161.136.378.378,0,0,1-.209.041Zm-1.32-.909h1.095l40.724-52.628v-3.38h-3.887l-37.932,49.006Z" transform="translate(3647.924 -918.008)" fill="#d1d3d4"/>
    <path id="Path_528" data-name="Path 528" d="M1216.272,2007.42H1197.89v15.373h18.382Z" transform="translate(3659.523 -919.87)" fill="#fff"/>
    <path id="Path_529" data-name="Path 529" d="M1216.161,2023.142h-18.382a.452.452,0,0,1-.322-.137.438.438,0,0,1-.137-.322v-15.373a.452.452,0,0,1,.137-.322.48.48,0,0,1,.322-.129h18.382a.5.5,0,0,1,.33.129.451.451,0,0,1,.137.322v15.373a.438.438,0,0,1-.137.322A.47.47,0,0,1,1216.161,2023.142Zm-17.915-.909h17.489v-14.455h-17.489Z" transform="translate(3659.635 -919.76)" fill="#d1d3d4"/>
    <path id="Path_530" data-name="Path 530" d="M1213.779,2012.5h-12.121a.452.452,0,0,1-.322-.137.434.434,0,0,1-.137-.314.469.469,0,0,1,.137-.33.478.478,0,0,1,.322-.129h12.048a.484.484,0,0,1,.33.129.459.459,0,0,1,.024.628.49.49,0,0,1-.282.153Z" transform="translate(3658.877 -920.683)" fill="#d1d3d4"/>
    <path id="Path_531" data-name="Path 531" d="M1213.779,2017.319h-12.121a.478.478,0,0,1-.322-.129.451.451,0,0,1-.137-.322.439.439,0,0,1,.137-.322.452.452,0,0,1,.322-.137h12.048a.457.457,0,0,1,.33.137.449.449,0,0,1,.024.62.49.49,0,0,1-.282.153Z" transform="translate(3658.877 -921.624)" fill="#d1d3d4"/>
    <path id="Path_532" data-name="Path 532" d="M1209.78,2022.149h-8.121a.529.529,0,0,1-.322-.137.447.447,0,0,1,0-.644.443.443,0,0,1,.322-.129h8.1a.462.462,0,0,1,.33.129.479.479,0,0,1,.129.322.444.444,0,0,1-.129.314A.459.459,0,0,1,1209.78,2022.149Z" transform="translate(3658.877 -922.567)" fill="#d1d3d4"/>
    <path id="Path_533" data-name="Path 533" d="M1284.182,2007.42H1265.8v15.373h18.382Z" transform="translate(3646.269 -919.87)" fill="#fff"/>
    <path id="Path_534" data-name="Path 534" d="M1284.055,2023.142h-18.366a.471.471,0,0,1-.33-.137.464.464,0,0,1-.129-.322v-15.373a.479.479,0,0,1,.129-.322.5.5,0,0,1,.33-.129h18.366a.484.484,0,0,1,.33.129.451.451,0,0,1,.137.322v15.373a.438.438,0,0,1-.137.322A.456.456,0,0,1,1284.055,2023.142Zm-17.9-.909H1283.6v-14.455h-17.441Z" transform="translate(3646.381 -919.76)" fill="#d1d3d4"/>
    <path id="Path_535" data-name="Path 535" d="M1281.655,2012.5h-12.048a.484.484,0,0,1-.33-.129.452.452,0,0,1-.137-.322.469.469,0,0,1,.137-.33.483.483,0,0,1,.33-.129h12.048a.463.463,0,0,1,.322.129.469.469,0,0,1,.137.33.452.452,0,0,1-.137.322A.464.464,0,0,1,1281.655,2012.5Z" transform="translate(3645.617 -920.683)" fill="#d1d3d4"/>
    <path id="Path_536" data-name="Path 536" d="M1281.655,2017.319h-12.048a.453.453,0,0,1-.467-.451.438.438,0,0,1,.137-.322.456.456,0,0,1,.33-.137h12.048a.467.467,0,0,1,.459.459.451.451,0,0,1-.137.322A.43.43,0,0,1,1281.655,2017.319Z" transform="translate(3645.617 -921.624)" fill="#d1d3d4"/>
    <path id="Path_537" data-name="Path 537" d="M1277.687,2022.149h-8.081a.455.455,0,0,1-.33-.137.437.437,0,0,1-.137-.322.454.454,0,0,1,.467-.451h8.089a.462.462,0,0,1,.33.129.487.487,0,0,1,.137.322.441.441,0,0,1-.04.177.477.477,0,0,1-.1.153.5.5,0,0,1-.153.1A.463.463,0,0,1,1277.687,2022.149Z" transform="translate(3645.617 -922.567)" fill="#d1d3d4"/>
    <path id="Path_538" data-name="Path 538" d="M1250.114,1924.28H1231.74v15.372h18.374Z" transform="translate(3652.917 -903.643)" fill="#fff"/>
    <path id="Path_539" data-name="Path 539" d="M1250,1940h-18.4a.467.467,0,0,1-.459-.459v-15.372a.468.468,0,0,1,.459-.459h18.382a.469.469,0,0,1,.33.137.451.451,0,0,1,.137.322v15.372a.444.444,0,0,1-.129.314A.5.5,0,0,1,1250,1940Zm-17.916-.917h17.457v-14.455h-17.457Z" transform="translate(3653.034 -903.532)" fill="#d1d3d4"/>
    <path id="Path_540" data-name="Path 540" d="M1247.635,1929.349h-12.049a.467.467,0,0,1-.467-.458.46.46,0,0,1,.145-.314.437.437,0,0,1,.322-.137h12.049a.437.437,0,0,1,.322.137.46.46,0,0,1,.145.314.437.437,0,0,1-.137.322A.469.469,0,0,1,1247.635,1929.349Z" transform="translate(3652.257 -904.455)" fill="#d1d3d4"/>
    <path id="Path_541" data-name="Path 541" d="M1247.635,1934.19h-12.049a.5.5,0,0,1-.33-.129.487.487,0,0,1-.137-.322.5.5,0,0,1,.145-.322.437.437,0,0,1,.322-.137h12.049a.437.437,0,0,1,.322.137.5.5,0,0,1,.145.322.451.451,0,0,1-.137.322A.5.5,0,0,1,1247.635,1934.19Z" transform="translate(3652.257 -905.4)" fill="#d1d3d4"/>
    <path id="Path_542" data-name="Path 542" d="M1243.633,1939h-8.1a.479.479,0,0,1-.322-.129.451.451,0,0,1-.137-.322.467.467,0,0,1,.459-.459h8.1a.467.467,0,0,1,.459.459.452.452,0,0,1-.137.322.479.479,0,0,1-.322.129Z" transform="translate(3652.267 -906.339)" fill="#d1d3d4"/>
    <path id="Path_543" data-name="Path 543" d="M1008.667,1892.23s-33.418,49.014-32.7,49.521,16.349,6.809,16.349,6.809l19.664-18.736Z" transform="translate(3702.838 -897.388)" fill="#231f20"/>
    <path id="Path_544" data-name="Path 544" d="M992.207,1948.9a.646.646,0,0,1-.176,0c-2.623-1.054-15.756-6.375-16.442-6.857-.538-.386-.807-.571,15.969-25.569,8.176-12.169,16.546-24.443,16.626-24.6a.447.447,0,0,1,.217-.169.423.423,0,0,1,.282-.016.464.464,0,0,1,.233.137.441.441,0,0,1,.113.258l3.3,37.626a.42.42,0,0,1-.024.2.39.39,0,0,1-.113.161l-19.661,18.7a.478.478,0,0,1-.324.121Zm-15.756-7.485c1.677.8,9.963,4.177,15.7,6.5l19.285-18.35-3.211-36.113c-12.451,18.262-30.263,44.749-31.82,47.968Z" transform="translate(3702.942 -897.281)" fill="#231f20"/>
    <path id="Path_545" data-name="Path 545" d="M1080.745,1892.58l21.409,35.88s-4.877,11.541-10.72,10.157-20.193-31.5-20.193-31.5Z" transform="translate(3684.241 -897.457)" fill="#231f20"/>
    <path id="Path_546" data-name="Path 546" d="M1092.348,1939.07a4.54,4.54,0,0,1-1.1-.129c-6-1.432-19.952-30.551-20.531-31.791a.428.428,0,0,1-.064-.217.4.4,0,0,1,.064-.217l9.5-14.487a.537.537,0,0,1,.169-.161.513.513,0,0,1,.225-.048h0a.426.426,0,0,1,.217.064.51.51,0,0,1,.161.161l21.457,35.879a.445.445,0,0,1,0,.4C1102.3,1928.986,1097.974,1939.07,1092.348,1939.07Zm-20.7-32.064c4.072,8.491,15.227,29.98,19.807,31.058,4.99,1.183,9.417-8.2,10.1-9.674l-20.942-35.05Z" transform="translate(3684.356 -897.347)" fill="#231f20"/>
    <path id="Path_547" data-name="Path 547" d="M1017.569,1953.76l-4.089,101.884h14.157l12.66-72.66,7.05,71.389h14.471l.475-93.8Z" transform="translate(3695.514 -909.397)" fill="#231f20"/>
    <path id="Path_548" data-name="Path 548" d="M1027.525,2055.991h-14.157a.428.428,0,0,1-.177-.032.5.5,0,0,1-.153-.1.475.475,0,0,1-.1-.153.489.489,0,0,1-.024-.185l4.081-101.884a.693.693,0,0,1,.048-.185.569.569,0,0,1,.121-.153.53.53,0,0,1,.177-.088.393.393,0,0,1,.193-.008l44.708,6.809a.487.487,0,0,1,.29.153.442.442,0,0,1,.113.3l-.475,93.851a.484.484,0,0,1-.137.314.478.478,0,0,1-.322.129h-14.5a.467.467,0,0,1-.314-.113.448.448,0,0,1-.153-.3l-6.72-68.008-12.048,69.328a.43.43,0,0,1-.169.242A.51.51,0,0,1,1027.525,2055.991Zm-13.674-.909h13.28l12.588-72.282a.438.438,0,0,1,.137-.322.457.457,0,0,1,.33-.137.467.467,0,0,1,.459.459l7.018,70.978h13.586l.475-92.942-43.815-6.664Z" transform="translate(3695.626 -909.285)" fill="#231f20"/>
    <path id="Path_549" data-name="Path 549" d="M1052.21,2059.718c1.642.242,11.244,2.085,11.984,0a5.974,5.974,0,0,1,2.39-3.018h6.133l-2.825,28.306s13.449,8.121,13.449,9.5-22.729-3.2-22.729-3.2l-.515,2.205-4-.467Z" transform="translate(3687.955 -929.488)" fill="#30c684"/>
    <path id="Path_550" data-name="Path 550" d="M1027.771,2059.714c-1.642.242-11.244,2.085-11.984,0a5.928,5.928,0,0,0-2.35-3.034h-6.181l2.785,28.306s-13.441,8.113-13.441,9.5,22.761-3.179,22.761-3.179l.523,2.205,4-.467Z" transform="translate(3698.809 -929.484)" fill="#30c684"/>
    <path id="Path_551" data-name="Path 551" d="M1056.995,1888.822s-27.493-2.736-32.837,1.561-7.558,61.055-7.558,61.055l45.924,1.666S1067.031,1898.359,1056.995,1888.822Z" transform="translate(3694.905 -896.556)" fill="#231f20"/>
    <path id="Path_552" data-name="Path 552" d="M1062.418,1953.479l-45.924-1.666a.568.568,0,0,1-.314-.145.613.613,0,0,1-.1-.153.665.665,0,0,1-.024-.177c.089-2.326,2.27-57.03,7.71-61.417s32.048-1.819,33.183-1.674a.436.436,0,0,1,.273.129c4.258,4.048,6.487,16.169,6.664,36.057.129,14.736-.982,28.491-.99,28.628a.466.466,0,0,1-.153.306.483.483,0,0,1-.33.113Zm-45.409-2.559,44.982,1.65c.394-5.151,3.847-54.278-5.312-63.413-2.27-.217-27.4-2.479-32.338,1.489-4.209,3.372-6.72,44.209-7.364,60.274Z" transform="translate(3695.01 -896.44)" fill="#231f20"/>
    <path id="Path_553" data-name="Path 553" d="M1045.4,1920.049a.472.472,0,0,1-.258-.089.508.508,0,0,1-.161-.209c-1.618-4.3-9.618-25.8-8.724-27.815a.519.519,0,0,1,.257-.234.489.489,0,0,1,.354.008.462.462,0,0,1,.241.6c-.451,1.264,3.9,14.165,8.346,26.06,1.6-3.7,6.922-16.4,8.338-24.378a.43.43,0,0,1,.193-.29.442.442,0,0,1,.346-.081.489.489,0,0,1,.3.185.468.468,0,0,1,.072.338c-1.634,9.465-8.74,25.513-8.813,25.634a.5.5,0,0,1-.2.226.456.456,0,0,1-.29.048Z" transform="translate(3691.083 -897.28)" fill="#fff"/>
    <path id="Path_554" data-name="Path 554" d="M1032.762,1886.959l-.926,20.837-.241,5.738-.338,8.008-.241,5.738-.749,18.012-21.537-.917s.153-7.727.539-17.312c.072-1.819.153-3.791.25-5.747.129-2.656.266-5.36.427-8,.121-1.956.249-3.887.394-5.739.6-7.767,1.384-14.278,2.422-16.4C1015.957,1884.585,1032.762,1886.959,1032.762,1886.959Z" transform="translate(3696.441 -896.278)" fill="#30c684"/>
    <path id="Path_555" data-name="Path 555" d="M1079.4,1914.088c0,2.64-.072,5.328-.137,8-.048,1.948-.1,3.871-.161,5.739-.354,10.777-.861,19.7-.861,19.7l-21.457-1.706.37-18.221.121-5.746.161-8,.121-5.746.427-20.749s16.8-2.358,19.944,4.161c1.022,2.117,1.408,8.8,1.481,16.853C1079.4,1910.2,1079.4,1912.116,1079.4,1914.088Z" transform="translate(3687.063 -896.357)" fill="#30c684"/>
    <path id="Path_556" data-name="Path 556" d="M1020.606,1979.022a.686.686,0,0,1-.258-.073.458.458,0,0,1-.185-.539.474.474,0,0,1,.241-.258,11.784,11.784,0,0,0,4.169-3.2,11.431,11.431,0,0,0,2.318-4.668.5.5,0,0,1,.193-.29.456.456,0,0,1,.338-.081.509.509,0,0,1,.306.185.585.585,0,0,1,.073.161.437.437,0,0,1,0,.177,12.107,12.107,0,0,1-2.463,5.078,12.4,12.4,0,0,1-4.523,3.453.47.47,0,0,1-.209.048Z" transform="translate(3694.215 -912.55)" fill="#fff"/>
    <path id="Path_557" data-name="Path 557" d="M1070.683,1979.02a.528.528,0,0,1-.29-.1,10.755,10.755,0,0,1-3.944-8.579.469.469,0,0,1,.5-.427.506.506,0,0,1,.322.153.478.478,0,0,1,.113.338,9.813,9.813,0,0,0,.917,4.3,10.119,10.119,0,0,0,2.688,3.509.425.425,0,0,1,.153.233.454.454,0,0,1-.008.274.486.486,0,0,1-.177.225.516.516,0,0,1-.266.08Z" transform="translate(3685.177 -912.549)" fill="#fff"/>
    <path id="Path_558" data-name="Path 558" d="M1046.581,1984.889a.445.445,0,0,1-.314-.129.451.451,0,0,1-.137-.322c0-.475.749-13.537.789-14.093a.433.433,0,0,1,.032-.177.5.5,0,0,1,.113-.145.366.366,0,0,1,.153-.089.487.487,0,0,1,.185-.016.4.4,0,0,1,.169.04.373.373,0,0,1,.145.1.5.5,0,0,1,.1.153.631.631,0,0,1,.024.177c-.217,3.775-.789,13.666-.789,14.044a.632.632,0,0,1-.032.177.479.479,0,0,1-.1.145.5.5,0,0,1-.153.1A.433.433,0,0,1,1046.581,1984.889Z" transform="translate(3689.142 -912.55)" fill="#fff"/>
    <path id="Path_559" data-name="Path 559" d="M1062.412,1968.885l-45.924-1.666a.467.467,0,0,1-.459-.459.451.451,0,0,1,.137-.322.431.431,0,0,1,.322-.129l45.948,1.666a.463.463,0,0,1,.322.129.451.451,0,0,1,.137.322.467.467,0,0,1-.459.459Z" transform="translate(3695.016 -911.846)" fill="#fff"/>
    <path id="Path_560" data-name="Path 560" d="M1010.692,1912.62l21.489.266-.241,5.738-21.65-.266C1010.411,1916.4,1010.556,1914.471,1010.692,1912.62Z" transform="translate(3696.137 -901.368)" fill="#fff"/>
    <path id="Path_561" data-name="Path 561" d="M1079.554,1919.212l-21.964-.274.121-5.738,21.851.266Q1079.562,1916.254,1079.554,1919.212Z" transform="translate(3686.905 -901.481)" fill="#fff"/>
    <path id="Path_562" data-name="Path 562" d="M1009.7,1929.69l21.747.274-.241,5.738-21.747-.257C1009.524,1933.585,1009.613,1931.67,1009.7,1929.69Z" transform="translate(3696.299 -904.699)" fill="#fff"/>
    <path id="Path_563" data-name="Path 563" d="M1079.349,1930.543c-.048,1.948-.1,3.872-.161,5.739l-21.948-.266.121-5.747Z" transform="translate(3686.974 -904.813)" fill="#fff"/>
    <path id="Path_564" data-name="Path 564" d="M1057.67,1863.763c-.161-.338,1.489-4.137.926-10.133s-11.759-8.1-15.75-7.6-8.073,4.555-8.91,8.547.926,11.09.926,11.09Z" transform="translate(3691.566 -888.358)" fill="#fff"/>
    <path id="Path_565" data-name="Path 565" d="M1034.724,1866.006a.421.421,0,0,1-.29-.1.43.43,0,0,1-.169-.258c-.081-.29-1.787-7.284-.934-11.284.934-4.314,5.167-8.4,9.272-8.926,2.777-.354,9.795.555,13.69,3.646a6.433,6.433,0,0,1,1.787,1.916,6.2,6.2,0,0,1,.853,2.471,26.47,26.47,0,0,1-.781,9.336c-.072.314-.145.628-.153.748a.527.527,0,0,1-.056.33.514.514,0,0,1-.161.161.536.536,0,0,1-.217.073l-22.8,1.883Zm9.272-19.694a9.8,9.8,0,0,0-1.288.064c-3.71.475-7.678,4.29-8.491,8.2-.684,3.3.491,8.958.829,10.495l22.012-1.827a3.619,3.619,0,0,1,.153-.628,25.724,25.724,0,0,0,.748-9.038,5.339,5.339,0,0,0-.74-2.1,5.581,5.581,0,0,0-1.537-1.626c-2.914-2.366-8.314-3.533-11.646-3.533Z" transform="translate(3691.686 -888.243)" fill="#231f20"/>
    <path id="Path_566" data-name="Path 566" d="M1059.28,1866.827c.62-3.823,7.074-4.765,6.761-.266a6.635,6.635,0,0,1-1.73,4.225,4.022,4.022,0,0,1-2.012,1.167,4.123,4.123,0,0,1-2.334-.153" transform="translate(3686.575 -891.792)" fill="#fff"/>
    <path id="Path_567" data-name="Path 567" d="M1061.21,1872.439a3.8,3.8,0,0,1-1.545-.322.447.447,0,0,1-.241-.257.457.457,0,0,1,.273-.6.493.493,0,0,1,.37.008,3.573,3.573,0,0,0,3.783-.909,6.188,6.188,0,0,0,1.553-3.911,2.051,2.051,0,0,0-1.851-2.487,3.735,3.735,0,0,0-2.519.692,3.632,3.632,0,0,0-1.433,2.157.471.471,0,0,1-.185.306.523.523,0,0,1-.362.088.486.486,0,0,1-.394-.539,4.524,4.524,0,0,1,1.787-2.769,4.679,4.679,0,0,1,3.219-.877,3.241,3.241,0,0,1,1.191.354,3.206,3.206,0,0,1,.942.8,3.018,3.018,0,0,1,.531,1.111,2.978,2.978,0,0,1,.032,1.223,7.081,7.081,0,0,1-1.851,4.555,4.78,4.78,0,0,1-3.3,1.384Z" transform="translate(3686.697 -891.682)" fill="#231f20"/>
    <path id="Path_568" data-name="Path 568" d="M1037.682,1866.827c-.62-3.823-7.066-4.765-6.745-.266a6.516,6.516,0,0,0,1.714,4.225,3.99,3.99,0,0,0,2,1.143,4.061,4.061,0,0,0,2.318-.145" transform="translate(3692.109 -891.792)" fill="#fff"/>
    <path id="Path_569" data-name="Path 569" d="M1035.515,1872.453a4.788,4.788,0,0,1-3.332-1.417,7.064,7.064,0,0,1-1.851-4.555,2.979,2.979,0,0,1,.056-1.191,3.036,3.036,0,0,1,.531-1.07,3.176,3.176,0,0,1,.918-.781,3.035,3.035,0,0,1,1.159-.354,4.7,4.7,0,0,1,3.211.869,4.529,4.529,0,0,1,1.787,2.777.441.441,0,0,1-.08.346.521.521,0,0,1-.314.193.5.5,0,0,1-.354-.089.484.484,0,0,1-.193-.306,3.637,3.637,0,0,0-1.408-2.165,3.753,3.753,0,0,0-2.5-.717,2.051,2.051,0,0,0-1.851,2.487,6.162,6.162,0,0,0,1.586,3.9,3.555,3.555,0,0,0,3.823.91.491.491,0,0,1,.37-.008.476.476,0,0,1,.274.241.512.512,0,0,1,.008.362.488.488,0,0,1-.25.257A3.819,3.819,0,0,1,1035.515,1872.453Z" transform="translate(3692.232 -891.696)" fill="#231f20"/>
    <path id="Path_570" data-name="Path 570" d="M1039.32,1886.078s2.31,5.465,7.421,5.465a8.283,8.283,0,0,0,7.155-3.734l-.234-2.72-.5-6.205-.475-5.8h-11.614l-.386,4.741-.121,1.545Z" transform="translate(3690.471 -893.651)" fill="#fff"/>
    <path id="Path_571" data-name="Path 571" d="M1046.6,1891.878c-5.344,0-7.734-5.473-7.839-5.722a.5.5,0,0,1,0-.266l1.24-6.7.507-6.237a.469.469,0,0,1,.475-.427H1052.6a.491.491,0,0,1,.33.121.457.457,0,0,1,.145.306l1.191,14.68a.483.483,0,0,1-.056.257,8.616,8.616,0,0,1-3.26,2.986,8.761,8.761,0,0,1-4.346,1Zm-6.905-5.988c.386.781,2.616,5.03,6.905,5.03a7.888,7.888,0,0,0,3.783-.837,7.709,7.709,0,0,0,2.881-2.543l-1.135-14.084H1041.4l-.475,5.843Z" transform="translate(3690.583 -893.544)" fill="#231f20"/>
    <path id="Path_572" data-name="Path 572" d="M1039.89,1878.46a5.358,5.358,0,0,0,.789,1.98,10.234,10.234,0,0,0,3.815,3.284c2.5,1.36,6.237,2.9,9.272,2.439l-.5-6.205a29.181,29.181,0,0,1-6.7,0,19.641,19.641,0,0,1-5.779-1.095A5.179,5.179,0,0,1,1039.89,1878.46Z" transform="translate(3690.36 -894.701)" fill="#231f20"/>
    <path id="Path_573" data-name="Path 573" d="M1052.5,1886.588c-3.107,0-6.487-1.561-8.338-2.575a10.572,10.572,0,0,1-3.992-3.437,6.1,6.1,0,0,1-.853-2.141.441.441,0,0,1,.2-.451.492.492,0,0,1,.241-.064.548.548,0,0,1,.25.064,7.776,7.776,0,0,0,.861.419,19.194,19.194,0,0,0,5.634,1.07,28.211,28.211,0,0,0,6.592,0,.451.451,0,0,1,.346.1.344.344,0,0,1,.121.145.324.324,0,0,1,.048.177l.5,6.205a.408.408,0,0,1-.1.314.469.469,0,0,1-.29.169A10.328,10.328,0,0,1,1052.5,1886.588Zm-12.048-7.38a5.028,5.028,0,0,0,.451.909,9.748,9.748,0,0,0,3.654,3.131c1.916,1.038,5.562,2.736,8.556,2.438l-.427-5.3a30.623,30.623,0,0,1-6.31,0,20.263,20.263,0,0,1-5.915-1.127Z" transform="translate(3690.472 -894.595)" fill="#231f20"/>
    <path id="Path_574" data-name="Path 574" d="M1046.131,1876.646h1.038a8.956,8.956,0,0,0,6.294-2.559,8.686,8.686,0,0,0,2.608-6.189V1854.03H1037.23V1867.9a8.6,8.6,0,0,0,.676,3.356,8.735,8.735,0,0,0,1.932,2.833,9.013,9.013,0,0,0,2.889,1.9,9.119,9.119,0,0,0,3.4.66Z" transform="translate(3690.879 -889.933)" fill="#fff"/>
    <path id="Path_575" data-name="Path 575" d="M1055.847,1853.81v13.867a8.653,8.653,0,0,1-2.608,6.189,8.956,8.956,0,0,1-6.294,2.559h-1.038a9.125,9.125,0,0,1-3.4-.66,9.013,9.013,0,0,1-2.889-1.9,8.824,8.824,0,0,1-1.932-2.833,8.6,8.6,0,0,1-.676-3.356V1853.81Zm0-.91h-18.841a.952.952,0,0,0-.66.266.913.913,0,0,0-.266.644v13.867a9.619,9.619,0,0,0,2.889,6.849,9.976,9.976,0,0,0,6.97,2.841h1.038a9.957,9.957,0,0,0,6.962-2.841,9.6,9.6,0,0,0,2.889-6.849V1853.81a.889.889,0,0,0-.274-.644.933.933,0,0,0-.652-.266Z" transform="translate(3691.103 -889.712)" fill="#231f20"/>
    <path id="Path_576" data-name="Path 576" d="M1048.606,1869.838a10.115,10.115,0,0,1-1.3-.081.821.821,0,0,1-.354-.129.721.721,0,0,1-.25-.266c-.692-1.135.926-5.465,1.417-6.777a.5.5,0,0,1,.1-.153.683.683,0,0,1,.153-.113.7.7,0,0,1,.177-.04.483.483,0,0,1,.467.644c-1.062,2.736-1.722,5.344-1.513,5.916a11.867,11.867,0,0,0,2.39,0,.472.472,0,0,1,.185.008.423.423,0,0,1,.169.089.4.4,0,0,1,.121.137.46.46,0,0,1,.056.177.44.44,0,0,1-.016.177.411.411,0,0,1-.08.169.392.392,0,0,1-.145.113.458.458,0,0,1-.177.056,10.015,10.015,0,0,1-1.392.073Z" transform="translate(3689.064 -891.543)" fill="#231f20"/>
    <path id="Path_577" data-name="Path 577" d="M1058.664,1854.192s-3.638,5.36-5.835,4.3-3.332-4.016-7.163-4.088c-3.316-.048-5.215,4.692-7.976,4.016a5.784,5.784,0,0,1-2.237-1.215,5.712,5.712,0,0,1-1.473-2.044,14.713,14.713,0,0,1,5.948-4.95,15.02,15.02,0,0,1,7.686-1.3C1057.006,1849.588,1058.664,1854.192,1058.664,1854.192Z" transform="translate(3691.513 -888.919)" fill="#fff"/>
    <path id="Path_578" data-name="Path 578" d="M1053.318,1858.978a1.753,1.753,0,0,1-.829-.2,9.236,9.236,0,0,1-2.133-1.65c-1.223-1.143-2.495-2.326-4.821-2.374-1.433,0-2.656,1.046-3.839,2.077s-2.6,2.326-4.241,1.915a6.119,6.119,0,0,1-2.447-1.312,5.925,5.925,0,0,1-1.61-2.237.434.434,0,0,1-.048-.2.494.494,0,0,1,.048-.209,15.31,15.31,0,0,1,6.157-5.094,15.712,15.712,0,0,1,7.936-1.336c9.618.692,11.421,5.408,11.485,5.6a.437.437,0,0,1-.048.427C1058.614,1854.873,1055.7,1858.978,1053.318,1858.978Zm-7.839-5.159h.073c2.712,0,4.177,1.425,5.465,2.648a8.363,8.363,0,0,0,1.907,1.481c1.248.628,3.71-1.972,5.071-3.9-.467-.909-2.785-4.217-10.559-4.773a14.606,14.606,0,0,0-7.308,1.207,14.392,14.392,0,0,0-5.738,4.6,5.073,5.073,0,0,0,1.344,1.714,5.169,5.169,0,0,0,1.956,1.014c1.135.29,2.173-.636,3.372-1.69S1043.684,1853.819,1045.479,1853.819Z" transform="translate(3691.636 -888.812)" fill="#231f20"/>
    <path id="Path_579" data-name="Path 579" d="M1033.96,1853.328a34.242,34.242,0,0,1,.926-8.137c1-3.646,8.62-6.214,12.6-5.537s9.433,3.646,10.2,5.4.926,7.292.926,7.292S1043.32,1844.483,1033.96,1853.328Z" transform="translate(3691.518 -887.106)" fill="#fff"/>
    <path id="Path_580" data-name="Path 580" d="M1033.844,1853.7a.661.661,0,0,1-.177,0,.5.5,0,0,1-.217-.169.509.509,0,0,1-.08-.258,34.853,34.853,0,0,1,.926-8.266c1.094-4.008,8.99-6.6,13.143-5.883s9.706,3.71,10.584,5.674.974,7.292.974,7.509a.4.4,0,0,1-.056.233.447.447,0,0,1-.169.177.512.512,0,0,1-.467,0c-.153-.081-15.147-7.646-24.145.909a.437.437,0,0,1-.314.073Zm12.161-13.787c-3.887,0-9.932,2.221-10.761,5.3a30.7,30.7,0,0,0-.925,6.953c8.338-6.817,20.588-2.028,23.686-.644-.064-1.569-.29-5.1-.861-6.374-.7-1.537-5.923-4.459-9.883-5.127a7.349,7.349,0,0,0-1.256-.1Z" transform="translate(3691.633 -887)" fill="#231f20"/>
    <path id="Path_581" data-name="Path 581" d="M1048.792,1878.07a8.477,8.477,0,0,1-3.775-1.07.689.689,0,0,1-.145-.113.453.453,0,0,1-.089-.161.685.685,0,0,1-.024-.185.422.422,0,0,1,.056-.169.453.453,0,0,1,.282-.233.473.473,0,0,1,.362.032,5.931,5.931,0,0,0,4.443.789,2.847,2.847,0,0,0,1.666-1.271.506.506,0,0,1,.282-.234.492.492,0,0,1,.37.032.472.472,0,0,1,.233.266.455.455,0,0,1-.024.354,3.846,3.846,0,0,1-2.213,1.746,4.5,4.5,0,0,1-1.425.217Z" transform="translate(3689.409 -894.11)" fill="#231f20"/>
    <path id="Path_582" data-name="Path 582" d="M1053.9,1862.744c.29-.016.5-.571.451-1.239s-.322-1.2-.62-1.175-.5.571-.451,1.24S1053.6,1862.768,1053.9,1862.744Z" transform="translate(3687.748 -891.162)" fill="#231f20"/>
    <path id="Path_583" data-name="Path 583" d="M1044.038,1863.453c.3-.016.5-.579.451-1.248s-.322-1.191-.612-1.175-.5.579-.459,1.247S1043.741,1863.469,1044.038,1863.453Z" transform="translate(3689.672 -891.299)" fill="#231f20"/>
    <path id="Path_584" data-name="Path 584" d="M1050.638,1937.9h-8.25a.464.464,0,0,1-.322-.129.451.451,0,0,1-.137-.322v-11.2a.451.451,0,0,1,.137-.322.464.464,0,0,1,.322-.129h8.25a.5.5,0,0,1,.33.129.451.451,0,0,1,.137.322v11.2a.452.452,0,0,1-.137.314A.47.47,0,0,1,1050.638,1937.9Zm-7.791-.91h7.332V1926.71h-7.332Z" transform="translate(3689.962 -903.94)" fill="#fff"/>
    <path id="Path_585" data-name="Path 585" d="M1117.768,1911.188c-.137-.081-12.563,25.972-20.113,27.123s-11.227-4.555-7.911-10.929,15.783-17.634,15.783-17.634l14.358-5.207Z" transform="translate(3680.869 -899.791)" fill="#fff"/>
    <path id="Path_586" data-name="Path 586" d="M1095.668,1938.808a7.692,7.692,0,0,1-3.606-.652,7.538,7.538,0,0,1-2.881-2.221c-1.7-2.318-1.7-5.626,0-8.861,3.324-6.374,15.4-17.312,15.92-17.787a.536.536,0,0,1,.161-.1l14.35-5.207a.428.428,0,0,1,.266-.016.437.437,0,0,1,.233.121.463.463,0,0,1,.137.225.473.473,0,0,1-.016.258l-2.141,6.64a.36.36,0,0,1-.1.161c-.089.153-.362.684-.676,1.3-8.628,16.563-15.268,25.312-19.726,26A12.8,12.8,0,0,1,1095.668,1938.808Zm10.028-28.765c-1.006.91-12.531,11.517-15.646,17.457-1.529,2.921-1.561,5.859-.072,7.887s4.185,2.849,7.485,2.35c2.849-.443,8.451-5.215,19.018-25.513.4-.773.6-1.159.732-1.368l1.851-5.674Z" transform="translate(3680.988 -899.676)" fill="#231f20"/>
    <path id="Path_587" data-name="Path 587" d="M1109.787,1915.842H1084.62l11.863-31.252h25.167Z" transform="translate(3681.63 -895.897)" fill="#fff"/>
    <path id="Path_588" data-name="Path 588" d="M1109.671,1916.193H1084.5a.438.438,0,0,1-.217-.056.456.456,0,0,1-.25-.354.489.489,0,0,1,.024-.217l11.863-31.252a.447.447,0,0,1,.177-.225.44.44,0,0,1,.266-.089h25.175a.4.4,0,0,1,.217.056.372.372,0,0,1,.169.145.435.435,0,0,1,.089.209.429.429,0,0,1-.032.225l-11.863,31.252a.458.458,0,0,1-.169.217.481.481,0,0,1-.274.089Zm-24.483-.909h24.153l11.509-30.342H1096.7Z" transform="translate(3681.746 -895.782)" fill="#231f20"/>
    <path id="Path_589" data-name="Path 589" d="M1120.468,1912.187c.137-.4,5.111-8.435,4.821-11.171-.217-2.012-7.976-5.569-9.634-5.28s3.316,3.557,3.316,3.557-7.614-3.276-8.1-1.352,7.219,3.847,7.219,3.847-8.2-1.441-8.395.193,6.736,2.584,6.736,2.584-6.447-.378-5.368,1.054,7.96,3.412,7.96,3.412" transform="translate(3676.736 -898.069)" fill="#fff"/>
    <path id="Path_590" data-name="Path 590" d="M1120.344,1912.554a.3.3,0,0,1-.169,0,.448.448,0,0,1-.265-.233.467.467,0,0,1-.016-.346,7.731,7.731,0,0,1,.515-.91c1.111-1.964,4.507-7.919,4.29-10.028,0-.137-.161-.636-1.392-1.545-2.406-1.827-6.366-3.34-7.533-3.34a16.154,16.154,0,0,0,3.356,2.737.447.447,0,0,1,.193.274.453.453,0,0,1-.04.338.463.463,0,0,1-.266.225.469.469,0,0,1-.346-.016c-2.27-.966-6.253-2.318-7.316-1.819a.208.208,0,0,0-.137.145c-.217.909,3.453,2.414,6.881,3.268a.482.482,0,0,1,.29.209.45.45,0,0,1-.145.636.445.445,0,0,1-.346.073c-4.185-.732-7.654-.716-7.847-.217s3.018,1.618,6.334,2.068a.5.5,0,0,1,.314.177.535.535,0,0,1,.1.346.488.488,0,0,1-.169.314.521.521,0,0,1-.346.1c-2.237-.137-4.443,0-4.934.306.861,1.014,5.143,2.511,7.686,3.235a.427.427,0,0,1,.169.089.647.647,0,0,1,.121.137.509.509,0,0,1,.056.177.469.469,0,0,1-.016.185.427.427,0,0,1-.089.169.44.44,0,0,1-.137.113.383.383,0,0,1-.185.057.36.36,0,0,1-.185-.016c-.724-.209-7.074-2.052-8.209-3.573a.843.843,0,0,1-.193-.442.809.809,0,0,1,.081-.475,2.353,2.353,0,0,1,1.682-.756c-1.7-.507-3.147-1.248-3.026-2.27a1,1,0,0,1,.137-.394.953.953,0,0,1,.29-.306c.66-.475,2.189-.547,3.783-.459-1.8-.781-3.324-1.827-3.026-2.929a1.053,1.053,0,0,1,.233-.451,1.121,1.121,0,0,1,.41-.314c.99-.483,3.1,0,4.958.6-.861-.765-1.248-1.376-1.151-1.827a.768.768,0,0,1,.258-.418.79.79,0,0,1,.459-.177c1.489-.258,6.149,1.819,8.418,3.485,1.127.829,1.7,1.553,1.771,2.205.225,2.133-2.237,6.777-4.411,10.592-.241.419-.4.708-.443.8a.483.483,0,0,1-.2.161.543.543,0,0,1-.25.04Z" transform="translate(3676.852 -897.978)" fill="#231f20"/>
    <path id="Path_591" data-name="Path 591" d="M1109.672,1883.42l-1.642,4.322,10.06-.29,1.618-4.032Z" transform="translate(3677.061 -895.669)" fill="#231f20"/>
    <path id="Path_592" data-name="Path 592" d="M1107.918,1888.083a.47.47,0,0,1-.209-.048.442.442,0,0,1-.161-.137.409.409,0,0,1-.089-.2.491.491,0,0,1,.016-.217l1.642-4.33a.465.465,0,0,1,.177-.217.479.479,0,0,1,.258-.073H1119.6a.47.47,0,0,1,.209.048.489.489,0,0,1,.161.153.369.369,0,0,1,.08.2.5.5,0,0,1-.024.217l-1.618,4.032a.441.441,0,0,1-.161.2.426.426,0,0,1-.258.081l-10.06.29Zm1.956-4.314-1.3,3.388,9.079-.257,1.255-3.131Z" transform="translate(3677.174 -895.56)" fill="#231f20"/>
    <path id="Path_593" data-name="Path 593" d="M1118.165,1883.76a2.059,2.059,0,0,0,0-1.207,1.972,1.972,0,0,0-.6-.821,2.009,2.009,0,0,0-.934-.418,2.655,2.655,0,0,0-1.038.056,2.6,2.6,0,0,0-.926.443,2.627,2.627,0,0,0-1.087,1.562,2.02,2.02,0,0,0-.008.877,2.1,2.1,0,0,0,1.014,1.408,2.114,2.114,0,0,0,.845.29,2.938,2.938,0,0,0,1.746-.636A2.89,2.89,0,0,0,1118.165,1883.76Z" transform="translate(3675.989 -895.253)" fill="#231f20"/>
    <path id="Path_594" data-name="Path 594" d="M1115.443,1886.31h-.161a2.506,2.506,0,0,1-1.014-.3,2.407,2.407,0,0,1-.789-.692,2.827,2.827,0,0,1-.475-1.022,2.8,2.8,0,0,1-.016-1.127,3.243,3.243,0,0,1,1.272-1.819,3.21,3.21,0,0,1,2.318-.579,2.463,2.463,0,0,1,1.135.531,2.436,2.436,0,0,1,.716,1.014,2.523,2.523,0,0,1,0,1.465h0a3.368,3.368,0,0,1-1.094,1.722A3.479,3.479,0,0,1,1115.443,1886.31Zm.668-4.684a2.257,2.257,0,0,0-1.312.443,2.225,2.225,0,0,0-.926,1.3,1.768,1.768,0,0,0,.008.74,1.682,1.682,0,0,0,.322.66,1.518,1.518,0,0,0,.491.443,1.573,1.573,0,0,0,.628.185,2.46,2.46,0,0,0,1.441-.539,2.407,2.407,0,0,0,.821-1.28h0a1.591,1.591,0,0,0,0-.91,1.453,1.453,0,0,0-.467-.612,1.591,1.591,0,0,0-.708-.3,1.4,1.4,0,0,0-.3-.129Z" transform="translate(3676.103 -895.146)" fill="#231f20"/>
    <path id="Path_595" data-name="Path 595" d="M996.082,1956.227s-4.074-6.519-9.978-6.318c-4.068.145-10.139,3.1-10.139,3.1l27.627,27.525s8.909,6.688,10.326,4.555,2.27-4.258,1.441-5.65-5.561-3.823-5.561-3.823l-.588-5.57s-3.308,1.159-4.362.58S996.082,1956.227,996.082,1956.227Z" transform="translate(3702.836 -908.645)" fill="#fff"/>
    <path id="Path_596" data-name="Path 596" d="M1012.883,1985.9c-2.777,0-8.974-4.556-9.69-5.1L975.5,1953.225a.5.5,0,0,1-.116-.193.446.446,0,0,1-.014-.218.464.464,0,0,1,.089-.2.434.434,0,0,1,.171-.145c.25-.121,6.209-3,10.334-3.139h.3c5.941,0,9.941,6.27,10.11,6.544,3.638,6.535,7.879,13.762,8.6,14.27.588.322,2.664-.161,3.952-.62a.5.5,0,0,1,.217-.024.467.467,0,0,1,.2.073.437.437,0,0,1,.153.145.465.465,0,0,1,.073.2l.563,5.32c1.038.547,4.716,2.552,5.505,3.887,1.046,1.763-.209,4.322-1.457,6.157a1.4,1.4,0,0,1-.427.386,1.28,1.28,0,0,1-.547.193,2.066,2.066,0,0,1-.322.04Zm-36.219-32.869,27.156,27.05c1.851,1.432,7.356,5.167,9.264,4.861a.5.5,0,0,0,.185-.056.466.466,0,0,0,.153-.121c1.537-2.278,2.044-4.1,1.424-5.159s-4.072-2.986-5.352-3.638a.547.547,0,0,1-.177-.153.5.5,0,0,1-.073-.217l-.531-4.982c-1.095.338-3.219.909-4.177.354-1.1-.587-7.131-11.324-8.958-14.575-.177-.274-4.114-6.254-9.554-6.077C982.817,1950.384,978.277,1952.308,976.664,1953.032Z" transform="translate(3702.952 -908.532)" fill="#231f20"/>
    <path id="Path_597" data-name="Path 597" d="M1026.618,2067.507h-9.562a.42.42,0,0,1-.169-.032.826.826,0,0,1-.137-.088.365.365,0,0,1-.089-.137.384.384,0,0,1-.032-.161.4.4,0,0,1,.258-.386.42.42,0,0,1,.169-.032h9.562a.432.432,0,0,1,.306.121.428.428,0,0,1,0,.6A.472.472,0,0,1,1026.618,2067.507Z" transform="translate(3694.899 -931.433)" fill="#231f20"/>
    <path id="Path_598" data-name="Path 598" d="M1066.934,2067.507H1057.4a.473.473,0,0,1-.306-.121.428.428,0,0,1,0-.6.432.432,0,0,1,.306-.121h9.537a.413.413,0,0,1,.3.121.409.409,0,0,1,0,.6.451.451,0,0,1-.3.121Z" transform="translate(3687.026 -931.433)" fill="#231f20"/>
    <path id="Path_599" data-name="Path 599" d="M1048.623,1847.777a2.379,2.379,0,1,0-2.423-2.382A2.4,2.4,0,0,0,1048.623,1847.777Z" transform="translate(3689.128 -887.784)" fill="#30c684"/>
  </g>
</svg>
