<svg xmlns="http://www.w3.org/2000/svg" width="254.619" height="185.59" viewBox="0 0 254.619 185.59">
  <g id="Group_18" data-name="Group 18" transform="translate(-5417.19 -2854.24)">
    <path id="Path_358" data-name="Path 358" d="M419.368,2056.72H165.632a.453.453,0,0,1-.312-.13.468.468,0,0,1-.13-.32.444.444,0,0,1,.13-.31.452.452,0,0,1,.312-.13H419.368a.454.454,0,0,1,.312.13.443.443,0,0,1,.129.31.467.467,0,0,1-.129.32A.455.455,0,0,1,419.368,2056.72Z" transform="translate(5252 977)" fill="#d1d3d4"/>
    <path id="Path_359" data-name="Path 359" d="M308.959,2062.39a71.55,71.55,0,1,0-71.483-71.55A71.52,71.52,0,0,0,308.959,2062.39Z" transform="translate(5252 977)" fill="#fff"/>
    <path id="Path_360" data-name="Path 360" d="M308.958,2062.83a72.044,72.044,0,1,1,50.841-21.11A71.9,71.9,0,0,1,308.958,2062.83Zm0-143.1a29.44,29.44,0,1,0,0-.01Z" transform="translate(5252 977)" fill="#231f20"/>
    <path id="Path_361" data-name="Path 361" d="M344.991,2017.94a42.392,42.392,0,0,1-16.079,13.46,47.3,47.3,0,0,1-20.624,4.58,48.933,48.933,0,0,1-17.986-3.28,46.376,46.376,0,0,1-14.764-9.15,42.369,42.369,0,0,1-9.981-14.07,45.617,45.617,0,0,1-.062-35.59,43.948,43.948,0,0,1,9.8-14.14,46.666,46.666,0,0,1,32.3-12.76,47.941,47.941,0,0,1,15.479,2.57,41.747,41.747,0,0,1,13.573,7.59,38.282,38.282,0,0,1,9.62,12.37,37.426,37.426,0,0,1,3.644,16.78,36.146,36.146,0,0,1-1.491,11.01,28.167,28.167,0,0,1-3.83,7.9,21.883,21.883,0,0,1-5.295,5.3,25.927,25.927,0,0,1-5.851,3.11,30.478,30.478,0,0,1-10.105,1.91c-3.347,0-5.739-.67-7.174-2.03a6.514,6.514,0,0,1-2.269-4.41h-.22a28.451,28.451,0,0,1-5.975,4.41,18.749,18.749,0,0,1-9.328,2.03,16.025,16.025,0,0,1-12.434-5.62,18.827,18.827,0,0,1-3.53-6.34,25.15,25.15,0,0,1-1.253-8.13,30.9,30.9,0,0,1,1.632-10.11,28.294,28.294,0,0,1,4.722-8.61,22.508,22.508,0,0,1,7.475-5.99,22.222,22.222,0,0,1,10.042-2.21,17.951,17.951,0,0,1,7.943,1.56,10.782,10.782,0,0,1,4.96,5.3h.247l.953-5.39h11.313l-4.412,23.58-.715,3.34a16.713,16.713,0,0,0-.362,3.48,6.6,6.6,0,0,0,.662,3.28,2.677,2.677,0,0,0,1.124.93,2.75,2.75,0,0,0,1.444.21,7.649,7.649,0,0,0,3.76-1.02,9.274,9.274,0,0,0,3.291-3.23,19.59,19.59,0,0,0,2.33-5.56,31.192,31.192,0,0,0,.883-8.02,31.845,31.845,0,0,0-2.33-12.62,25.692,25.692,0,0,0-6.46-9.15,26.872,26.872,0,0,0-9.858-5.56,40.509,40.509,0,0,0-12.558-1.86,35.071,35.071,0,0,0-13.5,2.51,30.144,30.144,0,0,0-10.457,7.07,32,32,0,0,0-6.76,10.76,37.55,37.55,0,0,0-2.392,13.53,36,36,0,0,0,2.648,14.13,29.767,29.767,0,0,0,7.351,10.53,33.068,33.068,0,0,0,11.181,6.64,40.887,40.887,0,0,0,13.952,2.27,38.918,38.918,0,0,0,12.488-1.91,33.5,33.5,0,0,0,10.1-5.38Zm-38.971-38.65a12.345,12.345,0,0,0-5.383,1.14,11.533,11.533,0,0,0-4,3.11,13.809,13.809,0,0,0-2.454,4.6,18.6,18.6,0,0,0-.838,5.63c0,.63.062,1.57.185,2.81a10.38,10.38,0,0,0,1.068,3.65,8.5,8.5,0,0,0,2.93,3.17,10.283,10.283,0,0,0,5.736,1.38,11.119,11.119,0,0,0,5.622-1.32,10.042,10.042,0,0,0,3.583-3.41,13.9,13.9,0,0,0,1.853-4.66,24.585,24.585,0,0,0,.538-5.09,13.62,13.62,0,0,0-2.144-7.9q-2.154-3.105-6.7-3.11Z" transform="translate(5252 977)" fill="#30c684"/>
    <path id="Path_362" data-name="Path 362" d="M202.93,1898.61l-2.066,1.04,9.692,19.29,2.066-1.04Z" transform="translate(5252 977)" fill="#231f20"/>
    <path id="Path_363" data-name="Path 363" d="M210.56,1919.38a.471.471,0,0,1-.234-.06.516.516,0,0,1-.163-.18l-9.708-19.3a.387.387,0,0,1-.036-.16.4.4,0,0,1,.036-.17.469.469,0,0,1,.212-.26l2.074-1.07a.438.438,0,0,1,.582.2l9.708,19.3a.429.429,0,0,1,0,.33.474.474,0,0,1-.084.16.39.39,0,0,1-.137.1l-2.056,1.11a.321.321,0,0,1-.194,0Zm-9.1-19.53,9.293,18.55,1.28-.64-9.293-18.55Z" transform="translate(5252 977)" fill="#231f20"/>
    <path id="Path_364" data-name="Path 364" d="M218.264,1926.19c-.247-.76-5.225-6.8-5.41-8.11s.936-6.72-.176-7.48-3.133,4.31-3.133,4.31-4.342-7.95-5.586-7.4-.883,4.89-.15,7.55,8.56,15.81,8.56,15.81Z" transform="translate(5252 977)" fill="#fff"/>
    <path id="Path_365" data-name="Path 365" d="M212.369,1931.33h-.08a.377.377,0,0,1-.174-.07.338.338,0,0,1-.126-.14c-.326-.54-7.942-13.25-8.639-15.9-.389-1.51-1.465-7.29.414-8.08,1.227-.51,3.7,3.25,5.7,6.81.609-1.35,1.7-3.53,2.648-3.79a.888.888,0,0,1,.4-.03.847.847,0,0,1,.371.15c.882.61.759,2.65.494,5.48a15.617,15.617,0,0,0-.124,2.3c.1.7,2.207,3.53,3.46,5.24a18.24,18.24,0,0,1,1.924,2.8.419.419,0,0,1,.005.26.4.4,0,0,1-.147.22l-5.895,4.7A.369.369,0,0,1,212.369,1931.33Zm-8.313-23.43c-.706.3-.653,3.92.15,7.07.6,2.29,6.919,12.97,8.278,15.27l5.215-4.15c-.3-.48-1.015-1.44-1.65-2.3-2.048-2.76-3.53-4.79-3.627-5.64a13.877,13.877,0,0,1,.123-2.5c.124-1.41.406-4.32-.114-4.68-.442,0-1.633,1.96-2.5,4.12a.437.437,0,0,1-.155.19.4.4,0,0,1-.233.08.392.392,0,0,1-.237-.05.4.4,0,0,1-.169-.18C207.259,1911.7,204.771,1907.99,204.056,1907.9Z" transform="translate(5252 977)" fill="#231f20"/>
    <path id="Path_366" data-name="Path 366" d="M196.652,2035.98s-6.178,11-5.772,11.05,10.352,2.97,10.352,2.97,5.851-8.91,5.771-9.14S196.652,2035.98,196.652,2035.98Z" transform="translate(5252 977)" fill="#fff"/>
    <path id="Path_367" data-name="Path 367" d="M201.232,2050.49a.26.26,0,0,1-.124,0c-3.909-1.15-9.866-2.89-10.29-2.96a.721.721,0,0,1-.2-.09.548.548,0,0,1-.151-.16c-.132-.26-.309-.61,5.807-11.48a.407.407,0,0,1,.248-.2.39.39,0,0,1,.317.02c10.431,4.73,10.493,4.9,10.59,5.12s.168.44-5.807,9.54a.449.449,0,0,1-.167.16A.553.553,0,0,1,201.232,2050.49Zm-9.822-3.75c1.712.45,7.342,2.1,9.636,2.78,1.9-2.9,4.713-7.25,5.384-8.45-1.262-.66-6.178-2.95-9.593-4.48-1.959,3.48-4.819,8.7-5.427,10.15Z" transform="translate(5252 977)" fill="#231f20"/>
    <path id="Path_368" data-name="Path 368" d="M190.88,2047.06s-16.838-.88-17.65,2.08,24,10.6,24,10.6l4.033-9.71Z" transform="translate(5252 977)" fill="#231f20"/>
    <path id="Path_369" data-name="Path 369" d="M197.19,2060.22h-.133c-5.921-1.83-25.168-8.02-24.286-11.18s15.25-2.55,18.118-2.4h.1l10.36,2.98a.478.478,0,0,1,.274.23.48.48,0,0,1,.036.18.445.445,0,0,1-.036.18l-4.033,9.72a.51.51,0,0,1-.154.21.425.425,0,0,1-.243.08Zm-11.614-12.86c-5.763,0-11.561.51-11.949,1.9-.441,1.57,11.684,6.38,23.316,9.98l3.7-8.91-9.839-2.86C189.177,2047.41,187.376,2047.36,185.576,2047.36Z" transform="translate(5252 977)" fill="#231f20"/>
    <path id="Path_370" data-name="Path 370" d="M231.9,2038.04l4.289,4.75,7.766-8.18-6.24-6.54Z" transform="translate(5252 977)" fill="#fff"/>
    <path id="Path_371" data-name="Path 371" d="M236.188,2043.24a.525.525,0,0,1-.176-.04.587.587,0,0,1-.142-.11l-4.263-4.75a.457.457,0,0,1-.11-.25.465.465,0,0,1,.057-.27l5.807-9.97a.474.474,0,0,1,.142-.15.446.446,0,0,1,.194-.07.452.452,0,0,1,.2.02.4.4,0,0,1,.17.11l6.24,6.54a.471.471,0,0,1,.125.31.429.429,0,0,1-.125.3l-7.766,8.18a.512.512,0,0,1-.16.12.632.632,0,0,1-.193.03Zm-3.7-5.25,3.75,4.15,7.149-7.53-5.6-5.82Z" transform="translate(5252 977)" fill="#231f20"/>
    <path id="Path_372" data-name="Path 372" d="M236.187,2042.79s-5.612,16.95-2.647,16.73,16.909-17.89,16.909-17.89l-6.487-7.02Z" transform="translate(5252 977)" fill="#231f20"/>
    <path id="Path_373" data-name="Path 373" d="M233.461,2059.96a1.047,1.047,0,0,1-.459-.11.975.975,0,0,1-.362-.3c-1.65-2.11,2.321-14.44,3.133-16.9a.5.5,0,0,1,.1-.17l7.766-8.17a.322.322,0,0,1,.154-.08.335.335,0,0,1,.172-.01h0a.532.532,0,0,1,.178.03.475.475,0,0,1,.149.11l6.469,7.02a.443.443,0,0,1,.1.28.449.449,0,0,1-.1.29c-1.439,1.82-14.173,17.81-17.218,18.04Zm3.115-16.91c-1.827,5.51-4.289,14.65-3.248,15.99a.162.162,0,0,0,.065.05.126.126,0,0,0,.085.01c1.977-.15,10.979-10.6,16.371-17.42l-5.887-6.43Z" transform="translate(5252 977)" fill="#231f20"/>
    <path id="Path_374" data-name="Path 374" d="M227.054,1957.42s-33.95,36.78-34.488,40.4c-1.033,7.03,38.706,43.07,38.706,43.07l9.1-12.43-23.651-27.6,31.081-42.53Z" transform="translate(5252 977)" fill="#231f20"/>
    <path id="Path_375" data-name="Path 375" d="M231.272,2041.34a.511.511,0,0,1-.291-.12c-1.633-1.47-39.907-36.29-38.83-43.47.538-3.64,31.108-36.85,34.594-40.63a.473.473,0,0,1,.157-.11.394.394,0,0,1,.187-.02l20.747.88a.568.568,0,0,1,.223.07.551.551,0,0,1,.157.18.421.421,0,0,1,.041.23.45.45,0,0,1-.085.22l-30.888,42.26,23.422,27.33a.412.412,0,0,1,.1.27.454.454,0,0,1-.1.27l-9.1,12.46a.434.434,0,0,1-.136.12.523.523,0,0,1-.173.06Zm-4.033-83.47c-13.608,14.75-33.862,37.47-34.232,40.02-.821,5.51,26.951,32.11,38.2,42.35l8.6-11.77-23.413-27.32a.442.442,0,0,1-.093-.27.421.421,0,0,1,.093-.27l30.6-41.88Z" transform="translate(5252 977)" fill="#231f20"/>
    <path id="Path_376" data-name="Path 376" d="M255.02,1965.58l-49.676,81.2-13.952-8.04L232.516,1958Z" transform="translate(5252 977)" fill="#231f20"/>
    <path id="Path_377" data-name="Path 377" d="M205.344,2047.22a.421.421,0,0,1-.22-.06l-13.953-8.03a.447.447,0,0,1-.2-.26.454.454,0,0,1,.032-.33l41.124-80.74a.464.464,0,0,1,.225-.21.4.4,0,0,1,.305,0l22.5,7.58a.378.378,0,0,1,.169.1.37.37,0,0,1,.1.16.468.468,0,0,1,.043.19.435.435,0,0,1-.043.19l-49.685,81.2a.363.363,0,0,1-.171.16.389.389,0,0,1-.235.05Zm-13.37-8.65,13.238,7.62,49.164-80.39-21.621-7.28Z" transform="translate(5252 977)" fill="#231f20"/>
    <path id="Path_378" data-name="Path 378" d="M204.382,2012.56a.7.7,0,0,1-.2,0,.636.636,0,0,1-.135-.11.591.591,0,0,1-.083-.15.48.48,0,0,1-.017-.18.381.381,0,0,1,.05-.16l23.2-44.46-2.339-4.22a.418.418,0,0,1-.056-.16.427.427,0,0,1,.013-.17.346.346,0,0,1,.078-.15.444.444,0,0,1,.133-.12.439.439,0,0,1,.6.17l2.462,4.42a.466.466,0,0,1,0,.42l-23.351,44.63a.381.381,0,0,1-.145.16.4.4,0,0,1-.208.08Z" transform="translate(5252 977)" fill="#fff"/>
    <path id="Path_379" data-name="Path 379" d="M251.084,1904.31a4.727,4.727,0,0,0,2.551-.25,1.525,1.525,0,0,0,.714-.5.643.643,0,0,0,.14-.4.671.671,0,0,0-.14-.41c-.353-.34-1.076-.09-1.314-.51,1.985-2.27,2.885-5.95,2.85-8.89a20.515,20.515,0,0,0-2.762-9.86,5.743,5.743,0,0,0-2.233-2.4,2.42,2.42,0,0,0-3.009.53,8.546,8.546,0,0,0-3.4-1.71,8.421,8.421,0,0,0-3.8-.06,22.693,22.693,0,0,0-6.363,2.61,20.935,20.935,0,0,1-6.31,1.69.73.73,0,0,0-.574.27.685.685,0,0,0,0,.46,8.095,8.095,0,0,0,3.424,5.3,2.475,2.475,0,0,1-1.473-.12c.273,1.93,2.488,2.87,4.412,3.26,1.394.3,3.053.53,4.192,1.47s2.189,2.65,3.353,3.86a16.021,16.021,0,0,0,6.6,4.16c.935.29,1.182.75,2,1.14A4.531,4.531,0,0,0,251.084,1904.31Z" transform="translate(5252 977)" fill="#fff"/>
    <path id="Path_380" data-name="Path 380" d="M251.9,1904.83a6.508,6.508,0,0,1-.883-.07h0a4.754,4.754,0,0,1-1.323-.43,5.244,5.244,0,0,1-.883-.55,3.23,3.23,0,0,0-1.05-.57,16.321,16.321,0,0,1-6.786-4.28,17.276,17.276,0,0,1-1.412-1.69,14.243,14.243,0,0,0-1.907-2.13,7.72,7.72,0,0,0-3.53-1.26l-.494-.08c-1.633-.34-4.412-1.26-4.748-3.65a.457.457,0,0,1,.02-.21.487.487,0,0,1,.113-.17.419.419,0,0,1,.181-.1.483.483,0,0,1,.207-.01,8.606,8.606,0,0,1-2.471-4.62,1.157,1.157,0,0,1,.079-.76,1.125,1.125,0,0,1,.386-.34,1.094,1.094,0,0,1,.5-.15,20.352,20.352,0,0,0,6.177-1.64l.883-.46a19.06,19.06,0,0,1,5.577-2.19,9.112,9.112,0,0,1,7.246,1.56,3.04,3.04,0,0,1,3.238-.34,6.243,6.243,0,0,1,2.418,2.58,20.826,20.826,0,0,1,2.877,10.08,15.038,15.038,0,0,1-2.594,8.75,1.493,1.493,0,0,1,.882.33,1.12,1.12,0,0,1,.284.68,1.083,1.083,0,0,1-.2.7,1.856,1.856,0,0,1-.883.65,4.939,4.939,0,0,1-1.9.37Zm-.741-.95a4.156,4.156,0,0,0,2.312-.24,1.039,1.039,0,0,0,.5-.33.247.247,0,0,0,.033-.12.221.221,0,0,0-.033-.12.882.882,0,0,0-.389-.1,1.135,1.135,0,0,1-.571-.13,1.11,1.11,0,0,1-.435-.39.442.442,0,0,1-.048-.26.412.412,0,0,1,.11-.24c2.065-2.37,2.771-6.11,2.736-8.59a20.024,20.024,0,0,0-2.7-9.65,5.372,5.372,0,0,0-2.047-2.22,2.008,2.008,0,0,0-2.453.39.423.423,0,0,1-.139.12.3.3,0,0,1-.179.06.476.476,0,0,1-.344-.11,8,8,0,0,0-6.831-1.64,18.76,18.76,0,0,0-5.295,2.11l-.882.46a20.682,20.682,0,0,1-6.451,1.76c-.194,0-.247.05-.265.07s0,0,0,.16a7.7,7.7,0,0,0,3.23,4.96.45.45,0,0,1,.164.19.467.467,0,0,1,.03.26.443.443,0,0,1-.115.22.462.462,0,0,1-.22.12,2.684,2.684,0,0,1-.936.07c.671,1.36,2.648,1.97,3.848,2.22l.494.1a8.675,8.675,0,0,1,3.892,1.45,14.239,14.239,0,0,1,2.03,2.27,20.71,20.71,0,0,0,1.359,1.63,15.551,15.551,0,0,0,6.416,4.05,4.312,4.312,0,0,1,1.306.69,4.69,4.69,0,0,0,.759.47,3.832,3.832,0,0,0,1.094.35Z" transform="translate(5252 977)" fill="#231f20"/>
    <path id="Path_381" data-name="Path 381" d="M234.7,1895.07s-2.647,4.77-1.977,5.67,2.71.11,2.71.11" transform="translate(5252 977)" fill="#fff"/>
    <path id="Path_382" data-name="Path 382" d="M233.858,1901.61a1.751,1.751,0,0,1-.815-.13,1.72,1.72,0,0,1-.668-.48c-.785-1.01,1.1-4.64,1.942-6.18a.368.368,0,0,1,.11-.13.328.328,0,0,1,.154-.08.5.5,0,0,1,.172-.02.476.476,0,0,1,.164.06.438.438,0,0,1,.208.27.432.432,0,0,1-.04.33c-1.315,2.34-2.251,4.76-2.013,5.19.371.47,1.642.18,2.2,0a.535.535,0,0,1,.175-.05.526.526,0,0,1,.177.03.678.678,0,0,1,.151.1.529.529,0,0,1,.1.16.381.381,0,0,1,.029.17.5.5,0,0,1-.044.18.506.506,0,0,1-.11.14.489.489,0,0,1-.158.09,5.392,5.392,0,0,1-1.73.35Z" transform="translate(5252 977)" fill="#231f20"/>
    <path id="Path_383" data-name="Path 383" d="M234.9,1889.01c-1.765,1.71-1,4.97-.83,7.12q.372,4.5.945,9.02c.247,1.91,5.2,1.59,6.036.96v6.36s1.421,3.41,5.295,1.26,4.607-4.77,4.607-4.77l-.971-8.71s-3.265.27-5.489-3.53-2.577-9.72-2.577-9.72S236.655,1887.35,234.9,1889.01Z" transform="translate(5252 977)" fill="#fff"/>
    <path id="Path_384" data-name="Path 384" d="M243.962,1914.89a3.456,3.456,0,0,1-1.147-.2,3.939,3.939,0,0,1-2.18-2.06.478.478,0,0,1,0-.16v-5.71a8.612,8.612,0,0,1-4.774-.12,1.836,1.836,0,0,1-.84-.51,1.786,1.786,0,0,1-.44-.88c-.388-2.99-.706-6.04-.953-9.05a9.158,9.158,0,0,0-.123-1.16c-.247-2.11-.565-4.74,1.085-6.32,1.853-1.76,7.06-2.11,7.272-2.13a.532.532,0,0,1,.178.02.474.474,0,0,1,.157.09.432.432,0,0,1,.1.13.416.416,0,0,1,.036.17c0,.06.38,5.95,2.524,9.56,2.048,3.46,4.96,3.29,5.075,3.28a.484.484,0,0,1,.169.02.428.428,0,0,1,.15.08.374.374,0,0,1,.108.13.448.448,0,0,1,.049.16l.971,8.7a.42.42,0,0,1,0,.18c0,.11-.838,2.83-4.81,5.04a5.448,5.448,0,0,1-2.612.74Zm-2.48-2.52a3.1,3.1,0,0,0,1.633,1.49,3.691,3.691,0,0,0,1.551.07,3.775,3.775,0,0,0,1.441-.58c3.274-1.83,4.218-4.01,4.368-4.42l-.882-8.22a6.833,6.833,0,0,1-5.481-3.71c-1.879-3.18-2.48-8.01-2.647-9.51-1.271.13-4.951.6-6.292,1.86s-1.042,3.65-.812,5.56c0,.42.1.83.123,1.2.247,2.99.565,6.03.945,9.01,0,.29.282.53.723.71a7.3,7.3,0,0,0,4.6-.06.457.457,0,0,1,.225-.09.4.4,0,0,1,.24.04.471.471,0,0,1,.182.16.451.451,0,0,1,.068.24Z" transform="translate(5252 977)" fill="#231f20"/>
    <path id="Path_385" data-name="Path 385" d="M234.926,1902.9a2.485,2.485,0,0,0,3.53-1.25Z" transform="translate(5252 977)" fill="#fff"/>
    <path id="Path_386" data-name="Path 386" d="M236.293,1903.66a3.562,3.562,0,0,1-1.57-.37.447.447,0,0,1-.22-.26.429.429,0,0,1,.025-.33.455.455,0,0,1,.262-.22.44.44,0,0,1,.338.02,2.508,2.508,0,0,0,1.765.17,1.962,1.962,0,0,0,.688-.48,1.984,1.984,0,0,0,.433-.71.362.362,0,0,1,.1-.14.432.432,0,0,1,.143-.1.475.475,0,0,1,.168-.03.486.486,0,0,1,.167.04.445.445,0,0,1,.238.58,2.6,2.6,0,0,1-.975,1.33,2.625,2.625,0,0,1-1.575.5Z" transform="translate(5252 977)" fill="#231f20"/>
    <path id="Path_387" data-name="Path 387" d="M240.626,1896.58a4.113,4.113,0,0,1,.689-2.13,5.768,5.768,0,0,1,1-1.46,2.021,2.021,0,0,1,1.589-.61,1.809,1.809,0,0,1,1.253.88,3.461,3.461,0,0,1,.485,1.47,6.5,6.5,0,0,1-2.559,5.97l.15-.19" transform="translate(5252 977)" fill="#fff"/>
    <path id="Path_388" data-name="Path 388" d="M243.08,1901.11a.377.377,0,0,1-.179-.04.438.438,0,0,1-.148-.1.461.461,0,0,1-.109-.3.454.454,0,0,1,.109-.29l.15-.18a.434.434,0,0,1,.274-.16,6.131,6.131,0,0,0,2.047-5.3,3.019,3.019,0,0,0-.423-1.29,1.372,1.372,0,0,0-.4-.42,1.206,1.206,0,0,0-.536-.23,1.526,1.526,0,0,0-.669.1,1.586,1.586,0,0,0-.557.39,5.711,5.711,0,0,0-.883,1.35,3.834,3.834,0,0,0-.635,1.89.447.447,0,0,1-.023.17.383.383,0,0,1-.087.15.44.44,0,0,1-.138.11.475.475,0,0,1-.167.04.5.5,0,0,1-.172-.02.446.446,0,0,1-.151-.09.389.389,0,0,1-.1-.14.417.417,0,0,1-.041-.17,4.409,4.409,0,0,1,.75-2.36,6.641,6.641,0,0,1,1.068-1.57,2.472,2.472,0,0,1,.9-.59,2.556,2.556,0,0,1,1.063-.14,2.113,2.113,0,0,1,.9.36,2.182,2.182,0,0,1,.666.69,3.9,3.9,0,0,1,.5,1.68,7.018,7.018,0,0,1-2.744,6.38.462.462,0,0,1-.256.08Z" transform="translate(5252 977)" fill="#231f20"/>
    <path id="Path_389" data-name="Path 389" d="M241.05,1906.13a8.053,8.053,0,0,0,3.574-2.84s.168,4.61-3.671,6.24Z" transform="translate(5252 977)" fill="#231f20"/>
    <path id="Path_390" data-name="Path 390" d="M240.953,1909.94a.469.469,0,0,1-.256-.08.416.416,0,0,1-.185-.38l.1-3.35a.451.451,0,0,1,.076-.24.416.416,0,0,1,.2-.15,7.692,7.692,0,0,0,3.353-2.65.443.443,0,0,1,.214-.19.533.533,0,0,1,.28-.02.518.518,0,0,1,.235.15.422.422,0,0,1,.1.26c0,.2.123,4.94-3.945,6.66A.941.941,0,0,1,240.953,1909.94Zm.53-3.53-.071,2.37a5.777,5.777,0,0,0,2.648-4.1,9.663,9.663,0,0,1-2.577,1.72Z" transform="translate(5252 977)" fill="#231f20"/>
    <path id="Path_391" data-name="Path 391" d="M236.528,1893.91c.227-.06.295-.57.152-1.16s-.443-1.01-.671-.95-.295.57-.152,1.16S236.3,1893.97,236.528,1893.91Z" transform="translate(5252 977)" fill="#231f20"/>
    <path id="Path_392" data-name="Path 392" d="M254.446,1907.62s-11.631,1.38-15.885,8-6.292,30.92-8.463,32.68-8.066,11.12-7.942,11.56,34.223,8.67,34.223,8.67,1.4-7.84,4.36-18.09S264.26,1907.62,254.446,1907.62Z" transform="translate(5252 977)" fill="#30c684"/>
    <path id="Path_393" data-name="Path 393" d="M245.63,1918.09c-.247.37-11.922,22.38-11.922,22.38l-15.417-17.67-8.093,6.78s13.793,23.09,22.592,25.31,26.475-30.03,25.963-33.41S249.09,1913.13,245.63,1918.09Z" transform="translate(5252 977)" fill="#30c684"/>
    <path id="Path_394" data-name="Path 394" d="M233.708,1940.91a.392.392,0,0,1-.184-.04.485.485,0,0,1-.152-.11l-6.795-7.78a.448.448,0,0,1-.126-.31.431.431,0,0,1,.126-.31.443.443,0,0,1,.627,0l6.38,7.3,10.272-19.31a.55.55,0,0,1,.111-.14.719.719,0,0,1,.153-.08.5.5,0,0,1,.172-.01.321.321,0,0,1,.164.05.4.4,0,0,1,.133.11.547.547,0,0,1,.08.15.479.479,0,0,1,.015.18.452.452,0,0,1-.051.16c-.141.26-10.59,19.88-10.59,19.88a.471.471,0,0,1-.141.15.451.451,0,0,1-.194.07Z" transform="translate(5252 977)" fill="#231f20"/>
    <path id="Path_395" data-name="Path 395" d="M232.71,1954.97a9.9,9.9,0,0,1-1.332-.09c-6.178-.88-12.62-11.88-12.893-12.36a.448.448,0,0,1-.075-.17.42.42,0,0,1,0-.18.446.446,0,0,1,.074-.17.412.412,0,0,1,.136-.12.521.521,0,0,1,.174-.06.379.379,0,0,1,.182.02.472.472,0,0,1,.159.09.4.4,0,0,1,.108.15c.071.1,6.513,11.12,12.258,11.91s11.8-4.15,17.906-14.71a.468.468,0,0,1,.272-.21.444.444,0,0,1,.337.05.384.384,0,0,1,.13.11.51.51,0,0,1,.077.15.5.5,0,0,1,.01.18.47.47,0,0,1-.058.16C244.324,1949.86,238.456,1954.97,232.71,1954.97Z" transform="translate(5252 977)" fill="#231f20"/>
    <path id="Path_396" data-name="Path 396" d="M241.2,1979.04a.424.424,0,0,1-.219-.06.359.359,0,0,1-.16-.16c-4.289-7.14-.989-10.39-.883-10.52a.42.42,0,0,1,.147-.09.429.429,0,0,1,.339.01.424.424,0,0,1,.141.1.393.393,0,0,1,.092.15.429.429,0,0,1,.029.17.477.477,0,0,1-.039.17.485.485,0,0,1-.1.14c-.123.11-2.894,2.93,1,9.42a.471.471,0,0,1,.058.16.476.476,0,0,1-.01.18.53.53,0,0,1-.076.15.4.4,0,0,1-.131.11A.321.321,0,0,1,241.2,1979.04Z" transform="translate(5252 977)" fill="#fff"/>
    <path id="Path_397" data-name="Path 397" d="M392.09,2000.65a9.712,9.712,0,0,0-1.1-5.21,40.393,40.393,0,0,1-2.339-3.3c-.988-2.12-.291-4.6-.52-6.92a8.635,8.635,0,0,0-2.436-5.17c-1.209-1.23-2.78-2.07-3.936-3.35-1.9-2.1-2.445-5.05-3.53-7.67a19.283,19.283,0,0,0-7.6-8.95c2.074,4.17-2.648,9.48-.512,13.61.679,1.32,1.977,2.27,2.471,3.67,1.2,3.35-2.8,6.98-1.518,10.31.635,1.66,2.418,2.65,3.239,4.21,1.12,2.12.247,4.7.335,7.07.124,3.31,2.136,6.27,4.527,8.56,1.492,1.43,3.151,2.65,4.757,3.95,1.924,1.55,2.736,3.16,4.412.69a21.309,21.309,0,0,0,3.751-11.5Z" transform="translate(5252 977)" fill="#231f20"/>
    <path id="Path_398" data-name="Path 398" d="M394.235,2002.54c-.618-2.56-1.059-5.3,0-7.76,1.173-2.73,4.112-4.66,4.456-7.62.23-1.94-.75-3.9-.37-5.81s1.95-3.23,3.238-4.63a19.388,19.388,0,0,0,4.995-11.84,29.613,29.613,0,0,1,4.757,7.87c1.015,2.91,1.032,6.34-.688,8.89a7.85,7.85,0,0,0-1.209,1.97c-.583,1.89,1.032,3.65,1.862,5.44a6.183,6.183,0,0,1-.583,6.41c-1.694,2.12-4.951,2.94-5.789,5.52a12.659,12.659,0,0,0-.282,2.91,8.582,8.582,0,0,1-6.178,7.35c-2,.49-1.959-.31-2.321-2C395.647,2006.98,394.782,2004.8,394.235,2002.54Z" transform="translate(5252 977)" fill="#231f20"/>
    <path id="Path_399" data-name="Path 399" d="M387.872,1984.12c-1.421-4.93-1.995-10.06-3.486-14.96a82.6,82.6,0,0,0-4.651-11.16l6.1,2.57c1.951.83,4.069,1.77,4.995,3.72,1.6,3.33-1.279,7.6.406,10.88a25.19,25.19,0,0,0,2.418,3.04c1.765,2.53,1.518,6,.53,8.93-.424,1.27-2.268,7.79-3.919,5.98-.662-.72-.723-3.43-1-4.41C388.834,1987.16,388.313,1985.63,387.872,1984.12Z" transform="translate(5252 977)" fill="#231f20"/>
    <path id="Path_400" data-name="Path 400" d="M391.287,2049.48c-1.209-8.04-5.021-36.39-5.057-36.68l.883-.11c0,.28,3.847,28.62,5.056,36.66Z" transform="translate(5252 977)" fill="#231f20"/>
    <path id="Path_401" data-name="Path 401" d="M392.549,2057.09h-.882c.07-10.18,4.209-46.2,6.318-48.51l.653.6C396.82,2011.17,392.628,2046.13,392.549,2057.09Z" transform="translate(5252 977)" fill="#231f20"/>
    <path id="Path_402" data-name="Path 402" d="M394.614,2055.27l-.883-.05c.883-20.59-3.45-63.85-3.53-64.28l.883-.09C391.155,1991.3,395.532,2034.61,394.614,2055.27Z" transform="translate(5252 977)" fill="#231f20"/>
    <path id="Path_403" data-name="Path 403" d="M380.75,2030.11h22.7l-1.589,22.97a7.58,7.58,0,0,1-7.563,7.06h-4.412a7.582,7.582,0,0,1-7.563-7.06Z" transform="translate(5252 977)" fill="#fff"/>
    <path id="Path_404" data-name="Path 404" d="M394.3,2060.64h-4.412a8.083,8.083,0,0,1-8.022-7.5l-1.589-22.97a.433.433,0,0,1,.026-.18.361.361,0,0,1,.1-.15.355.355,0,0,1,.152-.11.388.388,0,0,1,.183-.04h22.7a.388.388,0,0,1,.183.04.355.355,0,0,1,.152.11.459.459,0,0,1,.124.33l-1.589,22.97a8.073,8.073,0,0,1-8,7.5Zm-13.061-30.04,1.553,22.52a7.162,7.162,0,0,0,7.113,6.65h4.413a7.166,7.166,0,0,0,7.113-6.65l1.553-22.52Z" transform="translate(5252 977)" fill="#231f20"/>
    <path id="Path_405" data-name="Path 405" d="M391.057,1877.66H308.72a6.955,6.955,0,0,0-6.945,6.96v18.55a6.955,6.955,0,0,0,6.945,6.95h63.2v14.56c0-.66,5.4-9.37,8.622-14.53h10.519a6.939,6.939,0,0,0,6.946-6.95v-18.55a6.947,6.947,0,0,0-6.955-6.99Z" transform="translate(5252 977)" fill="#fff"/>
    <path id="Path_406" data-name="Path 406" d="M371.925,1925.13a.426.426,0,0,1-.316-.14.449.449,0,0,1-.125-.32h0v-14.12H308.72a7.406,7.406,0,0,1-7.395-7.37v-18.55a7.4,7.4,0,0,1,7.386-7.39h82.338a7.4,7.4,0,0,1,7.386,7.39v18.55a7.39,7.39,0,0,1-7.377,7.37H380.75c-7.519,12-8.357,13.85-8.428,14.13a.452.452,0,0,1-.022.17.415.415,0,0,1-.083.14.388.388,0,0,1-.132.1.3.3,0,0,1-.16.04Zm-63.2-47.02a6.506,6.506,0,0,0-6.513,6.51v18.55a6.528,6.528,0,0,0,6.513,6.5h63.2a.414.414,0,0,1,.312.13.425.425,0,0,1,.129.31v12.64c1.015-1.77,3.177-5.44,7.81-12.84a.426.426,0,0,1,.158-.16.4.4,0,0,1,.213-.06h10.519a6.516,6.516,0,0,0,6.5-6.51v-18.55a6.516,6.516,0,0,0-6.5-6.51Z" transform="translate(5252 977)" fill="#d1d3d4"/>
    <path id="Path_407" data-name="Path 407" d="M317.739,1902a8.35,8.35,0,1,0-8.339-8.35A8.346,8.346,0,0,0,317.739,1902Z" transform="translate(5252 977)" fill="#fff"/>
    <path id="Path_408" data-name="Path 408" d="M317.739,1902.44a8.828,8.828,0,1,1,6.191-2.59,8.865,8.865,0,0,1-6.191,2.59Zm0-16.69a7.944,7.944,0,1,0,5.567,2.33A7.924,7.924,0,0,0,317.739,1885.75Z" transform="translate(5252 977)" fill="#d1d3d4"/>
    <path id="Path_409" data-name="Path 409" d="M390.378,1887.09H332.866a.452.452,0,0,1-.312-.13.444.444,0,0,1-.13-.31.468.468,0,0,1,.13-.32.444.444,0,0,1,.312-.12h57.512a.445.445,0,0,1,.312.12.467.467,0,0,1,.129.32.443.443,0,0,1-.129.31A.454.454,0,0,1,390.378,1887.09Z" transform="translate(5252 977)" fill="#d1d3d4"/>
    <path id="Path_410" data-name="Path 410" d="M390.378,1893.22H332.866a.452.452,0,0,1-.312-.13.444.444,0,0,1-.13-.31.427.427,0,0,1,.13-.31.413.413,0,0,1,.312-.13h57.512a.414.414,0,0,1,.312.13.426.426,0,0,1,.129.31.443.443,0,0,1-.129.31A.454.454,0,0,1,390.378,1893.22Z" transform="translate(5252 977)" fill="#d1d3d4"/>
    <path id="Path_411" data-name="Path 411" d="M379.135,1899.34H332.866a.452.452,0,0,1-.312-.13.435.435,0,0,1,0-.62.413.413,0,0,1,.312-.13h46.269a.414.414,0,0,1,.312.13.437.437,0,0,1,0,.62A.454.454,0,0,1,379.135,1899.34Z" transform="translate(5252 977)" fill="#d1d3d4"/>
    <path id="Path_412" data-name="Path 412" d="M208.089,1938.07h-2.718c0-3.53-.177-8.44-.177-8.44l-5.242,8.44h-23.06a4.058,4.058,0,0,0-4.041,4.04v13.78a4.061,4.061,0,0,0,.307,1.55,4.112,4.112,0,0,0,.877,1.31,4.059,4.059,0,0,0,1.311.87,3.921,3.921,0,0,0,1.546.31h31.214a3.923,3.923,0,0,0,1.547-.31,4.028,4.028,0,0,0,2.495-3.73v-13.78a4.047,4.047,0,0,0-.312-1.55,4.025,4.025,0,0,0-2.2-2.18,3.941,3.941,0,0,0-1.55-.31Z" transform="translate(5252 977)" fill="#fff"/>
    <path id="Path_413" data-name="Path 413" d="M208.089,1960.38h-31.2a4.495,4.495,0,0,1-4.474-4.49v-13.78a4.495,4.495,0,0,1,4.474-4.48h22.813l5.11-8.24a.423.423,0,0,1,.217-.17.44.44,0,0,1,.277-.02.431.431,0,0,1,.23.15.477.477,0,0,1,.1.26s.141,4.6.167,8.02h2.286a4.505,4.505,0,0,1,4.483,4.48v13.78a4.5,4.5,0,0,1-4.483,4.49Zm-31.2-21.86a3.592,3.592,0,0,0-3.591,3.59v13.78a3.615,3.615,0,0,0,1.051,2.55,3.658,3.658,0,0,0,2.54,1.06h31.223a3.611,3.611,0,0,0,3.6-3.61v-13.78a3.6,3.6,0,0,0-3.6-3.59H205.4a.455.455,0,0,1-.312-.13.467.467,0,0,1-.129-.32c0-2.27-.088-5.22-.132-6.96l-4.466,7.2a.368.368,0,0,1-.164.15.413.413,0,0,1-.215.06Z" transform="translate(5252 977)" fill="#d1d3d4"/>
    <path id="Path_414" data-name="Path 414" d="M182.249,1954.75A5.75,5.75,0,1,0,176.5,1949,5.745,5.745,0,0,0,182.249,1954.75Z" transform="translate(5252 977)" fill="#fff"/>
    <path id="Path_415" data-name="Path 415" d="M182.249,1955.19a6.18,6.18,0,0,1-4.368-10.55,6.075,6.075,0,0,1,3.163-1.69,6.179,6.179,0,1,1,1.2,12.24Zm0-11.48a5.3,5.3,0,1,0,2.026,10.2,5.323,5.323,0,0,0,2.871-6.93,5.268,5.268,0,0,0-2.867-2.88,5.244,5.244,0,0,0-2.03-.41Z" transform="translate(5252 977)" fill="#d1d3d4"/>
    <path id="Path_416" data-name="Path 416" d="M207.55,1946.49H191.5a.413.413,0,0,1-.312-.13.435.435,0,0,1,0-.62.453.453,0,0,1,.312-.13H207.55a.453.453,0,0,1,.312.13.435.435,0,0,1,0,.62A.413.413,0,0,1,207.55,1946.49Z" transform="translate(5252 977)" fill="#d1d3d4"/>
    <path id="Path_417" data-name="Path 417" d="M204.109,1952H191.5a.458.458,0,0,1-.31-.14.432.432,0,0,1,0-.62.453.453,0,0,1,.312-.13h12.611a.455.455,0,0,1,.312.13.447.447,0,0,1,.129.31.471.471,0,0,1-.129.32A.455.455,0,0,1,204.109,1952Z" transform="translate(5252 977)" fill="#d1d3d4"/>
  </g>
</svg>
