<svg xmlns="http://www.w3.org/2000/svg" width="212.197" height="198.23" viewBox="0 0 212.197 198.23">
  <g id="Group_15" data-name="Group 15" transform="translate(-5142.388 -2236.18)">
    <path id="Path_769" data-name="Path 769" d="M380.75,1453.82s-5-10.01-5.3-16.41-4.721-40.39-8.331-51.8-18.056-27.04-31.664-36.42c-2.983-2.04-16.67-9.71-16.67-9.71l-2.224,40.3s19.724,23.36,20.836,33.37-4.7,27.79-.883,34.45c6.742,11.87,2.753,5.92,10.837,17.66Z" transform="translate(4956 955)" fill="#fff"/>
    <path id="Path_770" data-name="Path 770" d="M347.365,1465.72a.386.386,0,0,1-.206-.06.4.4,0,0,1-.156-.14l-1.553-2.31c-3.989-5.81-3.989-5.81-5.427-8.47-.706-1.3-1.765-3.27-3.839-6.93-2.268-4-1.262-11.48-.186-19.43.742-5.44,1.5-11.07,1.042-15.22-1.086-9.76-20.536-32.9-20.73-33.13a.512.512,0,0,1-.106-.31l2.224-40.31a.4.4,0,0,1,.068-.21.352.352,0,0,1,.161-.15.4.4,0,0,1,.424,0c.565.31,13.749,7.72,16.706,9.71,12.54,8.63,27.957,24.41,31.831,36.65,3.645,11.48,8.066,45.29,8.358,51.91.273,6.23,5.18,16.13,5.233,16.23a.45.45,0,0,1,.039.18.386.386,0,0,1-.039.18.394.394,0,0,1-.1.16.368.368,0,0,1-.162.1l-33.4,11.48a.381.381,0,0,1-.176.07Zm-30.314-86.1c1.765,2.11,19.742,23.72,20.827,33.47.468,4.25-.3,9.93-1.05,15.43-1.006,7.44-2.048,15.12.079,18.87s3.142,5.63,3.848,6.94c1.412,2.65,1.412,2.65,5.383,8.38l1.4,2.04,32.609-11.2c-.989-2.05-4.854-10.41-5.1-16.13-.282-6.4-4.766-40.49-8.313-51.67-3.354-10.6-16.891-26.15-31.5-36.22-2.559-1.77-13.308-7.83-16.008-9.36Z" transform="translate(4956 955)" fill="#231f20"/>
    <path id="Path_771" data-name="Path 771" d="M204.25,1453.82s5-10.01,5.295-16.41,4.721-40.39,8.331-51.8,18.056-27.04,31.664-36.42c2.983-2.04,16.67-9.71,16.67-9.71l2.224,40.3s-19.724,23.36-20.836,33.37,4.7,27.79.883,34.45c-6.742,11.87-2.754,5.92-10.837,17.66Z" transform="translate(4956 955)" fill="#fff"/>
    <path id="Path_772" data-name="Path 772" d="M237.635,1465.72h-.141l-33.4-11.49a.451.451,0,0,1-.265-.25.461.461,0,0,1-.039-.19.45.45,0,0,1,.039-.18c.053-.09,4.96-10,5.234-16.22.291-6.63,4.712-40.41,8.357-51.92,3.874-12.24,19.291-28.02,31.832-36.65,2.956-2.03,16.14-9.43,16.705-9.71a.4.4,0,0,1,.424,0,.352.352,0,0,1,.161.15.4.4,0,0,1,.068.21l2.224,40.31a.471.471,0,0,1-.106.31c-.194.23-19.644,23.37-20.73,33.13-.458,4.15.3,9.78,1.042,15.22,1.076,7.95,2.082,15.41-.186,19.43-2.073,3.66-3.132,5.63-3.838,6.93-1.439,2.65-1.439,2.65-5.428,8.47l-1.6,2.31a.38.38,0,0,1-.161.11.626.626,0,0,1-.192.03Zm-32.785-12.18,32.608,11.2,1.4-2.04c3.971-5.76,3.971-5.76,5.383-8.38.706-1.31,1.765-3.29,3.847-6.94s1.086-11.43.08-18.87c-.75-5.5-1.518-11.18-1.05-15.43,1.085-9.72,19.053-31.36,20.827-33.47l-2.18-39.43c-2.7,1.52-13.449,7.6-16.009,9.36-14.6,10.05-28.143,25.62-31.5,36.22-3.53,11.18-8.031,45.27-8.313,51.67C209.7,1443.13,205.838,1451.49,204.85,1453.54Z" transform="translate(4956 955)" fill="#231f20"/>
    <path id="Path_773" data-name="Path 773" d="M324.323,1281.62H260.668a4.649,4.649,0,0,0-4.65,4.65v136.27a4.649,4.649,0,0,0,4.65,4.65h63.655a4.649,4.649,0,0,0,4.651-4.65V1286.27A4.649,4.649,0,0,0,324.323,1281.62Z" transform="translate(4956 955)" fill="#fff"/>
    <path id="Path_774" data-name="Path 774" d="M324.332,1427.63H260.668a5.094,5.094,0,0,1-5.092-5.09V1286.27a5.094,5.094,0,0,1,5.092-5.09h63.664a5.094,5.094,0,0,1,5.092,5.09v136.27a5.094,5.094,0,0,1-5.092,5.09Zm-63.664-145.57a4.225,4.225,0,0,0-4.209,4.21v136.27a4.225,4.225,0,0,0,4.209,4.21h63.664a4.225,4.225,0,0,0,4.209-4.21V1286.27a4.225,4.225,0,0,0-4.209-4.21Z" transform="translate(4956 955)" fill="#231f20"/>
    <path id="Path_775" data-name="Path 775" d="M325.144,1294.79h-65.3v112.03h65.3Z" transform="translate(4956 955)" fill="#fff"/>
    <path id="Path_776" data-name="Path 776" d="M325.152,1407.27H259.847a.458.458,0,0,1-.309-.14.445.445,0,0,1-.132-.31v-112a.471.471,0,0,1,.129-.32.445.445,0,0,1,.312-.12h65.305a.446.446,0,0,1,.313.12.471.471,0,0,1,.129.32v112a.445.445,0,0,1-.132.31A.458.458,0,0,1,325.152,1407.27Zm-64.863-.89h64.422V1295.23H260.289Z" transform="translate(4956 955)" fill="#231f20"/>
    <path id="Path_777" data-name="Path 777" d="M298.7,1412.26H286.287a2.868,2.868,0,0,0-2.859,2.87v4.75a2.859,2.859,0,0,0,2.859,2.86H298.7a2.859,2.859,0,0,0,2.859-2.86v-4.75A2.868,2.868,0,0,0,298.7,1412.26Z" transform="translate(4956 955)" fill="#fff"/>
    <path id="Path_778" data-name="Path 778" d="M298.678,1423.19H286.323a3.31,3.31,0,0,1-3.3-3.3v-4.75a3.308,3.308,0,0,1,.966-2.34,3.352,3.352,0,0,1,2.335-.98h12.355a3.351,3.351,0,0,1,2.334.98,3.308,3.308,0,0,1,.966,2.34v4.75a3.31,3.31,0,0,1-3.3,3.3Zm-12.355-10.48a2.421,2.421,0,0,0-2.419,2.43v4.75a2.363,2.363,0,0,0,.185.92,2.413,2.413,0,0,0,.524.79,2.452,2.452,0,0,0,.784.52,2.278,2.278,0,0,0,.926.19h12.355a2.274,2.274,0,0,0,.925-.19,2.386,2.386,0,0,0,1.309-1.31,2.38,2.38,0,0,0,.184-.92v-4.75a2.421,2.421,0,0,0-2.418-2.43Z" transform="translate(4956 955)" fill="#e6e7e8"/>
    <path id="Path_779" data-name="Path 779" d="M299.092,1288.37H280.5a.452.452,0,0,1-.31-.13.478.478,0,0,1-.131-.31.466.466,0,0,1,.129-.32.455.455,0,0,1,.312-.13h18.594a.455.455,0,0,1,.312.13.466.466,0,0,1,.129.32.443.443,0,0,1-.129.31A.455.455,0,0,1,299.092,1288.37Z" transform="translate(4956 955)" fill="#e6e7e8"/>
    <path id="Path_780" data-name="Path 780" d="M304.193,1288.37H301.7a.455.455,0,0,1-.312-.13.447.447,0,0,1-.129-.31.471.471,0,0,1,.129-.32.455.455,0,0,1,.312-.13h2.489a.455.455,0,0,1,.312.13.466.466,0,0,1,.129.32.443.443,0,0,1-.129.31A.455.455,0,0,1,304.193,1288.37Z" transform="translate(4956 955)" fill="#e6e7e8"/>
    <path id="Path_781" data-name="Path 781" d="M325.152,1301.56H259.847a.458.458,0,0,1-.309-.14.445.445,0,0,1-.132-.31.466.466,0,0,1,.129-.31.454.454,0,0,1,.312-.13h65.305a.455.455,0,0,1,.313.13.466.466,0,0,1,.129.31.445.445,0,0,1-.132.31A.458.458,0,0,1,325.152,1301.56Z" transform="translate(4956 955)" fill="#231f20"/>
    <path id="Path_782" data-name="Path 782" d="M322.275,1306.1h-29.9a1.654,1.654,0,0,0-1.161.51,1.675,1.675,0,0,0-.48,1.17v6.61a1.7,1.7,0,0,0,1.685,1.69h26.131a1.7,1.7,0,0,0,1.686-1.69v-6.18Z" transform="translate(4956 955)" fill="#e6e7e8"/>
    <path id="Path_783" data-name="Path 783" d="M266.387,1338.83h29.9a1.7,1.7,0,0,1,1.685,1.69v10.28a1.69,1.69,0,0,1-.126.65,1.767,1.767,0,0,1-.365.55,1.693,1.693,0,0,1-.548.36,1.6,1.6,0,0,1-.646.13H270.155a1.68,1.68,0,0,1-1.686-1.69v-9.88Z" transform="translate(4956 955)" fill="#e6e7e8"/>
    <path id="Path_784" data-name="Path 784" d="M266.387,1372.01h34.567a1.692,1.692,0,0,1,1.677,1.69v14.25a1.675,1.675,0,0,1-1.677,1.68h-30.8a1.685,1.685,0,0,1-1.686-1.68V1374.1Z" transform="translate(4956 955)" fill="#e6e7e8"/>
    <path id="Path_785" data-name="Path 785" d="M322.276,1356.69h-29.9a1.7,1.7,0,0,0-1.175.53,1.677,1.677,0,0,0-.466,1.2v6.6a1.68,1.68,0,0,0,1.686,1.68h26.13a1.779,1.779,0,0,0,.647-.12,1.732,1.732,0,0,0,.548-.37,1.687,1.687,0,0,0,.491-1.19v-6.19Z" transform="translate(4956 955)" fill="#e6e7e8"/>
    <path id="Path_786" data-name="Path 786" d="M317.863,1318.39H285.722a2.334,2.334,0,0,0-2.329,2.33v10.91a2.336,2.336,0,0,0,2.329,2.34h32.141a2.336,2.336,0,0,0,2.33-2.34v-10.91A2.334,2.334,0,0,0,317.863,1318.39Z" transform="translate(4956 955)" fill="#e6e7e8"/>
    <path id="Path_787" data-name="Path 787" d="M317.81,1395.33H267.19a3.665,3.665,0,0,0,0,7.33h50.62a3.665,3.665,0,0,0,0-7.33Z" transform="translate(4956 955)" fill="#fff"/>
    <path id="Path_788" data-name="Path 788" d="M317.81,1403.1H267.19a4.1,4.1,0,1,1,0-8.21h50.62a4.1,4.1,0,1,1,0,8.21Zm-50.62-7.33a3.231,3.231,0,0,0-3.221,3.23,3.214,3.214,0,0,0,3.221,3.22h50.62a3.222,3.222,0,0,0,2.278-5.5,3.2,3.2,0,0,0-2.278-.95Z" transform="translate(4956 955)" fill="#e6e7e8"/>
    <path id="Path_789" data-name="Path 789" d="M242.03,1458.87s14.42-11.89,15.532-25.52-1.112-27.73.556-30.79,13.29-19.74,15.85-24.19c3.335-5.84-1.668-11.12-5.295-8.89s-17.774,10.28-25.275,21.13a53.346,53.346,0,0,0-8.331,13.06" transform="translate(4956 955)" fill="#fff"/>
    <path id="Path_790" data-name="Path 790" d="M242.03,1459.31a.431.431,0,0,1-.191-.05.377.377,0,0,1-.153-.12.431.431,0,0,1-.1-.32.482.482,0,0,1,.158-.3c.142-.11,14.3-11.93,15.374-25.21a159.587,159.587,0,0,0,.088-18.89c-.23-6.04-.388-10.4.52-12.08.812-1.48,3.936-6.13,7.237-11.04,3.583-5.3,7.3-10.85,8.6-13.15,1.765-3.15,1.015-6.1-.564-7.63a3.275,3.275,0,0,0-4.1-.67l-.962.59c-4.73,2.86-17.288,10.45-24.18,20.41a54.224,54.224,0,0,0-8.3,13.01.449.449,0,0,1-.247.22.482.482,0,0,1-.335,0,.5.5,0,0,1-.229-.26.46.46,0,0,1,.008-.34,54.449,54.449,0,0,1,8.419-13.18c6.954-10.07,19.627-17.73,24.4-20.61l.962-.59a4.174,4.174,0,0,1,5.171.78c1.827,1.77,2.754,5.14.724,8.71-1.324,2.33-5.048,7.85-8.64,13.21-3.291,4.89-6.4,9.52-7.192,10.97s-.626,5.94-.415,11.61a161.4,161.4,0,0,1-.088,19.01c-1.112,13.65-15.55,25.7-15.691,25.81a.427.427,0,0,1-.282.11Z" transform="translate(4956 955)" fill="#231f20"/>
    <path id="Path_791" data-name="Path 791" d="M245.666,1479.38a31.032,31.032,0,0,0,.785-6.02c0-2.57-2.647-6.24-2.647-6.24l1.606-8.25s-41.478-16.19-43.146-13.97-5,13.97-5,13.97-5.295,3.14-6.946,6.4c-.962,1.88-2.647,8.69-3.927,14.14Z" transform="translate(4956 955)" fill="#30c684"/>
    <path id="Path_792" data-name="Path 792" d="M342.97,1458.87s-14.42-11.89-15.532-25.52,1.112-27.73-.556-30.79-13.29-19.74-15.849-24.19c-3.336-5.84,1.667-11.12,5.3-8.89s17.773,10.28,25.274,21.13a53.345,53.345,0,0,1,8.331,13.06" transform="translate(4956 955)" fill="#fff"/>
    <path id="Path_793" data-name="Path 793" d="M342.97,1459.31a.427.427,0,0,1-.282-.11c-.141-.11-14.579-12.16-15.691-25.81a161.4,161.4,0,0,1-.088-19.01c.212-5.67.379-10.14-.415-11.61s-3.9-6.08-7.192-10.97c-3.592-5.36-7.316-10.88-8.64-13.21-2.03-3.53-1.1-6.94.724-8.71a4.174,4.174,0,0,1,5.171-.78l.962.59c4.774,2.88,17.447,10.54,24.445,20.67a54.319,54.319,0,0,1,8.375,13.11.458.458,0,0,1,.008.34.45.45,0,0,1-.229.25.483.483,0,0,1-.335.01.508.508,0,0,1-.247-.23,53.948,53.948,0,0,0-8.251-12.95c-6.937-10.02-19.495-17.61-24.225-20.47l-.962-.59a3.276,3.276,0,0,0-4.1.67c-1.579,1.53-2.365,4.48-.564,7.63,1.306,2.3,5.021,7.82,8.6,13.16,3.3,4.91,6.425,9.55,7.237,11.04.882,1.68.75,6.03.52,12.07a159.746,159.746,0,0,0,.088,18.9c1.077,13.25,15.232,25.09,15.374,25.21a.435.435,0,0,1,.158.29.469.469,0,0,1-.1.33.645.645,0,0,1-.151.13.429.429,0,0,1-.193.05Z" transform="translate(4956 955)" fill="#231f20"/>
    <path id="Path_794" data-name="Path 794" d="M239.55,1470.74h-.132l-37.771-11.44a.326.326,0,0,1-.155-.08.372.372,0,0,1-.112-.13.432.432,0,0,1-.051-.16.461.461,0,0,1,.018-.18.425.425,0,0,1,.218-.25.444.444,0,0,1,.338-.04l37.771,11.43a.73.73,0,0,1,.152.08.419.419,0,0,1,.111.14.414.414,0,0,1,.052.16.429.429,0,0,1-.015.17.477.477,0,0,1-.165.22.472.472,0,0,1-.259.08Z" transform="translate(4956 955)" fill="#231f20"/>
    <path id="Path_795" data-name="Path 795" d="M339.334,1479.38h59.251c-1.271-5.42-2.965-12.23-3.927-14.13-1.668-3.27-6.945-6.41-6.945-6.41s-3.336-11.74-5-13.96-43.145,13.96-43.145,13.96l1.606,8.25s-2.648,3.68-2.648,6.24a30.935,30.935,0,0,0,.812,6.05Z" transform="translate(4956 955)" fill="#30c684"/>
    <path id="Path_796" data-name="Path 796" d="M380.75,1460,346.7,1470.31Z" transform="translate(4956 955)" fill="#fff"/>
    <path id="Path_797" data-name="Path 797" d="M346.721,1470.74a.424.424,0,0,1-.264-.09.474.474,0,0,1-.16-.23.427.427,0,0,1,.037-.33.406.406,0,0,1,.263-.21l34.047-10.31a.426.426,0,0,1,.348.04.461.461,0,0,1,.217.28.436.436,0,0,1-.042.34.441.441,0,0,1-.276.22l-34.047,10.31Z" transform="translate(4956 955)" fill="#231f20"/>
    <path id="Path_798" data-name="Path 798" d="M265.222,1304.2h-58.2a6.61,6.61,0,0,0-6.61,6.61v26.65a6.612,6.612,0,0,0,6.61,6.62h58.2a6.613,6.613,0,0,0,6.61-6.62v-26.65A6.611,6.611,0,0,0,265.222,1304.2Z" transform="translate(4956 955)" fill="#30c684"/>
    <path id="Path_799" data-name="Path 799" d="M218.873,1335.03a12.49,12.49,0,1,0-12.478-12.49A12.483,12.483,0,0,0,218.873,1335.03Z" transform="translate(4956 955)" fill="#fff"/>
    <path id="Path_800" data-name="Path 800" d="M213.71,1315.88a12.285,12.285,0,0,0,.627,5.07,3.331,3.331,0,0,0,.715,1.29,2.9,2.9,0,0,0,1.509.65,14.391,14.391,0,0,0,2.7.26,3.962,3.962,0,0,0,2.648-.7c.882-.74.785-1.67,1.182-2.65.309-.75,1.139-.99,1.43-1.81a3.012,3.012,0,0,0,.1-1.32,5.581,5.581,0,0,0-1.385-3.23,5.425,5.425,0,0,0-1.845-1.13,5.544,5.544,0,0,0-2.135-.33c-1.36,0-2.851-.35-2.992,1.35a1.614,1.614,0,0,0-1.447.29,3.453,3.453,0,0,0-1.1,2.26Z" transform="translate(4956 955)" fill="#fff"/>
    <path id="Path_801" data-name="Path 801" d="M219.367,1323.61h-.114a15.251,15.251,0,0,1-2.78-.28,3.221,3.221,0,0,1-1.765-.77,3.529,3.529,0,0,1-.83-1.46,12.723,12.723,0,0,1-.644-5.3,3.855,3.855,0,0,1,1.271-2.56,2.256,2.256,0,0,1,1.35-.45c.371-1.41,1.765-1.36,2.824-1.3h.556a5.8,5.8,0,0,1,4.333,1.58,6.042,6.042,0,0,1,1.5,3.53,3.442,3.442,0,0,1-.114,1.52,2.838,2.838,0,0,1-.883,1.14,2,2,0,0,0-.565.68,6.97,6.97,0,0,0-.256.88,3.24,3.24,0,0,1-1.059,1.98,4.382,4.382,0,0,1-2.824.81Zm-5.2-7.66a11.555,11.555,0,0,0,.6,4.85,2.836,2.836,0,0,0,.6,1.11,2.385,2.385,0,0,0,1.27.53,13.849,13.849,0,0,0,2.648.26,3.727,3.727,0,0,0,2.383-.61,2.34,2.34,0,0,0,.75-1.48,7.166,7.166,0,0,1,.3-1,2.606,2.606,0,0,1,.8-1.01,1.911,1.911,0,0,0,.618-.78,2.513,2.513,0,0,0,.079-1.11,5.155,5.155,0,0,0-1.262-2.98,5.226,5.226,0,0,0-3.706-1.25h-.592c-1.376-.06-1.871,0-1.95.95a.433.433,0,0,1-.057.19.468.468,0,0,1-.137.15.441.441,0,0,1-.188.08.453.453,0,0,1-.2-.02,1.388,1.388,0,0,0-.537-.02,1.243,1.243,0,0,0-.487.23,2.941,2.941,0,0,0-.936,1.97Z" transform="translate(4956 955)" fill="#231f20"/>
    <path id="Path_802" data-name="Path 802" d="M217.946,1338.36l-1.765-12.96,6.178.83,2.189,12.13,5.295-.48c-.142-6.25-2.418-11.54-4.042-12.76-1.951-1.44-9.443-1.21-9.443-1.21s-5.966,2.54-7.51,5.39c-.671,1.24-1.077,4.72-.883,9.06Z" transform="translate(4956 955)" fill="#30c684"/>
    <path id="Path_803" data-name="Path 803" d="M222.385,1322.55l.609,3.36a2.955,2.955,0,0,1-3.044,1.91,4.52,4.52,0,0,1-1.844-.68,4.46,4.46,0,0,1-1.378-1.41l-.635-6.18s1.536-1.03.68-4.51a10.843,10.843,0,0,0,5.762.19s1.395,3.71,1.306,5.43a1.848,1.848,0,0,1-.386,1.21,1.813,1.813,0,0,1-1.07.68Z" transform="translate(4956 955)" fill="#fff"/>
    <path id="Path_804" data-name="Path 804" d="M220.347,1328.3a3.512,3.512,0,0,1-.459,0,4.834,4.834,0,0,1-2.032-.78,4.981,4.981,0,0,1-1.5-1.58.4.4,0,0,1-.044-.17l-.636-6.18a.446.446,0,0,1,.2-.42s1.236-.96.486-4.03a.466.466,0,0,1,.01-.24.418.418,0,0,1,.131-.2.446.446,0,0,1,.217-.11.4.4,0,0,1,.242.02,10.575,10.575,0,0,0,5.5.17.5.5,0,0,1,.317.04.461.461,0,0,1,.212.24c.062.16,1.43,3.82,1.342,5.62a2.384,2.384,0,0,1-.369,1.31,2.323,2.323,0,0,1-1.026.9l.539,2.97a.571.571,0,0,1,0,.24,3.423,3.423,0,0,1-1.224,1.59,3.346,3.346,0,0,1-1.909.61Zm-3.177-2.76a4,4,0,0,0,2.841,1.83,2.443,2.443,0,0,0,2.507-1.51l-.618-3.23a.5.5,0,0,1,.079-.35.46.46,0,0,1,.3-.18,1.382,1.382,0,0,0,.817-.54,1.416,1.416,0,0,0,.26-.95,18.017,18.017,0,0,0-1.147-4.88,11.6,11.6,0,0,1-4.872-.08c.406,2.44-.388,3.62-.8,4.05Z" transform="translate(4956 955)" fill="#231f20"/>
    <path id="Path_805" data-name="Path 805" d="M219.914,1317.59s1.227,1.77.945,2.13-1.1.11-1.1.11" transform="translate(4956 955)" fill="#fff"/>
    <path id="Path_806" data-name="Path 806" d="M220.285,1320.34a3.381,3.381,0,0,1-.635-.08.46.46,0,0,1-.155-.08.361.361,0,0,1-.116-.12.491.491,0,0,1-.057-.16.414.414,0,0,1,.01-.17.425.425,0,0,1,.2-.27.477.477,0,0,1,.33-.06,1.84,1.84,0,0,0,.574,0,8.272,8.272,0,0,0-.883-1.61.439.439,0,0,1-.068-.16.419.419,0,0,1,0-.17.514.514,0,0,1,.065-.16.528.528,0,0,1,.121-.12.789.789,0,0,1,.159-.07.508.508,0,0,1,.174,0,.336.336,0,0,1,.161.07.392.392,0,0,1,.124.12c1.421,2.09,1.05,2.5.882,2.65a1.282,1.282,0,0,1-.4.28,1.328,1.328,0,0,1-.481.11Z" transform="translate(4956 955)" fill="#231f20"/>
    <path id="Path_807" data-name="Path 807" d="M218.767,1317.76c.117,0,.205-.23.2-.5s-.11-.49-.227-.49-.205.23-.2.5S218.651,1317.77,218.767,1317.76Z" transform="translate(4956 955)" fill="#231f20"/>
    <path id="Path_808" data-name="Path 808" d="M221.611,1317.58c.117-.01.205-.23.2-.5s-.109-.49-.226-.49-.2.23-.2.5S221.494,1317.58,221.611,1317.58Z" transform="translate(4956 955)" fill="#231f20"/>
    <path id="Path_809" data-name="Path 809" d="M217.417,1318.47a3.139,3.139,0,0,0-.882-.78,1.01,1.01,0,0,0-.583-.19.9.9,0,0,0-.468.19,1.689,1.689,0,0,0-.5.55,1.837,1.837,0,0,0-.234.71,1.414,1.414,0,0,0,.1.69,1.539,1.539,0,0,0,.759.75,3.835,3.835,0,0,0,1.041.33" transform="translate(4956 955)" fill="#fff"/>
    <path id="Path_810" data-name="Path 810" d="M216.693,1321.18h-.106a4.183,4.183,0,0,1-1.138-.37,1.985,1.985,0,0,1-.98-.98,1.814,1.814,0,0,1-.123-.88,2.257,2.257,0,0,1,.882-1.59,1.252,1.252,0,0,1,1.553,0,3.469,3.469,0,0,1,.962.88.547.547,0,0,1,.074.16.474.474,0,0,1,.006.18.41.41,0,0,1-.061.16.323.323,0,0,1-.12.13.488.488,0,0,1-.16.08.525.525,0,0,1-.177,0,.488.488,0,0,1-.165-.06.422.422,0,0,1-.129-.12,2.826,2.826,0,0,0-.706-.66.615.615,0,0,0-.318-.12.475.475,0,0,0-.229.1,1.331,1.331,0,0,0-.539.94,1.013,1.013,0,0,0,.053.47,1.16,1.16,0,0,0,.547.52,5.139,5.139,0,0,0,.945.3.456.456,0,0,1,.227.19.462.462,0,0,1-.067.56.451.451,0,0,1-.266.13Z" transform="translate(4956 955)" fill="#231f20"/>
    <path id="Path_811" data-name="Path 811" d="M221.962,1320.8l-2.974.3a1.771,1.771,0,0,0,.6.56,1.7,1.7,0,0,0,.794.21,2.507,2.507,0,0,0,1.58-1.07Z" transform="translate(4956 955)" fill="#231f20"/>
    <path id="Path_812" data-name="Path 812" d="M264.807,1316.94H235.861a.414.414,0,0,1-.312-.13.426.426,0,0,1-.129-.31.443.443,0,0,1,.129-.31.455.455,0,0,1,.312-.13h28.946a.454.454,0,0,1,.312.13.443.443,0,0,1,.129.31.426.426,0,0,1-.129.31A.414.414,0,0,1,264.807,1316.94Z" transform="translate(4956 955)" fill="#fff"/>
    <path id="Path_813" data-name="Path 813" d="M264.807,1324.58H235.861a.454.454,0,0,1-.312-.13.466.466,0,0,1-.129-.32.462.462,0,0,1,.129-.31.455.455,0,0,1,.312-.13h28.946a.455.455,0,0,1,.312.13.461.461,0,0,1,.129.31.466.466,0,0,1-.129.32A.454.454,0,0,1,264.807,1324.58Z" transform="translate(4956 955)" fill="#fff"/>
    <path id="Path_814" data-name="Path 814" d="M257.879,1332.22H235.817a.454.454,0,0,1-.312-.13.461.461,0,0,1-.129-.31.467.467,0,0,1,.129-.32.455.455,0,0,1,.312-.13h22.062a.451.451,0,0,1,.312.13.468.468,0,0,1,.13.32.462.462,0,0,1-.13.31A.45.45,0,0,1,257.879,1332.22Z" transform="translate(4956 955)" fill="#fff"/>
    <path id="Path_815" data-name="Path 815" d="M265.222,1344.08s13.635.2,13.432,0-10.785-9.72-10.785-9.72Z" transform="translate(4956 955)" fill="#30c684"/>
    <path id="Path_816" data-name="Path 816" d="M318.693,1327.08h58.2a6.61,6.61,0,0,0,6.61-6.61v-26.65a6.612,6.612,0,0,0-6.61-6.62h-58.2a6.612,6.612,0,0,0-6.61,6.62v26.65A6.61,6.61,0,0,0,318.693,1327.08Z" transform="translate(4956 955)" fill="#30c684"/>
    <path id="Path_817" data-name="Path 817" d="M331.127,1318.03a12.49,12.49,0,1,0-12.479-12.49A12.482,12.482,0,0,0,331.127,1318.03Z" transform="translate(4956 955)" fill="#fff"/>
    <path id="Path_818" data-name="Path 818" d="M377.061,1299.94H348.1a.455.455,0,0,1-.313-.13.437.437,0,0,1,0-.62.415.415,0,0,1,.313-.13h28.945a.415.415,0,0,1,.313.13.437.437,0,0,1,0,.62.455.455,0,0,1-.313.13Z" transform="translate(4956 955)" fill="#fff"/>
    <path id="Path_819" data-name="Path 819" d="M377.061,1307.58H348.1a.455.455,0,0,1-.313-.13.437.437,0,0,1,0-.62.415.415,0,0,1,.313-.13h28.945a.415.415,0,0,1,.313.13.43.43,0,0,1,.129.31.473.473,0,0,1-.123.31A.426.426,0,0,1,377.061,1307.58Z" transform="translate(4956 955)" fill="#fff"/>
    <path id="Path_820" data-name="Path 820" d="M370.16,1315.22H348.1a.414.414,0,0,1-.312-.13.437.437,0,0,1,0-.62.414.414,0,0,1,.312-.13H370.16a.414.414,0,0,1,.312.13.437.437,0,0,1,0,.62A.414.414,0,0,1,370.16,1315.22Z" transform="translate(4956 955)" fill="#fff"/>
    <path id="Path_821" data-name="Path 821" d="M318.692,1327.08s-13.625.2-13.431,0,10.784-9.72,10.784-9.72Z" transform="translate(4956 955)" fill="#30c684"/>
    <path id="Path_822" data-name="Path 822" d="M328.683,1295.26h.335a6.888,6.888,0,0,1,1.527.51,3.038,3.038,0,0,1,1.379-.39,3.1,3.1,0,0,1,1.409.27c2.957,1.06,7.943,7.43,5.119,10.6a3.986,3.986,0,0,1-2.374.93,32.6,32.6,0,0,1-7.448.4,6.211,6.211,0,0,1-2.648-.59c-2.444-1.33-1.006-6.59-.079-8.62a10.509,10.509,0,0,1,1.588-2.65,2.006,2.006,0,0,1,1.192-.46Z" transform="translate(4956 955)" fill="#fff"/>
    <path id="Path_823" data-name="Path 823" d="M330.624,1308.07a19.513,19.513,0,0,1-2.021-.07,6.726,6.726,0,0,1-2.789-.64c-2.691-1.47-1.323-6.79-.247-9.14a10.011,10.011,0,0,1,1.659-2.74,2.422,2.422,0,0,1,1.439-.62h.379a7.246,7.246,0,0,1,1.509.46,3.66,3.66,0,0,1,2.948,0c2.162.78,5.295,4.11,6.054,7.25a4.153,4.153,0,0,1-.777,3.96,4.37,4.37,0,0,1-2.647,1.14,32.765,32.765,0,0,1-5.507.4Zm-1.871-12.37a1.6,1.6,0,0,0-.953.38,9.747,9.747,0,0,0-1.5,2.51c-1.042,2.27-2.145,6.98-.1,8.1a5.867,5.867,0,0,0,2.479.49,31.3,31.3,0,0,0,7.361-.39,3.57,3.57,0,0,0,2.17-.88,3.289,3.289,0,0,0,.592-3.21c-.706-2.86-3.61-6-5.542-6.69a2.853,2.853,0,0,0-1.222-.24,2.969,2.969,0,0,0-1.2.31.409.409,0,0,1-.486,0,9.915,9.915,0,0,0-1.3-.42h-.265Z" transform="translate(4956 955)" fill="#231f20"/>
    <path id="Path_824" data-name="Path 824" d="M326.856,1318.76c.362-3.92.635-8.84.635-8.93l5.463.22-.388,8.71,10.528-1.86a29.064,29.064,0,0,0-3.212-5.41c-2.463-3.31-7.855-3.33-8-3.33.141,0,2.577,0-4.412-.4-7.563-.44-9.814,8.58-9.814,8.58l1.077.56Z" transform="translate(4956 955)" fill="#30c684"/>
    <path id="Path_825" data-name="Path 825" d="M328.268,1306.74l-.618,3.39a1.761,1.761,0,0,0,.16.78,1.791,1.791,0,0,0,.483.63,1.731,1.731,0,0,0,.709.35,1.638,1.638,0,0,0,.793.01,4.384,4.384,0,0,0,3.238-1.89l.689-4.2a44.251,44.251,0,0,0,.767-4.77c-1.641.53-3.662-1.54-4.174-2.88a2.518,2.518,0,0,0,.521,2.42,3.064,3.064,0,0,1-1.2-.77,3.122,3.122,0,0,1-.729-1.23,10.472,10.472,0,0,0-1.359,1.22,5.83,5.83,0,0,0-.821,1.68,5.38,5.38,0,0,0-.061,3.64,3.012,3.012,0,0,0,1.606,1.62Z" transform="translate(4956 955)" fill="#fff"/>
    <path id="Path_826" data-name="Path 826" d="M329.565,1312.35a2.276,2.276,0,0,1-1.615-.57,2.433,2.433,0,0,1-.679-1.66c0-.05.414-2.29.573-3.14a3.819,3.819,0,0,1-1.509-1.63c-.662-1.28-.2-3.18,0-3.94a6.142,6.142,0,0,1,.883-1.77s1.306-1.45,1.765-1.38a.39.39,0,0,1,.2.09.411.411,0,0,1,.121.19,2.515,2.515,0,0,0,.556.99,2.878,2.878,0,0,1,.088-1.42.409.409,0,0,1,.141-.2.384.384,0,0,1,.23-.08.393.393,0,0,1,.235.07.461.461,0,0,1,.153.19c.442,1.17,2.3,3.1,3.672,2.65a.419.419,0,0,1,.193-.01.4.4,0,0,1,.177.08.368.368,0,0,1,.12.14.432.432,0,0,1,.039.19,24.77,24.77,0,0,1-.494,3.32c-.1.51-.194,1-.274,1.5l-.7,4.19a.4.4,0,0,1-.053.15,4.751,4.751,0,0,1-3.53,2.08Zm-1.491-2.15a1.6,1.6,0,0,0,.432.99,1.576,1.576,0,0,0,.608.31,1.738,1.738,0,0,0,.681.04,4.018,4.018,0,0,0,1.619-.5,3.853,3.853,0,0,0,1.257-1.14l.68-4.11c.088-.5.185-1.01.282-1.51.177-.89.353-1.81.442-2.71a4.5,4.5,0,0,1-3.327-1.93,2.069,2.069,0,0,0,.414.72.4.4,0,0,1,.086.25.375.375,0,0,1-.086.24.386.386,0,0,1-.2.17.4.4,0,0,1-.263,0,3.616,3.616,0,0,1-1.977-1.77c-.335.3-.777.73-.883.82a5.641,5.641,0,0,0-.75,1.55,4.828,4.828,0,0,0-.088,3.34,2.7,2.7,0,0,0,1.359,1.38.348.348,0,0,1,.231.17.385.385,0,0,1,.051.28c0,.07-.6,3.26-.617,3.4Z" transform="translate(4956 955)" fill="#231f20"/>
    <path id="Path_827" data-name="Path 827" d="M333.589,1303.42a1.187,1.187,0,0,1,.512-.57,2.357,2.357,0,0,1,.688-.22.89.89,0,0,1,.4,0,.639.639,0,0,1,.247.15.856.856,0,0,1,.361.53,1.1,1.1,0,0,1-.061.53,1.905,1.905,0,0,1-.23.53,1.467,1.467,0,0,1-.882.65,1.521,1.521,0,0,1-1.121-.2" transform="translate(4956 955)" fill="#fff"/>
    <path id="Path_828" data-name="Path 828" d="M334.269,1305.42a1.85,1.85,0,0,1-1-.3.479.479,0,0,1-.114-.1.288.288,0,0,1-.067-.13.322.322,0,0,1-.008-.14.353.353,0,0,1,.052-.14.289.289,0,0,1,.1-.1.346.346,0,0,1,.136-.06.36.36,0,0,1,.146.01.32.32,0,0,1,.131.06,1.031,1.031,0,0,0,.408.17,1.083,1.083,0,0,0,.439-.01,1.163,1.163,0,0,0,.4-.17,1.274,1.274,0,0,0,.3-.32,1.447,1.447,0,0,0,.194-.45.731.731,0,0,0,.053-.36.537.537,0,0,0-.238-.32.215.215,0,0,0-.123-.07.483.483,0,0,0-.239,0,1.7,1.7,0,0,0-.582.17.921.921,0,0,0-.362.41.34.34,0,0,1-.069.13.313.313,0,0,1-.118.09.253.253,0,0,1-.145.04.369.369,0,0,1-.146-.03.477.477,0,0,1-.122-.08.457.457,0,0,1-.075-.13.351.351,0,0,1-.016-.15.319.319,0,0,1,.047-.14,1.562,1.562,0,0,1,.662-.75,2.263,2.263,0,0,1,.8-.25,1.048,1.048,0,0,1,.556,0,1.216,1.216,0,0,1,.362.19,1.344,1.344,0,0,1,.5.75,1.491,1.491,0,0,1-.08.7,2.216,2.216,0,0,1-.265.62,1.95,1.95,0,0,1-.656.64,1.809,1.809,0,0,1-.879.24Z" transform="translate(4956 955)" fill="#231f20"/>
    <path id="Path_829" data-name="Path 829" d="M329.283,1301.67s-1.421,1.39-1.218,1.77.962.28.962.28" transform="translate(4956 955)" fill="#fff"/>
    <path id="Path_830" data-name="Path 830" d="M328.921,1304.07a1.45,1.45,0,0,1-.653-.09,1.592,1.592,0,0,1-.538-.38c-.106-.18-.371-.6,1.279-2.21a.359.359,0,0,1,.127-.09.395.395,0,0,1,.3,0,.35.35,0,0,1,.127.09.384.384,0,0,1,.114.28.419.419,0,0,1-.114.28,6.553,6.553,0,0,0-1.085,1.27,1.624,1.624,0,0,0,.538.06.382.382,0,0,1,.242.13.405.405,0,0,1,.1.26.387.387,0,0,1-.1.26.45.45,0,0,1-.242.14Z" transform="translate(4956 955)" fill="#231f20"/>
    <path id="Path_831" data-name="Path 831" d="M331.339,1302.24a.288.288,0,1,0-.407.23A.34.34,0,0,0,331.339,1302.24Z" transform="translate(4956 955)" fill="#231f20"/>
    <path id="Path_832" data-name="Path 832" d="M328.335,1301.71a.289.289,0,1,0-.408.23C328.064,1302.01,328.247,1301.9,328.335,1301.71Z" transform="translate(4956 955)" fill="#231f20"/>
    <path id="Path_833" data-name="Path 833" d="M327.8,1304.34l2.445.15a1.063,1.063,0,0,1-.4.84,1.154,1.154,0,0,1-.431.21.973.973,0,0,1-.479,0,1.261,1.261,0,0,1-.795-.38A1.276,1.276,0,0,1,327.8,1304.34Z" transform="translate(4956 955)" fill="#231f20"/>
  </g>
</svg>
